<svg width="161" height="164" viewBox="0 0 161 164" fill="none" xmlns="http://www.w3.org/2000/svg">
<g id="Bamboo 257">
<g id="Bamboo">
<g id="Vector">
<mask id="path-1-outside-1_656_572" maskUnits="userSpaceOnUse" x="33.1855" y="19.6077" width="95" height="125" fill="black">
<rect fill="white" x="33.1855" y="19.6077" width="95" height="125"/>
<path d="M126.638 57.7611C126.547 57.5938 126.424 57.4467 126.277 57.3282C126.13 57.2096 125.961 57.1221 125.78 57.0707C121.701 55.9083 116.913 56.6217 112.643 59.0278C110.078 60.4492 107.864 62.447 106.169 64.8698L106.135 64.7137C104.839 58.7562 104.839 56.5054 106.135 50.5479L107.107 46.0821C107.153 45.8714 107.152 45.653 107.103 45.4428C107.055 45.2327 106.962 45.0362 106.829 44.868C106.696 44.6997 106.528 44.5639 106.337 44.4706C106.146 44.3773 105.937 44.3288 105.725 44.3288H88.116C87.9041 44.3288 87.695 44.3772 87.504 44.4706C87.313 44.5639 87.145 44.6997 87.0124 44.868C86.8798 45.0362 86.786 45.2327 86.7379 45.4428C86.6898 45.653 86.6886 45.8714 86.7344 46.0821L87.7059 50.5479C89.0019 56.5054 89.0019 58.7562 87.7059 64.7137L86.7344 69.1795C86.7293 69.2028 86.7271 69.2264 86.7231 69.2499C86.7187 69.2768 86.7132 69.3034 86.7102 69.3305C86.7073 69.3576 86.7068 69.3842 86.7053 69.4111C86.7039 69.438 86.7014 69.4645 86.7014 69.4914C86.7014 69.5183 86.7038 69.545 86.7053 69.5718C86.7068 69.5985 86.7073 69.6255 86.7102 69.6523C86.7132 69.6792 86.7187 69.7061 86.7231 69.7329C86.7271 69.7564 86.7294 69.78 86.7344 69.8034L87.7059 74.2692C89.002 80.2267 89.002 82.4773 87.7059 88.4349L86.9801 91.7711H74.3538L73.6281 88.4349C72.3317 82.4773 72.3317 80.2267 73.6281 74.2692L74.5996 69.8034C74.6046 69.7801 74.6069 69.7565 74.6108 69.7329C74.6153 69.7061 74.6207 69.6794 74.6237 69.6523C74.6267 69.6252 74.6272 69.5986 74.6286 69.5718C74.6301 69.5449 74.6325 69.5183 74.6325 69.4914C74.6325 69.4645 74.6301 69.4379 74.6286 69.4111C74.6272 69.3843 74.6267 69.3574 74.6237 69.3305C74.6208 69.3037 74.6153 69.2768 74.6108 69.2499C74.6069 69.2265 74.6045 69.2029 74.5996 69.1795L73.6281 64.7137C72.3319 58.7562 72.3319 56.5054 73.6281 50.5479L74.5996 46.0821C74.6046 46.0587 74.6069 46.0352 74.6108 46.0116C74.6153 45.9848 74.6207 45.9582 74.6237 45.9311C74.6267 45.904 74.6272 45.8773 74.6286 45.8505C74.6301 45.8236 74.6325 45.797 74.6325 45.7701C74.6325 45.7432 74.6301 45.7166 74.6286 45.6898C74.6272 45.663 74.6267 45.6361 74.6237 45.6092C74.6208 45.5823 74.6153 45.5555 74.6108 45.5286C74.6069 45.5052 74.6045 45.4816 74.5996 45.4581L73.6281 40.9924C72.3317 35.0349 72.3317 32.7842 73.6281 26.8267L74.5996 22.3609C74.6454 22.1503 74.6442 21.9318 74.5961 21.7217C74.548 21.5115 74.4541 21.3151 74.3215 21.1468C74.1889 20.9785 74.0209 20.8427 73.8299 20.7494C73.6389 20.6561 73.4298 20.6077 73.218 20.6077H55.6086C55.3968 20.6077 55.1876 20.6561 54.9966 20.7494C54.8056 20.8427 54.6376 20.9785 54.505 21.1468C54.3724 21.3151 54.2786 21.5115 54.2305 21.7217C54.1824 21.9318 54.1812 22.1503 54.227 22.3609L55.1985 26.8267C56.4947 32.7842 56.4947 35.0349 55.1985 40.9924L55.1442 41.2419C53.4224 38.601 51.0921 36.4296 48.3566 34.9175C44.0871 32.5114 39.2986 31.7984 35.2195 32.9606C35.0388 33.012 34.87 33.0996 34.7228 33.2181C34.5757 33.3366 34.4531 33.4838 34.3623 33.651C34.2715 33.8182 34.2143 34.0022 34.1939 34.1921C34.1735 34.3821 34.1905 34.5743 34.2437 34.7575C35.4452 38.8952 38.5829 42.6477 42.8525 45.0534C45.6356 46.6554 48.7705 47.5162 51.967 47.5561C52.8158 47.5545 53.6631 47.4816 54.5001 47.3379L55.1984 50.5478C56.4945 56.5053 56.4945 58.7561 55.1984 64.7136L54.227 69.1794C54.2219 69.2028 54.2197 69.2263 54.2157 69.2499C54.2112 69.2767 54.2058 69.3034 54.2028 69.3305C54.1998 69.3576 54.1993 69.3841 54.1979 69.411C54.1964 69.4379 54.194 69.4645 54.194 69.4914C54.194 69.5183 54.1964 69.5449 54.1979 69.5717C54.1993 69.5985 54.1999 69.6254 54.2028 69.6523C54.2058 69.6792 54.2112 69.706 54.2157 69.7329C54.2197 69.7563 54.222 69.7799 54.227 69.8033L55.1984 74.2691C56.4946 80.2266 56.4946 82.4772 55.1984 88.4348L54.3253 92.4483C46.9755 97.7317 42.9372 104.727 42.9372 112.217C42.9372 120.034 47.3132 127.286 55.2588 132.638C55.8207 133.009 56.2273 133.58 56.3998 134.239C56.5723 134.898 56.4984 135.599 56.1925 136.206L53.5997 141.286C53.4876 141.505 53.4329 141.751 53.441 141.998C53.449 142.246 53.5196 142.487 53.6457 142.699C53.7719 142.91 53.9495 143.085 54.1613 143.207C54.3732 143.328 54.6122 143.392 54.8553 143.392H106.71C106.953 143.392 107.192 143.328 107.404 143.207C107.616 143.085 107.793 142.91 107.919 142.699C108.046 142.487 108.116 142.246 108.124 141.998C108.132 141.751 108.077 141.505 107.965 141.286L105.373 136.206C105.067 135.599 104.993 134.898 105.165 134.239C105.338 133.579 105.745 133.009 106.306 132.638C114.252 127.286 118.628 120.033 118.628 112.217C118.628 104.635 114.489 97.5606 106.967 92.2552L106.135 88.4345C104.839 82.477 104.839 80.2264 106.135 74.2688L106.74 71.4891C107.499 71.6059 108.266 71.6652 109.033 71.6663C112.23 71.6261 115.364 70.7653 118.147 69.1635C122.417 66.7577 125.555 63.005 126.756 58.8675C126.81 58.6843 126.826 58.4921 126.806 58.3022C126.786 58.1122 126.728 57.9283 126.638 57.7611ZM90.4692 49.924L89.8791 47.2116H103.963L103.372 49.924C101.994 56.2623 101.994 58.9992 103.372 65.3375L103.963 68.0499H89.8789L90.469 65.3375C91.8478 58.9992 91.8479 56.2623 90.4692 49.924ZM90.4692 73.6452L89.8791 70.9327H103.963L103.372 73.6452C101.994 79.9832 101.994 82.7203 103.372 89.0583L103.963 91.7708H89.8789L90.469 89.0583C91.8478 82.7203 91.8479 79.9832 90.4692 73.6452ZM57.9618 73.6452L57.3717 70.9327H71.4552L70.8651 73.6452C69.4862 79.9832 69.4862 82.7203 70.8651 89.0583L71.4552 91.7708H57.3716L57.9616 89.0583C59.3405 82.7203 59.3406 79.9832 57.9618 73.6452ZM57.9618 49.924L57.3717 47.2116H71.4552L70.8651 49.924C69.4862 56.2623 69.4862 58.9992 70.8651 65.3375L71.4552 68.0499H57.3716L57.9616 65.3375C59.3405 58.9992 59.3406 56.2623 57.9618 49.924ZM57.9618 26.2031L57.3717 23.4906H71.4552L70.8651 26.2031C69.4862 32.5412 69.4862 35.2782 70.8651 41.6163L71.4552 44.3288H57.3716L57.9616 41.6163C59.3405 35.2782 59.3406 32.5412 57.9618 26.2031ZM44.2226 42.5307C41.1276 40.787 38.7448 38.2489 37.4964 35.4169C40.5143 34.9877 43.8917 35.6963 46.9868 37.4402C50.0817 39.1837 52.4646 41.7221 53.713 44.5543C50.6942 44.9824 47.3172 44.2746 44.2226 42.5307ZM115.798 112.217C115.798 119.034 111.873 125.432 104.746 130.233C103.599 130.996 102.772 132.166 102.424 133.515C102.076 134.864 102.232 136.297 102.862 137.536L104.379 140.509H57.1859L58.7035 137.536C59.3335 136.297 59.4896 134.864 59.1415 133.515C58.7935 132.166 57.9661 130.996 56.8197 130.233C49.6925 125.433 45.7673 119.034 45.7673 112.217C45.7673 105.624 49.4557 99.4013 56.1653 94.6538H105.4C112.109 99.4012 115.798 105.624 115.798 112.217ZM116.778 66.6412C113.682 68.3849 110.306 69.0934 107.287 68.6644C108.535 65.8322 110.918 63.2941 114.013 61.5502C117.108 59.8063 120.485 59.0982 123.504 59.527C122.255 62.359 119.872 64.8971 116.778 66.6412Z"/>
</mask>
<path d="M126.638 57.7611C126.547 57.5938 126.424 57.4467 126.277 57.3282C126.13 57.2096 125.961 57.1221 125.78 57.0707C121.701 55.9083 116.913 56.6217 112.643 59.0278C110.078 60.4492 107.864 62.447 106.169 64.8698L106.135 64.7137C104.839 58.7562 104.839 56.5054 106.135 50.5479L107.107 46.0821C107.153 45.8714 107.152 45.653 107.103 45.4428C107.055 45.2327 106.962 45.0362 106.829 44.868C106.696 44.6997 106.528 44.5639 106.337 44.4706C106.146 44.3773 105.937 44.3288 105.725 44.3288H88.116C87.9041 44.3288 87.695 44.3772 87.504 44.4706C87.313 44.5639 87.145 44.6997 87.0124 44.868C86.8798 45.0362 86.786 45.2327 86.7379 45.4428C86.6898 45.653 86.6886 45.8714 86.7344 46.0821L87.7059 50.5479C89.0019 56.5054 89.0019 58.7562 87.7059 64.7137L86.7344 69.1795C86.7293 69.2028 86.7271 69.2264 86.7231 69.2499C86.7187 69.2768 86.7132 69.3034 86.7102 69.3305C86.7073 69.3576 86.7068 69.3842 86.7053 69.4111C86.7039 69.438 86.7014 69.4645 86.7014 69.4914C86.7014 69.5183 86.7038 69.545 86.7053 69.5718C86.7068 69.5985 86.7073 69.6255 86.7102 69.6523C86.7132 69.6792 86.7187 69.7061 86.7231 69.7329C86.7271 69.7564 86.7294 69.78 86.7344 69.8034L87.7059 74.2692C89.002 80.2267 89.002 82.4773 87.7059 88.4349L86.9801 91.7711H74.3538L73.6281 88.4349C72.3317 82.4773 72.3317 80.2267 73.6281 74.2692L74.5996 69.8034C74.6046 69.7801 74.6069 69.7565 74.6108 69.7329C74.6153 69.7061 74.6207 69.6794 74.6237 69.6523C74.6267 69.6252 74.6272 69.5986 74.6286 69.5718C74.6301 69.5449 74.6325 69.5183 74.6325 69.4914C74.6325 69.4645 74.6301 69.4379 74.6286 69.4111C74.6272 69.3843 74.6267 69.3574 74.6237 69.3305C74.6208 69.3037 74.6153 69.2768 74.6108 69.2499C74.6069 69.2265 74.6045 69.2029 74.5996 69.1795L73.6281 64.7137C72.3319 58.7562 72.3319 56.5054 73.6281 50.5479L74.5996 46.0821C74.6046 46.0587 74.6069 46.0352 74.6108 46.0116C74.6153 45.9848 74.6207 45.9582 74.6237 45.9311C74.6267 45.904 74.6272 45.8773 74.6286 45.8505C74.6301 45.8236 74.6325 45.797 74.6325 45.7701C74.6325 45.7432 74.6301 45.7166 74.6286 45.6898C74.6272 45.663 74.6267 45.6361 74.6237 45.6092C74.6208 45.5823 74.6153 45.5555 74.6108 45.5286C74.6069 45.5052 74.6045 45.4816 74.5996 45.4581L73.6281 40.9924C72.3317 35.0349 72.3317 32.7842 73.6281 26.8267L74.5996 22.3609C74.6454 22.1503 74.6442 21.9318 74.5961 21.7217C74.548 21.5115 74.4541 21.3151 74.3215 21.1468C74.1889 20.9785 74.0209 20.8427 73.8299 20.7494C73.6389 20.6561 73.4298 20.6077 73.218 20.6077H55.6086C55.3968 20.6077 55.1876 20.6561 54.9966 20.7494C54.8056 20.8427 54.6376 20.9785 54.505 21.1468C54.3724 21.3151 54.2786 21.5115 54.2305 21.7217C54.1824 21.9318 54.1812 22.1503 54.227 22.3609L55.1985 26.8267C56.4947 32.7842 56.4947 35.0349 55.1985 40.9924L55.1442 41.2419C53.4224 38.601 51.0921 36.4296 48.3566 34.9175C44.0871 32.5114 39.2986 31.7984 35.2195 32.9606C35.0388 33.012 34.87 33.0996 34.7228 33.2181C34.5757 33.3366 34.4531 33.4838 34.3623 33.651C34.2715 33.8182 34.2143 34.0022 34.1939 34.1921C34.1735 34.3821 34.1905 34.5743 34.2437 34.7575C35.4452 38.8952 38.5829 42.6477 42.8525 45.0534C45.6356 46.6554 48.7705 47.5162 51.967 47.5561C52.8158 47.5545 53.6631 47.4816 54.5001 47.3379L55.1984 50.5478C56.4945 56.5053 56.4945 58.7561 55.1984 64.7136L54.227 69.1794C54.2219 69.2028 54.2197 69.2263 54.2157 69.2499C54.2112 69.2767 54.2058 69.3034 54.2028 69.3305C54.1998 69.3576 54.1993 69.3841 54.1979 69.411C54.1964 69.4379 54.194 69.4645 54.194 69.4914C54.194 69.5183 54.1964 69.5449 54.1979 69.5717C54.1993 69.5985 54.1999 69.6254 54.2028 69.6523C54.2058 69.6792 54.2112 69.706 54.2157 69.7329C54.2197 69.7563 54.222 69.7799 54.227 69.8033L55.1984 74.2691C56.4946 80.2266 56.4946 82.4772 55.1984 88.4348L54.3253 92.4483C46.9755 97.7317 42.9372 104.727 42.9372 112.217C42.9372 120.034 47.3132 127.286 55.2588 132.638C55.8207 133.009 56.2273 133.58 56.3998 134.239C56.5723 134.898 56.4984 135.599 56.1925 136.206L53.5997 141.286C53.4876 141.505 53.4329 141.751 53.441 141.998C53.449 142.246 53.5196 142.487 53.6457 142.699C53.7719 142.91 53.9495 143.085 54.1613 143.207C54.3732 143.328 54.6122 143.392 54.8553 143.392H106.71C106.953 143.392 107.192 143.328 107.404 143.207C107.616 143.085 107.793 142.91 107.919 142.699C108.046 142.487 108.116 142.246 108.124 141.998C108.132 141.751 108.077 141.505 107.965 141.286L105.373 136.206C105.067 135.599 104.993 134.898 105.165 134.239C105.338 133.579 105.745 133.009 106.306 132.638C114.252 127.286 118.628 120.033 118.628 112.217C118.628 104.635 114.489 97.5606 106.967 92.2552L106.135 88.4345C104.839 82.477 104.839 80.2264 106.135 74.2688L106.74 71.4891C107.499 71.6059 108.266 71.6652 109.033 71.6663C112.23 71.6261 115.364 70.7653 118.147 69.1635C122.417 66.7577 125.555 63.005 126.756 58.8675C126.81 58.6843 126.826 58.4921 126.806 58.3022C126.786 58.1122 126.728 57.9283 126.638 57.7611ZM90.4692 49.924L89.8791 47.2116H103.963L103.372 49.924C101.994 56.2623 101.994 58.9992 103.372 65.3375L103.963 68.0499H89.8789L90.469 65.3375C91.8478 58.9992 91.8479 56.2623 90.4692 49.924ZM90.4692 73.6452L89.8791 70.9327H103.963L103.372 73.6452C101.994 79.9832 101.994 82.7203 103.372 89.0583L103.963 91.7708H89.8789L90.469 89.0583C91.8478 82.7203 91.8479 79.9832 90.4692 73.6452ZM57.9618 73.6452L57.3717 70.9327H71.4552L70.8651 73.6452C69.4862 79.9832 69.4862 82.7203 70.8651 89.0583L71.4552 91.7708H57.3716L57.9616 89.0583C59.3405 82.7203 59.3406 79.9832 57.9618 73.6452ZM57.9618 49.924L57.3717 47.2116H71.4552L70.8651 49.924C69.4862 56.2623 69.4862 58.9992 70.8651 65.3375L71.4552 68.0499H57.3716L57.9616 65.3375C59.3405 58.9992 59.3406 56.2623 57.9618 49.924ZM57.9618 26.2031L57.3717 23.4906H71.4552L70.8651 26.2031C69.4862 32.5412 69.4862 35.2782 70.8651 41.6163L71.4552 44.3288H57.3716L57.9616 41.6163C59.3405 35.2782 59.3406 32.5412 57.9618 26.2031ZM44.2226 42.5307C41.1276 40.787 38.7448 38.2489 37.4964 35.4169C40.5143 34.9877 43.8917 35.6963 46.9868 37.4402C50.0817 39.1837 52.4646 41.7221 53.713 44.5543C50.6942 44.9824 47.3172 44.2746 44.2226 42.5307ZM115.798 112.217C115.798 119.034 111.873 125.432 104.746 130.233C103.599 130.996 102.772 132.166 102.424 133.515C102.076 134.864 102.232 136.297 102.862 137.536L104.379 140.509H57.1859L58.7035 137.536C59.3335 136.297 59.4896 134.864 59.1415 133.515C58.7935 132.166 57.9661 130.996 56.8197 130.233C49.6925 125.433 45.7673 119.034 45.7673 112.217C45.7673 105.624 49.4557 99.4013 56.1653 94.6538H105.4C112.109 99.4012 115.798 105.624 115.798 112.217ZM116.778 66.6412C113.682 68.3849 110.306 69.0934 107.287 68.6644C108.535 65.8322 110.918 63.2941 114.013 61.5502C117.108 59.8063 120.485 59.0982 123.504 59.527C122.255 62.359 119.872 64.8971 116.778 66.6412Z" fill="#285A43"/>
<path d="M126.638 57.7611C126.547 57.5938 126.424 57.4467 126.277 57.3282C126.13 57.2096 125.961 57.1221 125.78 57.0707C121.701 55.9083 116.913 56.6217 112.643 59.0278C110.078 60.4492 107.864 62.447 106.169 64.8698L106.135 64.7137C104.839 58.7562 104.839 56.5054 106.135 50.5479L107.107 46.0821C107.153 45.8714 107.152 45.653 107.103 45.4428C107.055 45.2327 106.962 45.0362 106.829 44.868C106.696 44.6997 106.528 44.5639 106.337 44.4706C106.146 44.3773 105.937 44.3288 105.725 44.3288H88.116C87.9041 44.3288 87.695 44.3772 87.504 44.4706C87.313 44.5639 87.145 44.6997 87.0124 44.868C86.8798 45.0362 86.786 45.2327 86.7379 45.4428C86.6898 45.653 86.6886 45.8714 86.7344 46.0821L87.7059 50.5479C89.0019 56.5054 89.0019 58.7562 87.7059 64.7137L86.7344 69.1795C86.7293 69.2028 86.7271 69.2264 86.7231 69.2499C86.7187 69.2768 86.7132 69.3034 86.7102 69.3305C86.7073 69.3576 86.7068 69.3842 86.7053 69.4111C86.7039 69.438 86.7014 69.4645 86.7014 69.4914C86.7014 69.5183 86.7038 69.545 86.7053 69.5718C86.7068 69.5985 86.7073 69.6255 86.7102 69.6523C86.7132 69.6792 86.7187 69.7061 86.7231 69.7329C86.7271 69.7564 86.7294 69.78 86.7344 69.8034L87.7059 74.2692C89.002 80.2267 89.002 82.4773 87.7059 88.4349L86.9801 91.7711H74.3538L73.6281 88.4349C72.3317 82.4773 72.3317 80.2267 73.6281 74.2692L74.5996 69.8034C74.6046 69.7801 74.6069 69.7565 74.6108 69.7329C74.6153 69.7061 74.6207 69.6794 74.6237 69.6523C74.6267 69.6252 74.6272 69.5986 74.6286 69.5718C74.6301 69.5449 74.6325 69.5183 74.6325 69.4914C74.6325 69.4645 74.6301 69.4379 74.6286 69.4111C74.6272 69.3843 74.6267 69.3574 74.6237 69.3305C74.6208 69.3037 74.6153 69.2768 74.6108 69.2499C74.6069 69.2265 74.6045 69.2029 74.5996 69.1795L73.6281 64.7137C72.3319 58.7562 72.3319 56.5054 73.6281 50.5479L74.5996 46.0821C74.6046 46.0587 74.6069 46.0352 74.6108 46.0116C74.6153 45.9848 74.6207 45.9582 74.6237 45.9311C74.6267 45.904 74.6272 45.8773 74.6286 45.8505C74.6301 45.8236 74.6325 45.797 74.6325 45.7701C74.6325 45.7432 74.6301 45.7166 74.6286 45.6898C74.6272 45.663 74.6267 45.6361 74.6237 45.6092C74.6208 45.5823 74.6153 45.5555 74.6108 45.5286C74.6069 45.5052 74.6045 45.4816 74.5996 45.4581L73.6281 40.9924C72.3317 35.0349 72.3317 32.7842 73.6281 26.8267L74.5996 22.3609C74.6454 22.1503 74.6442 21.9318 74.5961 21.7217C74.548 21.5115 74.4541 21.3151 74.3215 21.1468C74.1889 20.9785 74.0209 20.8427 73.8299 20.7494C73.6389 20.6561 73.4298 20.6077 73.218 20.6077H55.6086C55.3968 20.6077 55.1876 20.6561 54.9966 20.7494C54.8056 20.8427 54.6376 20.9785 54.505 21.1468C54.3724 21.3151 54.2786 21.5115 54.2305 21.7217C54.1824 21.9318 54.1812 22.1503 54.227 22.3609L55.1985 26.8267C56.4947 32.7842 56.4947 35.0349 55.1985 40.9924L55.1442 41.2419C53.4224 38.601 51.0921 36.4296 48.3566 34.9175C44.0871 32.5114 39.2986 31.7984 35.2195 32.9606C35.0388 33.012 34.87 33.0996 34.7228 33.2181C34.5757 33.3366 34.4531 33.4838 34.3623 33.651C34.2715 33.8182 34.2143 34.0022 34.1939 34.1921C34.1735 34.3821 34.1905 34.5743 34.2437 34.7575C35.4452 38.8952 38.5829 42.6477 42.8525 45.0534C45.6356 46.6554 48.7705 47.5162 51.967 47.5561C52.8158 47.5545 53.6631 47.4816 54.5001 47.3379L55.1984 50.5478C56.4945 56.5053 56.4945 58.7561 55.1984 64.7136L54.227 69.1794C54.2219 69.2028 54.2197 69.2263 54.2157 69.2499C54.2112 69.2767 54.2058 69.3034 54.2028 69.3305C54.1998 69.3576 54.1993 69.3841 54.1979 69.411C54.1964 69.4379 54.194 69.4645 54.194 69.4914C54.194 69.5183 54.1964 69.5449 54.1979 69.5717C54.1993 69.5985 54.1999 69.6254 54.2028 69.6523C54.2058 69.6792 54.2112 69.706 54.2157 69.7329C54.2197 69.7563 54.222 69.7799 54.227 69.8033L55.1984 74.2691C56.4946 80.2266 56.4946 82.4772 55.1984 88.4348L54.3253 92.4483C46.9755 97.7317 42.9372 104.727 42.9372 112.217C42.9372 120.034 47.3132 127.286 55.2588 132.638C55.8207 133.009 56.2273 133.58 56.3998 134.239C56.5723 134.898 56.4984 135.599 56.1925 136.206L53.5997 141.286C53.4876 141.505 53.4329 141.751 53.441 141.998C53.449 142.246 53.5196 142.487 53.6457 142.699C53.7719 142.91 53.9495 143.085 54.1613 143.207C54.3732 143.328 54.6122 143.392 54.8553 143.392H106.71C106.953 143.392 107.192 143.328 107.404 143.207C107.616 143.085 107.793 142.91 107.919 142.699C108.046 142.487 108.116 142.246 108.124 141.998C108.132 141.751 108.077 141.505 107.965 141.286L105.373 136.206C105.067 135.599 104.993 134.898 105.165 134.239C105.338 133.579 105.745 133.009 106.306 132.638C114.252 127.286 118.628 120.033 118.628 112.217C118.628 104.635 114.489 97.5606 106.967 92.2552L106.135 88.4345C104.839 82.477 104.839 80.2264 106.135 74.2688L106.74 71.4891C107.499 71.6059 108.266 71.6652 109.033 71.6663C112.23 71.6261 115.364 70.7653 118.147 69.1635C122.417 66.7577 125.555 63.005 126.756 58.8675C126.81 58.6843 126.826 58.4921 126.806 58.3022C126.786 58.1122 126.728 57.9283 126.638 57.7611ZM90.4692 49.924L89.8791 47.2116H103.963L103.372 49.924C101.994 56.2623 101.994 58.9992 103.372 65.3375L103.963 68.0499H89.8789L90.469 65.3375C91.8478 58.9992 91.8479 56.2623 90.4692 49.924ZM90.4692 73.6452L89.8791 70.9327H103.963L103.372 73.6452C101.994 79.9832 101.994 82.7203 103.372 89.0583L103.963 91.7708H89.8789L90.469 89.0583C91.8478 82.7203 91.8479 79.9832 90.4692 73.6452ZM57.9618 73.6452L57.3717 70.9327H71.4552L70.8651 73.6452C69.4862 79.9832 69.4862 82.7203 70.8651 89.0583L71.4552 91.7708H57.3716L57.9616 89.0583C59.3405 82.7203 59.3406 79.9832 57.9618 73.6452ZM57.9618 49.924L57.3717 47.2116H71.4552L70.8651 49.924C69.4862 56.2623 69.4862 58.9992 70.8651 65.3375L71.4552 68.0499H57.3716L57.9616 65.3375C59.3405 58.9992 59.3406 56.2623 57.9618 49.924ZM57.9618 26.2031L57.3717 23.4906H71.4552L70.8651 26.2031C69.4862 32.5412 69.4862 35.2782 70.8651 41.6163L71.4552 44.3288H57.3716L57.9616 41.6163C59.3405 35.2782 59.3406 32.5412 57.9618 26.2031ZM44.2226 42.5307C41.1276 40.787 38.7448 38.2489 37.4964 35.4169C40.5143 34.9877 43.8917 35.6963 46.9868 37.4402C50.0817 39.1837 52.4646 41.7221 53.713 44.5543C50.6942 44.9824 47.3172 44.2746 44.2226 42.5307ZM115.798 112.217C115.798 119.034 111.873 125.432 104.746 130.233C103.599 130.996 102.772 132.166 102.424 133.515C102.076 134.864 102.232 136.297 102.862 137.536L104.379 140.509H57.1859L58.7035 137.536C59.3335 136.297 59.4896 134.864 59.1415 133.515C58.7935 132.166 57.9661 130.996 56.8197 130.233C49.6925 125.433 45.7673 119.034 45.7673 112.217C45.7673 105.624 49.4557 99.4013 56.1653 94.6538H105.4C112.109 99.4012 115.798 105.624 115.798 112.217ZM116.778 66.6412C113.682 68.3849 110.306 69.0934 107.287 68.6644C108.535 65.8322 110.918 63.2941 114.013 61.5502C117.108 59.8063 120.485 59.0982 123.504 59.527C122.255 62.359 119.872 64.8971 116.778 66.6412Z" stroke="#285A43" stroke-width="2" mask="url(#path-1-outside-1_656_572)"/>
</g>
<path id="Vector_2" d="M99.057 132.187C98.6986 131.822 98.2106 131.615 97.6997 131.615H63.8652C63.3543 131.615 62.8662 131.822 62.5078 132.187C62.1498 132.552 61.9502 133.045 61.9502 133.557C61.9502 134.069 62.1498 134.561 62.5078 134.926C62.8662 135.291 63.3543 135.498 63.8652 135.498H97.6997C98.2106 135.498 98.6986 135.291 99.057 134.926C99.4151 134.561 99.6147 134.069 99.6147 133.557C99.6147 133.045 99.4151 132.552 99.057 132.187ZM99.057 132.187L98.7002 132.537L99.057 132.187C99.057 132.187 99.057 132.187 99.057 132.187Z" fill="#285A43" stroke="#285A43"/>
</g>
</g>
</svg>
