<svg width="161" height="164" viewBox="0 0 161 164" fill="none" xmlns="http://www.w3.org/2000/svg">
<g id="Outdoor_Plant">
<g id="Outdoor_Plant_2">
<path id="Vector" d="M101.365 104.955V104.955C101.358 110.329 99.3538 115.502 95.7529 119.433C92.2577 123.249 87.5096 125.62 82.4151 126.103V136.569C88.7422 136.901 94.8776 138.907 100.214 142.394L100.214 142.394C100.426 142.532 100.608 142.711 100.751 142.921C100.894 143.13 100.994 143.366 101.047 143.614C101.1 143.862 101.105 144.118 101.06 144.368L100.568 144.28L101.06 144.368C101.016 144.617 100.924 144.856 100.789 145.071C100.654 145.285 100.478 145.471 100.272 145.617C100.065 145.763 99.8317 145.867 99.5848 145.921C99.338 145.976 99.0829 145.981 98.8343 145.935C98.5856 145.89 98.3487 145.795 98.1369 145.656C92.8711 142.222 86.7507 140.398 80.5001 140.398C74.2495 140.398 68.1291 142.222 62.8632 145.656L101.365 104.955ZM101.365 104.955C101.365 104.443 101.165 103.95 100.807 103.585L100.807 103.585M101.365 104.955L100.807 103.585M100.807 103.585C100.449 103.22 99.9608 103.013 99.4499 103.013L99.4492 103.013M100.807 103.585L99.4492 103.013M99.4492 103.013C95.2567 103.019 91.1635 104.308 87.7012 106.713C84.5669 108.89 82.0812 111.889 80.5001 115.382M99.4492 103.013L80.5001 115.382M80.5001 115.382C78.919 111.889 76.4332 108.89 73.299 106.713C69.8367 104.308 65.7434 103.019 61.5509 103.013H61.5503C61.0394 103.013 60.5513 103.22 60.1929 103.585C59.8348 103.95 59.6353 104.443 59.6353 104.955L59.6353 104.955C59.6421 110.329 61.6464 115.502 65.2473 119.433C68.7425 123.249 73.4906 125.62 78.585 126.103V136.569C72.258 136.901 66.1226 138.907 60.7864 142.394L60.7861 142.394C60.3585 142.673 60.0601 143.113 59.9531 143.614C59.8461 144.114 59.9384 144.638 60.2112 145.071C60.4842 145.503 60.9166 145.811 61.4153 145.921C61.914 146.032 62.4348 145.936 62.8626 145.656L80.5001 115.382ZM87.4139 111.984C90.1145 109.233 93.637 107.49 97.4136 107.021C96.9545 110.879 95.2397 114.474 92.5361 117.228C89.8354 119.979 86.313 121.723 82.5363 122.192C82.9955 118.334 84.7103 114.738 87.4139 111.984ZM68.4641 117.228C65.7605 114.474 64.0457 110.879 63.5865 107.021C67.3632 107.49 70.8856 109.233 73.5863 111.984C76.2899 114.738 78.0047 118.334 78.4638 122.192C74.6872 121.723 71.1647 119.979 68.4641 117.228Z" fill="white" stroke="white"/>
<path id="Vector_2" d="M80.4996 76.9028H80.5002C84.7331 76.9028 88.8703 75.6241 92.3883 73.2296C95.9062 70.8352 98.6468 67.4329 100.265 63.454C101.883 59.4752 102.306 55.0975 101.481 50.8742C100.656 46.6509 98.6205 42.7703 95.6296 39.7236C92.6385 36.6768 88.8265 34.6008 84.6752 33.7597C80.5237 32.9185 76.2208 33.3503 72.3108 35.0001C68.401 36.6498 65.0607 39.4428 62.7112 43.0245C60.3619 46.6061 59.1084 50.8159 59.1084 55.1217L59.1084 55.1223C59.1148 60.8939 61.3684 66.4291 65.3776 70.513C69.3871 74.5972 74.8253 76.8963 80.4996 76.9028ZM80.5006 37.2238C83.9717 37.2239 87.3657 38.2724 90.2533 40.2378C93.1412 42.2034 95.3934 44.9982 96.7237 48.2697C98.0541 51.5413 98.4023 55.1418 97.7239 58.6155C97.0456 62.0892 95.3715 65.2787 92.9147 67.7812C90.4581 70.2837 87.3292 71.9867 83.9244 72.6766C80.5196 73.3665 76.9904 73.0125 73.7825 71.659C70.5746 70.3054 67.8313 68.0127 65.9005 65.0692C63.9697 62.1256 62.9385 58.6641 62.9385 55.1223C62.9438 50.374 64.798 45.8236 68.0914 42.4688C71.3846 39.1144 75.8475 37.2292 80.5006 37.2238Z" fill="white" stroke="white"/>
<path id="Vector_3" d="M97.5977 75.2903L97.5977 75.2903L100.832 78.5851C101.01 78.7658 101.221 78.9096 101.454 79.0079C101.687 79.1062 101.937 79.157 102.19 79.157C102.443 79.157 102.693 79.1062 102.926 79.0079C103.159 78.9096 103.37 78.7657 103.547 78.585C103.725 78.4044 103.865 78.1903 103.96 77.9555C104.056 77.7206 104.105 77.4692 104.105 77.2155C104.105 76.9618 104.056 76.7104 103.96 76.4755C103.865 76.2406 103.725 76.0266 103.547 75.8459L103.547 75.8459L100.313 72.5512C100.313 72.5512 100.313 72.5512 100.313 72.5512C100.135 72.3705 99.9241 72.2266 99.6911 72.1283C99.458 72.03 99.2079 71.9793 98.9552 71.9792C98.7024 71.9792 98.4523 72.03 98.2192 72.1283C97.9862 72.2266 97.7751 72.3705 97.5977 72.5512C97.4203 72.7318 97.2801 72.9459 97.1846 73.1807C97.0891 73.4156 97.04 73.667 97.04 73.9207C97.04 74.1744 97.0891 74.4258 97.1846 74.6607C97.2801 74.8956 97.4203 75.1096 97.5977 75.2903Z" fill="white" stroke="white"/>
<path id="Vector_4" d="M63.4027 34.9534L63.4027 34.9534L60.168 31.6586C60.168 31.6586 60.168 31.6586 60.168 31.6586C59.8096 31.2935 59.3215 31.0867 58.8106 31.0867C58.2997 31.0867 57.8116 31.2935 57.4532 31.6586C57.0951 32.0234 56.8955 32.5162 56.8955 33.0282C56.8955 33.5401 57.0951 34.0329 57.4532 34.3977L57.4532 34.3977L60.6878 37.6925C60.6878 37.6925 60.6878 37.6925 60.6878 37.6925C60.8652 37.8732 61.0764 38.0171 61.3094 38.1154C61.5424 38.2137 61.7925 38.2645 62.0453 38.2645C62.2981 38.2645 62.5481 38.2137 62.7812 38.1154C63.0142 38.0171 63.2253 37.8733 63.4027 37.6925C63.5801 37.5119 63.7203 37.2979 63.8158 37.063C63.9113 36.8281 63.9604 36.5767 63.9604 36.323C63.9604 36.0693 63.9113 35.8179 63.8158 35.583C63.7203 35.3482 63.5801 35.1341 63.4027 34.9534Z" fill="white" stroke="white"/>
<path id="Vector_5" d="M100.832 31.6586L100.832 31.6586L97.5977 34.9535L97.5977 34.9535C97.2396 35.3183 97.04 35.8111 97.04 36.3231C97.04 36.8351 97.2396 37.3279 97.5977 37.6926C97.9561 38.0577 98.4442 38.2646 98.9552 38.2646C99.4661 38.2646 99.9542 38.0577 100.313 37.6926C100.313 37.6926 100.313 37.6926 100.313 37.6926L103.547 34.3977C103.905 34.0329 104.105 33.5401 104.105 33.0282C104.105 32.5162 103.905 32.0234 103.547 31.6586C103.189 31.2935 102.701 31.0867 102.19 31.0867C101.679 31.0867 101.191 31.2935 100.832 31.6586ZM97.9543 35.3036L97.9545 35.3038L97.9543 35.3036Z" fill="white" stroke="white"/>
<path id="Vector_6" d="M63.4026 72.551L63.4027 72.551C63.5801 72.7317 63.7203 72.9457 63.8159 73.1806C63.9114 73.4155 63.9604 73.6669 63.9604 73.9206C63.9604 74.1743 63.9114 74.4257 63.8159 74.6606C63.7203 74.8954 63.5801 75.1094 63.4027 75.2901M63.4026 72.551L63.0459 74.9398M63.4026 72.551C63.0442 72.186 62.5561 71.9792 62.0453 71.9792C61.5344 71.9792 61.0464 72.186 60.6879 72.551L60.6879 72.551L57.4532 75.8458L57.4532 75.8458C57.0951 76.2106 56.8955 76.7034 56.8955 77.2153C56.8955 77.7273 57.0951 78.2201 57.4532 78.5849C57.8116 78.95 58.2997 79.1568 58.8106 79.1568C59.3215 79.1568 59.8096 78.95 60.168 78.5849M63.4026 72.551L60.168 78.5849M63.4027 75.2901L63.0459 74.9398M63.4027 75.2901L63.4027 75.2901L63.0459 74.9398M63.4027 75.2901L60.168 78.5849L59.8112 78.2346M63.0459 74.9398L59.8112 78.2346M59.8112 78.2346L60.168 78.5849M59.8112 78.2346L60.168 78.5849" fill="white" stroke="white"/>
<path id="Vector_7" d="M115.004 53.1802H106.6C106.089 53.1802 105.601 53.387 105.242 53.7521C104.884 54.1168 104.685 54.6096 104.685 55.1216C104.685 55.6335 104.884 56.1263 105.242 56.4911L105.599 56.1408L105.242 56.4911C105.601 56.8562 106.089 57.063 106.6 57.063H115.004C115.515 57.063 116.003 56.8562 116.362 56.4911C116.72 56.1263 116.919 55.6335 116.919 55.1216C116.919 54.6096 116.72 54.1168 116.362 53.7521C116.003 53.387 115.515 53.1802 115.004 53.1802Z" fill="white" stroke="white"/>
<path id="Vector_8" d="M54.4008 53.1802H45.9961C45.4852 53.1802 44.9971 53.387 44.6387 53.7521C44.2806 54.1168 44.0811 54.6096 44.0811 55.1216C44.0811 55.6335 44.2806 56.1263 44.6387 56.4911L44.9955 56.1408L44.6387 56.4911C44.9971 56.8562 45.4852 57.063 45.9961 57.063H54.4008C54.9117 57.063 55.3998 56.8562 55.7582 56.4911C56.1163 56.1263 56.3159 55.6335 56.3159 55.1216C56.3159 54.6096 56.1163 54.1168 55.7582 53.7521C55.3998 53.387 54.9117 53.1802 54.4008 53.1802Z" fill="white" stroke="white"/>
<path id="Vector_9" d="M78.585 81.7073V90.2686C78.585 90.7805 78.7845 91.2733 79.1426 91.6381C79.501 92.0032 79.9891 92.21 80.5 92.21C81.0109 92.21 81.499 92.0032 81.8574 91.6381C82.2155 91.2733 82.415 90.7805 82.415 90.2686V81.7073C82.415 81.1953 82.2155 80.7025 81.8574 80.3378C81.499 79.9727 81.0109 79.7659 80.5 79.7659C79.9891 79.7659 79.501 79.9727 79.1426 80.3378C78.7845 80.7025 78.585 81.1953 78.585 81.7073Z" fill="white" stroke="white"/>
<path id="Vector_10" d="M79.7641 30.3284L79.9585 29.8677L79.7641 30.3284C79.9971 30.4267 80.2472 30.4775 80.5 30.4775C81.0109 30.4775 81.499 30.2706 81.8574 29.9056C82.2155 29.5408 82.415 29.048 82.415 28.536V19.9746C82.415 19.4627 82.2155 18.9699 81.8574 18.6051C81.499 18.24 81.0109 18.0332 80.5 18.0332C79.9891 18.0332 79.501 18.24 79.1426 18.6051C78.7845 18.9699 78.585 19.4627 78.585 19.9746V28.5359C78.585 28.5359 78.585 28.5359 78.585 28.5359C78.5849 28.7896 78.634 29.041 78.7295 29.2759C78.825 29.5108 78.9652 29.7248 79.1426 29.9055C79.32 30.0862 79.5311 30.2301 79.7641 30.3284Z" fill="white" stroke="white"/>
</g>
</g>
</svg>
