<svg width="159" height="164" viewBox="0 0 159 164" fill="none" xmlns="http://www.w3.org/2000/svg">
<g id="Indoor_Plant">
<g id="Indoor_Plant_2">
<path id="Vector" d="M59.8796 34.7092L59.8796 34.7092C60.0551 34.8902 60.1934 35.1042 60.2876 35.3386C60.3817 35.573 60.43 35.8237 60.43 36.0765C60.43 36.3294 60.3817 36.5801 60.2875 36.8145C60.1934 37.0489 60.055 37.2629 59.8796 37.4439C59.7041 37.6248 59.495 37.7693 59.2637 37.8681L59.0672 37.4083L59.2637 37.8681C59.0323 37.9669 58.7838 38.018 58.5324 38.018C58.281 38.018 58.0325 37.9669 57.8012 37.8681C57.5698 37.7692 57.3607 37.6248 57.1852 37.4438M59.8796 34.7092L54.3717 33.8235L54.0128 34.1716L57.1852 37.4438M59.8796 34.7092L56.7071 31.4369L56.7071 31.4369C56.3525 31.0712 55.8683 30.8628 55.3599 30.8628C54.8516 30.8628 54.3673 31.0712 54.0127 31.437C53.6587 31.8022 53.4624 32.2943 53.4624 32.8043C53.4624 33.3143 53.6587 33.8064 54.0128 34.1716L59.8796 34.7092ZM57.1852 37.4438L57.5442 37.0958L57.1852 37.4438L57.1852 37.4438Z" fill="#285A43" stroke="#285A43"/>
<path id="Vector_2" d="M93.3856 34.7094L93.3856 34.7094L96.5562 31.4384C96.7308 31.2558 96.9395 31.1096 97.1707 31.0091C97.4026 30.9083 97.6522 30.8556 97.9048 30.8545C98.1575 30.8534 98.4075 30.904 98.6403 31.0028C98.873 31.1017 99.0834 31.2466 99.2598 31.4285C99.4362 31.6104 99.5751 31.8257 99.6692 32.0615C99.7634 32.2973 99.8112 32.5495 99.8102 32.8036C99.8092 33.0578 99.7595 33.3095 99.6635 33.5446C99.5677 33.779 99.4277 33.9925 99.2506 34.1727L96.0805 37.4432C96.0804 37.4432 96.0803 37.4433 96.0803 37.4434C95.9049 37.6247 95.6956 37.7693 95.4642 37.8682C95.2327 37.9671 94.9841 38.0181 94.7326 38.0179L93.3856 34.7094ZM93.3856 34.7094C93.1215 34.9818 92.9434 35.3271 92.8713 35.7007M93.3856 34.7094L92.8713 35.7007M92.8713 35.7007C92.7993 36.0742 92.8362 36.4616 92.9778 36.8144M92.8713 35.7007L92.9778 36.8144M92.9778 36.8144C93.1195 37.1673 93.3605 37.4714 93.6727 37.6866M92.9778 36.8144L93.6727 37.6866M93.6727 37.6866C93.9849 37.9018 94.3537 38.0178 94.7324 38.0179L93.6727 37.6866Z" fill="#285A43" stroke="#285A43"/>
<path id="Vector_3" d="M102.23 56.6873H108.932C109.44 56.6873 109.924 56.4788 110.279 56.1131C110.633 55.7479 110.829 55.2558 110.829 54.7458C110.829 54.2359 110.633 53.7438 110.279 53.3786C109.924 53.0129 109.44 52.8044 108.932 52.8044H102.23C101.722 52.8044 101.238 53.0129 100.883 53.3786C100.529 53.7438 100.333 54.2359 100.333 54.7458C100.333 55.2558 100.529 55.7479 100.883 56.1131L101.242 55.7651L100.883 56.1131C101.238 56.4788 101.722 56.6873 102.23 56.6873Z" fill="#285A43" stroke="#285A43"/>
<path id="Vector_4" d="M42.9868 56.1131L43.3329 55.7776L42.9868 56.1131C43.3414 56.4788 43.8257 56.6873 44.334 56.6873H51.035C51.5433 56.6873 52.0276 56.4788 52.3822 56.1131C52.7362 55.7479 52.9325 55.2558 52.9325 54.7458C52.9325 54.2359 52.7362 53.7438 52.3822 53.3786C52.0276 53.0129 51.5433 52.8044 51.035 52.8044H44.334C43.8257 52.8044 43.3414 53.0129 42.9868 53.3786C42.6328 53.7438 42.4365 54.2359 42.4365 54.7458C42.4365 55.2558 42.6328 55.7479 42.9868 56.1131Z" fill="#285A43" stroke="#285A43"/>
<path id="Vector_5" d="M76.6323 30.2848C77.1406 30.2848 77.6249 30.0764 77.9795 29.7106C78.3335 29.3455 78.5298 28.8534 78.5298 28.3434V21.4316C78.5298 20.9217 78.3335 20.4296 77.9795 20.0644C77.6249 19.6987 77.1406 19.4902 76.6323 19.4902C76.124 19.4902 75.6398 19.6987 75.2852 20.0644C74.9311 20.4296 74.7349 20.9217 74.7349 21.4316V28.3434C74.7349 28.8534 74.9311 29.3455 75.2852 29.7106C75.6398 30.0764 76.124 30.2848 76.6323 30.2848Z" fill="#285A43" stroke="#285A43"/>
<path id="Vector_6" d="M93.7544 56.4758C93.5106 59.0311 92.7334 61.4986 91.4794 63.7095L77.7708 53.1924L77.4664 53.5892L77.7707 53.1924C77.4434 52.9413 77.0443 52.8043 76.6324 52.8043C76.2206 52.8043 75.8215 52.9413 75.4941 53.1924L75.7985 53.5892L75.4941 53.1924L61.7847 63.7101C60.24 60.9966 59.424 57.902 59.4276 54.7463V54.7455C59.4261 51.9901 60.0455 49.2726 61.2364 46.8076C62.4273 44.3428 64.1566 42.1986 66.2867 40.5436C68.4168 38.8886 70.8894 37.7679 73.5093 37.2686C76.1292 36.7693 78.8257 36.905 81.3863 37.665C83.947 38.4251 86.3027 39.789 88.267 41.6505C90.2313 43.512 91.7504 45.8202 92.7032 48.3934C93.656 50.9667 94.016 53.7337 93.7544 56.4758ZM115.149 81.8684L94.5302 66.0499C96.4226 62.8721 97.4873 59.2424 97.6185 55.5125C97.7552 51.6298 96.8754 47.7802 95.0706 44.3679C93.2657 40.9555 90.6019 38.1055 87.3575 36.1191C84.1129 34.1326 80.4081 33.0835 76.6326 33.0835C72.8571 33.0835 69.1522 34.1326 65.9077 36.1191C62.6632 38.1055 59.9994 40.9555 58.1946 44.3679C56.3898 47.7802 55.51 51.6298 55.6466 55.5125C55.7779 59.2424 56.8426 62.8721 58.7349 66.0499L38.116 81.8684C37.8788 82.0504 37.6875 82.286 37.5562 82.5555C37.4249 82.825 37.3569 83.1216 37.3569 83.4217V142.568C37.3569 143.078 37.5532 143.57 37.9073 143.935C38.2618 144.301 38.7461 144.51 39.2544 144.51H114.011C114.519 144.51 115.003 144.301 115.358 143.935C115.712 143.57 115.908 143.078 115.908 142.568V83.4217C115.908 83.1216 115.84 82.825 115.709 82.5555C115.578 82.286 115.386 82.0504 115.149 81.8684ZM112.113 140.627H41.1519V84.3925L76.6326 57.1724L112.113 84.3925L112.113 140.627Z" fill="#285A43" stroke="#285A43"/>
<path id="Vector_7" d="M60.2341 92.8477H60.2347C63.8364 92.8515 67.356 93.9491 70.3543 96.0017C73.0433 97.8425 75.2058 100.378 76.6326 103.344C78.0594 100.378 80.2218 97.8426 82.9108 96.0017C85.9092 93.9491 89.4287 92.8515 93.0304 92.8477L93.0309 92.8477L94.2831 92.8477C94.7915 92.8477 95.2757 93.0561 95.6303 93.4218C95.9843 93.787 96.1806 94.2791 96.1806 94.7891V96.0806V96.0812C96.1748 101.048 94.2694 105.815 90.8735 109.346C87.5935 112.756 83.1784 114.747 78.5301 114.921V124.504C84.406 124.834 90.1007 126.729 95.0569 130.007C95.2686 130.145 95.4509 130.323 95.5939 130.532C95.7374 130.742 95.8386 130.978 95.8925 131.226C95.9463 131.475 95.9518 131.732 95.9086 131.983C95.8655 132.234 95.7744 132.474 95.6402 132.69C95.5059 132.905 95.3308 133.092 95.1245 133.239C94.918 133.386 94.6845 133.49 94.4373 133.545C94.1901 133.599 93.9348 133.602 93.6863 133.554C93.4389 133.506 93.2039 133.408 92.9947 133.267C88.1088 130.041 82.4308 128.328 76.6327 128.328C70.8339 128.328 65.1553 130.042 60.2689 133.268L60.2341 92.8477ZM60.2341 92.8477H58.9819C58.4736 92.8477 57.9894 93.0561 57.6348 93.4218C57.2807 93.787 57.0845 94.2791 57.0845 94.7891L57.0845 96.0806L57.0845 96.0812M60.2341 92.8477L57.0845 96.0812M57.0845 96.0812C57.0902 101.048 58.9957 105.815 62.3916 109.346C65.6716 112.756 70.0868 114.747 74.7351 114.921V124.504C68.8584 124.834 63.163 126.73 58.2063 130.009L58.206 130.009M57.0845 96.0812L58.206 130.009M58.206 130.009C57.7822 130.289 57.4881 130.729 57.3827 131.228M58.206 130.009L57.3827 131.228M57.3827 131.228C57.2774 131.727 57.3681 132.25 57.6372 132.682M57.3827 131.228L57.6372 132.682M57.6372 132.682C57.9067 133.114 58.3347 133.423 58.8305 133.535M57.6372 132.682C57.6372 132.682 57.6372 132.682 57.6372 132.682L58.8305 133.535M58.8305 133.535C59.3265 133.646 59.844 133.549 60.2682 133.268L58.8305 133.535ZM65.1366 106.669C62.5698 104.021 61.0589 100.48 60.8942 96.7466C64.4955 96.9199 67.9154 98.4721 70.4778 101.115C73.0447 103.763 74.5555 107.303 74.7202 111.037C71.1189 110.864 67.699 109.312 65.1366 106.669ZM82.7873 101.115C85.3497 98.4721 88.7696 96.9199 92.3708 96.7466C92.2061 100.48 90.6953 104.021 88.1284 106.669C85.566 109.312 82.1461 110.864 78.5448 111.037C78.7095 107.303 80.2204 103.763 82.7873 101.115Z" fill="#285A43" stroke="#285A43"/>
</g>
</g>
</svg>
