<svg width="593" height="592" viewBox="0 0 593 592" fill="none" xmlns="http://www.w3.org/2000/svg">
<g clip-path="url(#clip0_1_808)">
<rect x="0.577148" width="591.779" height="591.779" rx="295.889" fill="white"/>
<rect x="0.577148" width="591.779" height="591.779" rx="295.889" fill="#006845" fill-opacity="0.6"/>
<path d="M332.136 418.156C408.519 568.918 486.116 931.585 493.342 980.098C498.26 1013.07 324.911 1042.88 324.911 1020.05C324.911 990.785 289.937 648.458 293.277 513.179C295.098 438.557 316.35 387.008 332.136 418.156Z" fill="#EB9481"/>
<path d="M509.978 961.276L313.071 991.635C313.071 991.635 281.68 626.053 280.526 503.343C279.372 380.632 323.454 350.577 370.753 476.081C418.052 601.584 509.978 961.276 509.978 961.276Z" fill="#006845"/>
<path d="M397.104 372.982C391.336 444.325 384.171 517.672 367.534 587.376C354.541 641.658 325.032 683.857 266.136 689.503C211.49 694.725 135.896 683.432 95.8226 642.083C77.1216 622.835 73.0535 598.67 77.9716 572.925C84.8327 537.163 140.511 343.594 157.451 283.12C167.773 246.325 177.974 208.983 194.732 174.374C229.827 101.513 267.593 107.585 272.815 106.674C277.733 104.367 308.335 95.5018 347.68 114.203C358.032 119.035 367.246 126.001 374.717 134.645C382.189 143.288 387.749 153.413 391.032 164.356C411.919 229.445 402.69 306.192 397.104 372.982Z" fill="#263238"/>
<path d="M259.822 115.6C211.672 130.536 194.064 178.503 177.063 221.249C153.383 280.813 130.675 340.802 110.881 401.823C101.409 431.15 92.6657 460.719 84.5902 490.471C77.0005 519.008 67.1035 549.185 65.0391 578.755C61.6389 627.329 102.927 655.745 144.944 668.556C145.362 668.693 145.818 668.658 146.211 668.459C146.604 668.259 146.902 667.912 147.038 667.494C147.175 667.075 147.14 666.619 146.941 666.226C146.742 665.833 146.395 665.536 145.976 665.399C122.174 657.202 98.191 647.183 82.4651 626.357C62.2461 599.884 69.1679 569.89 76.029 540.017C87.8082 489.135 102.441 439.043 118.531 389.497C134.622 339.952 153.201 290.892 172.145 242.257C190.36 195.929 207.179 133.997 259.7 116.389C260.489 116.389 260.307 115.418 259.822 115.6Z" fill="#263238"/>
<path d="M404.451 218.941C400.929 180.75 386.6 142.012 349.137 125.921C397.347 148.873 402.083 205.644 402.447 252.518C402.852 301.942 401.455 351.285 398.257 400.548C395.222 447.968 391.093 495.632 383.746 542.566C375.792 593.205 360.066 639.715 324.364 677.299C324.284 677.371 324.219 677.458 324.173 677.554C324.127 677.651 324.1 677.756 324.095 677.863C324.089 677.97 324.105 678.078 324.14 678.179C324.176 678.28 324.231 678.373 324.303 678.453C324.375 678.532 324.462 678.597 324.559 678.643C324.655 678.69 324.76 678.716 324.868 678.722C324.975 678.728 325.082 678.712 325.183 678.676C325.284 678.641 325.377 678.585 325.457 678.513C359.641 648.701 375.853 603.406 384.171 560.053C394.208 502.501 400.435 444.348 402.811 385.975C405.969 331.026 409.551 274.255 404.451 218.941Z" fill="#263238"/>
<path d="M256.968 382.697C259.275 388.769 294.673 425.807 323.332 420.767C332.622 419.067 325.761 367.76 325.761 367.76L326.125 363.874L331.104 309.228L263.525 277.291L253.871 273.162C253.871 273.162 253.446 288.22 253.203 306.921C253.203 307.832 253.203 308.682 253.203 309.593C253.143 310.624 253.143 311.658 253.203 312.689C253.203 315.482 253.203 318.336 253.203 321.19C253.203 324.044 253.203 325.44 253.203 327.687C253.203 329.933 253.203 332.24 253.203 334.487C253.363 350.624 254.621 366.731 256.968 382.697Z" fill="#EB9481"/>
<path d="M253.203 306.921C260.49 321.131 270.781 333.585 283.363 343.42C295.944 353.255 310.515 360.234 326.064 363.874L331.043 309.228L263.525 277.291L253.871 273.162C253.871 273.162 253.446 288.22 253.203 306.921Z" fill="#263238"/>
<path d="M400.565 228.777C408.216 324.711 351.627 340.133 330.922 341.773C312.099 343.23 247.921 345.902 230.434 251.182C212.947 156.462 255.146 122.46 297.952 116.996C340.758 111.531 392.975 132.782 400.565 228.777Z" fill="#EB9481"/>
<path d="M384.414 208.376C382.225 208.054 380.056 207.608 377.917 207.04C375.544 206.897 373.283 205.98 371.481 204.429C371.023 203.827 370.775 203.091 370.775 202.335C370.775 201.578 371.023 200.842 371.481 200.24C372.564 199.195 373.903 198.454 375.363 198.092C376.824 197.729 378.354 197.758 379.799 198.176C382.894 198.565 385.721 200.13 387.693 202.547C388.123 203.113 388.379 203.793 388.428 204.502C388.477 205.211 388.317 205.919 387.968 206.539C387.62 207.159 387.098 207.663 386.466 207.989C385.834 208.316 385.121 208.45 384.414 208.376Z" fill="#263238"/>
<path d="M320.539 209.712C322.785 209.408 324.789 208.801 327.036 208.315C329.296 208.062 331.419 207.106 333.107 205.583C333.575 204.985 333.829 204.247 333.829 203.488C333.829 202.729 333.575 201.991 333.107 201.393C332.01 200.354 330.655 199.625 329.182 199.284C327.709 198.942 326.172 199 324.728 199.45C321.673 199.94 318.906 201.54 316.956 203.943C316.516 204.53 316.263 205.237 316.23 205.97C316.198 206.703 316.388 207.429 316.775 208.053C317.162 208.676 317.729 209.168 318.4 209.464C319.072 209.76 319.817 209.846 320.539 209.712Z" fill="#263238"/>
<path d="M335.536 233.938C335.536 233.938 335.05 233.938 335.05 234.485C335.475 241.042 335.05 248.632 328.979 251C328.979 251 328.979 251.425 328.979 251.364C336.386 249.968 336.993 240.071 335.536 233.938Z" fill="#263238"/>
<path d="M329.465 227.259C318.9 226.834 318.778 247.964 328.554 248.389C338.329 248.814 338.329 227.623 329.465 227.259Z" fill="#263238"/>
<path d="M325.336 228.352C323.453 229.566 321.632 231.631 319.264 231.874C316.896 232.117 314.771 229.87 313.192 227.745H312.828C312.828 231.752 314.224 235.942 318.9 236.549C323.575 237.156 325.761 233.574 326.793 229.506C326.732 229.02 326.064 227.866 325.336 228.352Z" fill="#263238"/>
<path d="M371.967 232.481C371.967 232.481 372.452 232.481 372.452 233.027C372.149 239.585 372.877 247.174 378.828 249.421C378.828 249.421 378.828 249.846 378.828 249.785C371.542 248.692 370.631 238.613 371.967 232.481Z" fill="#263238"/>
<path d="M377.917 225.681C388.421 225.074 388.968 246.203 379.192 246.81C369.416 247.418 369.052 226.227 377.917 225.681Z" fill="#263238"/>
<path d="M382.35 227.016C384.051 228.049 385.751 230.052 387.754 230.174C389.758 230.295 391.701 227.927 393.158 225.681H393.462C393.462 229.688 392.43 233.938 388.604 234.788C384.779 235.638 382.533 232.177 381.318 228.231C381.136 227.684 381.683 226.531 382.35 227.016Z" fill="#263238"/>
<path d="M362.374 262.111C362.374 262.111 363.77 271.887 363.77 276.501C363.77 276.987 362.677 277.169 361.099 277.29C357.138 278.04 353.048 277.682 349.277 276.258C345.506 274.833 342.202 272.396 339.726 269.215C339.638 269.118 339.591 268.99 339.597 268.86C339.602 268.729 339.66 268.605 339.756 268.517C339.853 268.428 339.981 268.382 340.112 268.387C340.243 268.393 340.366 268.45 340.455 268.547C346.343 272.556 353.377 274.538 360.492 274.194C360.795 272.919 357.516 257.496 358.245 257.436C361.835 257.723 365.369 258.5 368.749 259.743C366.442 239.281 360.856 219.366 358.792 199.025C358.792 198.864 358.855 198.71 358.969 198.596C359.083 198.482 359.238 198.418 359.399 198.418C359.56 198.418 359.714 198.482 359.828 198.596C359.942 198.71 360.006 198.864 360.006 199.025C366.664 220.199 371.199 241.982 373.546 264.054C373.728 266.118 364.195 262.718 362.374 262.111Z" fill="#263238"/>
<path d="M369.781 238.856C368.324 223.191 375.549 209.712 385.871 208.498C396.193 207.283 405.847 219.427 407.304 235.092C408.762 250.757 401.233 264.236 391.214 265.451C381.196 266.665 371.238 254.522 369.781 238.856ZM373.606 238.492C374.881 252.032 382.592 262.415 390.85 261.686C399.108 260.958 404.815 249.239 403.54 235.699C402.265 222.159 394.493 211.776 386.235 212.505C377.978 213.234 372.331 224.952 373.606 238.492Z" fill="#263238"/>
<path d="M298.438 245.596C298.308 240.406 299.696 235.292 302.433 230.88C305.169 226.469 309.134 222.952 313.84 220.762C318.547 218.572 323.791 217.805 328.927 218.553C334.064 219.301 338.871 221.534 342.757 224.975C346.643 228.417 349.44 232.919 350.803 237.928C352.167 242.936 352.039 248.235 350.433 253.171C348.828 258.108 345.817 262.469 341.768 265.718C337.719 268.967 332.81 270.963 327.643 271.462C320.347 271.877 313.182 269.392 307.711 264.546C302.24 259.701 298.907 252.889 298.438 245.596ZM302.263 245.232C303.036 249.597 305.064 253.643 308.098 256.876C311.133 260.108 315.043 262.387 319.351 263.435C323.659 264.482 328.179 264.252 332.358 262.773C336.538 261.294 340.197 258.63 342.888 255.107C345.578 251.583 347.185 247.352 347.511 242.93C347.837 238.509 346.869 234.088 344.724 230.207C342.58 226.327 339.351 223.155 335.434 221.079C331.517 219.003 327.079 218.112 322.664 218.516C316.42 219.361 310.765 222.648 306.941 227.657C303.117 232.665 301.434 238.985 302.263 245.232Z" fill="#263238"/>
<path d="M349.926 238.128C363.648 232.056 370.51 235.881 370.57 235.942L372.635 232.724C372.331 232.724 364.195 227.381 348.348 234.667L349.926 238.128Z" fill="#263238"/>
<path d="M299.955 242.924L300.32 239.099C297.77 239.099 238.873 233.635 232.559 233.877C226.244 234.12 211.247 244.26 209.607 245.414L211.793 248.571C218.031 243.854 225.007 240.202 232.437 237.763H233.166C237.781 237.824 279.008 241.042 299.955 242.924Z" fill="#263238"/>
<path d="M233.166 244.321C243.549 243.714 270.629 214.994 271.479 164.72C271.479 164.72 267.593 209.833 264.254 216.452C260.914 223.07 279.372 200.301 280.587 159.802C293.378 168.927 307.402 176.184 322.239 181.357C341.365 186.7 353.084 186.518 354.48 185.121C355.877 183.725 327.643 174.86 319.992 166.117C319.992 166.117 370.995 189.736 394.432 191.557C397.165 191.557 400.504 135.879 364.073 112.199C327.643 88.5194 270.265 114.142 254.782 129.079C254.782 129.079 236.566 131.629 216.954 158.527C197.343 185.425 221.994 244.989 233.166 244.321Z" fill="#263238"/>
<path d="M246.282 257.375C246.282 257.375 225.455 227.017 211.794 234.546C198.132 242.075 213.555 285.609 229.523 291.681C231.518 292.601 233.679 293.109 235.875 293.174C238.071 293.239 240.257 292.861 242.304 292.062C244.35 291.263 246.214 290.059 247.784 288.522C249.355 286.986 250.599 285.148 251.442 283.12L246.282 257.375Z" fill="#EB9481"/>
<path d="M216.529 246.932V247.357C227.701 252.032 233.53 262.476 237.598 273.283C236.961 272.149 236.084 271.167 235.027 270.408C233.971 269.648 232.761 269.128 231.482 268.885C230.204 268.642 228.888 268.682 227.627 269.001C226.365 269.32 225.189 269.911 224.18 270.733C224.18 270.733 224.18 271.401 224.483 271.34C226.46 270.72 228.581 270.732 230.551 271.374C232.521 272.016 234.242 273.256 235.473 274.923C237.526 277.704 239.277 280.696 240.695 283.848C241.181 284.88 243.002 284.334 242.638 283.18C242.881 268.608 231.891 248.511 216.529 246.932Z" fill="#263238"/>
<path d="M242.942 289.495C242.954 290.891 242.551 292.258 241.784 293.424C241.018 294.591 239.922 295.503 238.636 296.045C237.35 296.588 235.932 296.736 234.562 296.471C233.192 296.206 231.931 295.54 230.94 294.558C229.949 293.575 229.272 292.32 228.995 290.952C228.719 289.584 228.855 288.165 229.386 286.875C229.917 285.584 230.82 284.48 231.979 283.704C233.139 282.927 234.503 282.513 235.899 282.512C237.756 282.512 239.538 283.246 240.858 284.554C242.177 285.862 242.926 287.638 242.942 289.495Z" fill="white"/>
<path d="M457.822 867.164C457.822 867.164 134.439 871.96 54.1705 866.314C54.1705 866.314 119.624 495.328 205.965 401.58C209.181 398.058 212.586 394.714 216.165 391.562C221.448 387.129 220.719 351.731 223.209 349.059C225.698 346.388 330.618 360.171 331.954 362.721C333.29 365.271 338.694 398.666 338.694 398.666C362.495 429.025 439.06 533.945 447.986 577.236C456.911 620.528 428.799 668.313 428.799 668.313L457.822 867.164Z" fill="#006845"/>
<path d="M181.252 467.762C162.126 559.932 173.48 759.207 217.683 795.638C290.544 855.263 465.654 872.689 514.532 878.457C535.601 880.946 577.557 743.056 563.106 725.266C548.655 707.476 333.411 679.788 323.15 670.62C316.046 664.062 282.59 543.659 253.749 475.777C214.951 383.911 188.235 433.76 181.252 467.762Z" fill="#EB9481"/>
<path d="M466.079 884.165L543.13 704.501C543.13 704.501 332.075 669.588 325.579 665.338C319.082 661.088 280.587 520.951 255.875 465.941C231.162 410.931 188.721 378.629 172.327 496.725C155.933 614.821 179.674 759.025 203.414 789.02C232.195 825.329 346.162 871.292 466.079 884.165Z" fill="#006845"/>
<path d="M357.638 861.456C326.065 852.895 295.281 837.958 265.104 825.025C239.177 814.157 212.705 800.738 198.314 775.298C191.606 762.344 186.917 748.441 184.41 734.07C181.071 718.041 178.338 701.829 176.031 685.496C173.238 666.876 170.728 648.215 168.502 629.514C167.409 619.921 166.316 610.328 165.345 600.734C164.373 591.141 162.612 581.547 162.248 571.893C162.248 571.764 162.197 571.641 162.106 571.55C162.015 571.459 161.891 571.407 161.762 571.407C161.634 571.407 161.51 571.459 161.419 571.55C161.328 571.641 161.277 571.764 161.277 571.893C161.945 580.758 161.277 589.683 162.005 598.609C162.005 604.681 162.734 610.267 163.159 616.096L161.459 612.392C159.589 608.138 158.164 603.703 157.209 599.155C157.209 598.609 156.176 598.852 156.298 599.155C157.391 603.709 158.484 608.324 159.759 612.817C160.366 615.003 161.095 617.189 161.945 619.374C162.453 620.842 163.041 622.281 163.705 623.685C165.163 641.132 167.045 658.497 169.352 675.781C171.599 692.539 174.21 709.176 177.185 725.813C179.387 740.527 183.3 754.933 188.842 768.74C194.356 781.755 202.791 793.327 213.494 802.56C224.585 811.666 236.836 819.262 249.924 825.147C279.518 838.819 310.107 850.226 341.426 859.27C378.889 871.049 390.304 870.26 357.638 861.456Z" fill="#263238"/>
<path d="M436.874 685.8C429.102 684.767 337.236 665.459 333.654 664.427C331.86 663.88 330.24 662.876 328.951 661.513C327.663 660.151 326.752 658.476 326.307 656.655C323.453 649.247 320.964 641.658 318.292 634.189C313.678 621.317 308.982 608.506 304.206 595.755C304.206 592.901 303.659 589.683 303.355 587.194C303.052 584.704 302.445 580.394 301.898 576.993C300.684 569.647 298.498 562.421 297.587 555.074C297.587 554.346 296.434 554.589 296.616 555.074C298.466 562.309 299.565 569.715 299.895 577.176C300.198 580.09 300.38 583.247 300.563 585.98C297.77 578.511 294.916 571.043 291.941 563.635C288.48 555.014 284.533 546.331 281.74 537.466C281.74 536.859 280.647 537.163 280.829 537.466C283.987 545.42 286.233 553.86 288.722 561.753C291.212 569.647 293.884 578.147 296.555 586.344C301.777 602.434 307.302 618.403 312.888 634.432C315.56 642.144 318.171 649.976 321.024 657.626C321.808 660.491 323.349 663.092 325.486 665.154C327.623 667.216 330.277 668.664 333.168 669.345C349.137 673.656 427.22 686.589 436.692 686.953C437.663 687.56 437.906 685.921 436.874 685.8Z" fill="#263238"/>
</g>
<defs>
<clipPath id="clip0_1_808">
<rect x="0.577148" width="591.779" height="591.779" rx="295.889" fill="white"/>
</clipPath>
</defs>
</svg>
