<svg width="592" height="592" viewBox="0 0 592 592" fill="none" xmlns="http://www.w3.org/2000/svg">
<g clip-path="url(#clip0_1_942)">
<rect x="0.221436" width="591.779" height="591.779" rx="295.889" fill="white"/>
<rect x="0.221436" width="591.779" height="591.779" rx="295.889" fill="#006845" fill-opacity="0.6"/>
<path d="M304.081 432.493C263.886 558.3 195.822 688.175 176.149 713.737C123.385 782.47 -35.1485 850.17 -83.5406 858.913C-104.488 862.678 -154.702 727.581 -141.708 709.001C-128.715 690.421 68.3145 615.131 77.9686 605.113C84.6476 598.131 167.77 491.024 223.691 426.421C293.577 346.091 314.646 399.584 304.081 432.493Z" fill="#AD6359"/>
<path d="M-99.6311 682.771L-21.7909 840.637C-21.7909 840.637 143.665 768.93 183.071 717.745C222.476 666.559 293.88 493.089 304.506 437.836C315.132 382.583 296.795 343.116 222.78 423.871C148.765 504.625 87.4402 585.076 74.2038 598.556C60.9673 612.035 -99.6311 682.771 -99.6311 682.771Z" fill="#EBEBEB"/>
<path d="M-93.0742 674.756L0.188293 838.33C0.188293 838.33 145.911 768.687 183.07 722.966C220.229 677.246 281.493 536.866 300.68 461.091C319.867 385.315 308.634 331.58 222.84 424.296C137.046 517.012 88.5325 584.348 71.0458 599.466C62.7274 606.024 -93.0742 674.756 -93.0742 674.756Z" fill="#37474F"/>
<path d="M300.681 460.848C281.494 536.623 220.291 676.76 183.071 722.723C167.163 742.335 131.582 766.258 95.9409 787.266L283.741 375.964C312.825 368.071 313.735 409.359 300.681 460.848Z" fill="#263238"/>
<path d="M568.507 887.39C567.535 888.483 147.49 889.758 143.483 885.447C138.079 879.375 232.981 423.992 276.09 368.071C285.259 355.928 315.678 352.71 341.544 355.928C348.29 356.689 354.955 358.05 361.459 359.996H362.188C367.434 361.543 372.382 363.966 376.821 367.161C448.711 424.6 509.307 625.393 523.454 685.686C547.134 785.202 571.968 883.443 568.507 887.39Z" fill="#EBEBEB"/>
<path d="M375.606 361.817C375.606 361.817 341.422 548.221 335.472 596.673C329.522 645.126 338.265 901.051 338.265 901.051L602.023 920.542C602.023 920.542 545.009 751.139 544.341 740.392C544.341 740.392 496.981 537.474 452.596 452.712C433.21 417.611 407.039 386.714 375.606 361.817Z" fill="#37474F"/>
<path d="M602.023 920.542L482.409 911.677L397.04 380.579V380.943L450.593 449.554C451.201 450.647 451.808 451.74 452.354 452.833C496.739 537.838 544.099 740.513 544.099 740.513C545.009 751.139 602.023 920.542 602.023 920.542Z" fill="#263238"/>
<path d="M273.539 365.885C273.539 365.885 245.549 554.656 242.513 570.261C239.477 585.865 197.096 893.704 197.096 893.704L131.096 895.769L165.523 755.025C165.523 755.025 242.088 406.08 273.539 365.885Z" fill="#37474F"/>
<path d="M312.096 469.47L293.395 433.039L269.23 459.391L275.18 485.621L298.981 488.717L312.096 469.47Z" fill="#263238"/>
<path d="M298.98 488.717L310.395 756.725L260.182 845.373L234.073 745.614L275.179 485.621L298.98 488.717Z" fill="#263238"/>
<path d="M433.653 417.799C550.838 524.116 625.217 675.971 630.257 706.633C642.4 780.769 657.762 910.705 655.151 967.719C654.179 988.849 494.067 963.226 494.37 940.639C495.403 869.964 485.991 714.526 485.566 711.794C482.713 692.789 447.861 607.36 412.705 514.704C377.55 422.049 384.35 373.171 433.653 417.799Z" fill="#AD6359"/>
<path d="M486.539 941.489L664.017 951.083C664.017 951.083 650.902 756.786 636.815 702.808C622.729 648.83 502.507 468.923 431.528 403.712C364.739 342.327 364.739 393.39 390.058 465.341C415.378 537.291 478.038 711.187 480.163 723.877C482.288 736.567 486.539 941.489 486.539 941.489Z" fill="#37474F"/>
<path d="M299.709 428.182C306.631 427.878 352.594 391.751 366.499 363.943C367.47 362 363.888 342.206 360.73 317.979C358.848 303.286 357.087 286.831 356.602 271.712C356.602 268.616 346.158 274.688 346.158 274.688L326.728 280.031L262.611 297.882C268.651 316.603 272.362 335.996 273.661 355.624C273.731 357.657 273.589 359.692 273.236 361.696C273.263 362.04 273.263 362.385 273.236 362.728C271.84 374.69 288.537 428.607 299.709 428.182Z" fill="#AD6359"/>
<path d="M273.48 361.817C273.506 362.161 273.506 362.506 273.48 362.85C276.731 363.158 280.004 363.158 283.255 362.85C347.009 359.328 352.291 277.845 352.291 277.845L327.093 279.788L262.976 297.639C269.016 316.36 272.727 335.753 274.026 355.381C274.082 357.54 273.899 359.699 273.48 361.817Z" fill="#263238"/>
<path d="M354.235 143.598C369.536 175.232 366.986 273.959 346.645 299.035C317.258 335.466 261.64 347.063 228.853 309.964C197.097 274.08 202.744 145.48 226.12 121.739C260.547 87.2517 331.648 96.8451 354.235 143.598Z" fill="#AD6359"/>
<path d="M269.594 215.609C269.594 215.609 270.08 215.609 270.08 216.216C269.715 222.834 270.444 230.546 276.151 232.853C276.151 232.853 276.151 233.278 276.151 233.217C269.047 232.064 268.197 221.863 269.594 215.609Z" fill="#263238"/>
<path d="M275.666 208.808C286.352 208.201 286.777 229.695 276.819 230.242C266.862 230.788 266.679 209.294 275.666 208.808Z" fill="#263238"/>
<path d="M231.099 217.43C231.099 217.43 230.613 217.734 230.613 218.037C230.916 224.656 230.188 232.367 224.177 234.674V235.038C231.584 233.824 232.495 223.502 231.099 217.43Z" fill="#263238"/>
<path d="M225.027 210.508C214.341 209.901 213.855 231.395 223.813 231.941C233.77 232.488 233.892 211.358 225.027 210.508Z" fill="#263238"/>
<path d="M283.983 198.851C281.008 198.122 278.397 197.029 275.604 196.058C272.502 195.507 269.678 193.923 267.589 191.564C267.068 190.712 266.851 189.708 266.972 188.716C267.093 187.724 267.546 186.802 268.257 186.1C269.845 184.882 271.729 184.111 273.714 183.866C275.7 183.62 277.715 183.909 279.551 184.703C283.523 185.754 286.964 188.242 289.205 191.686C289.67 192.499 289.891 193.43 289.839 194.366C289.788 195.301 289.467 196.202 288.915 196.959C288.363 197.717 287.603 198.298 286.728 198.634C285.853 198.969 284.9 199.045 283.983 198.851Z" fill="#263238"/>
<path d="M216.526 199.883C219.401 199.251 222.239 198.46 225.027 197.515C228.128 197.082 231.004 195.655 233.224 193.447C233.789 192.617 234.06 191.623 233.994 190.621C233.928 189.62 233.528 188.669 232.859 187.921C231.334 186.619 229.486 185.751 227.509 185.409C225.533 185.067 223.501 185.264 221.626 185.978C217.614 186.827 214.062 189.144 211.669 192.475C211.166 193.264 210.902 194.182 210.908 195.117C210.914 196.053 211.19 196.966 211.703 197.749C212.216 198.531 212.944 199.149 213.8 199.527C214.656 199.906 215.602 200.029 216.526 199.883Z" fill="#263238"/>
<path d="M269.472 257.444C267.832 260.104 265.657 262.395 263.086 264.172C260.515 265.948 257.604 267.172 254.535 267.766C251.864 268.344 249.123 268.528 246.399 268.312C245.875 268.375 245.345 268.375 244.82 268.312H243.363C243.012 268.248 242.692 268.07 242.451 267.807C242.21 267.544 242.061 267.21 242.027 266.855C241.997 266.633 241.997 266.409 242.027 266.187V265.58C242.027 260.48 242.027 252.708 242.027 252.708C240.145 253.679 230.673 258.112 230.795 255.44C230.992 232.351 233.535 209.343 238.384 186.768C238.384 186.607 238.448 186.453 238.562 186.339C238.676 186.225 238.831 186.161 238.992 186.161C239.153 186.161 239.307 186.225 239.421 186.339C239.535 186.453 239.599 186.607 239.599 186.768C239.599 208.141 235.713 229.271 235.348 250.765C238.711 249.12 242.288 247.955 245.974 247.304C246.703 247.304 245.003 262.362 245.306 264.669C249.502 265.015 253.724 264.511 257.72 263.186C261.716 261.861 265.404 259.742 268.561 256.958C269.35 256.472 269.836 256.897 269.472 257.444Z" fill="#263238"/>
<path d="M249.375 265.64C252.225 269.255 255.972 272.06 260.243 273.776C262.595 274.654 265.162 274.782 267.59 274.141C272.933 272.623 272.933 268.069 271.901 263.576C271.305 261.464 270.47 259.427 269.411 257.504C263.766 262.276 256.748 265.125 249.375 265.64Z" fill="#263238"/>
<path d="M260.243 273.777C262.595 274.655 265.162 274.782 267.589 274.141C272.933 272.623 272.933 268.069 271.901 263.576C269.101 263.741 266.435 264.832 264.324 266.679C262.213 268.526 260.777 271.023 260.243 273.777Z" fill="#FF9ABB"/>
<path d="M212.52 154.77C215.98 146.269 220.048 137.708 225.088 135.886C230.128 134.065 233.71 146.451 245.307 146.998C260.912 147.787 268.198 133.336 289.995 131.393C321.265 128.6 335.534 154.527 337.173 198.972C338.57 238.621 362.674 241.9 362.674 241.9C362.674 241.9 375.546 154.102 350.531 125.564C325.515 97.0271 268.441 85.3086 230.917 113.421C217.013 124.046 212.52 154.77 212.52 154.77Z" fill="#263238"/>
<path d="M342.334 226.659C342.334 226.659 359.881 192.597 375.061 198.425C390.24 204.254 379.979 251.614 364.192 260.054C362.244 261.268 360.071 262.076 357.803 262.427C355.535 262.779 353.219 262.668 350.995 262.101C348.771 261.533 346.685 260.522 344.862 259.126C343.04 257.731 341.519 255.981 340.391 253.982L342.334 226.659Z" fill="#AD6359"/>
<path d="M371.781 211.966C371.781 211.966 372.145 212.269 371.781 212.391C360.791 218.462 356.116 230.242 353.566 242.021C354.077 240.758 354.859 239.622 355.855 238.693C356.852 237.763 358.039 237.063 359.335 236.641C360.631 236.219 362.003 236.085 363.355 236.248C364.708 236.412 366.009 236.869 367.166 237.588C367.47 237.588 367.166 238.256 367.166 238.256C365.035 237.877 362.837 238.171 360.879 239.095C358.921 240.02 357.299 241.53 356.237 243.417C354.462 246.572 353.037 249.911 351.987 253.375C351.623 254.529 349.619 254.225 349.862 252.95C347.312 237.892 356.055 215.609 371.781 211.966Z" fill="#263238"/>
<path d="M273.176 364.124L296.066 420.349L365.527 349.309L385.321 372.018C385.321 372.018 317.439 484.588 317.014 479.67L293.82 431.46L260.607 465.098L263.096 380.761L273.176 364.124Z" fill="#EBEBEB"/>
<path d="M259.453 423.385C260.364 409.481 260.85 395.394 262.368 381.55C262.368 381.065 263.218 380.883 263.339 381.55C266.132 394.969 262.489 448.34 262.55 460.909C263.946 459.451 293.334 431.339 293.637 431.764C298.677 439.415 315.678 474.266 316.831 477.727C327.578 459.816 368.684 394.726 381.435 377.786C381.513 377.718 381.611 377.677 381.714 377.669C381.817 377.66 381.92 377.685 382.008 377.739C382.096 377.793 382.165 377.874 382.203 377.97C382.242 378.066 382.25 378.172 382.224 378.272C372.935 396.851 318.531 484.588 317.681 484.588C308.726 468.01 300.62 450.988 293.394 433.586C288.415 439.657 258.725 471.534 258.603 469.47C258.086 454.104 258.37 438.721 259.453 423.385Z" fill="#263238"/>
</g>
<defs>
<clipPath id="clip0_1_942">
<rect x="0.221436" width="591.779" height="591.779" rx="295.889" fill="white"/>
</clipPath>
</defs>
</svg>
