<svg width="593" height="592" viewBox="0 0 593 592" fill="none" xmlns="http://www.w3.org/2000/svg">
<g clip-path="url(#clip0_1_555)">
<rect x="0.644287" width="591.779" height="591.779" rx="295.889" fill="white"/>
<rect x="0.644287" width="591.779" height="591.779" rx="295.889" fill="#006845" fill-opacity="0.6"/>
<path d="M358.875 581.285C428.622 724.724 575.927 875.186 659.876 875.186C738.775 875.186 937.128 719.754 1029.91 628.388C1051.06 607.559 858.15 442.896 837.4 467.039C788.955 523.452 675.656 645.904 639.362 645.904C607.013 645.904 505.233 572.528 416.156 499.782C308.221 411.494 331.102 524.399 358.875 581.285Z" fill="#F7A9A0"/>
<path d="M398.403 484.081C456.71 523.058 599.123 647.245 638.021 637.304C676.918 627.363 801.816 494.417 801.816 494.417L998.591 680.541C998.591 680.541 775.542 892.622 652.223 884.811C528.903 877 401.007 687.563 360.295 605.981C319.583 524.399 301.278 419.305 398.403 484.081Z" fill="#006845"/>
<path d="M647.173 741.688C644.546 734.423 644.546 726.467 647.173 719.202C649.8 726.467 649.8 734.423 647.173 741.688ZM833.376 604.008C833.451 600.181 832.781 596.376 831.403 592.805C830.025 596.376 829.355 600.181 829.431 604.008C829.393 607.832 830.062 611.631 831.403 615.212C832.744 611.631 833.413 607.832 833.376 604.008ZM857.045 779.481C857.083 775.657 856.414 771.858 855.073 768.277C852.444 775.515 852.444 783.446 855.073 790.684C856.414 787.103 857.083 783.305 857.045 779.481ZM449.293 697.189C449.416 693.358 448.744 689.543 447.321 685.985C444.692 693.223 444.692 701.154 447.321 708.392C448.699 704.821 449.369 701.016 449.293 697.189ZM798.423 753.76C798.499 749.932 797.829 746.127 796.451 742.556C793.822 749.794 793.822 757.725 796.451 764.963C797.829 761.392 798.499 757.587 798.423 753.76ZM577.505 626.258C581.328 626.285 585.124 625.616 588.709 624.286C585.146 622.875 581.335 622.204 577.505 622.313C573.677 622.23 569.87 622.9 566.301 624.286C569.93 625.653 573.785 626.322 577.663 626.258H577.505ZM591.707 789.185C595.531 789.223 599.329 788.554 602.911 787.213C595.673 784.584 587.741 784.584 580.503 787.213C584.132 788.58 587.987 789.25 591.865 789.185H591.707ZM732.779 710.286C736.606 710.355 740.41 709.686 743.983 708.313C740.41 706.941 736.606 706.271 732.779 706.341C728.929 706.305 725.105 706.973 721.496 708.313C725.15 709.7 729.029 710.395 732.937 710.365L732.779 710.286ZM902.492 726.934C906.319 727.009 910.124 726.339 913.695 724.961C906.457 722.333 898.526 722.333 891.288 724.961C894.901 726.394 898.763 727.092 902.649 727.012L902.492 726.934ZM807.812 537.575C811.637 537.62 815.436 536.951 819.016 535.603C815.457 534.179 811.643 533.508 807.812 533.63C803.986 533.561 800.181 534.23 796.608 535.603C800.128 536.995 803.87 537.744 807.654 537.812L807.812 537.575ZM442.981 569.608C440.288 566.859 437.103 564.638 433.592 563.06C435.152 566.558 437.376 569.719 440.141 572.37C442.785 575.142 445.948 577.368 449.451 578.918C447.827 575.507 445.579 572.43 442.824 569.845L442.981 569.608ZM524.248 744.213C521.584 741.464 518.425 739.242 514.938 737.664C518.215 744.59 523.792 750.166 530.718 753.444C529.082 750.063 526.835 747.013 524.09 744.449L524.248 744.213ZM718.104 783.662C715.425 780.895 712.237 778.672 708.715 777.114C711.913 784.095 717.513 789.695 724.495 792.894C722.87 789.503 720.652 786.43 717.946 783.82L718.104 783.662ZM824.618 682.198C821.974 679.425 818.811 677.2 815.308 675.649C818.585 682.575 824.161 688.152 831.087 691.429C829.524 687.976 827.33 684.845 824.618 682.198ZM679.916 643.616C677.248 640.893 674.089 638.698 670.606 637.146C673.883 644.072 679.46 649.649 686.386 652.926C684.798 649.534 682.606 646.459 679.916 643.853V643.616ZM651.907 839.365C649.158 842.03 646.937 845.188 645.358 848.675C648.856 847.116 652.018 844.892 654.669 842.127C657.441 839.483 659.666 836.32 661.217 832.817C657.73 834.395 654.571 836.617 651.907 839.365ZM772.071 824.769C769.33 827.422 767.132 830.585 765.601 834.079C772.527 830.802 778.104 825.225 781.381 818.299C777.848 819.845 774.637 822.04 771.913 824.769H772.071ZM568.51 690.64C565.738 693.284 563.513 696.447 561.962 699.95C565.465 698.399 568.628 696.174 571.272 693.401C574.037 690.751 576.261 687.589 577.82 684.091C574.311 685.469 571.098 687.504 568.353 690.088L568.51 690.64ZM912.275 639.908C909.526 642.554 907.327 645.718 905.805 649.218C909.292 647.639 912.451 645.418 915.115 642.669C917.844 639.988 920.063 636.834 921.664 633.359C918.153 634.937 914.969 637.158 912.275 639.908ZM496.475 639.908C493.727 642.572 491.505 645.73 489.927 649.218C496.853 645.94 502.429 640.364 505.706 633.438C502.31 635.018 499.234 637.211 496.633 639.908H496.475ZM746.981 610.557C744.232 613.221 742.01 616.38 740.432 619.867C743.954 618.309 747.142 616.086 749.821 613.319C752.55 610.638 754.769 607.483 756.37 604.008C752.915 605.603 749.785 607.824 747.139 610.557H746.981ZM390.513 520.769C390.551 516.945 389.882 513.147 388.541 509.566C387.124 513.126 386.453 516.939 386.568 520.769C386.485 524.597 387.155 528.404 388.541 531.973C389.943 528.404 390.665 524.604 390.671 520.769H390.513ZM394.379 641.328C398.229 641.364 402.053 640.696 405.662 639.355C402.074 637.939 398.235 637.267 394.379 637.383C390.553 637.313 386.749 637.983 383.176 639.355C386.81 640.705 390.661 641.374 394.537 641.328H394.379Z" fill="white"/>
<path d="M636.127 882.681C517.778 860.51 399.429 684.012 359.979 606.06C333.785 553.907 317.216 492.208 334.021 471.3C381.913 536.313 549.338 764.648 636.127 882.681Z" fill="#263238"/>
<path d="M531.349 1109.75C523.459 1118.67 -8.79654 1119.46 -11.4791 1116.22C-18.8168 1107.39 107.264 563.138 225.219 468.459C250.546 448.103 347.75 451.18 361.005 456.388C376.154 462.147 418.917 534.498 438.405 593.436C477.224 711.39 538.292 1101.94 531.349 1109.75Z" fill="#006845"/>
<path d="M325.264 779.481C323.923 775.899 323.254 772.101 323.291 768.277C323.208 764.449 323.878 760.642 325.264 757.073C326.649 760.642 327.32 764.449 327.236 768.277C327.273 772.101 326.605 775.899 325.264 779.481ZM392.644 896.252C392.68 892.402 392.011 888.578 390.671 884.969C389.254 888.557 388.583 892.396 388.699 896.252C388.629 900.079 389.299 903.883 390.671 907.456C392.002 903.871 392.67 900.075 392.644 896.252ZM390.671 520.77C390.708 516.945 390.04 513.147 388.699 509.566C387.282 513.126 386.61 516.939 386.726 520.77C386.643 524.597 387.313 528.404 388.699 531.973C390.047 528.394 390.716 524.594 390.671 520.77ZM227.981 900.512C228.025 896.688 227.356 892.888 226.008 889.309C224.585 892.867 223.913 896.682 224.036 900.512C223.96 904.34 224.63 908.145 226.008 911.716C227.349 908.135 228.018 904.336 227.981 900.512ZM505.943 953.612C506.019 949.759 505.349 945.928 503.971 942.329C502.592 945.928 501.923 949.759 501.998 953.612C501.972 957.435 502.64 961.231 503.971 964.815C505.343 961.243 506.013 957.438 505.943 953.612ZM313.981 1030.3C314.056 1026.47 313.386 1022.67 312.008 1019.1C310.63 1022.67 309.961 1026.47 310.036 1030.3C309.991 1034.13 310.66 1037.93 312.008 1041.51C313.394 1037.94 314.064 1034.13 313.981 1030.3ZM157.76 1083.09C157.797 1079.26 157.129 1075.46 155.788 1071.88C153.159 1079.12 153.159 1087.05 155.788 1094.29C157.129 1090.71 157.797 1086.91 157.76 1083.09ZM285.893 622.076C285.962 618.25 285.292 614.446 283.92 610.873C281.293 618.138 281.293 626.094 283.92 633.359C285.299 629.76 285.968 625.929 285.893 622.076ZM184.823 558.326C184.867 554.501 184.198 550.702 182.85 547.122C180.222 554.36 180.222 562.292 182.85 569.529C184.191 565.948 184.86 562.15 184.823 558.326ZM182.85 748.868C182.877 745.044 182.208 741.248 180.878 737.664C178.25 744.929 178.25 752.885 180.878 760.15C182.218 756.541 182.886 752.717 182.85 748.868ZM76.4938 954.006C76.6164 950.175 75.9448 946.361 74.5213 942.802C73.1732 946.382 72.5043 950.181 72.5489 954.006C72.5223 957.829 73.1906 961.626 74.5213 965.21C75.9445 961.514 76.6151 957.57 76.4938 953.612V954.006ZM449.293 697.583C449.416 693.752 448.744 689.938 447.321 686.379C444.692 693.617 444.692 701.549 447.321 708.787C448.75 705.092 449.421 701.148 449.293 697.189V697.583ZM255.28 732.062C259.103 732.089 262.899 731.42 266.483 730.09C259.218 727.462 251.262 727.462 243.997 730.09C247.631 731.296 251.454 731.83 255.28 731.668V732.062ZM243.997 981.858C247.847 981.894 251.671 981.225 255.28 979.885C248.015 977.258 240.059 977.258 232.793 979.885C236.403 981.082 240.198 981.616 243.997 981.463V981.858ZM304.75 1108.25C308.577 1108.34 312.384 1107.67 315.953 1106.28C312.374 1104.93 308.574 1104.26 304.75 1104.31C300.926 1104.28 297.13 1104.95 293.546 1106.28C297.119 1107.65 300.923 1108.32 304.75 1108.25ZM444.323 775.062C448.147 775.1 451.945 774.431 455.526 773.09C448.288 770.461 440.357 770.461 433.119 773.09C436.614 774.463 440.331 775.185 444.086 775.22L444.323 775.062ZM168.175 638.488C172.002 638.563 175.807 637.893 179.379 636.515C175.807 635.137 172.002 634.467 168.175 634.543C164.351 634.505 160.553 635.174 156.971 636.515C160.409 637.897 164.076 638.62 167.78 638.645L168.175 638.488ZM306.88 535.918C310.704 535.956 314.502 535.287 318.084 533.946C314.523 532.529 310.71 531.858 306.88 531.973C303.052 531.89 299.245 532.56 295.676 533.946C299.137 535.22 302.798 535.861 306.486 535.839L306.88 535.918ZM166.991 832.107C170.815 832.144 174.614 831.475 178.195 830.134C174.635 828.717 170.821 828.046 166.991 828.162C163.164 828.078 159.357 828.748 155.788 830.134C159.367 831.482 163.167 832.151 166.991 832.107ZM88.7231 1030.22C92.5498 1030.29 96.3539 1029.62 99.9268 1028.25C92.6617 1025.62 84.7058 1025.62 77.4406 1028.25C81.0339 1029.66 84.8651 1030.35 88.7231 1030.3V1030.22ZM394.537 641.249C398.387 641.285 402.211 640.617 405.82 639.276C402.232 637.86 398.393 637.188 394.537 637.304C390.711 637.235 386.906 637.904 383.334 639.276C386.913 640.634 390.709 641.329 394.537 641.328V641.249ZM321.24 850.174C325.067 850.258 328.874 849.588 332.443 848.202C325.205 845.574 317.274 845.574 310.036 848.202C313.602 849.607 317.407 850.304 321.24 850.253V850.174ZM481.406 1092.47C485.233 1092.56 489.04 1091.89 492.609 1090.5C485.371 1087.87 477.44 1087.87 470.202 1090.5C473.773 1091.88 477.578 1092.55 481.406 1092.47ZM388.699 983.751C392.522 983.778 396.318 983.109 399.902 981.779C392.637 979.151 384.681 979.151 377.416 981.779C381.045 983.012 384.868 983.573 388.699 983.436V983.751ZM390.04 1072.83C387.376 1070.08 384.217 1067.86 380.73 1066.28C382.29 1069.78 384.514 1072.94 387.279 1075.59C389.922 1078.36 393.086 1080.59 396.589 1082.14C395.045 1078.54 392.821 1075.27 390.04 1072.51V1072.83ZM90.2222 874.081C87.558 871.333 84.3995 869.111 80.9122 867.532C82.4719 871.03 84.6959 874.192 87.4608 876.843C90.1251 879.591 93.2836 881.813 96.7709 883.391C95.1804 879.778 92.9026 876.509 90.0644 873.765L90.2222 874.081ZM253.544 809.226C250.885 806.435 247.692 804.208 244.155 802.677C245.733 806.164 247.955 809.323 250.704 811.987C253.397 814.737 256.582 816.958 260.093 818.536C258.478 814.936 256.204 811.671 253.386 808.91L253.544 809.226ZM163.757 980.358C161.092 977.61 157.934 975.388 154.446 973.81C157.724 980.736 163.3 986.312 170.226 989.59C168.65 986.012 166.4 982.77 163.599 980.043L163.757 980.358ZM19.6862 1073.38C17.003 1070.64 13.8147 1068.44 10.2971 1066.91C11.8755 1070.4 14.0972 1073.56 16.8458 1076.22C19.5395 1078.97 22.724 1081.19 26.2348 1082.77C24.6146 1079.15 22.3412 1075.86 19.5285 1073.07L19.6862 1073.38ZM139.929 696.084C137.279 693.319 134.117 691.095 130.619 689.535C132.197 693.046 134.418 696.231 137.167 698.924C139.836 701.648 142.995 703.843 146.478 705.394C144.916 701.765 142.635 698.49 139.771 695.768L139.929 696.084ZM326.684 682.198C324.025 679.407 320.832 677.18 317.295 675.649C318.873 679.136 321.095 682.295 323.843 684.959C326.537 687.709 329.722 689.93 333.232 691.508C331.632 688.033 329.413 684.879 326.684 682.198ZM450.714 940.988C448.049 938.239 444.891 936.017 441.404 934.439C442.963 937.937 445.187 941.099 447.952 943.749C450.596 946.522 453.759 948.747 457.262 950.298C455.684 946.81 453.462 943.652 450.714 940.988ZM245.575 578.051C242.932 575.278 239.768 573.053 236.265 571.502C239.542 578.428 245.119 584.004 252.045 587.282C250.46 583.732 248.211 580.518 245.417 577.814L245.575 578.051ZM393.433 813.407C390.768 810.659 387.61 808.437 384.122 806.859C385.68 810.381 387.904 813.569 390.671 816.248C393.352 818.977 396.507 821.196 399.981 822.797C398.382 819.189 396.105 815.921 393.275 813.171L393.433 813.407ZM390.671 723.935C387.906 726.586 385.682 729.748 384.122 733.246C391.049 729.968 396.625 724.392 399.902 717.466C396.398 718.914 393.208 721.031 390.513 723.699L390.671 723.935ZM145.136 910.533C142.364 913.176 140.138 916.34 138.588 919.843C142.07 918.291 145.229 916.096 147.898 913.373C150.647 910.679 152.868 907.495 154.446 903.984C150.922 905.474 147.71 907.616 144.978 910.296L145.136 910.533ZM454.027 866.112C451.263 868.762 449.038 871.924 447.479 875.422C450.989 873.844 454.174 871.623 456.868 868.874C459.591 866.205 461.786 863.046 463.338 859.564C459.808 861.046 456.595 863.188 453.869 865.876L454.027 866.112ZM238.474 1060.91C235.726 1063.58 233.504 1066.74 231.926 1070.22C235.443 1068.69 238.631 1066.5 241.315 1063.76C244.04 1061.04 246.257 1057.86 247.863 1054.37C244.352 1055.94 241.168 1058.17 238.474 1060.91ZM224.588 678.332C221.823 680.982 219.599 684.144 218.039 687.642C224.965 684.364 230.542 678.788 233.819 671.862C230.397 673.307 227.269 675.366 224.588 677.937V678.332ZM308.616 941.382C305.893 944.051 303.698 947.21 302.146 950.692C305.649 949.141 308.813 946.916 311.456 944.144C314.221 941.493 316.445 938.332 318.005 934.834C314.525 936.293 311.343 938.379 308.616 940.988V941.382ZM450.635 1026.04C447.862 1028.68 445.637 1031.85 444.086 1035.35C451.012 1032.07 456.589 1026.5 459.866 1019.57C456.444 1021.02 453.315 1023.08 450.635 1025.65V1026.04ZM108.132 787.292C105.384 789.956 103.162 793.115 101.584 796.602C105.095 795.024 108.279 792.803 110.973 790.053C113.696 787.385 115.891 784.226 117.443 780.743C113.987 782.204 110.83 784.29 108.132 786.897V787.292ZM345.541 594.067C342.792 596.731 340.57 599.89 338.992 603.377C345.918 600.1 351.495 594.523 354.772 587.597C351.35 589.043 348.221 591.102 345.541 593.673V594.067ZM228.138 498.362C225.389 501.039 223.191 504.229 221.669 507.751C225.156 506.173 228.314 503.951 230.979 501.203C233.708 498.522 235.927 495.367 237.527 491.892C234.051 493.324 230.868 495.383 228.138 497.968V498.362Z" fill="white"/>
<path d="M367.08 607.007L374.812 572.922L343.41 538.68L319.109 581.68L336.152 611.03L321.319 959.292L386.568 1074.49L420.495 944.854L367.08 607.007Z" fill="#263238"/>
<path d="M264.59 455.599L23.4734 953.612C68.0515 782.637 148.292 530.159 224.982 468.459C236.968 461.07 250.55 456.66 264.59 455.599Z" fill="#263238"/>
<path d="M220.091 571.738C186.559 631.86 -12.189 855.776 -17.2386 877.947C-22.2881 900.118 21.4221 958.819 21.7377 967.655C22.8423 1003.63 -17.1597 1241.67 -50.9287 1221.32C-95.349 1194.41 -286.207 994.166 -273.741 892.701C-261.275 791.236 124.386 519.586 185.612 491.34C246.838 463.094 253.229 512.09 220.091 571.738Z" fill="#F7A9A0"/>
<path d="M-145.608 1161.12L12.1907 934.597C12.1907 934.597 -13.925 890.413 -11.4791 876.053C-9.03323 861.694 192.476 641.091 229.006 565.111C265.537 489.131 274.058 442.58 188.294 482.819C102.531 523.057 -256.462 799.915 -277.212 872.976C-297.963 946.037 -212.515 1061.86 -145.608 1161.12Z" fill="#006845"/>
<path d="M88.7231 676.99C86.0956 669.725 86.0956 661.769 88.7231 654.504C91.3506 661.769 91.3506 669.725 88.7231 676.99ZM184.823 558.641C184.867 554.816 184.198 551.017 182.85 547.437C180.222 554.675 180.222 562.607 182.85 569.845C184.23 566.164 184.899 562.256 184.823 558.326V558.641ZM-38.226 749.183C-38.1566 745.357 -38.8263 741.552 -40.1985 737.98C-42.8259 745.245 -42.8259 753.201 -40.1985 760.466C-38.7794 756.768 -38.109 752.826 -38.226 748.868V749.183ZM-194.604 826.11C-194.529 822.283 -195.199 818.478 -196.577 814.906C-199.205 822.144 -199.205 830.076 -196.577 837.314C-195.15 833.646 -194.479 829.728 -194.604 825.794V826.11ZM-63.3949 881.734C-63.3577 877.91 -64.0263 874.112 -65.3674 870.53C-67.9959 877.768 -67.9959 885.7 -65.3674 892.938C-63.9875 889.257 -63.3182 885.349 -63.3949 881.419V881.734ZM-190.66 959.213C-190.584 955.361 -191.254 951.529 -192.632 947.931C-195.259 955.196 -195.259 963.152 -192.632 970.417C-191.219 966.746 -190.549 962.83 -190.66 958.898V959.213ZM-63.3949 997.558C-63.3577 993.734 -64.0263 989.936 -65.3674 986.355C-67.9959 993.593 -67.9959 1001.52 -65.3674 1008.76C-63.9875 1005.08 -63.3182 1001.17 -63.3949 997.243V997.558ZM153.815 516.272C157.642 516.342 161.446 515.672 165.019 514.3C161.435 512.969 157.638 512.301 153.815 512.327C149.99 512.283 146.191 512.952 142.611 514.3C146.164 515.766 149.971 516.517 153.815 516.509V516.272ZM167.78 638.803C171.607 638.878 175.413 638.208 178.984 636.83C175.413 635.452 171.607 634.783 167.78 634.858C163.956 634.821 160.158 635.489 156.577 636.83C160.159 638.155 163.964 638.771 167.78 638.645V638.803ZM23.4734 629.098C27.3006 629.174 31.1058 628.504 34.6771 627.126C31.1058 625.748 27.3006 625.078 23.4734 625.153C19.6487 625.109 15.8491 625.778 12.2696 627.126C15.8495 628.458 19.6561 629.074 23.4734 628.941V629.098ZM76.4938 729.537C80.3435 729.573 84.1673 728.905 87.7764 727.565C80.5112 724.937 72.5551 724.937 65.29 727.565C68.8742 728.895 72.6706 729.564 76.4938 729.537ZM-94.0078 720.937C-90.1837 720.974 -86.3855 720.306 -82.8041 718.965C-90.042 716.336 -97.9737 716.336 -105.212 718.965C-101.642 720.367 -97.8425 721.089 -94.0078 721.095V720.937ZM-122.254 852.068C-118.427 852.143 -114.621 851.473 -111.05 850.095C-118.288 847.467 -126.22 847.467 -133.457 850.095C-129.899 851.535 -126.092 852.259 -122.254 852.226V852.068ZM-160.757 1104.55C-156.926 1104.67 -153.111 1104 -149.553 1102.57C-156.791 1099.95 -164.723 1099.95 -171.96 1102.57C-168.405 1104.03 -164.599 1104.78 -160.757 1104.78V1104.55ZM-133.457 983.199C-129.634 983.225 -125.838 982.557 -122.254 981.226C-125.827 979.854 -129.631 979.184 -133.457 979.254C-137.285 979.17 -141.092 979.84 -144.661 981.226C-141.097 982.655 -137.297 983.405 -133.457 983.435V983.199ZM-251.175 938.147C-247.323 938.223 -243.491 937.553 -239.893 936.175C-247.158 933.547 -255.114 933.547 -262.379 936.175C-258.822 937.628 -255.018 938.378 -251.175 938.384V938.147ZM-40.7507 668.232C-43.4149 665.484 -46.5735 663.262 -50.0609 661.684C-48.5118 665.211 -46.287 668.401 -43.5122 671.073C-40.8436 673.796 -37.685 675.991 -34.2021 677.543C-35.8059 674.14 -38.0262 671.063 -40.7507 668.469V668.232ZM-92.5876 791.552C-95.2814 788.803 -98.4659 786.582 -101.977 785.004C-98.6993 791.93 -93.123 797.506 -86.1968 800.783C-87.7586 797.419 -89.9248 794.371 -92.5876 791.789V791.552ZM-205.098 1028.64C-207.752 1025.9 -210.914 1023.71 -214.408 1022.18C-211.131 1029.1 -205.555 1034.68 -198.628 1037.95C-200.189 1034.55 -202.385 1031.47 -205.098 1028.88V1028.64ZM-90.5363 1047.82C-93.1866 1045.05 -96.3484 1042.83 -99.8464 1041.27C-98.2866 1044.77 -96.0626 1047.93 -93.2977 1050.58C-90.6541 1053.35 -87.4906 1055.58 -83.9876 1057.13C-85.5914 1053.72 -87.8118 1050.65 -90.5363 1048.05V1047.82ZM-241.786 877.789C-244.465 875.022 -247.653 872.798 -251.175 871.241C-249.616 874.739 -247.392 877.9 -244.627 880.551C-241.969 883.307 -238.809 885.529 -235.317 887.099C-236.894 883.701 -239.087 880.624 -241.786 878.026V877.789ZM-109.63 915.819C-112.299 913.096 -115.457 910.9 -118.94 909.349C-117.418 912.848 -115.219 916.012 -112.47 918.659C-109.777 921.409 -106.592 923.63 -103.081 925.208C-104.711 921.797 -106.928 918.699 -109.63 916.055V915.819ZM70.9707 585.467C68.277 582.717 65.0925 580.496 61.5817 578.918C63.1597 582.429 65.3809 585.614 68.1304 588.307C70.799 591.031 73.9577 593.226 77.4406 594.777C75.8635 591.379 73.6698 588.302 70.9707 585.704V585.467ZM31.5211 783.583C28.8708 780.818 25.709 778.594 22.211 777.035C23.789 780.546 26.0101 783.73 28.7596 786.424C31.4283 789.147 34.5869 791.342 38.0697 792.893C36.4689 789.468 34.2181 786.387 31.4422 783.82L31.5211 783.583ZM126.91 593.436C124.138 596.079 121.913 599.243 120.362 602.746C127.288 599.468 132.864 593.892 136.142 586.966C132.63 588.573 129.468 590.851 126.832 593.672L126.91 593.436ZM18.8182 695.532C16.0456 698.175 13.8204 701.339 12.2696 704.842C15.7524 703.29 18.9111 701.095 21.5798 698.372C24.3293 695.678 26.5504 692.494 28.1284 688.983C24.5935 690.623 21.4061 692.927 18.7394 695.768L18.8182 695.532ZM-162.098 773.563C-164.821 776.232 -167.016 779.39 -168.568 782.873C-165.085 781.322 -161.926 779.127 -159.258 776.404C-156.508 773.71 -154.287 770.525 -152.709 767.014C-156.267 768.654 -159.48 770.957 -162.177 773.8L-162.098 773.563ZM-179.298 895.936C-182.065 898.615 -184.289 901.803 -185.847 905.325C-178.865 902.127 -173.265 896.527 -170.067 889.545C-173.532 891.196 -176.683 893.439 -179.377 896.173L-179.298 895.936ZM-43.4334 940.751C-46.3628 943.481 -48.6993 946.784 -50.2976 950.456C-46.7946 948.905 -43.6311 946.679 -40.9875 943.907C-38.2592 941.273 -36.0627 938.139 -34.5177 934.676C-37.8738 936.217 -40.9215 938.356 -43.5122 940.988L-43.4334 940.751ZM-150.815 1039.93C-153.606 1042.56 -155.834 1045.72 -157.364 1049.24C-150.438 1045.96 -144.862 1040.38 -141.584 1033.46C-145.084 1035.08 -148.244 1037.36 -150.894 1040.16L-150.815 1039.93ZM-28.6002 826.899C-31.3488 829.563 -33.5705 832.722 -35.1489 836.209C-28.2227 832.932 -22.6464 827.356 -19.369 820.429C-22.8437 821.961 -26.0013 824.128 -28.6791 826.82L-28.6002 826.899ZM228.217 498.046C225.468 500.723 223.27 503.913 221.747 507.436C225.235 505.857 228.393 503.635 231.058 500.887C233.787 498.206 236.006 495.051 237.606 491.577C234.077 493.094 230.865 495.262 228.138 497.967L228.217 498.046Z" fill="white"/>
<path d="M350.275 527.318C322.344 537.338 268.14 499.072 244.628 465.777C243.05 463.489 243.918 437.373 243.366 405.576C242.971 386.325 242.104 364.864 239.894 345.376C239.421 341.352 253.938 347.112 253.938 347.112L279.896 350.347L365.739 361.156C361.511 386.356 360.398 411.98 362.425 437.452C362.74 440.133 363.322 442.776 364.161 445.342C364.161 445.342 364.161 446.131 364.161 446.604C368.658 461.674 377.258 517.613 350.275 527.318Z" fill="#F7A9A0"/>
<path d="M364.161 445.499C364.161 445.499 364.161 446.288 364.161 446.762C360.052 447.85 355.853 448.563 351.616 448.892C269.008 456.782 246.838 352.714 246.838 352.714L279.581 350.426L365.423 361.235C361.195 386.435 360.082 412.059 362.11 437.531C362.522 440.249 363.209 442.919 364.161 445.499Z" fill="#263238"/>
<path d="M211.648 194.757C200.129 238.941 228.533 364.075 260.803 390.822C307.511 429.72 381.361 430.272 413.71 375.042C445.269 321.154 405.189 158.779 369.368 134.715C316.742 99.0523 228.533 129.429 211.648 194.757Z" fill="#F7A9A0"/>
<path d="M319.03 269.554C319.03 269.554 318.399 270.106 318.557 270.422C320.687 278.785 321.713 288.726 314.691 293.224C314.691 293.224 314.691 293.776 314.691 293.697C323.922 290.304 322.344 277.128 319.03 269.554Z" fill="#263238"/>
<path d="M309.484 262.374C295.755 264.347 300.726 291.804 313.507 289.989C326.289 288.174 321.082 260.717 309.484 262.374Z" fill="#263238"/>
<path d="M370.394 258.666C370.394 258.666 371.104 258.666 371.183 259.297C372.445 267.818 375.365 277.444 383.491 278.864V279.337C373.944 279.811 370.236 266.95 370.394 258.666Z" fill="#263238"/>
<path d="M376.39 248.251C389.803 244.701 395.879 271.921 383.412 275.235C370.946 278.548 365.029 251.328 376.39 248.251Z" fill="#263238"/>
<path d="M296.386 251.801C299.811 250.109 303.131 248.212 306.328 246.121C310.115 243.912 313.429 242.57 315.401 238.231C315.849 237.016 315.875 235.686 315.474 234.455C315.073 233.224 314.269 232.164 313.192 231.445C310.857 230.298 308.258 229.796 305.664 229.99C303.07 230.184 300.575 231.068 298.438 232.55C293.624 234.892 289.855 238.942 287.865 243.912C287.448 245.076 287.382 246.338 287.676 247.54C287.97 248.742 288.611 249.831 289.519 250.672C290.427 251.513 291.562 252.068 292.783 252.269C294.004 252.47 295.257 252.307 296.386 251.801Z" fill="#263238"/>
<path d="M384.438 232.471C380.64 232.405 376.848 232.141 373.077 231.682C368.993 231.942 364.939 230.831 361.557 228.526C360.633 227.616 360.038 226.424 359.867 225.138C359.695 223.852 359.957 222.546 360.61 221.425C362.233 219.395 364.368 217.834 366.795 216.905C369.223 215.975 371.854 215.711 374.418 216.139C379.766 216.188 384.908 218.211 388.856 221.82C389.696 222.705 390.26 223.815 390.482 225.015C390.703 226.215 390.572 227.453 390.105 228.58C389.638 229.707 388.854 230.674 387.848 231.365C386.842 232.055 385.658 232.44 384.438 232.471Z" fill="#263238"/>
<path d="M327.709 348.295C330.155 349.952 332.68 352.319 335.599 352.004C338.734 351.388 341.695 350.096 344.278 348.217C344.278 348.217 344.909 348.217 344.752 348.217C343.848 350.11 342.444 351.721 340.692 352.875C338.94 354.029 336.907 354.682 334.81 354.765C333.024 354.594 331.326 353.906 329.925 352.785C328.524 351.664 327.48 350.158 326.92 348.453C326.763 348.374 327.394 348.059 327.709 348.295Z" fill="#263238"/>
<path d="M332.049 321.233C334.811 324.224 338.168 326.605 341.905 328.222C345.641 329.839 349.675 330.657 353.746 330.622C357.294 330.655 360.828 330.177 364.24 329.202L366.212 328.649L367.948 328.018C368.398 327.862 368.782 327.559 369.039 327.159C369.297 326.758 369.412 326.283 369.368 325.809V324.941V324.231C368.422 317.604 365.976 307.82 365.976 307.82C368.579 308.53 381.756 311.844 380.967 308.451C374.823 279.075 365.729 250.395 353.825 222.845C353.75 222.663 353.608 222.516 353.43 222.432C353.251 222.349 353.047 222.335 352.858 222.395C352.67 222.454 352.511 222.582 352.413 222.753C352.314 222.924 352.283 223.126 352.326 223.319C357.77 250.539 368.106 276.576 374.023 303.796C369.316 302.549 364.452 301.991 359.585 302.139C358.717 302.139 364.634 321.075 364.871 324.073C359.62 325.575 354.12 326.006 348.699 325.342C343.278 324.678 338.045 322.932 333.311 320.207C331.97 319.971 331.418 320.681 332.049 321.233Z" fill="#263238"/>
<path d="M359.979 327.703C357.022 332.898 352.75 337.225 347.592 340.248C344.75 341.878 341.455 342.542 338.203 342.141C331.181 341.273 330.313 335.04 330.313 329.517C330.653 326.561 331.314 323.651 332.286 320.839C340.529 326.066 350.248 328.475 359.979 327.703Z" fill="#263238"/>
<path d="M347.355 340.248C344.513 341.878 341.218 342.542 337.966 342.141C330.944 341.273 330.076 335.04 330.076 329.517C333.747 329.074 337.46 329.895 340.602 331.846C343.743 333.797 346.125 336.76 347.355 340.248Z" fill="#FF9ABB"/>
<path d="M223.168 289.989C252.124 284.308 247.705 230.735 247.705 230.735C247.705 230.735 295.834 213.141 295.913 174.322C295.913 174.322 348.776 195.467 383.333 174.953C417.891 154.44 403.847 109.309 397.93 101.183C384.438 82.5623 358.48 114.753 358.48 114.753C358.48 114.753 306.328 95.344 254.333 110.729C211.964 123.274 198.078 168.01 198.078 168.01C198.078 168.01 175.828 177.399 171.41 195.073C166.991 212.746 204.784 293.539 223.168 289.989Z" fill="#263238"/>
<path d="M236.107 233.339C275.557 231.13 296.071 200.675 294.651 162.803H295.361C300.805 197.361 276.109 241.702 236.028 235.233C235.777 235.222 235.541 235.112 235.37 234.927C235.2 234.743 235.11 234.498 235.121 234.246C235.131 233.995 235.241 233.759 235.426 233.589C235.611 233.418 235.856 233.329 236.107 233.339Z" fill="#263238"/>
<path d="M199.182 167.142C199.182 167.142 199.892 167.616 199.182 167.853C189.32 174.875 177.722 180.95 172.041 192.232C165.177 205.803 170.147 220.952 176.065 233.812C185.375 253.616 201.234 278.627 222.221 287.306C223.483 287.858 222.221 289.594 221.432 289.2C196.579 280.284 176.854 247.62 169.043 223.634C160.758 196.809 174.881 177.952 199.182 167.142Z" fill="#263238"/>
<path d="M339.939 176.295C349.837 180.184 360.665 181.053 371.057 178.792C381.448 176.531 390.937 171.242 398.324 163.592C415.682 144.183 406.688 119.645 394.064 100.473C393.433 99.5257 394.616 98.1056 395.484 98.9735C410.869 115.227 417.023 143.315 403.374 162.645C389.724 181.976 359.664 187.893 338.755 179.372C337.098 178.425 338.203 175.585 339.939 176.295Z" fill="#263238"/>
<path d="M242.971 296.38C242.971 296.38 211.885 257.403 194.054 268.686C176.223 279.968 201.313 337.723 223.562 344.429C226.35 345.485 229.322 345.965 232.3 345.841C235.278 345.718 238.2 344.993 240.891 343.71C243.582 342.428 245.985 340.614 247.956 338.378C249.927 336.142 251.425 333.531 252.361 330.701L242.971 296.38Z" fill="#F7A9A0"/>
<path d="M201.628 285.097C201.628 285.097 201.628 285.57 201.628 285.649C217.408 290.857 226.166 304.506 232.715 318.787C231.734 317.317 230.447 316.076 228.941 315.151C227.435 314.226 225.747 313.638 223.992 313.428C222.238 313.218 220.458 313.391 218.777 313.935C217.095 314.479 215.552 315.38 214.252 316.578C213.858 316.578 214.252 317.446 214.726 317.367C217.343 316.343 220.214 316.158 222.942 316.836C225.67 317.515 228.12 319.024 229.953 321.154C233.018 324.706 235.665 328.597 237.843 332.752C238.632 334.094 241.078 333.226 240.447 331.727C239.421 311.923 222.615 285.728 201.628 285.097Z" fill="#263238"/>
<path d="M365.502 449.997L338.834 525.74L242.34 435.558L217.408 467.118C217.408 467.118 314.297 612.766 314.612 605.981L342.464 540.573L388.699 583.258L380.257 471.457L365.502 449.997Z" fill="#006845"/>
<path d="M387.673 527.555C385.622 509.092 384.122 490.472 381.282 472.325C381.282 471.694 380.099 471.457 380.02 472.325C377.1 490.314 385.148 560.693 385.779 577.656C383.886 575.841 343.095 540.179 342.7 540.81C336.546 551.304 316.032 598.959 314.691 603.22C299.306 580.102 240.841 496.074 222.931 474.377C222.837 474.23 222.688 474.127 222.518 474.09C222.348 474.053 222.17 474.085 222.024 474.18C221.877 474.274 221.774 474.422 221.737 474.592C221.7 474.763 221.732 474.94 221.826 475.087C235.555 499.625 313.113 612.766 314.139 612.451C325.07 589.911 334.814 566.814 343.331 543.256C350.275 551.146 391.697 591.542 391.697 588.781C391.401 568.317 390.058 547.882 387.673 527.555Z" fill="#263238"/>
</g>
<defs>
<clipPath id="clip0_1_555">
<rect x="0.644287" width="591.779" height="591.779" rx="295.889" fill="white"/>
</clipPath>
</defs>
</svg>
