<svg width="593" height="592" viewBox="0 0 593 592" fill="none" xmlns="http://www.w3.org/2000/svg">
<g clip-path="url(#clip0_1_732)">
<rect x="0.932861" width="591.779" height="591.779" rx="295.889" fill="white"/>
<rect x="0.932861" width="591.779" height="591.779" rx="295.889" fill="#006845" fill-opacity="0.6"/>
<path d="M263.302 465.14C307.905 520.071 469.87 677.103 570.984 700.128C626.704 712.825 895.967 750.52 932.807 716.903C976.094 677.432 956.03 529.347 921.624 527.966C816.761 523.821 622.691 544.346 574.207 533.689C552.234 528.821 436.056 453.825 311.852 393.894C265.276 371.197 233.238 427.773 263.302 465.14Z" fill="#AD6359"/>
<path d="M880.31 515.006C880.31 515.006 879.718 520.729 878.731 530.465C878.731 532.044 878.731 533.755 878.27 535.531C877.678 541.123 877.02 547.701 876.297 554.938C876.297 555.793 876.297 556.648 876.297 557.503C875.727 563.556 875.069 570.003 874.323 576.845C874.323 578.489 873.929 580.2 873.797 581.91C873.139 588.16 872.415 594.673 871.758 601.317C871.758 602.172 871.758 603.028 871.758 603.883C871.034 610.461 870.376 617.04 869.652 623.619C869.652 625.263 869.258 626.974 869.126 628.618C868.402 635.197 867.679 641.775 866.955 648.025C866.955 648.88 866.955 649.736 866.626 650.591C865.903 657.169 865.179 663.748 864.455 669.998L863.863 674.997C863.337 679.142 862.876 683.221 862.416 687.168C862.087 689.602 861.758 692.036 861.495 694.404C861.495 695.26 861.495 696.115 861.495 696.97C861.012 700.654 860.552 704.206 860.113 707.627C859.719 710.654 859.324 713.614 858.995 716.377C858.995 718.087 858.469 719.798 858.206 721.377C856.89 730.389 855.772 737.165 854.785 741.112C854.625 742.004 854.337 742.869 853.929 743.678C853.929 743.678 853.601 744.073 853.469 744.073L850.114 743.678L840.772 742.691L835.707 742.165L824.918 741.112L816.366 740.257H813.734L794.393 738.284L789.328 737.757L769.986 735.784H767.355L748.014 733.744L742.948 733.218L723.607 731.113H720.976L701.635 729.008L696.569 728.416L677.228 726.179H674.597L655.256 723.877L650.19 723.284L646.045 722.758L630.849 720.85L628.217 720.521L608.876 717.956H607.626L603.811 717.429L584.47 714.667L581.838 714.272C574.865 713.219 568.418 712.167 562.497 711.114L557.432 710.193C549.8 708.812 543.222 707.496 538.091 706.18L535.459 705.522L534.078 705.127C528.689 703.477 523.486 701.273 518.552 698.549L516.118 697.299L513.75 695.983L511.052 694.47C505.066 690.918 498.619 686.773 491.711 681.971C490.856 681.445 490.001 680.787 489.08 680.129L484.08 676.576L477.173 671.577L469.739 665.985L464.673 662.103L452.174 652.17L448.95 649.604L445.332 646.644L442.701 644.473L439.214 641.644C434.741 637.894 430.136 634.144 425.596 630.197C424.819 629.6 424.072 628.963 423.36 628.289L419.676 625.197L418.294 624.013C411.715 618.487 405.137 612.895 398.953 607.172L397.374 605.79L396.321 604.87L394.479 603.225L376.98 587.502L372.902 583.818L371.915 582.897L367.31 578.752C362.31 574.213 357.376 569.608 352.508 565.069L348.824 561.056L345.272 557.767L342.508 555.201L329.351 542.899L324.286 538.097L321.852 535.794L316.523 530.729L304.879 519.545L302.313 517.045L296.524 511.388L293.827 508.756L283.038 497.836L278.038 492.836L274.42 489.283L270.21 485.007L269.486 484.218C265.54 480.23 261.911 475.941 258.631 471.389C257.71 470.205 256.855 468.955 256.065 467.705C255.276 466.456 254.816 465.798 254.223 464.877C253.635 464.038 253.107 463.159 252.645 462.245C248.973 456.167 246.036 449.675 243.895 442.904C243.3 441.244 242.795 439.553 242.382 437.839C240.711 431.534 240.001 425.014 240.277 418.497C240.277 417.576 240.277 416.721 240.277 415.866C240.843 408.882 243.324 402.19 247.448 396.525C248.88 394.664 250.513 392.965 252.316 391.459C253.41 390.516 254.576 389.658 255.802 388.894C256.625 388.337 257.482 387.831 258.368 387.381C264.402 384.38 271.036 382.783 277.775 382.71H283.038C288.532 382.97 293.992 383.719 299.353 384.947L302.445 385.736C303.315 385.893 304.172 386.113 305.01 386.394C310.161 387.791 315.233 389.46 320.207 391.394L324.417 393.104L329.483 395.275L331.983 396.459C335.338 397.972 338.561 399.683 342.377 401.59L348.956 404.946L351.521 406.327L369.218 415.8L370.928 416.721L374.086 418.432C374.743 418.743 375.38 419.095 375.994 419.484C382.572 422.971 389.151 426.523 395.335 430.076L397.966 431.523L409.15 438.102L417.307 442.707L418.162 443.167L422.373 445.536L441.714 456.522L444.345 458.035L452.174 462.508L456.779 465.14L463.358 469.087L468.423 472.047L487.764 483.099L490.132 484.481L498.685 489.415L509.474 495.467L514.539 498.362L533.354 508.756H533.88L536.512 510.138L538.354 511.124C544.932 514.479 550.524 517.703 555.853 520.137L560.918 522.505C567.148 525.588 573.616 528.161 580.259 530.202H581.246L582.891 530.597C583.802 530.804 584.725 530.958 585.654 531.057C591.17 531.459 596.704 531.568 602.232 531.386H607.297C612.955 531.386 619.468 531.386 626.639 530.794H629.27L637.099 530.465L648.611 529.939H653.677L673.018 528.886H675.649L694.99 527.768H700.056L719.397 526.584H722.028L741.369 525.4L746.435 525.071L765.776 523.821H768.408L787.749 522.505L792.814 522.176L812.155 520.861H814.787L834.128 519.545L839.193 519.15L858.534 517.769H861.166L880.31 515.006Z" fill="#006845"/>
<path opacity="0.2" d="M258.894 387.381V471.389C257.973 470.205 257.118 468.955 256.329 467.705V388.762C257.155 388.25 258.012 387.789 258.894 387.381ZM302.708 385.802V516.914L305.274 519.413V386.46C304.457 386.182 303.621 385.962 302.774 385.802H302.708ZM278.301 382.71V492.836L283.301 497.836V382.71H278.301ZM324.681 393.17V537.899L329.746 542.702V395.341L324.681 393.17ZM349.087 405.011V561.056L351.653 563.424V406.393L349.087 405.011ZM395.466 430.142V603.093L396.519 604.014L398.098 605.396V431.589L395.466 430.142ZM374.217 418.497L371.06 416.787V582.042H372.047L376.125 585.726V419.55C375.512 419.16 374.874 418.809 374.217 418.497ZM418.294 442.904L417.439 442.444V622.237L418.82 623.421L422.504 626.513V445.272L418.294 442.904ZM441.846 456.061V642.499L444.477 644.67V457.772L441.846 456.061ZM490.593 484.02L488.225 482.639V678.155C489.146 678.813 490.001 679.471 490.856 679.997V484.218L490.593 484.02ZM463.818 468.955V660.459L468.884 664.34V471.784L463.818 468.955ZM510.197 495.27V694.141H512.895L515.263 695.457V498.099L510.197 495.27ZM534.604 508.822V703.68L537.235 704.338V510.269L534.604 508.822ZM581.97 530.531H580.983V712.364L583.615 712.759V530.597L581.97 530.531ZM556.577 520.203V708.351L561.642 709.272V522.637L556.577 520.203ZM602.627 531.715V715.916H606.442H607.692V531.65L602.627 531.715ZM627.033 530.992V718.943L629.665 719.271V530.926L627.033 530.992ZM673.084 528.689V724.534H675.715V528.623L673.084 528.689ZM648.677 530.005V721.64L653.743 722.232V529.808L648.677 530.005ZM694.727 527.439V727.034L699.793 727.626V527.242L694.727 527.439ZM719.134 525.992V729.929H721.765V525.992H719.134ZM765.513 523.032V734.731H768.145V522.9L765.513 523.032ZM741.107 524.61V732.1L746.172 732.626V524.347L741.107 524.61ZM787.486 521.518V736.902L792.551 737.428V521.584L787.486 521.518ZM811.892 519.874V739.402H814.524V519.742L811.892 519.874ZM858.272 516.584V707.364C858.71 703.943 859.171 700.391 859.653 696.707C859.653 695.852 859.653 694.997 859.653 694.141C859.653 691.773 860.245 689.339 860.574 686.905V516.453L858.272 516.584ZM833.865 518.361V741.573L838.93 742.099V518.032L833.865 518.361ZM823.076 740.52L833.865 741.573L838.93 742.099L848.272 743.086H852.088C852.495 742.277 852.783 741.412 852.943 740.52H823.076ZM605.982 716.114H607.232L626.573 718.679L629.204 719.008L644.401 720.916H857.351C857.351 719.337 857.811 717.627 858.14 715.916L605.982 716.114ZM512.105 694.141L514.473 695.457L516.908 696.707H860.64C860.64 695.852 860.64 694.997 860.64 694.141H512.105ZM447.306 647.762L450.529 650.328H864.982C864.982 649.473 864.982 648.617 865.311 647.762H447.306ZM475.528 669.734L482.436 674.734H862.548L863.14 669.734H475.528ZM418.031 623.684L421.715 626.776C422.428 627.45 423.174 628.087 423.952 628.684H868.534C868.534 627.039 868.863 625.329 869.061 623.684H418.031ZM392.835 601.712L394.677 603.356L395.73 604.277H870.442C870.442 603.422 870.442 602.567 870.442 601.712H392.835ZM341.982 555.333L344.745 557.898H875.244C875.244 557.043 875.244 556.188 875.244 555.333H341.982ZM365.665 577.239L370.27 581.384V582.305H872.745C872.745 580.594 873.073 578.884 873.271 577.239H365.665ZM637.033 530.86L629.204 531.189H626.573C619.402 531.189 612.889 531.715 607.232 531.781H602.166C596.638 531.963 591.105 531.853 585.588 531.452C584.659 531.352 583.737 531.199 582.825 530.992V530.597H316.918L322.246 535.663H878.271C878.271 533.886 878.6 532.176 878.731 530.597L637.033 530.86ZM536.446 510.532L533.814 509.151H294.222L296.919 511.782H539.077L536.446 510.532ZM452.306 462.377H252.908C253.371 463.291 253.898 464.17 254.487 465.008H456.911L452.306 462.377ZM490.856 484.481H269.881L270.604 485.27L274.815 489.546H499.54L490.856 484.481ZM417.439 442.641L409.281 438.036H242.645C243.059 439.75 243.564 441.441 244.158 443.102H418.294L417.439 442.641ZM371.06 416.984L369.349 416.063H240.803C240.803 416.919 240.803 417.774 240.803 418.695H374.481L371.06 416.984ZM329.746 395.538L324.681 393.367L320.47 391.657H252.842C251.039 393.162 249.407 394.861 247.974 396.722H332.246L329.746 395.538Z" fill="white"/>
<path d="M438.359 639.999C375.665 588.16 303.826 518.821 270.473 485.139C224.422 438.76 229.225 369.289 299.616 385.078C318.76 416.787 402.242 572.437 438.359 639.999Z" fill="#263238"/>
<path d="M454.937 874.461C451.669 876.172 448.13 877.307 444.477 877.816L441.845 878.342L435.267 879.724L422.768 881.961L420.728 882.289L417.702 882.75L398.361 885.842L395.729 886.171C389.611 887.158 383.164 888.079 376.388 889.065L371.323 889.789L351.982 892.486L349.35 892.815L330.009 895.447L324.944 896.105L305.602 898.604L302.971 898.933L295.142 899.92L283.63 901.433H281.393C280.472 901.433 279.485 901.433 278.564 901.828L259.223 904.196L256.592 904.525L240.211 906.499L237.251 906.828L232.185 907.486L212.844 909.854L210.213 910.183L190.871 912.42L185.806 913.012L166.465 915.248L163.833 915.577L144.492 917.814C142.782 917.814 141.071 918.143 139.427 918.406L120.086 920.511L117.454 920.84H114.165L98.1131 922.551L93.0476 923.143L73.7065 925.116L71.075 925.445H70.154C62.9833 926.169 56.9968 926.761 51.7339 927.156L46.6684 927.616L41.1424 928.011C39.6558 928.176 38.1555 928.176 36.6689 928.011C36.2976 927.21 36.1607 926.321 36.2742 925.445C36.2742 922.024 36.2742 915.38 37.1952 906.104C37.1952 904.525 37.1952 902.815 37.5899 901.039C38.1162 895.315 38.774 888.868 39.5635 881.632C39.5635 880.777 39.5635 879.921 39.5635 879.066C40.2213 873.014 40.945 866.567 41.7344 859.659L42.3265 854.659C43.0502 848.476 43.8396 841.963 44.6948 834.924C44.6948 834.068 44.6948 833.213 44.6948 832.358C45.1772 828.937 45.6378 825.45 46.0763 821.898L47.2605 812.951C47.2605 811.306 47.721 809.662 47.9183 807.951C48.7736 801.373 49.6945 795.189 50.6155 788.544L51.0103 785.979C50.9817 785.607 50.9817 785.233 51.0103 784.86C51.8655 778.874 52.7207 772.756 53.6417 766.572C53.6417 764.927 54.1022 763.283 54.3653 761.572C55.3521 754.994 56.339 748.744 57.3257 742.165L57.7204 739.6C58.7072 733.021 59.694 726.442 60.7466 719.864C60.7466 718.219 61.3387 716.574 61.6018 714.864C62.5886 708.285 63.707 701.707 64.7596 695.457C64.7596 694.602 64.7595 693.747 65.1543 692.891C66.2726 686.313 67.391 679.734 68.5752 673.484C68.5752 671.84 69.1014 670.129 69.4304 668.485C69.7593 666.84 70.0224 664.932 70.3514 663.222L72.917 649.078C72.917 649.078 72.917 648.749 72.917 648.617L73.3118 646.512C74.4959 639.934 75.7458 633.355 76.9958 627.105C76.9958 625.461 77.5879 623.75 77.9826 622.106C79.1667 615.527 80.4824 608.948 81.7324 602.37L82.3244 599.804C83.6402 593.226 84.9559 586.647 86.3374 580.397C86.7321 578.687 87.0611 577.042 87.39 575.332C88.8373 568.753 90.2846 562.174 91.7976 555.991C91.7976 555.267 91.7976 554.609 92.2581 553.885C92.7187 553.162 92.2581 553.556 92.2581 553.425C93.7712 546.846 95.3501 540.268 96.8632 534.018L97.2579 532.505C97.2579 531.321 97.85 530.137 98.1789 528.952C99.8236 522.374 101.468 515.795 103.179 509.611C103.179 508.756 103.639 507.835 103.902 506.98C105.678 500.401 107.521 493.823 109.363 487.639L110.941 482.573C112.783 476.455 114.691 470.6 116.599 465.074C116.599 464.482 116.994 463.824 117.257 463.232C117.52 462.64 117.849 461.456 118.178 460.601C118.507 459.745 118.836 458.627 119.23 457.706C120.349 454.483 121.533 451.128 122.717 448.43C123.901 445.733 124.625 443.562 125.612 441.26C126.598 438.957 127.125 437.839 127.848 436.194C130.802 429.448 134.347 422.975 138.44 416.853C138.44 416.853 139.624 415.143 140.216 414.419C141.247 413.071 142.345 411.775 143.506 410.537L145.348 408.695L148.834 405.538C153.308 401.591 157.452 398.104 161.334 395.078C161.805 394.643 162.311 394.247 162.847 393.894L165.478 391.854L167.978 390.012C174.03 385.539 179.556 381.921 184.819 378.631L190.937 376.855L191.99 376.197C194.808 374.504 197.81 373.135 200.937 372.118C204 371.105 207.119 370.271 210.278 369.619H211.002L212.91 369.224C219.309 368.072 225.766 367.26 232.251 366.79H237.316C243.895 366.79 250.474 366.329 256.658 366.79H259.289C266.46 366.79 273.104 367.382 278.63 367.974L283.696 368.566C286.738 368.882 289.751 369.432 292.708 370.211L293.827 370.605C295.113 371.174 296.31 371.928 297.379 372.842C299.399 374.519 301.29 376.344 303.037 378.302L305.668 381.263C308.234 384.355 311.129 387.841 314.023 392.183C315.207 393.828 316.391 395.473 317.576 397.249C320.01 400.867 322.51 404.814 325.009 408.959C326.522 411.393 328.101 413.958 329.549 416.59L330.075 417.445L331.062 419.221C334.548 425.405 337.64 431.918 341.061 438.562C341.916 440.207 342.706 441.917 343.495 443.628C345.6 448.233 347.574 452.904 349.416 457.64C350.14 459.417 350.797 461.193 351.455 462.969L352.047 464.548L352.442 465.6C354.64 471.729 356.528 477.965 358.1 484.284C358.137 484.501 358.137 484.724 358.1 484.942C358.494 486.389 358.889 488.099 359.415 490.007C360.665 495.073 362.31 501.586 364.349 509.348C364.349 510.204 364.81 511.059 365.073 511.98C366.586 517.835 368.231 524.282 370.139 531.321C370.139 532.768 370.862 534.281 371.257 535.794C371.288 535.99 371.288 536.19 371.257 536.386C372.836 542.219 374.48 548.403 376.191 554.938V555.793C376.191 556.648 376.651 557.504 376.849 558.359L381.98 577.7C382.375 579.345 382.835 581.055 383.296 582.765C384.941 589.344 386.651 595.528 388.361 602.172C388.361 603.028 388.822 603.883 389.085 604.738C390.73 611.317 392.44 617.895 394.15 624.474L395.335 629.013C395.343 629.166 395.343 629.32 395.335 629.474C396.19 632.566 396.979 635.723 397.835 638.881L400.4 648.881C400.4 649.736 400.861 650.591 401.124 651.446C402.768 658.025 404.479 664.603 406.124 670.853C406.584 672.498 407.045 674.142 407.439 675.853C409.15 682.431 410.86 689.01 412.505 695.26C412.505 696.115 412.965 696.97 413.163 697.825C414.478 702.957 415.86 708.088 417.176 713.219L418.162 717.232C418.623 718.877 419.018 720.587 419.478 722.232L422.241 732.955C422.965 735.916 423.688 738.81 424.478 741.639C424.478 742.494 424.873 743.349 425.136 744.205L430.004 763.612C430.464 765.322 430.859 766.966 431.32 768.611C432.964 775.19 434.609 781.768 436.122 788.018C436.122 788.873 436.583 789.729 436.78 790.584L441.516 809.991L442.701 814.859C443.161 817.03 443.687 819.135 444.148 821.437C445.266 825.977 446.319 830.384 447.24 834.595L447.832 837.16C449.542 844.594 450.924 851.107 452.042 856.896C452.437 858.672 452.766 860.383 453.029 861.896C454.34 865.954 454.984 870.197 454.937 874.461Z" fill="#006845"/>
<path opacity="0.2" d="M73.4434 649.933V925.708L70.812 926.037V664.538L73.3776 650.393C73.3776 650.393 73.4434 650.065 73.4434 649.933ZM51.3393 786.965L50.9446 789.531C50.0236 796.11 49.1025 802.688 48.2473 808.938C48.2473 810.648 47.7868 812.293 47.5895 813.938L46.208 822.884V928.142L51.2735 927.682V785.847C51.2667 786.221 51.2887 786.595 51.3393 786.965ZM97.3896 535.663C95.8765 542.241 94.2976 548.491 92.7845 555.069V923.471L97.8501 922.879V534.149L97.3896 535.663ZM118.573 462.377C118.573 463.232 117.915 464.087 117.652 465.008C117.389 465.929 117.191 466.258 116.994 466.85V921.235L119.625 920.906V459.351C119.428 460.272 119.099 461.258 118.573 462.377ZM163.373 395.472V915.972L166.004 915.643V393.301L163.373 395.472ZM140.743 415.998C140.151 416.721 139.558 417.576 138.966 418.432V918.801C140.611 918.801 142.321 918.406 144.032 918.209V411.985C142.939 413.227 141.907 414.522 140.94 415.866L140.743 415.998ZM185.346 380.21V913.406L190.411 912.814V376.855L185.346 380.21ZM210.476 369.618H209.752V910.577L212.384 910.248V369.092L210.476 369.618ZM256.131 366.198V904.92L258.763 904.591V366.066L256.131 366.198ZM231.725 366.79V907.749L236.79 907.091V366.395L231.725 366.79ZM277.775 367.382V902.222C278.696 902.222 279.683 902.223 280.604 901.828H282.841V367.842L277.775 367.382ZM302.182 377.71V899.065L304.813 898.736V380.539L302.182 377.71ZM351.127 462.377C350.469 460.601 349.811 458.824 349.087 457.048V892.947L351.719 892.618V462.377H351.127ZM329.22 416.326C327.772 413.695 326.194 411.129 324.681 408.695V896.565L329.746 895.907V416.721L329.22 416.326ZM371.191 536.123C371.222 535.927 371.222 535.727 371.191 535.531V889.986L376.257 889.263V554.477C374.459 547.811 372.77 541.539 371.191 535.663V536.123ZM395.598 628.881C395.606 628.728 395.606 628.574 395.598 628.421V886.631L398.229 886.302V638.289C397.243 634.67 396.453 631.513 395.598 628.421V628.881ZM443.03 814.398L441.846 809.53V878.803L444.477 878.276V820.779C444.016 818.214 443.49 816.109 443.03 813.938V814.398ZM419.741 721.64C419.281 719.995 418.886 718.285 418.426 716.64L417.439 712.627V882.75L420.465 882.289L422.504 881.96V732.1L419.741 721.64ZM36.0111 926.103C35.8976 926.978 36.0345 927.868 36.4059 928.669H46.208V928.274L51.2735 927.813C56.339 927.419 62.5229 926.827 69.6936 926.103H36.0111ZM37.3269 901.696C37.3269 903.473 37.3268 905.183 36.9321 906.762H239.948L256.329 904.788L258.96 904.459L278.301 902.091C279.222 902.091 280.209 902.091 281.13 901.696H37.3269ZM39.5636 879.724C39.5636 880.579 39.5636 881.434 39.5636 882.289H420.728L422.768 881.96L435.267 879.724H39.5636ZM447.437 833.345H45.0238C45.0238 834.2 45.0238 835.055 45.0238 835.91H448.161L447.437 833.345ZM452.24 855.317H42.3266L41.7345 860.317H453.358C453.095 858.804 452.766 857.093 452.371 855.317H452.24ZM441.714 809.267H48.2473C48.2473 810.977 47.7868 812.622 47.5895 814.267H443.03L441.714 809.267ZM436.254 787.163H51.3393L50.9446 789.728H437.043C436.846 788.676 436.583 787.821 436.385 786.965L436.254 787.163ZM424.61 741.112H58.181L57.7863 743.678H425.399C425.136 742.297 424.938 741.441 424.741 740.586L424.61 741.112ZM430.136 763.085H54.8259C54.8259 764.795 54.3654 766.44 54.1023 768.085H431.583C431.122 765.914 430.728 764.269 430.267 762.559L430.136 763.085ZM418.294 716.706H62.0625C62.0625 718.416 61.4703 720.061 61.2072 721.706H419.741C419.281 719.535 418.886 717.824 418.426 716.179L418.294 716.706ZM412.636 694.733H65.9438C65.9438 695.589 65.9438 696.444 65.5491 697.299H413.755C413.229 695.917 412.965 695.062 412.768 694.207L412.636 694.733ZM400.532 648.354H73.8381L73.4434 650.459C73.4434 650.459 73.4434 650.788 73.4434 650.92H401.453C401.453 649.538 400.927 648.683 400.664 647.828L400.532 648.354ZM406.255 670.327H69.891C69.891 671.971 69.2989 673.682 69.0358 675.326H408.031C407.308 672.892 406.847 671.445 406.387 669.8L406.255 670.327ZM395.335 628.487L394.151 623.947H78.3774C77.9827 625.592 77.6537 627.303 77.3906 628.947H395.466C395.505 628.619 395.505 628.288 395.466 627.96L395.335 628.487ZM388.361 602.172H82.8508L82.2588 604.738H389.217C388.954 603.159 388.756 602.304 388.296 601.449L388.361 602.172ZM376.191 555.793H92.6529V556.253C92.6529 556.977 92.653 557.635 92.1924 558.359H376.849C376.783 556.78 376.52 555.925 376.323 555.069L376.191 555.793ZM381.98 577.7H87.9163C87.9163 579.41 87.2585 581.055 86.8638 582.765H383.427C382.967 580.331 382.506 578.621 382.112 576.976L381.98 577.7ZM370.928 535.794C370.533 534.281 370.139 532.768 369.81 531.321H98.8369C98.8369 532.505 98.179 533.689 97.9159 534.873L97.5212 536.386H371.191C371.306 535.946 371.259 535.479 371.06 535.07L370.928 535.794ZM364.35 509.48H104.494C104.494 510.335 103.968 511.256 103.771 512.111H364.876C364.613 510.335 364.35 509.48 364.152 508.427L364.35 509.48ZM351.916 464.679V462.377H118.573C118.573 463.232 117.915 464.087 117.652 465.008H352.113L351.916 464.679ZM358.1 485.073H111.534L109.955 490.138H359.218C358.692 487.375 358.297 485.665 357.903 484.218L358.1 485.073ZM340.93 439.023H128.441C127.717 440.667 126.928 442.312 126.204 444.088H343.298C342.245 441.194 341.588 439.483 340.732 437.839L340.93 439.023ZM329.943 417.905L329.417 417.05H140.94C140.348 417.774 139.756 418.629 139.164 419.484H330.864L329.943 417.905ZM293.695 371.066L292.577 370.671H209.95C206.79 371.323 203.671 372.158 200.608 373.171H297.05C296.059 371.883 294.858 370.771 293.498 369.882L293.695 371.066ZM313.892 392.643H169.162L166.662 394.485L164.031 396.525C163.495 396.878 162.989 397.274 162.518 397.709H317.247C315.931 394.749 314.878 393.104 313.694 391.459L313.892 392.643Z" fill="white"/>
<path d="M294.879 899.92C232.843 907.88 164.623 915.906 113.902 921.432L123.309 450.075C130.677 431.128 138.374 417.182 146.071 410.143L149.558 406.985L294.879 899.92Z" fill="#263238"/>
<path d="M380.401 834.266C377.244 819.661 374.064 805.056 370.862 790.452C364.415 761.243 357.837 732.056 351.126 702.891C337.575 644.078 323.211 585.462 308.037 527.044C299.616 494.151 290.603 461.653 282.314 428.826C282.277 428.725 282.209 428.638 282.121 428.577C282.033 428.516 281.928 428.483 281.821 428.483C281.713 428.483 281.608 428.516 281.52 428.577C281.432 428.638 281.365 428.725 281.327 428.826C296.524 486.981 309.747 545.662 323.365 604.212C336.982 662.761 350.337 720.785 363.363 779.203L374.217 828.345C377.836 844.923 380.796 862.027 385.533 878.211C386.059 880.053 389.282 879.658 389.019 877.684C387.309 863.672 383.493 848.738 380.401 834.266Z" fill="#263238"/>
<path d="M281.985 443.891C257.644 447.246 220.146 406.919 206.792 375.868C205.871 373.763 211.002 352.711 216.068 326.857C219.028 311.135 221.988 293.57 223.567 277.386C223.567 274.031 234.619 281.202 234.619 281.202L255.079 288.307L322.904 311.727C315.177 331.445 309.896 352.036 307.181 373.039C306.961 375.227 306.961 377.431 307.181 379.618V380.736C308.102 393.762 305.537 440.602 281.985 443.891Z" fill="#AD6359"/>
<path d="M307.247 379.815V380.934C303.754 381.065 300.255 380.911 296.787 380.473C228.435 372.447 228.106 284.754 228.106 284.754L255.079 288.504L322.904 311.924C315.177 331.642 309.896 352.233 307.181 373.237C306.983 375.426 307.005 377.63 307.247 379.815Z" fill="#263238"/>
<path d="M235.935 148.314C217.712 181.207 215.015 287.846 235.409 315.937C265.078 356.724 324.22 372.381 361.586 334.357C397.769 297.451 398.821 158.774 374.744 132.131C339.943 92.8563 262.907 99.2375 235.935 148.314Z" fill="#AD6359"/>
<path d="M324.154 236.467C324.154 236.467 323.562 236.796 323.562 237.059C323.562 244.23 322.378 252.453 315.799 254.624C315.799 254.624 315.799 255.085 315.799 255.019C323.825 254.164 325.273 243.243 324.154 236.467Z" fill="#263238"/>
<path d="M317.97 228.77C306.458 227.586 304.813 250.611 315.536 251.795C326.259 252.98 327.575 229.823 317.97 228.77Z" fill="#263238"/>
<path d="M365.402 240.48C365.402 240.48 365.994 240.875 365.928 241.204C365.205 248.309 365.928 256.598 371.915 259.427C371.915 259.427 371.915 259.887 371.915 259.821C363.955 258.44 363.626 247.125 365.402 240.48Z" fill="#263238"/>
<path d="M372.31 233.507C383.888 233.507 383.164 256.532 372.31 256.598C361.455 256.664 362.639 233.573 372.31 233.507Z" fill="#263238"/>
<path d="M309.352 217.587C312.442 216.915 315.495 216.081 318.496 215.087C321.835 214.656 324.935 213.129 327.312 210.745C327.922 209.849 328.22 208.778 328.161 207.696C328.101 206.614 327.687 205.582 326.983 204.758C325.333 203.365 323.343 202.436 321.216 202.066C319.089 201.696 316.901 201.899 314.878 202.653C310.538 203.55 306.69 206.037 304.089 209.627C303.534 210.476 303.24 211.469 303.242 212.484C303.245 213.499 303.544 214.49 304.104 215.337C304.664 216.183 305.459 216.847 306.391 217.247C307.324 217.647 308.353 217.765 309.352 217.587Z" fill="#263238"/>
<path d="M382.046 222.521C378.888 221.731 376.125 220.547 373.033 219.495C369.727 218.851 366.722 217.141 364.481 214.626C363.92 213.706 363.679 212.625 363.799 211.554C363.918 210.482 364.389 209.48 365.139 208.706C366.871 207.41 368.914 206.594 371.063 206.34C373.211 206.086 375.388 206.402 377.375 207.258C381.652 208.417 385.352 211.11 387.769 214.824C388.261 215.709 388.487 216.717 388.42 217.727C388.353 218.737 387.996 219.707 387.392 220.519C386.787 221.332 385.962 221.953 385.014 222.308C384.065 222.663 383.035 222.737 382.046 222.521Z" fill="#263238"/>
<path d="M321.917 281.465C323.53 284.419 325.735 287.007 328.396 289.067C331.056 291.128 334.114 292.616 337.377 293.438C340.229 294.195 343.178 294.527 346.127 294.425C346.695 294.492 347.269 294.492 347.837 294.425H349.416C349.798 294.371 350.153 294.195 350.426 293.922C350.699 293.649 350.876 293.294 350.929 292.912C350.962 292.672 350.962 292.428 350.929 292.188V291.333C351.455 285.807 351.455 277.452 351.455 277.452C353.429 278.57 363.363 284.031 363.363 281.005C364.465 256.144 363.032 231.236 359.087 206.666C359.087 206.492 359.017 206.325 358.894 206.201C358.771 206.078 358.603 206.008 358.429 206.008C358.254 206.008 358.087 206.078 357.963 206.201C357.84 206.325 357.771 206.492 357.771 206.666C356.587 229.626 359.547 252.717 358.758 275.742C355.231 273.772 351.444 272.31 347.508 271.4C346.719 271.4 347.508 287.649 347.508 290.149C342.973 290.277 338.458 289.493 334.232 287.843C330.005 286.193 326.153 283.711 322.904 280.544C322.115 280.413 321.523 280.873 321.917 281.465Z" fill="#263238"/>
<path d="M379.875 168.116C343.232 188.97 298.892 149.103 298.892 149.103C295.308 156.414 289.46 162.373 282.219 166.094C274.977 169.816 266.728 171.102 258.697 169.76C258.697 169.76 246.987 227.784 231.527 226.402C207.976 224.297 207.384 143.709 216.134 128.644C224.883 113.579 245.211 111.211 245.211 111.211C248.209 101.882 254.625 94.0328 263.171 89.2381C280.275 78.2518 334.351 99.5007 334.351 99.5007C338.157 92.3373 343.587 86.1643 350.206 81.4754C351.797 80.3091 353.608 79.4773 355.53 79.0303C357.452 78.5833 359.444 78.5303 361.387 78.8746C363.33 79.2189 365.183 79.9534 366.834 81.0335C368.485 82.1137 369.9 83.5172 370.994 85.1594C367.769 89.2723 365.52 94.0634 364.415 99.1718C360.205 116.079 374.217 117.197 375.402 101.672C376.017 95.8506 374.549 89.9997 371.257 85.1594C379.02 75.5546 390.598 73.1863 396.98 79.2386C408.361 90.1591 410.334 150.814 379.875 168.116Z" fill="#263238"/>
<path d="M240.343 236.336C240.343 236.336 223.37 198.706 206.726 204.166C190.082 209.627 198.503 261.071 214.949 271.005C216.976 272.425 219.268 273.42 221.689 273.931C224.11 274.442 226.609 274.458 229.036 273.979C231.463 273.5 233.768 272.535 235.813 271.142C237.858 269.749 239.6 267.957 240.935 265.874L240.343 236.336Z" fill="#AD6359"/>
<path d="M209.489 218.968C209.489 218.968 209.094 219.297 209.489 219.429C221.002 226.797 225.344 239.559 227.712 252.322C227.224 250.938 226.442 249.676 225.418 248.624C224.395 247.573 223.155 246.756 221.785 246.23C220.415 245.705 218.947 245.483 217.483 245.581C216.019 245.678 214.593 246.093 213.305 246.796C212.976 246.796 213.305 247.519 213.305 247.519C215.628 247.233 217.982 247.674 220.044 248.781C222.106 249.889 223.774 251.608 224.817 253.703C226.502 257.199 227.825 260.858 228.765 264.624C229.159 265.874 231.264 265.676 231.067 264.295C234.356 248.111 226.199 223.639 209.489 218.968Z" fill="#263238"/>
<path d="M307.247 380.934L285.143 436.062L208.765 362.645L188.438 387.446C188.438 387.446 264.486 505.467 264.815 500.072L287.906 447.838L324.483 482.639L319.023 392.775L307.247 380.934Z" fill="#006845"/>
<path d="M324.286 437.97C322.904 423.168 321.917 408.169 319.812 393.433C319.775 393.332 319.708 393.245 319.619 393.184C319.531 393.123 319.426 393.09 319.319 393.09C319.211 393.09 319.107 393.123 319.018 393.184C318.93 393.245 318.863 393.332 318.825 393.433C316.26 407.84 321.917 464.416 322.246 478.034C320.667 476.521 288.366 447.443 288.038 447.904C282.972 456.259 265.999 493.954 264.815 497.704C252.776 478.955 201.858 405.143 187.78 387.512C187.695 387.439 187.589 387.394 187.477 387.385C187.366 387.376 187.254 387.403 187.159 387.462C187.063 387.52 186.989 387.608 186.947 387.712C186.905 387.815 186.897 387.93 186.924 388.039C197.647 407.774 263.434 505.335 264.355 505.072C273.367 487.111 281.426 468.687 288.498 449.878C294.024 456.456 326.786 489.349 326.851 486.915C326.859 470.566 326.002 454.229 324.286 437.97Z" fill="#263238"/>
<path d="M127.454 486.191C114.888 662.169 145.874 783.347 176.859 796.307C260.407 831.305 514.408 850.778 572.628 844.594C595.39 842.226 580.391 653.485 555.918 653.814C495.264 655.459 273.038 657.301 270.144 655.985C251.263 647.104 250.408 588.423 206.726 463.035C171.53 361.856 132.585 414.221 127.454 486.191Z" fill="#AD6359"/>
<path d="M532.104 644.867V856.699L515.263 855.843C513.684 855.843 511.973 855.843 510.197 855.843H504.54L490.856 855.12C490.001 855.12 489.146 855.12 488.225 855.12L468.884 853.87H463.818L444.477 852.554H441.845L422.504 851.041L417.439 850.646L398.098 849.002H395.466L376.125 847.225L371.06 846.699L351.719 844.66H349.087C342.508 844.002 335.93 843.212 329.746 842.489L324.68 841.897L305.339 839.397L302.774 837.358L293.366 836.042L283.433 834.594L278.367 833.805L276.525 833.476C270.538 832.555 264.749 831.568 259.026 830.516L256.394 830.055C249.816 828.871 243.237 827.621 237.053 826.305L231.988 825.187C225.409 823.674 218.831 822.161 212.647 820.516L210.015 819.793C203.305 817.951 197.187 816.043 191.661 814.069L190.674 813.74L185.609 811.767C183.503 810.846 181.464 809.991 179.622 809.07C174.883 806.94 170.456 804.173 166.465 800.846L165.807 800.254L163.833 798.215C161.36 795.591 159.156 792.726 157.255 789.663C156.728 788.873 156.268 788.018 155.742 787.097C152.223 780.889 149.23 774.397 146.795 767.69L145.019 762.69L144.427 760.848C142.65 755.585 140.94 749.928 139.361 743.941V743.284L138.769 740.718C137.124 734.534 135.677 728.021 134.23 720.982C134.23 719.337 133.572 717.693 133.309 715.982C131.993 709.732 130.875 703.22 129.822 696.575C129.822 695.72 129.493 694.865 129.361 694.01C128.375 687.431 127.454 681.181 126.598 674.603C126.598 672.958 126.138 671.248 125.941 669.603C125.151 663.024 124.362 656.446 123.704 650.196C123.704 649.341 123.704 648.486 123.704 647.63C123.046 641.052 122.454 634.473 121.928 628.223L121.533 623.224C121.138 618.224 120.809 613.224 120.48 608.225C120.48 606.777 120.48 605.33 120.48 603.817V601.251C120.086 594.673 119.823 588.094 119.559 581.844C119.559 580.134 119.559 578.424 119.559 576.779C119.559 570.2 119.165 563.622 119.033 557.438V554.872C119.033 548.293 119.033 541.715 119.033 535.465V530.4C119.033 523.821 119.033 517.242 119.428 511.058C119.428 510.137 119.428 509.282 119.428 508.427C119.428 501.848 119.888 495.27 120.283 489.086C120.283 487.375 120.283 485.665 120.283 484.02C120.283 480.863 120.744 477.902 121.007 475.008C121.27 472.113 121.73 467.903 122.125 464.679C122.125 463.758 122.125 462.903 122.125 462.048C122.717 457.509 123.441 453.43 124.164 449.877C124.691 447.378 125.217 445.009 125.875 442.707C126.533 440.404 126.862 439.286 127.388 437.641C129.476 430.806 132.509 424.295 136.401 418.3L138.374 415.669L140.019 413.695C141.524 411.911 143.223 410.301 145.084 408.893C147.737 406.656 150.827 404.997 154.158 404.023C157.488 403.049 160.985 402.78 164.425 403.235L167.057 403.761C174.438 405.877 181.088 409.999 186.266 415.669C187.056 416.458 187.845 417.248 188.635 418.169C189.424 419.09 190.477 420.208 191.332 421.326C195.401 426.39 199.011 431.806 202.121 437.51L204.884 442.575C206.858 446.457 208.765 450.601 210.673 455.075C211.528 457.18 212.449 459.351 213.305 461.653L214.291 464.285C216.199 469.482 218.107 475.008 219.883 480.863C219.883 481.784 220.475 482.705 220.738 483.626C221.002 484.547 221.725 486.981 222.317 488.691L228.172 508.032L228.962 510.664C230.146 514.677 231.33 518.624 232.514 522.44C233.304 525.005 234.093 527.505 234.817 530.005C235.54 532.505 235.869 533.426 236.33 535.07C236.79 536.715 237.185 537.702 237.58 539.018L242.316 554.477C242.316 555.333 242.908 556.188 243.171 557.043C245.211 563.622 247.25 570.2 249.158 576.384C249.75 578.094 250.276 579.805 250.737 581.45C252.908 588.028 254.947 594.607 256.921 600.462C256.921 600.462 256.921 600.462 256.921 600.856C256.921 601.251 257.447 602.567 257.776 603.422L259.421 608.29C261.197 613.619 262.907 618.422 264.486 622.829L266.394 627.829C268.725 634.546 271.653 641.041 275.144 647.236C275.732 648.159 276.416 649.019 277.183 649.801C277.618 650.206 278.171 650.46 278.762 650.525H283.827L303.168 650.13H305.8H314.352H325.141H330.206L349.548 649.67H352.179L371.52 649.209H376.586L395.927 648.749H398.558L417.899 648.288H422.965L442.306 647.762H444.937L464.279 647.236H469.344L488.685 646.775H491.317L510.658 646.249H515.723L532.104 644.867Z" fill="#006845"/>
<path opacity="0.2" d="M119.823 475.534V608.422C119.823 606.975 119.823 605.527 119.823 604.014V601.449C119.428 594.87 119.165 588.291 118.902 582.042C118.902 580.331 118.902 578.621 118.902 576.976C118.902 570.398 118.507 563.819 118.375 557.635V555.069C118.375 548.491 118.375 541.912 118.375 535.663V530.597C118.375 524.018 118.375 517.44 118.77 511.256C118.77 510.335 118.77 509.48 118.77 508.624C118.77 502.046 119.231 495.467 119.625 489.283C119.625 487.573 119.625 485.862 119.625 484.218C119.296 481.06 119.559 478.1 119.823 475.534ZM163.57 403.169V797.886L165.544 799.925L166.202 800.517V403.959L163.57 403.169ZM139.164 413.629V743.547C140.743 749.533 142.453 755.191 144.229 760.454V409.09C142.368 410.498 140.669 412.109 139.164 413.892V413.629ZM187.911 418.234C187.122 417.313 186.332 416.524 185.543 415.734V811.372L190.608 813.346V421.655C189.753 420.537 188.832 419.484 187.911 418.497V418.234ZM209.95 455.14V819.398L212.581 820.122V461.916C211.726 459.68 210.673 457.509 209.95 455.403V455.14ZM257.315 603.751C256.987 602.896 256.723 602.041 256.46 601.186C256.197 600.33 256.46 601.186 256.46 600.791V829.66L259.092 830.121V608.882L257.315 603.751ZM235.738 535.399C235.277 533.755 234.751 532.044 234.225 530.334C233.698 528.623 232.712 525.334 231.922 522.768V824.792L236.988 825.911V535.663L235.738 535.399ZM278.301 650.854V833.41L283.367 834.2V651.051L278.301 650.854ZM302.708 650.13V837.358L305.339 837.752V650.393L302.708 650.13ZM348.758 649.275V842.62H351.39V649.472L348.758 649.275ZM324.352 649.867V839.857L329.417 840.449V649.67L324.352 649.867ZM370.402 648.749V844.923L375.467 845.449V648.88L370.402 648.749ZM394.808 648.157V847.225H397.44V648.354L394.808 648.157ZM440.859 646.973V850.909H443.49V647.17L440.859 646.973ZM418.952 647.565H416.452V849.133L421.518 849.528V647.762L418.952 647.565ZM462.831 646.381V852.554H467.897V646.578L462.831 646.381ZM487.238 645.788V854.133C488.159 854.133 489.014 854.133 489.869 854.133V645.986L487.238 645.788ZM509.211 645.196V855.317C510.987 855.317 512.697 855.317 514.276 855.317V644.802L509.211 645.196ZM276.459 833.345L278.301 833.674L283.367 834.463L293.3 835.91H532.104V833.345H276.459ZM504.54 855.317H510.197C511.973 855.317 513.684 855.317 515.263 855.317L532.104 856.172V854.791L504.54 855.317ZM179.556 808.938C181.398 809.859 183.438 810.714 185.543 811.635L190.608 813.609L191.595 813.938H532.104V808.938H179.556ZM155.544 786.965C156.071 787.886 156.531 788.742 157.057 789.531H532.038V786.965H155.544ZM138.374 740.915L138.966 743.481H532.104V740.915H138.374ZM144.953 762.888L146.729 767.887H532.236V762.888H144.953ZM133.046 716.509C133.046 718.219 133.638 719.864 133.967 721.508H532.236V716.509H133.046ZM129.098 694.536C129.098 695.391 129.098 696.246 129.559 697.102H532.236V694.536H129.098ZM123.178 648.157C123.178 649.012 123.178 649.867 123.178 650.722H276.459C275.692 649.94 275.009 649.08 274.42 648.157H123.178ZM417.57 648.157L398.229 648.617H395.598L376.257 649.078H371.191L351.85 649.538H348.824L329.483 649.999H324.417H313.628H531.841V647.433L417.57 648.157ZM125.678 670.129C125.678 671.774 126.072 673.484 126.335 675.129H532.236V670.129H125.678ZM264.157 624.079H120.875L121.27 629.079H265.999L264.157 624.079ZM256.723 601.449H119.362V604.014H257.118C256.723 603.159 256.723 602.304 256.723 601.449ZM241.987 555.069H117.652V557.635H242.645C242.316 556.78 242.053 555.925 241.724 555.069H241.987ZM248.566 576.976H118.178C118.178 578.621 118.178 580.331 118.178 582.042H249.75C249.684 580.397 249.158 578.687 248.566 576.976ZM234.225 530.597H117.454V535.663H235.869C235.277 534.018 234.751 532.307 234.225 530.597ZM227.646 508.624H117.915C117.915 509.48 117.915 510.335 117.915 511.256H228.435L227.646 508.624ZM212.778 462.574H121.336C121.336 463.429 121.336 464.285 121.336 465.206H214.094L212.778 462.574ZM220.212 484.547H119.099C119.099 486.191 119.099 487.902 119.099 489.612H222.054C221.133 487.573 220.673 485.928 220.146 484.218L220.212 484.547ZM201.463 438.496H126.533C126.006 440.141 125.48 441.852 125.02 443.562H203.963L201.463 438.496ZM185.543 416.327H137.519L135.545 418.958H188.174C187.122 417.576 186.332 416.787 185.543 416.327Z" fill="white"/>
<path d="M533.486 644.933C533.656 644.599 533.737 644.227 533.721 643.852C533.705 643.477 533.592 643.113 533.393 642.795C533.194 642.477 532.917 642.216 532.587 642.038C532.257 641.859 531.887 641.768 531.512 641.775C498.224 641.381 464.739 643.157 431.451 644.012C398.164 644.867 364.744 645.525 331.391 646.644C312.642 647.302 276.591 648.946 276.262 648.42C275.933 647.894 265.868 616.579 263.697 610.067C259.486 597.37 255.079 584.739 250.54 572.042C249.29 568.358 247.974 564.674 246.658 561.056C246.263 558.556 245.803 556.056 245.54 553.622C245.277 551.188 244.75 547.043 244.356 543.359C243.601 536.572 242.481 529.83 241.001 523.163C240.943 523.051 240.848 522.964 240.731 522.917C240.615 522.869 240.485 522.865 240.366 522.905C240.247 522.944 240.146 523.025 240.081 523.133C240.017 523.241 239.993 523.368 240.014 523.492C241.372 530.428 242.077 537.476 242.119 544.544L242.514 549.609C235.935 532.11 234.356 529.018 228.764 511.322C228.794 511.242 228.804 511.157 228.793 511.072C228.782 510.988 228.752 510.908 228.703 510.838C228.655 510.768 228.59 510.711 228.515 510.672C228.439 510.633 228.356 510.612 228.271 510.612C228.186 510.612 228.102 510.633 228.027 510.672C227.952 510.711 227.887 510.768 227.839 510.838C227.79 510.908 227.76 510.988 227.749 511.072C227.738 511.157 227.748 511.242 227.778 511.322C234.356 536.912 237.909 547.899 245.935 573.161C250.013 585.923 254.026 598.686 258.302 611.448C260.408 617.632 270.012 646.578 273.104 652.367C273.499 653.091 307.313 651.183 323.957 650.92C340.601 650.657 357.31 650.393 374.02 649.999L474.081 647.499C492.567 647.038 511.184 647.038 529.67 645.986C529.67 648.157 531.315 659.143 531.183 659.867C531.052 660.59 532.236 660.722 532.17 659.867C532.104 659.011 533.551 645.131 533.486 644.933Z" fill="#263238"/>
</g>
<defs>
<clipPath id="clip0_1_732">
<rect x="0.932861" width="591.779" height="591.779" rx="295.889" fill="white"/>
</clipPath>
</defs>
</svg>
