<svg width="583" height="582" viewBox="0 0 583 582" fill="none" xmlns="http://www.w3.org/2000/svg">
<g clip-path="url(#clip0_1_98)">
<rect x="0.218262" y="0.0912209" width="581.909" height="581.909" rx="290.954" fill="#006845" fill-opacity="0.6"/>
<path d="M358.084 794.044C355.633 798.229 106.494 846.538 94.0575 844.864C93.4643 844.766 92.8832 844.606 92.3237 844.386C76.5394 839.663 -1.12616 786.989 -7.04525 782.445C-21.6337 771.324 17.2888 672.254 31.7577 654.676C41.3239 643.017 61.3531 636.022 61.3531 636.022C61.3531 636.022 94.7151 459.825 125.327 419.467C132.98 409.363 288.012 382.936 317.667 391.486C330.343 395.193 363.705 420.484 365.498 425.626C367.113 433.338 360.476 789.739 358.084 794.044Z" fill="#37474F"/>
<path d="M358.085 794.044C355.633 798.229 106.494 846.538 94.0577 844.864C93.4645 844.766 92.8834 844.606 92.3239 844.386C106.733 775.868 174.713 454.324 177.642 451.873C180.572 449.421 329.267 428.376 365.259 425.685C367.113 433.338 360.476 789.739 358.085 794.044Z" fill="#263238"/>
<path d="M208.732 419.766C205.863 417.793 199.166 383.893 202.754 376.539C206.819 368.109 267.026 363.087 271.451 369.066C275.875 375.044 282.631 408.825 281.017 410.32C279.403 411.814 269.657 414.445 267.983 412.472C266.309 410.499 262.004 382.578 260.988 380.964C259.971 379.349 217.521 383.116 216.445 385.448C215.369 387.779 223.022 415.761 221.527 417.255C220.032 418.75 211.483 421.859 208.732 419.766Z" fill="#37474F"/>
<path d="M321.972 475.968C365.738 523.799 561.127 651.507 633.83 639.31C681.661 631.359 831.97 527.864 863.778 495.16C901.026 456.895 823.181 356.57 794.243 368.886C758.37 384.252 638.793 476.506 604.952 488.464C585.641 495.459 460.323 444.28 343.735 396.449C299.671 378.632 292.198 443.562 321.972 475.968Z" fill="#DD6A57"/>
<path d="M816.066 549.269C816.066 549.269 671.437 662.867 606.806 648.757C574.699 641.702 521.248 617.846 468.215 588.311C414.406 558.416 360.596 522.125 330.223 491.632C294.35 455.759 289.029 419.886 304.215 401.949C307.315 398.44 311.098 395.602 315.334 393.607C319.57 391.613 324.169 390.504 328.848 390.35C342.861 389.947 356.735 393.225 369.086 399.857C439.457 434.056 580.08 488.224 596.283 485.175C612.486 482.126 711.376 410.619 711.376 410.619L816.066 549.269Z" fill="#006845"/>
<path d="M468.036 588.311C414.226 558.416 360.416 522.124 330.044 491.632C294.17 455.759 288.849 419.886 304.036 401.949C317.966 395.253 327.951 390.828 328.669 390.35C331.299 393.997 414.824 511.183 468.036 588.311Z" fill="#263238"/>
<path d="M451.774 856.284C443.403 865.671 273.962 886.776 159.945 897.658C102.787 903.158 59.5597 906.028 57.4671 903.636C51.847 897 102.727 637.098 140.095 539.224C164.011 477.044 184.04 444.579 201.379 425.625C217.462 408.048 231.273 401.71 242.872 394.416C263.619 381.202 325.739 384.312 335.903 388.437C347.323 392.802 383.734 446.372 395.154 491.991C406.573 537.61 457.155 850.305 451.774 856.284Z" fill="#006845"/>
<path d="M140.215 539.164C164.13 476.984 184.159 444.519 201.498 425.566L255.786 789.739C198.628 795.239 61.5328 881.873 59.4402 879.422C62.7286 850.185 102.847 637.098 140.215 539.164Z" fill="#263238"/>
<path d="M354.198 408.765C354.198 407.569 353.122 407.39 353.122 408.765C352.763 424.669 352.345 443.981 342.42 454.802C329.446 468.793 307.145 461.379 292.138 454.444C268.76 443.562 250.943 424.549 236.414 403.564C236.363 403.481 236.297 403.409 236.218 403.353C236.139 403.296 236.05 403.256 235.956 403.233C235.861 403.211 235.764 403.208 235.668 403.223C235.572 403.239 235.48 403.273 235.398 403.324C235.316 403.375 235.244 403.442 235.187 403.521C235.131 403.6 235.09 403.689 235.068 403.783C235.046 403.877 235.042 403.975 235.058 404.071C235.074 404.167 235.108 404.258 235.159 404.341C251.84 432.262 278.087 457.732 310.792 464.787C347.741 472.619 359.519 442.486 354.198 408.765Z" fill="#263238"/>
<path d="M328.37 441.948C307.264 449.661 266.01 420.902 248.014 395.731C246.818 393.997 247.296 374.207 246.818 350.172C246.399 335.584 245.682 319.321 243.888 304.494C243.529 301.504 254.531 305.809 254.531 305.809L274.201 308.141L339.311 315.973C336.212 335.082 335.469 354.499 337.099 373.789C337.382 375.818 337.842 377.819 338.474 379.768C338.474 380.067 338.474 380.365 338.474 380.784C342.002 391.964 348.758 434.414 328.37 441.948Z" fill="#DD6A57"/>
<path d="M338.474 380.007C338.474 380.306 338.474 380.605 338.474 381.023C335.381 381.848 332.219 382.388 329.027 382.637C266.428 388.616 249.149 310.293 249.149 310.293L273.962 308.38L339.072 316.212C335.973 335.321 335.23 354.738 336.859 374.028C337.22 376.065 337.76 378.065 338.474 380.007Z" fill="#263238"/>
<path d="M219.375 193.765C212.2 227.605 238.089 321.354 263.439 340.486C300.149 368.288 356.112 366.315 378.652 323.088C400.475 281.236 364.602 159.685 336.8 142.705C295.605 117.714 229.898 143.722 219.375 193.765Z" fill="#DD6A57"/>
<path d="M305.769 245.422C305.769 245.422 305.351 245.841 305.411 246.08C307.324 252.358 308.46 259.891 303.318 263.538C310.194 260.967 308.58 251.042 305.769 245.422Z" fill="#263238"/>
<path d="M298.296 240.34C287.952 242.313 292.676 262.941 302.302 261.087C311.928 259.234 307.025 238.666 298.296 240.34Z" fill="#263238"/>
<path d="M342.958 238.009C342.958 238.009 343.496 238.009 343.556 238.427C344.811 244.884 347.323 251.999 353.6 252.836V253.195C346.366 253.793 343.137 244.286 342.958 238.009Z" fill="#263238"/>
<path d="M347.143 229.997C357.188 226.888 362.748 247.276 353.122 250.205C343.496 253.135 338.653 232.627 347.143 229.997Z" fill="#263238"/>
<path d="M288.012 232.807C290.55 231.393 293.005 229.836 295.366 228.143C298.15 226.918 300.459 224.819 301.943 222.165C302.228 221.216 302.195 220.201 301.85 219.272C301.505 218.344 300.865 217.554 300.03 217.023C298.222 216.241 296.237 215.956 294.282 216.198C292.327 216.44 290.472 217.199 288.909 218.398C285.36 220.35 282.656 223.544 281.316 227.366C281.105 228.243 281.147 229.162 281.436 230.017C281.725 230.871 282.25 231.627 282.95 232.196C283.651 232.765 284.497 233.124 285.393 233.232C286.289 233.34 287.197 233.193 288.012 232.807Z" fill="#263238"/>
<path d="M352.703 217.8C349.816 217.95 346.922 217.95 344.034 217.8C340.974 218.147 337.884 217.475 335.245 215.887C334.515 215.221 334.025 214.332 333.852 213.359C333.679 212.386 333.833 211.383 334.289 210.506C335.449 208.908 337.011 207.645 338.818 206.847C340.624 206.049 342.61 205.744 344.572 205.962C348.615 205.831 352.561 207.218 355.633 209.848C356.219 210.496 356.616 211.291 356.782 212.148C356.948 213.005 356.876 213.891 356.574 214.711C356.273 215.53 355.752 216.251 355.07 216.795C354.388 217.34 353.569 217.687 352.703 217.8Z" fill="#263238"/>
<path d="M315.754 285.361C317.96 287.511 320.584 289.183 323.465 290.273C326.345 291.364 329.419 291.849 332.495 291.699C335.181 291.605 337.84 291.121 340.387 290.264L341.822 289.786L343.197 289.248C343.515 289.091 343.776 288.841 343.947 288.531C344.118 288.221 344.19 287.866 344.154 287.514C344.179 287.295 344.179 287.074 344.154 286.856V286.318C343.137 281.355 340.925 274.001 340.925 274.001C342.958 274.48 352.883 276.512 352.285 274.001C346.682 251.961 338.807 230.562 328.788 210.147C328.733 209.996 328.62 209.874 328.474 209.807C328.328 209.739 328.162 209.733 328.011 209.788C327.86 209.844 327.738 209.957 327.671 210.103C327.603 210.248 327.597 210.415 327.652 210.566C332.794 230.954 341.463 250.325 346.904 270.713C343.296 269.91 339.588 269.648 335.903 269.936C335.245 270.294 340.387 284.106 340.686 286.378C336.777 287.674 332.648 288.179 328.542 287.86C324.435 287.542 320.433 286.408 316.771 284.524C315.694 284.345 315.276 284.943 315.754 285.361Z" fill="#263238"/>
<path d="M336.919 288.47C335.035 292.597 332.109 296.161 328.429 298.814C326.395 300.216 323.964 300.929 321.494 300.847C316.053 300.847 314.857 296.063 314.917 291.818C314.942 289.582 315.223 287.355 315.754 285.182C322.279 288.504 329.694 289.656 336.919 288.47Z" fill="#263238"/>
<path d="M328.429 298.814C326.395 300.217 323.964 300.929 321.494 300.847C316.053 300.847 314.857 296.064 314.917 291.819C317.627 291.303 320.433 291.712 322.883 292.98C325.333 294.249 327.286 296.303 328.429 298.814Z" fill="#FF99BA"/>
<path d="M234.441 268.919C256.085 263.479 250.644 223.121 250.644 223.121C250.644 223.121 286.517 207.875 284.843 178.519C284.843 178.519 325.739 192.39 351.029 175.47C376.32 158.549 362.987 128.595 358.025 122.616C353.062 116.637 340.985 132.9 340.985 132.9C340.985 132.9 335.006 115.561 329.625 114.963C324.244 114.365 321.912 126.323 321.912 126.323C298.09 124.75 274.167 126.766 250.943 132.302C218.717 141.211 210.705 177.861 210.705 177.861C210.705 177.861 194.263 185.813 191.633 199.385C189.002 212.957 220.63 272.387 234.441 268.919Z" fill="#263238"/>
<path d="M241.915 225.573C271.81 222.284 286.039 198.488 283.409 169.849C283.409 169.77 283.44 169.694 283.496 169.638C283.552 169.582 283.628 169.551 283.708 169.551C283.787 169.551 283.863 169.582 283.919 169.638C283.975 169.694 284.006 169.77 284.006 169.849C289.507 195.738 272.527 230.236 242.154 226.948C241.258 226.828 241.138 225.632 241.915 225.573Z" fill="#263238"/>
<path d="M211.363 176.725C211.434 176.685 211.519 176.676 211.597 176.698C211.676 176.721 211.742 176.773 211.782 176.845C211.821 176.916 211.831 177 211.808 177.079C211.786 177.157 211.733 177.224 211.662 177.263C204.547 183.242 195.997 188.085 192.171 196.814C187.507 207.337 191.812 218.637 196.834 228.084C204.667 242.732 217.701 261.027 233.903 266.767C234.86 266.767 234.322 268.441 233.365 268.202C214.173 262.223 197.97 238.307 191.154 220.371C183.502 200.94 193.426 186.052 211.363 176.725Z" fill="#263238"/>
<path d="M318.385 178.758C326.024 181.015 334.135 181.138 341.839 179.115C349.543 177.091 356.546 172.998 362.09 167.278C374.646 152.929 367.113 136.308 357.008 123.334C356.929 123.189 356.897 123.024 356.918 122.86C356.939 122.697 357.011 122.545 357.124 122.425C357.237 122.305 357.385 122.224 357.547 122.194C357.709 122.164 357.876 122.186 358.025 122.258C369.983 132.84 375.603 152.152 365.917 166.142C356.231 180.133 333.631 185.813 317.608 180.85C316.232 180.432 317.01 178.339 318.385 178.758Z" fill="#263238"/>
<path d="M246.638 269.577C246.638 269.577 221.766 241.177 208.673 250.385C195.579 259.592 216.565 302.341 233.604 306.646C235.75 307.352 238.017 307.616 240.268 307.423C242.519 307.23 244.707 306.583 246.701 305.522C248.696 304.46 250.454 303.006 251.872 301.247C253.289 299.488 254.336 297.46 254.949 295.286L246.638 269.577Z" fill="#DD6A57"/>
<path d="M214.95 262.462C214.95 262.462 214.95 262.881 214.95 262.94C226.908 266.348 234.143 276.333 239.583 286.856C238.795 285.77 237.78 284.869 236.607 284.216C235.434 283.564 234.133 283.176 232.795 283.079C231.456 282.982 230.113 283.179 228.858 283.656C227.604 284.133 226.469 284.878 225.533 285.839C225.533 285.839 225.533 286.497 225.892 286.437C227.875 285.51 230.102 285.237 232.25 285.656C234.399 286.075 236.36 287.165 237.85 288.769C240.278 291.385 242.422 294.251 244.247 297.319C244.845 298.275 246.638 297.319 246.16 296.362C244.486 281.475 230.854 262.223 214.95 262.462Z" fill="#263238"/>
<path d="M275.516 338.155C258.955 333.312 242.095 327.453 229.838 314.239C220.669 304.817 213.848 293.367 209.928 280.817C212.001 285.743 214.693 290.384 217.94 294.629C221.214 299.034 225.266 302.803 229.898 305.749C241.64 320.311 257.694 330.776 275.756 335.644C277.489 335.584 277.131 338.155 275.516 338.155Z" fill="#EBEBEB"/>
<path d="M250.824 280.1C247.535 277.051 236.414 260.31 227.685 254.69C226.343 253.659 224.946 252.701 223.5 251.82C221.186 250.278 218.546 249.296 215.787 248.95C217.843 247.797 220.193 247.277 222.544 247.455C234.501 248.053 246.16 270.773 251.78 279.203C252.139 279.741 251.362 280.698 250.824 280.1Z" fill="#EBEBEB"/>
<path d="M247.655 276.453C245.024 272.268 279.283 283.269 311.868 271.67C318.505 269.338 336.561 258.995 347.203 257.5C357.846 256.005 371.477 262.941 386.425 262.462C391.507 262.462 393.181 306.467 383.017 327.273C379.609 334.089 363.406 349.455 352.584 352.086C327.114 358.064 280.3 346.107 272.348 338.334C266.01 332.176 272.407 315.973 247.655 276.453Z" fill="#EBEBEB"/>
<path d="M384.212 272.387C373.664 268.887 362.621 267.11 351.508 267.126C342.639 269.268 334.051 272.438 325.918 276.572C306.475 285.158 284.971 287.96 263.977 284.644C263.678 284.644 263.678 285.062 263.977 285.122C282.738 289.872 302.531 288.446 320.417 281.056C330.163 277.29 341.583 270.474 352.046 269.697C362.874 269.698 373.667 270.942 384.212 273.403C385.109 273.702 385.229 272.746 384.212 272.387Z" fill="#DBDBDB"/>
<path d="M374.885 325.061C368.662 330.021 362.11 334.556 355.275 338.633C347.024 342.639 336.381 341.204 327.533 340.367C310.803 338.108 294.2 334.995 277.788 331.04C296.303 337.503 315.614 341.405 335.186 342.639C341.802 343.54 348.537 342.884 354.856 340.725C362.294 336.523 369.115 331.312 375.124 325.24C375.124 325.24 375.065 324.941 374.885 325.061Z" fill="#DBDBDB"/>
<path d="M380.745 287.932C364.313 286.077 347.674 287.873 332.017 293.194C313.427 298.286 294.186 300.603 274.919 300.069V300.368C292.126 301.697 309.434 300.325 326.217 296.303C334.349 294.27 342.3 291.579 350.432 289.905C360.46 288.09 370.713 287.888 380.804 289.307C381.223 289.068 381.342 287.992 380.745 287.932Z" fill="#DBDBDB"/>
<path d="M379.19 305.091C365.767 315.547 349.432 321.584 332.435 322.37C314.97 322.17 297.59 319.902 280.658 315.614C280.658 315.614 280.658 315.973 280.658 316.033C315.336 325.3 349.894 330.083 379.788 306.048C380.326 305.57 380.027 304.673 379.19 305.091Z" fill="#DBDBDB"/>
<path d="M210.526 410.32C205.803 404.64 235.996 387.959 243.888 394.296C251.78 400.634 291.719 498.628 278.565 604.992C265.412 711.356 74.6261 835.537 66.8536 819.633C65.4357 814.854 65.0702 809.825 65.7824 804.891C66.4946 799.958 68.2675 795.237 70.979 791.054C78.2135 782.624 212.32 678.054 227.386 612.107C240.839 553.394 222.424 424.729 210.526 410.32Z" fill="#455A64"/>
<path d="M137.704 478.359C16.8107 605.769 -92.3037 824.237 -26.5361 835.597C30.4425 845.462 209.151 793.745 253.335 774.792C272.587 766.66 222.305 604.633 202.275 614.558C188.574 621.767 174.27 627.769 159.526 632.494C153.548 632.076 179.436 565.053 205.145 500.361C241.377 409.124 183.083 430.588 137.704 478.359Z" fill="#DD6A57"/>
<path d="M384.75 553.394C388.064 557.245 390.125 562.015 390.66 567.067C391.194 572.12 390.175 577.215 387.74 581.674C396.061 583.942 403.333 589.037 408.307 596.083C416.498 608.938 399.937 627.353 399.937 627.353C408.104 631.487 414.834 637.988 419.248 646.007C425.825 659.101 411.835 680.086 411.835 680.086C417.229 688.024 419.585 697.638 418.471 707.171C414.465 732.521 378.413 747.887 355.633 757.871C332.854 767.856 258.716 774.911 244.725 777.662L178.958 631.777C178.958 631.777 268.641 557.818 297.04 549.867C321.314 543.29 371.417 539.344 384.75 553.394Z" fill="#DD6A57"/>
<path d="M385.647 579.94C358.443 580.897 332.973 589.925 307.085 597.458C307.013 597.431 306.935 597.423 306.858 597.432C306.782 597.442 306.709 597.47 306.645 597.514C306.582 597.558 306.53 597.617 306.495 597.685C306.459 597.754 306.44 597.83 306.44 597.907C306.44 597.984 306.459 598.06 306.495 598.128C306.53 598.197 306.582 598.255 306.645 598.299C306.709 598.343 306.782 598.372 306.858 598.381C306.935 598.391 307.013 598.382 307.085 598.355C332.794 590.583 359.699 587.952 385.647 581.196C385.781 581.154 385.898 581.071 385.981 580.958C386.064 580.845 386.109 580.708 386.109 580.568C386.109 580.428 386.064 580.291 385.981 580.178C385.898 580.065 385.781 579.982 385.647 579.94Z" fill="#263238"/>
<path d="M199.286 607.204L254.471 787.945C254.471 787.945 3.35816 866.627 -38.4939 836.254C-80.346 805.882 8.44023 597.458 169.87 444.818C226.549 391.008 227.387 445.834 208.254 507.715C186.132 579.462 167.717 625.738 167.717 625.738L199.286 607.204Z" fill="#006845"/>
<path d="M203.71 555.666C199.644 560.808 194.802 565.292 190.676 570.494C190.425 570.746 190.204 571.027 190.018 571.331C195.997 555.606 201.259 539.762 206.58 523.858C206.58 523.858 206.281 523.5 206.161 523.858C197.552 543.23 188.942 562.661 181.23 582.451C177.403 592.376 163.831 627.771 164.608 629.087C165.385 630.402 165.804 630.163 166.402 629.445C167 628.728 177.941 602.48 178.36 600.627C180.751 594.648 183.143 588.669 185.475 582.69C185.55 582.48 185.65 582.279 185.773 582.093C186.61 580.957 187.567 579.88 188.464 578.744C190.317 576.413 192.051 573.961 193.845 571.57C197.492 566.727 200.362 561.286 204.129 556.443C204.786 555.786 204.069 555.188 203.71 555.666Z" fill="#263238"/>
</g>
<defs>
<clipPath id="clip0_1_98">
<rect x="0.218262" y="0.0912209" width="581.909" height="581.909" rx="290.954" fill="white"/>
</clipPath>
</defs>
</svg>
