<svg width="583" height="582" viewBox="0 0 583 582" fill="none" xmlns="http://www.w3.org/2000/svg">
<g clip-path="url(#clip0_1_182)">
<rect x="0.436523" y="0.0912209" width="581.909" height="581.909" rx="290.954" fill="#006845" fill-opacity="0.6"/>
<path d="M321.893 537.859C336.933 603.182 403.463 817.088 466.013 841.106C507.006 857.245 721.87 848.775 757.759 813.008C773.361 797.349 757.489 661.17 733.892 662.436C710.294 663.702 542.733 688.979 526.576 681.069C510.419 673.16 407.334 508.307 365.573 464.797C294.378 389.667 313.846 502.706 321.893 537.859Z" fill="#EB9481"/>
<path d="M490.988 616.542L471.774 627.365L351.64 694.976C331.356 635.828 314.892 575.437 302.351 514.178C290.868 450.332 304.084 415.743 335.35 430.967C347.571 436.607 362.33 450.254 379.571 472.467L490.988 616.542Z" fill="#006845"/>
<path d="M471.774 627.365L351.64 694.976C331.356 635.828 314.892 575.437 302.351 514.178C290.868 450.332 304.084 415.743 335.35 430.967L471.774 627.365Z" fill="#263238"/>
<path d="M539.294 817.581C534.609 825.085 336.022 875.693 210.846 906.121C153.536 919.956 111.784 929.659 110.95 928.947C104.069 923.366 83.7581 592.993 195.054 445.306C197.159 442.498 199.424 439.814 201.838 437.268C241.069 396.119 304.2 408.982 314.219 411.961C333.161 417.489 371.337 463.29 392.85 506.209C417.38 555.013 543.508 810.945 539.294 817.581Z" fill="#006845"/>
<path d="M201.893 437.571L210.86 906.197C153.549 920.032 111.797 929.735 110.964 929.023C104.082 923.442 83.7717 593.069 195.068 445.382C197.192 442.651 199.471 440.043 201.893 437.571Z" fill="#263238"/>
<path d="M624.424 614.174C636.316 601.951 649.489 591.043 663.714 581.636C682.847 570.358 725.517 549.203 732.656 543.139L746.124 539.149L722.092 841.289L608.286 900.944L394.556 893.066L405.604 608.935L419.259 604.677C419.259 604.677 446.665 606.723 468.751 606.199C490.836 605.675 564.277 591.761 624.424 614.174Z" fill="white"/>
<path d="M591.747 912.697L609.145 623.349L396.036 608.462L384.086 902.394L591.747 912.697Z" fill="#37474F"/>
<path d="M621.051 907.426L638.829 618.01L751.519 535.593L725.579 843.249L621.051 907.426Z" fill="#37474F"/>
<path d="M135.587 508.59C96.8334 563.289 -22.0347 774.331 1.36571 836.896C16.6037 878.045 254.242 920.81 304.712 923.41C326.808 924.687 345.491 772.34 328.854 755.66C312.217 738.981 171.546 747.744 166.521 730.7C161.497 713.657 214.396 552.412 219.285 492.439C227.794 389.416 156.5 478.887 135.587 508.59Z" fill="#EB9481"/>
<path d="M231.409 509.303C252.983 411.375 207.897 407.336 150.102 476.432C111.02 525.157 75.0935 576.33 42.5414 629.639L191.946 686.863C191.946 686.863 217.347 571.866 231.409 509.303Z" fill="#006845"/>
<path d="M226.148 540.188C223.384 553.147 221.014 566.113 218.644 579.079C221.178 573.999 223.968 569.03 226.937 564.185C224.922 568.231 223.072 572.326 221.284 576.331L218.327 582.114L217.697 583.403C215.822 593.458 213.885 603.603 211.692 613.638C209.082 625.706 206.203 637.588 203.338 649.546C200.473 661.504 195.893 675.259 193.427 687.694C193.605 688.68 180.067 682.259 178.776 682.491C177.486 682.723 177.724 680.564 178.937 681.208C180.151 681.852 192.114 685.187 192.342 685.146C195.283 673.174 196.825 660.828 199.359 648.772C201.893 636.717 204.365 624.752 207.141 612.732C212.762 588.209 219.838 564.365 225.424 540.083C225.749 539.711 226.169 539.871 226.148 540.188Z" fill="#263238"/>
<path d="M320.67 502.733C297.487 510.664 253.18 478.271 234.232 450.486C233.303 433.926 233.221 417.33 233.989 400.763C233.991 385.088 233.494 367.073 231.917 350.898C231.33 347.634 243.429 352.59 243.429 352.59L264.824 355.638L335.605 365.715C331.78 386.602 330.553 407.882 331.952 429.07C332.118 431.307 332.516 433.521 333.14 435.675L333.331 436.738C336.744 448.742 343.107 495.014 320.67 502.733Z" fill="#EB9481"/>
<path d="M333.224 435.268L333.415 436.331C330.049 437.201 326.623 437.818 323.166 438.175C254.723 443.274 238.087 357.312 238.087 357.312L265.183 355.888L335.963 365.964C332.138 386.851 330.911 408.131 332.31 429.32C332.429 431.327 332.735 433.318 333.224 435.268Z" fill="#263238"/>
<path d="M207.929 201.836C193.65 244.453 208.374 352.468 238.187 380.963C281.442 422.324 353.88 428.105 389.366 375.718C423.82 325.005 403.444 188.617 369.998 162.578C320.693 124.186 228.988 138.956 207.929 201.836Z" fill="#EB9481"/>
<path d="M217.257 303.376C238.666 299.526 224.995 243.126 224.995 243.126C224.995 243.126 258.674 237.774 265.096 187.636C265.096 187.636 289.736 244.022 378.943 229.31C381.698 221.777 382.838 213.748 382.289 205.746C381.741 197.744 379.517 189.946 375.761 182.858C385.305 197.931 393.58 213.771 400.502 230.214C400.502 230.214 418.735 154.674 353.996 131.128C328.17 121.744 289.741 125.521 232.452 156.907C232.452 156.907 219.733 122.359 213.239 127.211C206.744 132.062 221.006 164.295 221.006 164.295C221.006 164.295 195.009 157.45 190.907 162.968C186.805 168.487 212.42 173.206 212.42 173.206C201.086 177.8 191.785 186.32 186.216 197.208C180.648 208.096 179.185 220.624 182.095 232.502C190.062 273.313 206.629 305.288 217.257 303.376Z" fill="#263238"/>
<path d="M366.157 234.039C354.94 237.638 343.07 238.729 331.386 237.236C321.05 235.559 311.1 232.039 302.008 226.845C293.128 221.63 285.36 214.718 279.148 206.504C272.809 197.306 268.176 187.043 265.469 176.205C265.36 175.597 264.256 175.561 264.255 176.423C264.732 187.717 268.246 198.673 274.426 208.137C280.049 217.6 287.928 225.523 297.359 231.198C306.79 236.873 317.481 240.124 328.475 240.66C341.366 240.188 354.173 238.383 366.693 235.275C367.211 235.104 366.902 233.827 366.157 234.039Z" fill="#263238"/>
<path d="M219.377 171.798C208.012 171.849 197.063 176.079 188.617 183.683C180.17 191.287 174.817 201.733 173.578 213.031C172.849 226.251 175.224 239.459 180.514 251.597C185.774 264.27 192.662 276.204 201.006 287.098C201.129 287.781 202.372 286.852 201.884 286.313C194.607 275.96 188.961 264.553 185.142 252.489C180.893 241.121 178.45 229.157 177.903 217.033C178.005 205.812 182.321 195.04 189.993 186.851C197.666 178.663 208.136 173.657 219.327 172.826C220.217 172.98 220.15 171.738 219.377 171.798Z" fill="#263238"/>
<path d="M302.052 120.329C286.929 124.469 272.4 130.532 258.821 138.371C245.593 145.266 233.633 154.361 223.453 165.265C223.004 165.816 223.713 166.708 224.314 166.13C246.935 148.718 272.533 135.563 299.858 127.306C324.773 118.985 354.671 117.448 374.861 137.329C374.861 137.329 375.697 137.179 375.469 137.22C357.267 116.198 327.308 113.905 302.052 120.329Z" fill="#263238"/>
<path d="M315.124 284.521C301.489 285.405 304.515 312.684 316.921 311.942C329.327 311.199 326.654 283.701 315.124 284.521Z" fill="#263238"/>
<path d="M378.093 280.797C391.722 279.443 393.505 306.788 380.891 308.117C368.277 309.445 366.632 281.997 378.093 280.797Z" fill="#263238"/>
<path d="M304.597 269.563C307.425 268.465 310.179 267.184 312.841 265.729C315.936 264.804 318.625 262.856 320.469 260.204C320.97 259.28 321.142 258.212 320.956 257.177C320.77 256.142 320.237 255.202 319.445 254.51C317.659 253.475 315.631 252.929 313.567 252.929C311.503 252.929 309.475 253.474 307.688 254.508C303.732 256.08 300.498 259.063 298.614 262.88C298.271 263.746 298.176 264.69 298.339 265.607C298.503 266.524 298.919 267.377 299.54 268.071C300.161 268.765 300.963 269.272 301.856 269.536C302.749 269.799 303.698 269.809 304.597 269.563Z" fill="#263238"/>
<path d="M387.188 262.076C384.153 261.756 381.137 261.278 378.152 260.645C374.935 260.616 371.817 259.523 369.286 257.537C368.616 256.745 368.222 255.757 368.163 254.721C368.104 253.686 368.383 252.659 368.959 251.796C370.373 250.279 372.167 249.168 374.155 248.576C376.143 247.984 378.252 247.934 380.266 248.43C384.582 248.916 388.561 250.995 391.425 254.261C391.937 255.021 392.231 255.906 392.275 256.822C392.319 257.737 392.112 258.647 391.675 259.453C391.238 260.258 390.589 260.929 389.798 261.392C389.007 261.854 388.104 262.091 387.188 262.076Z" fill="#263238"/>
<path d="M321.339 353.938C322.853 356.252 324.275 359.367 327.267 360.318C330.372 360.881 333.558 360.814 336.637 360.121C336.637 360.121 337.161 360.419 336.732 360.653C335.162 362.011 333.255 362.922 331.211 363.29C329.167 363.657 327.062 363.468 325.117 362.742C323.531 361.922 322.219 360.658 321.341 359.103C320.463 357.549 320.057 355.773 320.173 353.991C320.422 353.633 321.119 353.586 321.339 353.938Z" fill="#263238"/>
<path d="M320.352 332.328L319.973 332.396C312.972 333.515 305.796 332.551 299.338 329.625C292.88 326.7 287.424 321.941 283.648 315.941C279.872 309.94 277.943 302.963 278.099 295.875C278.255 288.787 280.491 281.901 284.528 276.073C287.933 271.208 292.485 267.259 297.781 264.575C303.078 261.89 308.954 260.553 314.89 260.683C320.826 260.813 326.639 262.405 331.813 265.318C336.987 268.231 341.362 272.375 344.552 277.383C347.741 282.392 349.646 288.109 350.097 294.03C350.549 299.95 349.533 305.891 347.139 311.324C344.746 316.758 341.049 321.518 336.377 325.182C331.704 328.845 326.2 331.3 320.352 332.328ZM308.582 266.887C300.77 268.325 293.812 272.72 289.158 279.159C286.85 282.417 285.211 286.102 284.338 290C283.465 293.897 283.374 297.929 284.072 301.861C284.697 305.796 286.109 309.565 288.225 312.942C290.341 316.319 293.116 319.234 296.384 321.513C299.631 323.825 303.302 325.473 307.188 326.361C311.073 327.25 315.096 327.361 319.024 326.689C326.888 325.254 333.871 320.779 338.458 314.233C343.046 307.687 344.87 299.597 343.535 291.715C342.897 287.765 341.484 283.981 339.376 280.58C337.269 277.179 334.509 274.229 331.256 271.9C328.003 269.571 324.321 267.908 320.423 267.009C316.524 266.11 312.486 265.991 308.542 266.66L308.582 266.887Z" fill="#006845"/>
<path d="M396.036 329.14C392.246 329.68 388.383 329.331 384.751 328.12C381.119 326.91 377.819 324.872 375.11 322.166C368.796 316.179 364.623 308.283 363.231 299.694C359.872 281.018 369.467 263.774 384.195 261.125C387.997 260.553 391.879 260.885 395.528 262.094C399.177 263.303 402.49 265.356 405.197 268.085C411.544 274.048 415.724 281.955 417.076 290.558C420.194 309.199 411.219 326.409 396.036 329.14ZM384.84 266.887C373.3 268.963 365.988 283.21 368.635 298.8C369.746 306.115 373.217 312.866 378.519 318.026C380.606 320.113 383.144 321.693 385.938 322.644C388.731 323.596 391.706 323.893 394.632 323.514C406.248 321.425 413.56 307.178 410.913 291.588C409.778 284.269 406.28 277.521 400.953 272.375C398.907 270.252 396.386 268.646 393.598 267.69C390.809 266.733 387.833 266.454 384.916 266.874L384.84 266.887Z" fill="#006845"/>
<path d="M357.21 327.659C357.21 327.659 359.449 340.109 359.258 346.021C359.354 346.553 357.849 346.902 355.835 347.029C350.782 348.017 345.555 347.604 340.719 345.835C335.884 344.066 331.624 341.009 328.402 336.994C328.315 336.875 328.274 336.728 328.285 336.582C328.297 336.435 328.36 336.297 328.465 336.193C328.569 336.089 328.707 336.026 328.854 336.015C329.001 336.004 329.147 336.046 329.266 336.133C336.878 341.17 345.925 343.588 355.035 343.019C355.445 341.378 351.171 321.534 351.909 321.715C355.847 322.261 362.805 323.909 365.412 324.459C363.965 316.412 359.828 293.409 358.207 278.731C358.043 277.82 359.472 277.485 359.725 278.458C364.798 295.259 368.766 312.374 371.605 329.694C371.437 330.507 359.581 328.643 357.21 327.659Z" fill="#263238"/>
<path d="M364.34 293.224C358.5 287.77 349.007 295.12 349.02 295.196L345.462 290.663C346.069 290.554 359.28 280.341 368.66 288.921L364.34 293.224Z" fill="#006845"/>
<path d="M281.609 290.783C256.664 287.269 231.549 285.088 206.372 284.251C197.923 286.237 190.47 291.193 185.372 298.217L180.265 295.53C186.289 286.794 195.426 280.693 205.803 278.475C217.783 277.105 279.731 284.694 282.372 285.003L281.609 290.783Z" fill="#006845"/>
<path d="M223.785 299.145C223.785 299.145 200.034 264.701 184.467 273.143C168.9 281.586 186.482 331.404 204.731 338.31C207.007 339.357 209.471 339.933 211.975 340.004C214.479 340.074 216.972 339.638 219.303 338.72C221.634 337.803 223.756 336.425 225.541 334.667C227.326 332.909 228.737 330.809 229.69 328.492L223.785 299.145Z" fill="#EB9481"/>
<path d="M189.836 287.304C189.836 287.304 189.456 287.372 189.918 287.759C195.72 290.762 200.829 294.946 204.918 300.041C209.006 305.137 211.983 311.032 213.657 317.347C212.928 316.051 211.925 314.93 210.717 314.063C209.508 313.196 208.125 312.604 206.664 312.329C205.203 312.054 203.699 312.103 202.258 312.471C200.818 312.839 199.475 313.519 198.325 314.461L198.448 315.145C200.708 314.438 203.133 314.452 205.385 315.184C207.637 315.917 209.605 317.331 211.018 319.232C213.373 322.403 215.357 325.832 216.932 329.454C217.53 330.601 219.614 329.991 219.285 329.031C219.904 311.991 207.384 289.007 189.836 287.304Z" fill="#263238"/>
</g>
<defs>
<clipPath id="clip0_1_182">
<rect x="0.436523" y="0.0912209" width="581.909" height="581.909" rx="290.954" fill="white"/>
</clipPath>
</defs>
</svg>
