<svg width="583" height="582" viewBox="0 0 583 582" fill="none" xmlns="http://www.w3.org/2000/svg">
<g clip-path="url(#clip0_1_260)">
<rect x="0.654785" y="0.0912209" width="581.909" height="581.909" rx="290.954" fill="#006845" fill-opacity="0.6"/>
<path d="M400.555 360.916C404.918 427.561 408.318 496.246 402.425 562.891C397.891 614.801 376.526 657.701 322.746 671.018C272.875 683.316 201.697 683.146 159.024 650.504C139.189 635.203 132.105 613.498 133.125 589.016C134.599 555.013 159.59 368.737 167.128 310.649C171.605 275.23 175.968 239.358 186.679 205.128C209.347 133.213 244.653 133.44 249.527 131.967C253.777 129.19 280.866 116.779 319.685 128.68C329.825 131.796 339.196 137.009 347.191 143.98C355.187 150.95 361.628 159.523 366.099 169.143C394.434 226.38 396.361 298.465 400.555 360.916Z" fill="#263238"/>
<path d="M238.476 141.997C196.03 162.342 186.396 209.039 176.478 250.862C162.708 309.062 149.957 367.547 140.039 426.541C135.279 454.876 131.142 483.212 127.855 512C124.681 539.372 119.638 568.671 121.791 596.156C125.305 641.776 167.128 662.121 207.817 668.185C208.223 668.26 208.642 668.171 208.982 667.937C209.322 667.703 209.556 667.344 209.631 666.938C209.706 666.532 209.617 666.113 209.383 665.773C209.149 665.433 208.79 665.2 208.384 665.125C185.262 660.818 161.687 654.641 144.346 637.696C122.131 616.048 124.398 587.372 126.722 558.867C130.632 510.3 137.262 462.017 145.706 414.073C154.15 366.13 164.238 318.3 175.118 270.81C185.432 225.473 192.686 166.082 238.76 142.621C239.156 142.507 238.93 141.77 238.476 141.997Z" fill="#263238"/>
<path d="M386.104 217.766C377.66 182.97 359.185 149.138 322.349 139.39C369.952 154.011 382.08 205.752 388.824 249.048C395.964 294.385 401.405 340.137 405.145 386.305C408.772 430.451 411.492 474.994 410.812 519.368C410.415 567.254 402.198 612.138 374.316 651.864C374.249 651.946 374.199 652.04 374.168 652.141C374.138 652.242 374.127 652.349 374.138 652.454C374.148 652.559 374.18 652.661 374.23 652.755C374.28 652.848 374.347 652.93 374.429 652.997C374.511 653.064 374.605 653.114 374.707 653.145C374.808 653.175 374.914 653.186 375.02 653.175C375.125 653.165 375.227 653.134 375.32 653.084C375.413 653.034 375.496 652.966 375.563 652.884C403.048 620.695 411.832 576.662 413.589 535.462C415.015 480.955 412.838 426.414 407.072 372.194C402.821 320.963 398.458 267.806 386.104 217.766Z" fill="#263238"/>
<path d="M331.303 462.017C372.446 518.688 539.794 639.453 608.989 627.892C654.326 620.355 796.796 522.258 826.889 491.259C862.194 454.99 788.466 359.896 761.037 371.57C727.035 386.135 613.693 473.578 581.561 484.912C563.313 491.542 452.975 433.058 344.564 390.102C302.571 373.724 306.764 428.241 331.303 462.017Z" fill="#EB9481"/>
<path d="M505.452 449.436C505.452 449.436 485.447 487.689 467.313 522.485C453.088 550.027 439.941 575.415 438.977 578.192C398.619 545.844 361.081 510.127 326.769 471.424C280.639 418.494 292.767 382.905 324.672 382.678C329.578 382.706 334.457 383.392 339.18 384.718C381.457 396.109 505.452 449.436 505.452 449.436Z" fill="#006845"/>
<path d="M333.06 410.277C334.906 410.277 336.403 408.78 336.403 406.933C336.403 405.086 334.906 403.589 333.06 403.589C331.213 403.589 329.716 405.086 329.716 406.933C329.716 408.78 331.213 410.277 333.06 410.277Z" fill="white"/>
<path d="M390.977 410.277C392.824 410.277 394.321 408.78 394.321 406.933C394.321 405.086 392.824 403.589 390.977 403.589C389.131 403.589 387.634 405.086 387.634 406.933C387.634 408.78 389.131 410.277 390.977 410.277Z" fill="white"/>
<path d="M390.977 509.45C392.824 509.45 394.321 507.953 394.321 506.107C394.321 504.26 392.824 502.763 390.977 502.763C389.131 502.763 387.634 504.26 387.634 506.107C387.634 507.953 389.131 509.45 390.977 509.45Z" fill="white"/>
<path d="M448.895 509.45C450.741 509.45 452.238 507.953 452.238 506.107C452.238 504.26 450.741 502.763 448.895 502.763C447.048 502.763 445.551 504.26 445.551 506.107C445.551 507.953 447.048 509.45 448.895 509.45Z" fill="white"/>
<path d="M362.018 462.13C363.865 462.13 365.362 460.633 365.362 458.787C365.362 456.94 363.865 455.443 362.018 455.443C360.172 455.443 358.675 456.94 358.675 458.787C358.675 460.633 360.172 462.13 362.018 462.13Z" fill="white"/>
<path d="M419.936 462.13C421.783 462.13 423.28 460.633 423.28 458.787C423.28 456.94 421.783 455.443 419.936 455.443C418.089 455.443 416.592 456.94 416.592 458.787C416.592 460.633 418.089 462.13 419.936 462.13Z" fill="white"/>
<path d="M477.853 462.13C479.7 462.13 481.197 460.633 481.197 458.787C481.197 456.94 479.7 455.443 477.853 455.443C476.007 455.443 474.51 456.94 474.51 458.787C474.51 460.633 476.007 462.13 477.853 462.13Z" fill="white"/>
<path d="M419.936 561.304C421.783 561.304 423.28 559.807 423.28 557.96C423.28 556.114 421.783 554.617 419.936 554.617C418.089 554.617 416.592 556.114 416.592 557.96C416.592 559.807 418.089 561.304 419.936 561.304Z" fill="white"/>
<path d="M467.313 522.485C453.088 550.027 439.941 575.415 438.977 578.192C398.619 545.844 361.081 510.127 326.769 471.424C280.639 418.494 292.767 382.905 324.672 382.678L467.313 522.485Z" fill="#263238"/>
<path d="M512.989 1217.72H11.0565C11.0565 1217.72 23.1274 1126.48 42.6788 1005.26L43.6989 998.632C51.8028 948.479 61.1535 893.451 71.4109 837.857C89.4888 739.534 110.457 639.51 132.389 560.624C132.785 559.321 133.125 558.017 133.465 556.714C140.946 530.249 148.54 506.334 156.134 485.819C180.785 419.457 229.466 378.428 264.375 373.327C287.666 369.927 320.082 372.987 344.224 395.486C352.721 404.02 360.511 413.231 367.515 423.028C389.277 452.1 415.232 494.319 424.186 523.278C424.753 525.148 425.206 526.848 425.603 528.548C426.668 532.354 427.277 536.273 427.416 540.223C427.153 566.019 423.572 591.675 416.762 616.558L446.401 801.475L447.251 806.632L510.099 1199.81L512.989 1217.72Z" fill="#006845"/>
<path d="M220.625 406.933C220.519 407.752 220.118 408.504 219.497 409.05C218.877 409.595 218.079 409.895 217.253 409.895C216.427 409.895 215.629 409.595 215.009 409.05C214.388 408.504 213.987 407.752 213.881 406.933C213.987 406.114 214.388 405.362 215.009 404.817C215.629 404.271 216.427 403.971 217.253 403.971C218.079 403.971 218.877 404.271 219.497 404.817C220.118 405.362 220.519 406.114 220.625 406.933ZM275.142 403.589C274.255 403.589 273.405 403.942 272.778 404.569C272.151 405.196 271.799 406.046 271.799 406.933C271.787 407.61 271.979 408.275 272.348 408.843C272.717 409.411 273.248 409.855 273.871 410.12C274.495 410.384 275.183 410.456 275.848 410.327C276.513 410.197 277.124 409.872 277.603 409.394C278.082 408.915 278.407 408.304 278.536 407.639C278.665 406.974 278.593 406.286 278.329 405.662C278.065 405.039 277.62 404.508 277.052 404.139C276.485 403.77 275.819 403.578 275.142 403.589ZM333.06 403.589C332.173 403.589 331.322 403.942 330.695 404.569C330.068 405.196 329.716 406.046 329.716 406.933C329.731 407.815 330.088 408.657 330.712 409.281C331.335 409.905 332.178 410.262 333.06 410.277C333.946 410.277 334.797 409.924 335.424 409.297C336.051 408.67 336.403 407.82 336.403 406.933C336.411 406.492 336.33 406.054 336.164 405.645C335.999 405.235 335.753 404.864 335.441 404.552C335.129 404.24 334.757 403.994 334.348 403.828C333.939 403.663 333.501 403.582 333.06 403.589ZM159.364 502.763C158.703 502.763 158.056 502.959 157.506 503.327C156.956 503.694 156.528 504.216 156.275 504.827C156.022 505.438 155.956 506.111 156.085 506.759C156.214 507.408 156.532 508.004 157 508.471C157.467 508.939 158.063 509.257 158.712 509.386C159.36 509.515 160.032 509.449 160.643 509.196C161.254 508.943 161.777 508.514 162.144 507.964C162.511 507.415 162.707 506.768 162.707 506.107C162.707 505.668 162.621 505.233 162.453 504.827C162.285 504.422 162.039 504.053 161.728 503.743C161.418 503.432 161.049 503.186 160.643 503.018C160.238 502.85 159.803 502.763 159.364 502.763ZM217.225 502.763C216.566 502.774 215.925 502.98 215.383 503.354C214.84 503.728 214.421 504.254 214.176 504.866C213.932 505.478 213.874 506.148 214.009 506.793C214.144 507.438 214.467 508.028 214.937 508.49C215.407 508.952 216.003 509.265 216.65 509.39C217.297 509.514 217.966 509.445 218.574 509.19C219.181 508.936 219.7 508.507 220.065 507.958C220.43 507.41 220.625 506.766 220.625 506.107C220.626 505.653 220.534 505.204 220.355 504.787C220.177 504.37 219.915 503.993 219.586 503.68C219.258 503.368 218.869 503.125 218.443 502.967C218.018 502.81 217.565 502.74 217.111 502.763H217.225ZM275.142 502.763C274.483 502.774 273.843 502.98 273.3 503.354C272.758 503.728 272.338 504.254 272.094 504.866C271.849 505.478 271.791 506.148 271.927 506.793C272.062 507.438 272.385 508.028 272.855 508.49C273.324 508.952 273.92 509.265 274.567 509.39C275.214 509.514 275.883 509.445 276.491 509.19C277.099 508.936 277.618 508.507 277.983 507.958C278.348 507.41 278.542 506.766 278.542 506.107C278.542 505.663 278.454 505.224 278.283 504.814C278.111 504.405 277.86 504.034 277.543 503.722C277.227 503.411 276.851 503.166 276.439 503.001C276.027 502.837 275.586 502.756 275.142 502.763ZM333.06 502.763C332.173 502.763 331.322 503.116 330.695 503.743C330.068 504.37 329.716 505.22 329.716 506.107C329.716 506.994 330.068 507.844 330.695 508.471C331.322 509.098 332.173 509.45 333.06 509.45C333.946 509.45 334.797 509.098 335.424 508.471C336.051 507.844 336.403 506.994 336.403 506.107C336.403 505.22 336.051 504.37 335.424 503.743C334.797 503.116 333.946 502.763 333.06 502.763ZM390.977 502.763C390.316 502.763 389.669 502.959 389.12 503.327C388.57 503.694 388.141 504.216 387.888 504.827C387.635 505.438 387.569 506.111 387.698 506.759C387.827 507.408 388.145 508.004 388.613 508.471C389.081 508.939 389.676 509.257 390.325 509.386C390.973 509.515 391.646 509.449 392.257 509.196C392.868 508.943 393.39 508.514 393.757 507.964C394.125 507.415 394.321 506.768 394.321 506.107C394.328 505.666 394.247 505.227 394.082 504.818C393.917 504.409 393.671 504.038 393.359 503.726C393.047 503.413 392.675 503.167 392.266 503.002C391.857 502.837 391.418 502.756 390.977 502.763ZM188.323 455.386C187.648 455.375 186.985 455.565 186.418 455.932C185.852 456.299 185.407 456.826 185.141 457.446C184.875 458.066 184.8 458.751 184.924 459.415C185.049 460.078 185.368 460.689 185.842 461.17C186.315 461.652 186.92 461.981 187.581 462.117C188.243 462.253 188.929 462.189 189.554 461.933C190.178 461.678 190.713 461.242 191.089 460.682C191.465 460.121 191.666 459.462 191.666 458.787C191.666 457.895 191.316 457.038 190.69 456.402C190.065 455.766 189.215 455.401 188.323 455.386ZM246.183 455.386C245.511 455.386 244.854 455.586 244.294 455.96C243.735 456.333 243.299 456.864 243.042 457.486C242.785 458.107 242.717 458.791 242.849 459.45C242.98 460.11 243.304 460.716 243.779 461.191C244.255 461.667 244.86 461.99 245.52 462.122C246.18 462.253 246.863 462.186 247.485 461.928C248.106 461.671 248.637 461.235 249.011 460.676C249.384 460.117 249.584 459.459 249.584 458.787C249.584 458.34 249.496 457.898 249.325 457.486C249.154 457.073 248.904 456.698 248.588 456.382C248.272 456.067 247.897 455.816 247.485 455.645C247.072 455.475 246.63 455.386 246.183 455.386ZM304.101 455.386C303.282 455.493 302.53 455.894 301.984 456.514C301.439 457.135 301.139 457.932 301.139 458.758C301.139 459.584 301.439 460.382 301.984 461.003C302.53 461.623 303.282 462.024 304.101 462.13C304.92 462.024 305.672 461.623 306.217 461.003C306.763 460.382 307.063 459.584 307.063 458.758C307.063 457.932 306.763 457.135 306.217 456.514C305.672 455.894 304.92 455.493 304.101 455.386ZM362.018 455.386C361.344 455.375 360.681 455.565 360.114 455.932C359.548 456.299 359.103 456.826 358.837 457.446C358.571 458.066 358.495 458.751 358.62 459.415C358.745 460.078 359.064 460.689 359.537 461.17C360.011 461.652 360.616 461.981 361.277 462.117C361.938 462.253 362.625 462.189 363.25 461.933C363.874 461.678 364.409 461.242 364.785 460.682C365.161 460.121 365.362 459.462 365.362 458.787C365.37 458.343 365.289 457.902 365.124 457.49C364.959 457.078 364.714 456.702 364.403 456.386C364.092 456.069 363.721 455.818 363.311 455.646C362.902 455.475 362.462 455.386 362.018 455.386ZM159.364 601.937C158.703 601.937 158.056 602.133 157.506 602.501C156.956 602.868 156.528 603.39 156.275 604.001C156.022 604.612 155.956 605.284 156.085 605.933C156.214 606.582 156.532 607.177 157 607.645C157.467 608.113 158.063 608.431 158.712 608.56C159.36 608.689 160.032 608.623 160.643 608.37C161.254 608.117 161.777 607.688 162.144 607.138C162.511 606.588 162.707 605.942 162.707 605.281C162.707 604.842 162.621 604.407 162.453 604.001C162.285 603.595 162.039 603.227 161.728 602.916C161.418 602.606 161.049 602.36 160.643 602.192C160.238 602.024 159.803 601.937 159.364 601.937ZM217.225 601.937C216.566 601.948 215.925 602.154 215.383 602.528C214.84 602.902 214.421 603.428 214.176 604.04C213.932 604.652 213.874 605.322 214.009 605.967C214.144 606.612 214.467 607.202 214.937 607.664C215.407 608.126 216.003 608.439 216.65 608.564C217.297 608.688 217.966 608.619 218.574 608.364C219.181 608.109 219.7 607.681 220.065 607.132C220.43 606.584 220.625 605.94 220.625 605.281C220.626 604.827 220.534 604.378 220.355 603.961C220.177 603.543 219.915 603.167 219.586 602.854C219.258 602.541 218.869 602.299 218.443 602.141C218.018 601.983 217.565 601.914 217.111 601.937H217.225ZM275.142 601.937C274.483 601.948 273.843 602.154 273.3 602.528C272.758 602.902 272.338 603.428 272.094 604.04C271.849 604.652 271.791 605.322 271.927 605.967C272.062 606.612 272.385 607.202 272.855 607.664C273.324 608.126 273.92 608.439 274.567 608.564C275.214 608.688 275.883 608.619 276.491 608.364C277.099 608.109 277.618 607.681 277.983 607.132C278.348 606.584 278.542 605.94 278.542 605.281C278.542 604.837 278.454 604.397 278.283 603.988C278.111 603.579 277.86 603.207 277.543 602.896C277.227 602.585 276.851 602.34 276.439 602.175C276.027 602.01 275.586 601.93 275.142 601.937ZM333.06 601.937C332.173 601.937 331.322 602.289 330.695 602.916C330.068 603.543 329.716 604.394 329.716 605.281C329.716 606.167 330.068 607.018 330.695 607.645C331.322 608.272 332.173 608.624 333.06 608.624C333.946 608.624 334.797 608.272 335.424 607.645C336.051 607.018 336.403 606.167 336.403 605.281C336.403 604.394 336.051 603.543 335.424 602.916C334.797 602.289 333.946 601.937 333.06 601.937ZM390.977 601.937C390.316 601.937 389.669 602.133 389.12 602.501C388.57 602.868 388.141 603.39 387.888 604.001C387.635 604.612 387.569 605.284 387.698 605.933C387.827 606.582 388.145 607.177 388.613 607.645C389.081 608.113 389.676 608.431 390.325 608.56C390.973 608.689 391.646 608.623 392.257 608.37C392.868 608.117 393.39 607.688 393.757 607.138C394.125 606.588 394.321 605.942 394.321 605.281C394.328 604.839 394.247 604.401 394.082 603.992C393.917 603.583 393.671 603.211 393.359 602.899C393.047 602.587 392.675 602.341 392.266 602.176C391.857 602.011 391.418 601.929 390.977 601.937ZM133.465 556.6C133.125 557.904 132.785 559.207 132.389 560.511C132.8 560.197 133.136 559.795 133.372 559.334C133.607 558.873 133.736 558.365 133.749 557.847C133.728 557.455 133.632 557.07 133.465 556.714V556.6ZM188.323 554.447C187.648 554.436 186.985 554.626 186.418 554.992C185.852 555.359 185.407 555.886 185.141 556.506C184.875 557.127 184.8 557.812 184.924 558.475C185.049 559.138 185.368 559.75 185.842 560.231C186.315 560.712 186.92 561.042 187.581 561.177C188.243 561.313 188.929 561.249 189.554 560.994C190.178 560.738 190.713 560.302 191.089 559.742C191.465 559.182 191.666 558.522 191.666 557.847C191.637 556.975 191.274 556.147 190.652 555.535C190.029 554.924 189.195 554.574 188.323 554.56V554.447ZM246.183 554.447C245.511 554.447 244.854 554.646 244.294 555.02C243.735 555.394 243.299 555.925 243.042 556.546C242.785 557.167 242.717 557.851 242.849 558.511C242.98 559.17 243.304 559.776 243.779 560.252C244.255 560.727 244.86 561.051 245.52 561.182C246.18 561.313 246.863 561.246 247.485 560.989C248.106 560.731 248.637 560.295 249.011 559.736C249.384 559.177 249.584 558.52 249.584 557.847C249.554 556.965 249.183 556.129 248.549 555.516C247.914 554.902 247.066 554.56 246.183 554.56V554.447ZM304.101 554.447C303.282 554.553 302.53 554.954 301.984 555.575C301.439 556.195 301.139 556.993 301.139 557.819C301.139 558.645 301.439 559.442 301.984 560.063C302.53 560.683 303.282 561.084 304.101 561.191C304.92 561.084 305.672 560.683 306.217 560.063C306.763 559.442 307.063 558.645 307.063 557.819C307.063 556.993 306.763 556.195 306.217 555.575C305.672 554.954 304.92 554.553 304.101 554.447ZM362.018 554.447C361.344 554.436 360.681 554.626 360.114 554.992C359.548 555.359 359.103 555.886 358.837 556.506C358.571 557.127 358.495 557.812 358.62 558.475C358.745 559.138 359.064 559.75 359.537 560.231C360.011 560.712 360.616 561.042 361.277 561.177C361.938 561.313 362.625 561.249 363.25 560.994C363.874 560.738 364.409 560.302 364.785 559.742C365.161 559.182 365.362 558.522 365.362 557.847C365.347 556.97 364.988 556.134 364.363 555.52C363.738 554.905 362.896 554.56 362.018 554.56V554.447ZM419.936 554.447C419.261 554.436 418.598 554.626 418.032 554.992C417.465 555.359 417.021 555.886 416.754 556.506C416.488 557.127 416.413 557.812 416.538 558.475C416.662 559.138 416.982 559.75 417.455 560.231C417.928 560.712 418.534 561.042 419.195 561.177C419.856 561.313 420.543 561.249 421.167 560.994C421.792 560.738 422.326 560.302 422.702 559.742C423.079 559.182 423.279 558.522 423.28 557.847C423.265 556.97 422.906 556.134 422.28 555.52C421.655 554.905 420.813 554.56 419.936 554.56V554.447ZM101.446 700.998C100.56 700.998 99.7092 701.35 99.0821 701.977C98.4551 702.604 98.1028 703.454 98.1028 704.341C98.1028 705.228 98.4551 706.078 99.0821 706.705C99.7092 707.332 100.56 707.685 101.446 707.685C102.333 707.685 103.184 707.332 103.811 706.705C104.438 706.078 104.79 705.228 104.79 704.341C104.79 703.454 104.438 702.604 103.811 701.977C103.184 701.35 102.333 700.998 101.446 700.998ZM159.364 700.998C158.703 700.998 158.056 701.194 157.506 701.561C156.956 701.928 156.528 702.451 156.275 703.062C156.022 703.673 155.956 704.345 156.085 704.993C156.214 705.642 156.532 706.238 157 706.705C157.467 707.173 158.063 707.491 158.712 707.62C159.36 707.749 160.032 707.683 160.643 707.43C161.254 707.177 161.777 706.749 162.144 706.199C162.511 705.649 162.707 705.002 162.707 704.341C162.678 703.474 162.313 702.652 161.689 702.05C161.065 701.447 160.231 701.11 159.364 701.111V700.998ZM217.225 700.998C216.566 701.009 215.925 701.214 215.383 701.588C214.84 701.962 214.421 702.488 214.176 703.1C213.932 703.712 213.874 704.383 214.009 705.027C214.144 705.672 214.467 706.263 214.937 706.725C215.407 707.187 216.003 707.499 216.65 707.624C217.297 707.748 217.966 707.679 218.574 707.424C219.181 707.17 219.7 706.741 220.065 706.193C220.43 705.644 220.625 705 220.625 704.341C220.61 703.897 220.508 703.46 220.322 703.056C220.137 702.652 219.873 702.289 219.546 701.989C219.219 701.688 218.835 701.455 218.417 701.305C217.999 701.154 217.555 701.088 217.111 701.111L217.225 700.998ZM275.142 700.998C274.483 701.009 273.843 701.214 273.3 701.588C272.758 701.962 272.338 702.488 272.094 703.1C271.849 703.712 271.791 704.383 271.927 705.027C272.062 705.672 272.385 706.263 272.855 706.725C273.324 707.187 273.92 707.499 274.567 707.624C275.214 707.748 275.883 707.679 276.491 707.424C277.099 707.17 277.618 706.741 277.983 706.193C278.348 705.644 278.542 705 278.542 704.341C278.513 703.464 278.14 702.634 277.504 702.03C276.868 701.426 276.019 701.095 275.142 701.111V700.998ZM333.06 700.998C332.173 700.998 331.322 701.35 330.695 701.977C330.068 702.604 329.716 703.454 329.716 704.341C329.716 705.228 330.068 706.078 330.695 706.705C331.322 707.332 332.173 707.685 333.06 707.685C333.946 707.685 334.797 707.332 335.424 706.705C336.051 706.078 336.403 705.228 336.403 704.341C336.403 703.454 336.051 702.604 335.424 701.977C334.797 701.35 333.946 700.998 333.06 700.998ZM390.977 700.998C390.316 700.998 389.669 701.194 389.12 701.561C388.57 701.928 388.141 702.451 387.888 703.062C387.635 703.673 387.569 704.345 387.698 704.993C387.827 705.642 388.145 706.238 388.613 706.705C389.081 707.173 389.676 707.491 390.325 707.62C390.973 707.749 391.646 707.683 392.257 707.43C392.868 707.177 393.39 706.749 393.757 706.199C394.125 705.649 394.321 705.002 394.321 704.341C394.313 703.909 394.221 703.483 394.049 703.088C393.877 702.692 393.629 702.333 393.318 702.033C393.008 701.733 392.641 701.498 392.239 701.339C391.838 701.181 391.409 701.103 390.977 701.111V700.998ZM130.292 653.677C129.848 653.67 129.407 653.751 128.995 653.916C128.583 654.08 128.207 654.325 127.891 654.637C127.574 654.948 127.323 655.319 127.151 655.728C126.98 656.138 126.891 656.577 126.892 657.021C126.998 657.84 127.399 658.592 128.019 659.138C128.64 659.683 129.438 659.983 130.263 659.983C131.089 659.983 131.887 659.683 132.508 659.138C133.128 658.592 133.529 657.84 133.635 657.021C133.607 656.173 133.258 655.368 132.658 654.768C132.058 654.168 131.253 653.819 130.405 653.791L130.292 653.677ZM188.209 653.677C187.765 653.67 187.325 653.751 186.912 653.916C186.5 654.08 186.125 654.325 185.808 654.637C185.492 654.948 185.24 655.319 185.069 655.728C184.897 656.138 184.809 656.577 184.809 657.021C184.915 657.84 185.316 658.592 185.937 659.138C186.557 659.683 187.355 659.983 188.181 659.983C189.007 659.983 189.805 659.683 190.425 659.138C191.046 658.592 191.446 657.84 191.553 657.021C191.525 656.173 191.175 655.368 190.575 654.768C189.976 654.168 189.17 653.819 188.323 653.791L188.209 653.677ZM246.07 653.677C245.183 653.677 244.333 654.03 243.706 654.657C243.079 655.284 242.727 656.134 242.727 657.021C242.715 657.698 242.907 658.363 243.276 658.931C243.645 659.499 244.176 659.943 244.799 660.208C245.423 660.472 246.111 660.544 246.776 660.415C247.441 660.285 248.052 659.961 248.531 659.482C249.01 659.003 249.335 658.392 249.464 657.727C249.593 657.062 249.521 656.374 249.257 655.75C248.993 655.127 248.548 654.596 247.98 654.227C247.412 653.858 246.747 653.666 246.07 653.677ZM303.988 653.677C303.101 653.677 302.25 654.03 301.623 654.657C300.996 655.284 300.644 656.134 300.644 657.021C300.659 657.903 301.016 658.745 301.639 659.369C302.263 659.993 303.105 660.35 303.988 660.365C304.874 660.365 305.725 660.012 306.352 659.385C306.979 658.758 307.331 657.908 307.331 657.021C307.317 656.169 306.972 655.356 306.369 654.753C305.766 654.15 304.953 653.805 304.101 653.791L303.988 653.677ZM361.905 653.677C361.464 653.67 361.026 653.751 360.617 653.916C360.207 654.082 359.836 654.328 359.524 654.64C359.212 654.952 358.966 655.323 358.8 655.732C358.635 656.142 358.554 656.58 358.562 657.021C358.562 657.908 358.914 658.758 359.541 659.385C360.168 660.012 361.018 660.365 361.905 660.365C362.792 660.365 363.642 660.012 364.269 659.385C364.896 658.758 365.249 657.908 365.249 657.021C365.234 656.169 364.889 655.356 364.286 654.753C363.684 654.15 362.871 653.805 362.018 653.791L361.905 653.677ZM419.823 653.677C419.381 653.67 418.943 653.751 418.534 653.916C418.125 654.082 417.753 654.328 417.441 654.64C417.129 654.952 416.883 655.323 416.718 655.732C416.553 656.142 416.471 656.58 416.479 657.021C416.479 657.908 416.831 658.758 417.458 659.385C418.085 660.012 418.936 660.365 419.823 660.365C420.709 660.365 421.56 660.012 422.187 659.385C422.814 658.758 423.166 657.908 423.166 657.021C423.152 656.169 422.807 655.356 422.204 654.753C421.601 654.15 420.788 653.805 419.936 653.791L419.823 653.677ZM101.333 800.171C100.446 800.171 99.5958 800.524 98.9688 801.151C98.3418 801.778 97.9895 802.628 97.9895 803.515C97.9818 803.956 98.0631 804.394 98.2284 804.803C98.3937 805.213 98.6396 805.584 98.9517 805.896C99.2637 806.208 99.6353 806.454 100.044 806.62C100.454 806.785 100.892 806.866 101.333 806.858C102.22 806.858 103.07 806.506 103.697 805.879C104.324 805.252 104.677 804.402 104.677 803.515C104.635 802.671 104.282 801.874 103.685 801.277C103.088 800.679 102.29 800.326 101.446 800.285L101.333 800.171ZM159.251 800.171C158.358 800.171 157.502 800.522 156.866 801.147C156.23 801.773 155.865 802.623 155.85 803.515C155.839 804.19 156.029 804.853 156.396 805.419C156.762 805.986 157.289 806.43 157.91 806.696C158.53 806.962 159.215 807.038 159.878 806.913C160.542 806.789 161.153 806.469 161.634 805.996C162.115 805.523 162.445 804.917 162.581 804.256C162.717 803.595 162.653 802.908 162.397 802.284C162.141 801.659 161.706 801.125 161.145 800.749C160.585 800.372 159.925 800.171 159.251 800.171ZM217.111 800.171C216.229 800.186 215.387 800.543 214.763 801.167C214.139 801.791 213.782 802.633 213.768 803.515C213.874 804.334 214.275 805.086 214.896 805.631C215.516 806.177 216.314 806.477 217.14 806.477C217.966 806.477 218.763 806.177 219.384 805.631C220.004 805.086 220.405 804.334 220.512 803.515C220.468 802.643 220.091 801.821 219.458 801.22C218.825 800.618 217.984 800.284 217.111 800.285V800.171ZM275.029 800.171C274.147 800.186 273.305 800.543 272.681 801.167C272.057 801.791 271.7 802.633 271.685 803.515C271.792 804.334 272.193 805.086 272.813 805.631C273.434 806.177 274.231 806.477 275.057 806.477C275.883 806.477 276.681 806.177 277.301 805.631C277.922 805.086 278.323 804.334 278.429 803.515C278.387 802.662 278.025 801.856 277.416 801.258C276.807 800.659 275.996 800.312 275.142 800.285L275.029 800.171ZM332.946 800.171C332.064 800.186 331.222 800.543 330.598 801.167C329.974 801.791 329.617 802.633 329.603 803.515C329.603 803.954 329.689 804.389 329.857 804.794C330.025 805.2 330.272 805.569 330.582 805.879C330.893 806.19 331.261 806.436 331.667 806.604C332.073 806.772 332.507 806.858 332.946 806.858C333.388 806.866 333.826 806.785 334.235 806.62C334.644 806.454 335.016 806.208 335.328 805.896C335.64 805.584 335.886 805.213 336.051 804.803C336.216 804.394 336.298 803.956 336.29 803.515C336.262 802.667 335.912 801.862 335.312 801.262C334.713 800.662 333.907 800.313 333.06 800.285L332.946 800.171ZM390.864 800.171C389.977 800.171 389.127 800.524 388.5 801.151C387.873 801.778 387.52 802.628 387.52 803.515C387.52 804.402 387.873 805.252 388.5 805.879C389.127 806.506 389.977 806.858 390.864 806.858C391.751 806.858 392.601 806.506 393.228 805.879C393.855 805.252 394.207 804.402 394.207 803.515C394.179 802.667 393.83 801.862 393.23 801.262C392.63 800.662 391.825 800.313 390.977 800.285L390.864 800.171ZM446.288 801.248C445.753 801.884 445.453 802.684 445.438 803.515C445.436 804.105 445.592 804.685 445.892 805.193C446.191 805.702 446.621 806.12 447.138 806.405L446.288 801.248ZM130.292 752.851C129.63 752.851 128.984 753.047 128.434 753.415C127.884 753.782 127.456 754.304 127.203 754.915C126.95 755.526 126.883 756.199 127.012 756.847C127.141 757.496 127.46 758.092 127.928 758.559C128.395 759.027 128.991 759.345 129.639 759.474C130.288 759.603 130.96 759.537 131.571 759.284C132.182 759.031 132.704 758.602 133.072 758.052C133.439 757.503 133.635 756.856 133.635 756.195C133.607 755.347 133.258 754.542 132.658 753.942C132.058 753.342 131.253 752.993 130.405 752.965L130.292 752.851ZM188.209 752.851C187.548 752.851 186.902 753.047 186.352 753.415C185.802 753.782 185.373 754.304 185.12 754.915C184.867 755.526 184.801 756.199 184.93 756.847C185.059 757.496 185.377 758.092 185.845 758.559C186.313 759.027 186.908 759.345 187.557 759.474C188.206 759.603 188.878 759.537 189.489 759.284C190.1 759.031 190.622 758.602 190.989 758.052C191.357 757.503 191.553 756.856 191.553 756.195C191.525 755.347 191.175 754.542 190.575 753.942C189.976 753.342 189.17 752.993 188.323 752.965L188.209 752.851ZM246.07 752.851C245.411 752.862 244.771 753.068 244.228 753.442C243.686 753.816 243.266 754.342 243.022 754.954C242.777 755.566 242.719 756.236 242.855 756.881C242.99 757.526 243.313 758.116 243.782 758.578C244.252 759.04 244.848 759.353 245.495 759.478C246.142 759.602 246.811 759.533 247.419 759.278C248.027 759.023 248.546 758.595 248.911 758.046C249.276 757.498 249.47 756.854 249.47 756.195C249.441 755.338 249.084 754.524 248.472 753.923C247.861 753.322 247.041 752.979 246.183 752.965L246.07 752.851ZM303.988 752.851C303.101 752.851 302.25 753.204 301.623 753.831C300.996 754.458 300.644 755.308 300.644 756.195C300.644 757.082 300.996 757.932 301.623 758.559C302.25 759.186 303.101 759.538 303.988 759.538C304.874 759.538 305.725 759.186 306.352 758.559C306.979 757.932 307.331 757.082 307.331 756.195C307.331 755.308 306.979 754.458 306.352 753.831C305.725 753.204 304.874 752.851 303.988 752.851ZM361.905 752.851C361.244 752.851 360.597 753.047 360.048 753.415C359.498 753.782 359.069 754.304 358.816 754.915C358.563 755.526 358.497 756.199 358.626 756.847C358.755 757.496 359.073 758.092 359.541 758.559C360.008 759.027 360.604 759.345 361.253 759.474C361.901 759.603 362.574 759.537 363.185 759.284C363.796 759.031 364.318 758.602 364.685 758.052C365.053 757.503 365.249 756.856 365.249 756.195C365.234 755.343 364.889 754.529 364.286 753.927C363.684 753.324 362.871 752.979 362.018 752.965L361.905 752.851ZM419.823 752.851C419.161 752.851 418.515 753.047 417.965 753.415C417.415 753.782 416.987 754.304 416.734 754.915C416.481 755.526 416.414 756.199 416.543 756.847C416.672 757.496 416.991 758.092 417.458 758.559C417.926 759.027 418.522 759.345 419.17 759.474C419.819 759.603 420.491 759.537 421.102 759.284C421.713 759.031 422.235 758.602 422.603 758.052C422.97 757.503 423.166 756.856 423.166 756.195C423.152 755.343 422.807 754.529 422.204 753.927C421.601 753.324 420.788 752.979 419.936 752.965L419.823 752.851ZM101.333 899.345C100.514 899.452 99.7617 899.852 99.2166 900.473C98.6715 901.093 98.3708 901.891 98.3708 902.717C98.3708 903.543 98.6715 904.341 99.2166 904.961C99.7617 905.582 100.514 905.983 101.333 906.089C102.152 905.983 102.904 905.582 103.45 904.961C103.995 904.341 104.295 903.543 104.295 902.717C104.295 901.891 103.995 901.093 103.45 900.473C102.904 899.852 102.152 899.452 101.333 899.345ZM159.251 899.345C158.573 899.334 157.908 899.525 157.341 899.895C156.773 900.264 156.328 900.794 156.064 901.418C155.799 902.041 155.727 902.73 155.857 903.394C155.986 904.059 156.311 904.67 156.79 905.149C157.269 905.628 157.88 905.953 158.545 906.082C159.21 906.212 159.898 906.14 160.521 905.875C161.145 905.611 161.675 905.167 162.045 904.599C162.414 904.031 162.605 903.366 162.594 902.689C162.553 901.845 162.199 901.047 161.602 900.45C161.005 899.853 160.207 899.5 159.364 899.458L159.251 899.345ZM217.111 899.345C216.436 899.345 215.777 899.546 215.217 899.922C214.656 900.299 214.221 900.833 213.965 901.458C213.709 902.082 213.645 902.769 213.781 903.43C213.917 904.091 214.247 904.697 214.728 905.17C215.209 905.643 215.82 905.962 216.483 906.087C217.147 906.212 217.832 906.136 218.452 905.87C219.073 905.604 219.6 905.16 219.966 904.593C220.333 904.026 220.523 903.363 220.512 902.689C220.468 901.817 220.091 900.995 219.458 900.394C218.825 899.792 217.984 899.457 217.111 899.458V899.345ZM275.029 899.345C274.354 899.345 273.694 899.546 273.134 899.922C272.574 900.299 272.138 900.833 271.882 901.458C271.627 902.082 271.563 902.769 271.699 903.43C271.835 904.091 272.164 904.697 272.645 905.17C273.126 905.643 273.738 905.962 274.401 906.087C275.064 906.212 275.75 906.136 276.37 905.87C276.99 905.604 277.517 905.16 277.884 904.593C278.251 904.026 278.44 903.363 278.429 902.689C278.387 901.836 278.025 901.03 277.416 900.432C276.807 899.833 275.996 899.486 275.142 899.458L275.029 899.345ZM332.946 899.345C332.269 899.334 331.604 899.525 331.036 899.895C330.469 900.264 330.024 900.794 329.76 901.418C329.495 902.041 329.423 902.73 329.552 903.394C329.682 904.059 330.007 904.67 330.486 905.149C330.965 905.628 331.576 905.953 332.241 906.082C332.905 906.212 333.594 906.14 334.217 905.875C334.841 905.611 335.371 905.167 335.741 904.599C336.11 904.031 336.301 903.366 336.29 902.689C336.262 901.841 335.912 901.036 335.312 900.436C334.713 899.836 333.907 899.487 333.06 899.458L332.946 899.345ZM390.864 899.345C390.187 899.334 389.522 899.525 388.954 899.895C388.386 900.264 387.941 900.794 387.677 901.418C387.413 902.041 387.341 902.73 387.47 903.394C387.599 904.059 387.924 904.67 388.403 905.149C388.882 905.628 389.493 905.953 390.158 906.082C390.823 906.212 391.511 906.14 392.135 905.875C392.758 905.611 393.289 905.167 393.658 904.599C394.027 904.031 394.219 903.366 394.207 902.689C394.179 901.841 393.83 901.036 393.23 900.436C392.63 899.836 391.825 899.487 390.977 899.458L390.864 899.345ZM448.781 899.345C448.104 899.334 447.439 899.525 446.871 899.895C446.304 900.264 445.859 900.794 445.595 901.418C445.33 902.041 445.258 902.73 445.388 903.394C445.517 904.059 445.842 904.67 446.321 905.149C446.8 905.628 447.411 905.953 448.076 906.082C448.74 906.212 449.429 906.14 450.052 905.875C450.676 905.611 451.206 905.167 451.576 904.599C451.945 904.031 452.136 903.366 452.125 902.689C452.097 901.841 451.747 901.036 451.147 900.436C450.548 899.836 449.742 899.487 448.895 899.458L448.781 899.345ZM72.3743 852.025C71.4875 852.025 70.6371 852.377 70.01 853.004C69.383 853.631 69.0307 854.482 69.0307 855.369C69.0307 856.255 69.383 857.106 70.01 857.733C70.6371 858.36 71.4875 858.712 72.3743 858.712C73.2611 858.712 74.1115 858.36 74.7385 857.733C75.3656 857.106 75.7179 856.255 75.7179 855.369C75.7179 854.482 75.3656 853.631 74.7385 853.004C74.1115 852.377 73.2611 852.025 72.3743 852.025ZM130.292 852.025C129.63 852.025 128.984 852.221 128.434 852.589C127.884 852.956 127.456 853.478 127.203 854.089C126.95 854.7 126.883 855.372 127.012 856.021C127.141 856.67 127.46 857.265 127.928 857.733C128.395 858.201 128.991 858.519 129.639 858.648C130.288 858.777 130.96 858.711 131.571 858.458C132.182 858.205 132.704 857.776 133.072 857.226C133.439 856.676 133.635 856.03 133.635 855.369C133.607 854.521 133.258 853.716 132.658 853.116C132.058 852.516 131.253 852.167 130.405 852.138L130.292 852.025ZM188.209 852.025C187.548 852.025 186.902 852.221 186.352 852.589C185.802 852.956 185.373 853.478 185.12 854.089C184.867 854.7 184.801 855.372 184.93 856.021C185.059 856.67 185.377 857.265 185.845 857.733C186.313 858.201 186.908 858.519 187.557 858.648C188.206 858.777 188.878 858.711 189.489 858.458C190.1 858.205 190.622 857.776 190.989 857.226C191.357 856.676 191.553 856.03 191.553 855.369C191.525 854.521 191.175 853.716 190.575 853.116C189.976 852.516 189.17 852.167 188.323 852.138L188.209 852.025ZM246.07 852.025C245.411 852.036 244.771 852.242 244.228 852.616C243.686 852.99 243.266 853.516 243.022 854.128C242.777 854.74 242.719 855.41 242.855 856.055C242.99 856.7 243.313 857.29 243.782 857.752C244.252 858.214 244.848 858.527 245.495 858.652C246.142 858.776 246.811 858.707 247.419 858.452C248.027 858.197 248.546 857.769 248.911 857.22C249.276 856.672 249.47 856.027 249.47 855.369C249.441 854.511 249.084 853.698 248.472 853.097C247.861 852.496 247.041 852.152 246.183 852.138L246.07 852.025ZM303.988 852.025C303.101 852.025 302.25 852.377 301.623 853.004C300.996 853.631 300.644 854.482 300.644 855.369C300.644 856.255 300.996 857.106 301.623 857.733C302.25 858.36 303.101 858.712 303.988 858.712C304.874 858.712 305.725 858.36 306.352 857.733C306.979 857.106 307.331 856.255 307.331 855.369C307.331 854.482 306.979 853.631 306.352 853.004C305.725 852.377 304.874 852.025 303.988 852.025ZM361.905 852.025C361.244 852.025 360.597 852.221 360.048 852.589C359.498 852.956 359.069 853.478 358.816 854.089C358.563 854.7 358.497 855.372 358.626 856.021C358.755 856.67 359.073 857.265 359.541 857.733C360.008 858.201 360.604 858.519 361.253 858.648C361.901 858.777 362.574 858.711 363.185 858.458C363.796 858.205 364.318 857.776 364.685 857.226C365.053 856.676 365.249 856.03 365.249 855.369C365.234 854.516 364.889 853.703 364.286 853.101C363.684 852.498 362.871 852.153 362.018 852.138L361.905 852.025ZM419.823 852.025C419.161 852.025 418.515 852.221 417.965 852.589C417.415 852.956 416.987 853.478 416.734 854.089C416.481 854.7 416.414 855.372 416.543 856.021C416.672 856.67 416.991 857.265 417.458 857.733C417.926 858.201 418.522 858.519 419.17 858.648C419.819 858.777 420.491 858.711 421.102 858.458C421.713 858.205 422.235 857.776 422.603 857.226C422.97 856.676 423.166 856.03 423.166 855.369C423.152 854.516 422.807 853.703 422.204 853.101C421.601 852.498 420.788 852.153 419.936 852.138L419.823 852.025ZM43.6989 998.632L42.6788 1005.26H43.5289C44.3479 1005.16 45.1003 1004.76 45.6454 1004.13C46.1905 1003.51 46.4911 1002.72 46.4911 1001.89C46.4911 1001.06 46.1905 1000.27 45.6454 999.647C45.1003 999.026 44.3479 998.625 43.5289 998.519L43.6989 998.632ZM101.446 998.632C100.627 998.739 99.875 999.14 99.3299 999.76C98.7848 1000.38 98.4842 1001.18 98.4842 1002C98.4842 1002.83 98.7848 1003.63 99.3299 1004.25C99.875 1004.87 100.627 1005.27 101.446 1005.38C102.265 1005.27 103.018 1004.87 103.563 1004.25C104.108 1003.63 104.409 1002.83 104.409 1002C104.409 1001.18 104.108 1000.38 103.563 999.76C103.018 999.14 102.265 998.739 101.446 998.632ZM159.364 998.632C158.687 998.621 158.022 998.812 157.454 999.182C156.886 999.551 156.441 1000.08 156.177 1000.7C155.913 1001.33 155.841 1002.02 155.97 1002.68C156.099 1003.35 156.424 1003.96 156.903 1004.44C157.382 1004.92 157.993 1005.24 158.658 1005.37C159.323 1005.5 160.011 1005.43 160.635 1005.16C161.258 1004.9 161.789 1004.45 162.158 1003.89C162.527 1003.32 162.719 1002.65 162.707 1001.98C162.693 1001.09 162.336 1000.25 161.712 999.628C161.088 999.004 160.246 998.647 159.364 998.632ZM217.225 998.632C216.55 998.632 215.89 998.833 215.33 999.21C214.77 999.586 214.334 1000.12 214.078 1000.74C213.823 1001.37 213.759 1002.06 213.895 1002.72C214.03 1003.38 214.36 1003.98 214.841 1004.46C215.322 1004.93 215.933 1005.25 216.597 1005.37C217.26 1005.5 217.945 1005.42 218.566 1005.16C219.186 1004.89 219.713 1004.45 220.08 1003.88C220.446 1003.31 220.636 1002.65 220.625 1001.98C220.618 1001.52 220.521 1001.08 220.339 1000.67C220.158 1000.25 219.896 999.879 219.569 999.567C219.242 999.256 218.856 999.013 218.434 998.853C218.012 998.692 217.563 998.617 217.111 998.632H217.225ZM275.142 998.632C274.467 998.632 273.808 998.833 273.247 999.21C272.687 999.586 272.251 1000.12 271.996 1000.74C271.74 1001.37 271.676 1002.06 271.812 1002.72C271.948 1003.38 272.277 1003.98 272.759 1004.46C273.24 1004.93 273.851 1005.25 274.514 1005.37C275.178 1005.5 275.863 1005.42 276.483 1005.16C277.103 1004.89 277.63 1004.45 277.997 1003.88C278.364 1003.31 278.554 1002.65 278.542 1001.98C278.528 1001.08 278.163 1000.23 277.527 999.608C276.891 998.983 276.034 998.632 275.142 998.632ZM333.06 998.632C332.383 998.621 331.717 998.812 331.15 999.182C330.582 999.551 330.137 1000.08 329.873 1000.7C329.609 1001.33 329.536 1002.02 329.666 1002.68C329.795 1003.35 330.12 1003.96 330.599 1004.44C331.078 1004.92 331.689 1005.24 332.354 1005.37C333.019 1005.5 333.707 1005.43 334.331 1005.16C334.954 1004.9 335.485 1004.45 335.854 1003.89C336.223 1003.32 336.414 1002.65 336.403 1001.98C336.403 1001.54 336.317 1001.1 336.149 1000.7C335.981 1000.29 335.734 999.922 335.424 999.612C335.114 999.301 334.745 999.055 334.339 998.887C333.934 998.719 333.499 998.632 333.06 998.632ZM390.977 998.632C390.3 998.621 389.635 998.812 389.067 999.182C388.499 999.551 388.055 1000.08 387.79 1000.7C387.526 1001.33 387.454 1002.02 387.583 1002.68C387.713 1003.35 388.038 1003.96 388.517 1004.44C388.996 1004.92 389.607 1005.24 390.271 1005.37C390.936 1005.5 391.625 1005.43 392.248 1005.16C392.872 1004.9 393.402 1004.45 393.771 1003.89C394.141 1003.32 394.332 1002.65 394.321 1001.98C394.321 1001.54 394.234 1001.1 394.066 1000.7C393.898 1000.29 393.652 999.922 393.341 999.612C393.031 999.301 392.662 999.055 392.257 998.887C391.851 998.719 391.416 998.632 390.977 998.632ZM448.895 998.632C448.217 998.621 447.552 998.812 446.985 999.182C446.417 999.551 445.972 1000.08 445.708 1000.7C445.444 1001.33 445.372 1002.02 445.501 1002.68C445.63 1003.35 445.955 1003.96 446.434 1004.44C446.913 1004.92 447.524 1005.24 448.189 1005.37C448.854 1005.5 449.542 1005.43 450.166 1005.16C450.789 1004.9 451.32 1004.45 451.689 1003.89C452.058 1003.32 452.25 1002.65 452.238 1001.98C452.238 1001.54 452.152 1001.1 451.984 1000.7C451.816 1000.29 451.57 999.922 451.259 999.612C450.949 999.301 450.58 999.055 450.174 998.887C449.769 998.719 449.334 998.632 448.895 998.632ZM72.4877 951.312C71.6009 951.312 70.7504 951.664 70.1234 952.292C69.4963 952.919 69.1441 953.769 69.1441 954.656C69.1441 955.543 69.4963 956.393 70.1234 957.02C70.7504 957.647 71.6009 957.999 72.4877 957.999C73.3744 957.999 74.2249 957.647 74.8519 957.02C75.479 956.393 75.8312 955.543 75.8312 954.656C75.8312 953.769 75.479 952.919 74.8519 952.292C74.2249 951.664 73.3744 951.312 72.4877 951.312ZM130.405 951.312C129.744 951.312 129.097 951.508 128.548 951.876C127.998 952.243 127.569 952.765 127.316 953.376C127.063 953.987 126.997 954.659 127.126 955.308C127.255 955.957 127.573 956.552 128.041 957.02C128.508 957.488 129.104 957.806 129.753 957.935C130.401 958.064 131.074 957.998 131.685 957.745C132.296 957.492 132.818 957.063 133.185 956.513C133.553 955.964 133.749 955.317 133.749 954.656C133.749 954.217 133.662 953.782 133.494 953.376C133.326 952.971 133.08 952.602 132.769 952.292C132.459 951.981 132.09 951.735 131.685 951.567C131.279 951.399 130.844 951.312 130.405 951.312ZM188.323 951.312C187.661 951.312 187.015 951.508 186.465 951.876C185.915 952.243 185.487 952.765 185.234 953.376C184.98 953.987 184.914 954.659 185.043 955.308C185.172 955.957 185.491 956.552 185.958 957.02C186.426 957.488 187.022 957.806 187.67 957.935C188.319 958.064 188.991 957.998 189.602 957.745C190.213 957.492 190.735 957.063 191.103 956.513C191.47 955.964 191.666 955.317 191.666 954.656C191.666 954.217 191.58 953.782 191.412 953.376C191.244 952.971 190.997 952.602 190.687 952.292C190.376 951.981 190.008 951.735 189.602 951.567C189.196 951.399 188.762 951.312 188.323 951.312ZM246.183 951.312C245.525 951.323 244.884 951.529 244.342 951.903C243.799 952.277 243.379 952.803 243.135 953.415C242.891 954.027 242.832 954.697 242.968 955.342C243.103 955.987 243.426 956.577 243.896 957.039C244.366 957.501 244.961 957.814 245.608 957.939C246.255 958.063 246.925 957.994 247.532 957.739C248.14 957.484 248.659 957.056 249.024 956.507C249.389 955.959 249.584 955.315 249.584 954.656C249.584 954.212 249.495 953.772 249.324 953.363C249.152 952.954 248.901 952.583 248.584 952.271C248.268 951.96 247.893 951.715 247.48 951.55C247.068 951.386 246.627 951.305 246.183 951.312ZM304.101 951.312C303.214 951.312 302.364 951.664 301.737 952.292C301.11 952.919 300.757 953.769 300.757 954.656C300.757 955.543 301.11 956.393 301.737 957.02C302.364 957.647 303.214 957.999 304.101 957.999C304.988 957.999 305.838 957.647 306.465 957.02C307.092 956.393 307.445 955.543 307.445 954.656C307.445 953.769 307.092 952.919 306.465 952.292C305.838 951.664 304.988 951.312 304.101 951.312ZM362.018 951.312C361.357 951.312 360.711 951.508 360.161 951.876C359.611 952.243 359.182 952.765 358.929 953.376C358.676 953.987 358.61 954.659 358.739 955.308C358.868 955.957 359.187 956.552 359.654 957.02C360.122 957.488 360.718 957.806 361.366 957.935C362.015 958.064 362.687 957.998 363.298 957.745C363.909 957.492 364.431 957.063 364.798 956.513C365.166 955.964 365.362 955.317 365.362 954.656C365.37 954.215 365.288 953.776 365.123 953.367C364.958 952.958 364.712 952.586 364.4 952.274C364.088 951.962 363.716 951.716 363.307 951.551C362.898 951.386 362.46 951.305 362.018 951.312ZM419.936 951.312C419.275 951.312 418.628 951.508 418.078 951.876C417.529 952.243 417.1 952.765 416.847 953.376C416.594 953.987 416.528 954.659 416.657 955.308C416.786 955.957 417.104 956.552 417.572 957.02C418.039 957.488 418.635 957.806 419.284 957.935C419.932 958.064 420.605 957.998 421.215 957.745C421.826 957.492 422.349 957.063 422.716 956.513C423.083 955.964 423.28 955.317 423.28 954.656C423.287 954.215 423.206 953.776 423.041 953.367C422.875 952.958 422.629 952.586 422.317 952.274C422.005 951.962 421.634 951.716 421.225 951.551C420.815 951.386 420.377 951.305 419.936 951.312ZM43.5289 1097.81C42.8541 1097.79 42.1912 1097.98 41.6246 1098.35C41.058 1098.72 40.6134 1099.25 40.3474 1099.87C40.0813 1100.49 40.0058 1101.17 40.1305 1101.83C40.2553 1102.5 40.5745 1103.11 41.0477 1103.59C41.5209 1104.07 42.1267 1104.4 42.7877 1104.54C43.4488 1104.67 44.1354 1104.61 44.76 1104.35C45.3846 1104.1 45.9191 1103.66 46.2953 1103.1C46.6714 1102.54 46.8724 1101.88 46.8725 1101.21C46.88 1100.76 46.7991 1100.32 46.6344 1099.91C46.4697 1099.5 46.2247 1099.12 45.9134 1098.81C45.6022 1098.49 45.231 1098.24 44.8216 1098.07C44.4122 1097.89 43.9728 1097.81 43.5289 1097.81ZM101.446 1097.81C100.772 1097.79 100.109 1097.98 99.5421 1098.35C98.9755 1098.72 98.5309 1099.25 98.2649 1099.87C97.9988 1100.49 97.9233 1101.17 98.048 1101.83C98.1728 1102.5 98.4921 1103.11 98.9652 1103.59C99.4384 1104.07 100.044 1104.4 100.705 1104.54C101.366 1104.67 102.053 1104.61 102.678 1104.35C103.302 1104.1 103.837 1103.66 104.213 1103.1C104.589 1102.54 104.79 1101.88 104.79 1101.21C104.79 1100.31 104.44 1099.46 103.814 1098.82C103.189 1098.19 102.338 1097.82 101.446 1097.81ZM159.364 1097.81C158.689 1097.79 158.026 1097.98 157.46 1098.35C156.893 1098.72 156.448 1099.25 156.182 1099.87C155.916 1100.49 155.841 1101.17 155.966 1101.83C156.09 1102.5 156.41 1103.11 156.883 1103.59C157.356 1104.07 157.962 1104.4 158.623 1104.54C159.284 1104.67 159.97 1104.61 160.595 1104.35C161.22 1104.1 161.754 1103.66 162.13 1103.1C162.506 1102.54 162.707 1101.88 162.707 1101.21C162.708 1100.31 162.357 1099.46 161.732 1098.82C161.106 1098.19 160.256 1097.82 159.364 1097.81ZM217.225 1097.81C216.552 1097.81 215.895 1098.01 215.336 1098.38C214.776 1098.75 214.341 1099.28 214.083 1099.91C213.826 1100.53 213.759 1101.21 213.89 1101.87C214.021 1102.53 214.345 1103.14 214.82 1103.61C215.296 1104.09 215.902 1104.41 216.561 1104.54C217.221 1104.67 217.905 1104.61 218.526 1104.35C219.147 1104.09 219.678 1103.65 220.052 1103.1C220.426 1102.54 220.625 1101.88 220.625 1101.21C220.625 1100.75 220.534 1100.3 220.356 1099.88C220.178 1099.46 219.917 1099.08 219.589 1098.76C219.261 1098.44 218.873 1098.2 218.447 1098.03C218.022 1097.87 217.567 1097.79 217.111 1097.81H217.225ZM275.142 1097.81C274.47 1097.81 273.812 1098.01 273.253 1098.38C272.694 1098.75 272.258 1099.28 272.001 1099.91C271.743 1100.53 271.676 1101.21 271.807 1101.87C271.939 1102.53 272.262 1103.14 272.738 1103.61C273.213 1104.09 273.819 1104.41 274.479 1104.54C275.138 1104.67 275.822 1104.61 276.443 1104.35C277.065 1104.09 277.596 1103.65 277.969 1103.1C278.343 1102.54 278.542 1101.88 278.542 1101.21C278.542 1100.76 278.454 1100.32 278.284 1099.91C278.113 1099.49 277.862 1099.12 277.547 1098.8C277.231 1098.49 276.856 1098.24 276.443 1098.06C276.031 1097.89 275.589 1097.81 275.142 1097.81ZM333.06 1097.81C332.241 1097.91 331.488 1098.31 330.943 1098.93C330.398 1099.55 330.098 1100.35 330.098 1101.18C330.098 1102 330.398 1102.8 330.943 1103.42C331.488 1104.04 332.241 1104.44 333.06 1104.55C333.879 1104.44 334.631 1104.04 335.176 1103.42C335.721 1102.8 336.022 1102 336.022 1101.18C336.022 1100.35 335.721 1099.55 335.176 1098.93C334.631 1098.31 333.879 1097.91 333.06 1097.81ZM390.977 1097.81C390.302 1097.79 389.64 1097.98 389.073 1098.35C388.506 1098.72 388.062 1099.25 387.796 1099.87C387.53 1100.49 387.454 1101.17 387.579 1101.83C387.704 1102.5 388.023 1103.11 388.496 1103.59C388.969 1104.07 389.575 1104.4 390.236 1104.54C390.897 1104.67 391.584 1104.61 392.208 1104.35C392.833 1104.1 393.367 1103.66 393.744 1103.1C394.12 1102.54 394.321 1101.88 394.321 1101.21C394.328 1100.76 394.247 1100.32 394.083 1099.91C393.918 1099.5 393.673 1099.12 393.362 1098.81C393.051 1098.49 392.679 1098.24 392.27 1098.07C391.861 1097.89 391.421 1097.81 390.977 1097.81ZM448.895 1097.81C448.22 1097.79 447.557 1097.98 446.99 1098.35C446.424 1098.72 445.979 1099.25 445.713 1099.87C445.447 1100.49 445.372 1101.17 445.496 1101.83C445.621 1102.5 445.94 1103.11 446.414 1103.59C446.887 1104.07 447.493 1104.4 448.154 1104.54C448.815 1104.67 449.501 1104.61 450.126 1104.35C450.75 1104.1 451.285 1103.66 451.661 1103.1C452.037 1102.54 452.238 1101.88 452.238 1101.21C452.246 1100.76 452.165 1100.32 452 1099.91C451.836 1099.5 451.59 1099.12 451.279 1098.81C450.968 1098.49 450.597 1098.24 450.187 1098.07C449.778 1097.89 449.339 1097.81 448.895 1097.81ZM506.812 1097.81C506.137 1097.79 505.475 1097.98 504.908 1098.35C504.341 1098.72 503.897 1099.25 503.631 1099.87C503.365 1100.49 503.289 1101.17 503.414 1101.83C503.539 1102.5 503.858 1103.11 504.331 1103.59C504.804 1104.07 505.41 1104.4 506.071 1104.54C506.732 1104.67 507.419 1104.61 508.043 1104.35C508.668 1104.1 509.202 1103.66 509.579 1103.1C509.955 1102.54 510.156 1101.88 510.156 1101.21C510.163 1100.76 510.082 1100.32 509.918 1099.91C509.753 1099.5 509.508 1099.12 509.197 1098.81C508.886 1098.49 508.514 1098.24 508.105 1098.07C507.696 1097.89 507.256 1097.81 506.812 1097.81ZM72.4877 1050.49C71.6009 1050.49 70.7504 1050.84 70.1234 1051.47C69.4963 1052.09 69.1441 1052.94 69.1441 1053.83C69.1441 1054.72 69.4963 1055.57 70.1234 1056.19C70.7504 1056.82 71.6009 1057.17 72.4877 1057.17C73.3744 1057.17 74.2249 1056.82 74.8519 1056.19C75.479 1055.57 75.8312 1054.72 75.8312 1053.83C75.8312 1052.94 75.479 1052.09 74.8519 1051.47C74.2249 1050.84 73.3744 1050.49 72.4877 1050.49ZM130.405 1050.49C129.744 1050.49 129.097 1050.68 128.548 1051.05C127.998 1051.42 127.569 1051.94 127.316 1052.55C127.063 1053.16 126.997 1053.83 127.126 1054.48C127.255 1055.13 127.573 1055.73 128.041 1056.19C128.508 1056.66 129.104 1056.98 129.753 1057.11C130.401 1057.24 131.074 1057.17 131.685 1056.92C132.296 1056.67 132.818 1056.24 133.185 1055.69C133.553 1055.14 133.749 1054.49 133.749 1053.83C133.749 1053.39 133.662 1052.96 133.494 1052.55C133.326 1052.14 133.08 1051.78 132.769 1051.47C132.459 1051.15 132.09 1050.91 131.685 1050.74C131.279 1050.57 130.844 1050.49 130.405 1050.49ZM188.323 1050.49C187.661 1050.49 187.015 1050.68 186.465 1051.05C185.915 1051.42 185.487 1051.94 185.234 1052.55C184.98 1053.16 184.914 1053.83 185.043 1054.48C185.172 1055.13 185.491 1055.73 185.958 1056.19C186.426 1056.66 187.022 1056.98 187.67 1057.11C188.319 1057.24 188.991 1057.17 189.602 1056.92C190.213 1056.67 190.735 1056.24 191.103 1055.69C191.47 1055.14 191.666 1054.49 191.666 1053.83C191.666 1053.39 191.58 1052.96 191.412 1052.55C191.244 1052.14 190.997 1051.78 190.687 1051.47C190.376 1051.15 190.008 1050.91 189.602 1050.74C189.196 1050.57 188.762 1050.49 188.323 1050.49ZM246.183 1050.49C245.525 1050.5 244.884 1050.7 244.342 1051.08C243.799 1051.45 243.379 1051.98 243.135 1052.59C242.891 1053.2 242.832 1053.87 242.968 1054.52C243.103 1055.16 243.426 1055.75 243.896 1056.21C244.366 1056.68 244.961 1056.99 245.608 1057.11C246.255 1057.24 246.925 1057.17 247.532 1056.91C248.14 1056.66 248.659 1056.23 249.024 1055.68C249.389 1055.13 249.584 1054.49 249.584 1053.83C249.584 1053.39 249.495 1052.95 249.324 1052.54C249.152 1052.13 248.901 1051.76 248.584 1051.45C248.268 1051.13 247.893 1050.89 247.48 1050.72C247.068 1050.56 246.627 1050.48 246.183 1050.49ZM304.101 1050.49C303.214 1050.49 302.364 1050.84 301.737 1051.47C301.11 1052.09 300.757 1052.94 300.757 1053.83C300.757 1054.72 301.11 1055.57 301.737 1056.19C302.364 1056.82 303.214 1057.17 304.101 1057.17C304.988 1057.17 305.838 1056.82 306.465 1056.19C307.092 1055.57 307.445 1054.72 307.445 1053.83C307.445 1052.94 307.092 1052.09 306.465 1051.47C305.838 1050.84 304.988 1050.49 304.101 1050.49ZM362.018 1050.49C361.357 1050.49 360.711 1050.68 360.161 1051.05C359.611 1051.42 359.182 1051.94 358.929 1052.55C358.676 1053.16 358.61 1053.83 358.739 1054.48C358.868 1055.13 359.187 1055.73 359.654 1056.19C360.122 1056.66 360.718 1056.98 361.366 1057.11C362.015 1057.24 362.687 1057.17 363.298 1056.92C363.909 1056.67 364.431 1056.24 364.798 1055.69C365.166 1055.14 365.362 1054.49 365.362 1053.83C365.37 1053.39 365.288 1052.95 365.123 1052.54C364.958 1052.13 364.712 1051.76 364.4 1051.45C364.088 1051.14 363.716 1050.89 363.307 1050.72C362.898 1050.56 362.46 1050.48 362.018 1050.49ZM419.936 1050.49C419.275 1050.49 418.628 1050.68 418.078 1051.05C417.529 1051.42 417.1 1051.94 416.847 1052.55C416.594 1053.16 416.528 1053.83 416.657 1054.48C416.786 1055.13 417.104 1055.73 417.572 1056.19C418.039 1056.66 418.635 1056.98 419.284 1057.11C419.932 1057.24 420.605 1057.17 421.215 1056.92C421.826 1056.67 422.349 1056.24 422.716 1055.69C423.083 1055.14 423.28 1054.49 423.28 1053.83C423.287 1053.39 423.206 1052.95 423.041 1052.54C422.875 1052.13 422.629 1051.76 422.317 1051.45C422.005 1051.14 421.634 1050.89 421.225 1050.72C420.815 1050.56 420.377 1050.48 419.936 1050.49ZM477.853 1050.49C477.192 1050.49 476.546 1050.68 475.996 1051.05C475.446 1051.42 475.017 1051.94 474.764 1052.55C474.511 1053.16 474.445 1053.83 474.574 1054.48C474.703 1055.13 475.022 1055.73 475.489 1056.19C475.957 1056.66 476.553 1056.98 477.201 1057.11C477.85 1057.24 478.522 1057.17 479.133 1056.92C479.744 1056.67 480.266 1056.24 480.634 1055.69C481.001 1055.14 481.197 1054.49 481.197 1053.83C481.205 1053.38 481.122 1052.94 480.953 1052.53C480.785 1052.11 480.533 1051.74 480.215 1051.43C479.897 1051.11 479.519 1050.87 479.103 1050.71C478.687 1050.55 478.243 1050.47 477.797 1050.49H477.853ZM43.5289 1197.04C43.0877 1197.03 42.6495 1197.11 42.2403 1197.28C41.8312 1197.44 41.4596 1197.69 41.1475 1198C40.8355 1198.31 40.5895 1198.68 40.4242 1199.09C40.2589 1199.5 40.1776 1199.94 40.1853 1200.38C40.1853 1201.27 40.5376 1202.12 41.1646 1202.74C41.7917 1203.37 42.6421 1203.72 43.5289 1203.72C44.4157 1203.72 45.2661 1203.37 45.8932 1202.74C46.5202 1202.12 46.8725 1201.27 46.8725 1200.38C46.8801 1199.94 46.7989 1199.5 46.6336 1199.09C46.4683 1198.68 46.2223 1198.31 45.9102 1198C45.5982 1197.69 45.2266 1197.44 44.8174 1197.28C44.4083 1197.11 43.9701 1197.03 43.5289 1197.04ZM101.446 1197.04C101.005 1197.03 100.567 1197.11 100.158 1197.28C99.7487 1197.44 99.3771 1197.69 99.065 1198C98.753 1198.31 98.507 1198.68 98.3417 1199.09C98.1764 1199.5 98.0951 1199.94 98.1028 1200.38C98.1028 1201.27 98.4551 1202.12 99.0821 1202.74C99.7092 1203.37 100.56 1203.72 101.446 1203.72C102.329 1203.71 103.171 1203.35 103.795 1202.73C104.418 1202.1 104.775 1201.26 104.79 1200.38C104.79 1199.49 104.438 1198.64 103.811 1198.02C103.184 1197.39 102.333 1197.04 101.446 1197.04ZM159.364 1197.04C158.92 1197.03 158.479 1197.11 158.067 1197.27C157.655 1197.44 157.279 1197.68 156.963 1198C156.646 1198.31 156.395 1198.68 156.223 1199.09C156.052 1199.5 155.964 1199.94 155.964 1200.38C156.07 1201.2 156.471 1201.95 157.091 1202.5C157.712 1203.04 158.51 1203.34 159.336 1203.34C160.161 1203.34 160.959 1203.04 161.58 1202.5C162.2 1201.95 162.601 1201.2 162.707 1200.38C162.707 1199.49 162.355 1198.64 161.728 1198.02C161.101 1197.39 160.251 1197.04 159.364 1197.04ZM217.225 1197.04C216.338 1197.04 215.488 1197.39 214.86 1198.02C214.233 1198.64 213.881 1199.49 213.881 1200.38C213.87 1201.06 214.061 1201.72 214.431 1202.29C214.8 1202.86 215.33 1203.3 215.954 1203.57C216.577 1203.83 217.266 1203.9 217.931 1203.77C218.595 1203.64 219.206 1203.32 219.685 1202.84C220.164 1202.36 220.489 1201.75 220.619 1201.09C220.748 1200.42 220.676 1199.73 220.412 1199.11C220.147 1198.49 219.703 1197.96 219.135 1197.59C218.567 1197.22 217.902 1197.03 217.225 1197.04ZM275.142 1197.04C274.255 1197.04 273.405 1197.39 272.778 1198.02C272.151 1198.64 271.799 1199.49 271.799 1200.38C271.787 1201.06 271.979 1201.72 272.348 1202.29C272.717 1202.86 273.248 1203.3 273.871 1203.57C274.495 1203.83 275.183 1203.9 275.848 1203.77C276.513 1203.64 277.124 1203.32 277.603 1202.84C278.082 1202.36 278.407 1201.75 278.536 1201.09C278.665 1200.42 278.593 1199.73 278.329 1199.11C278.065 1198.49 277.62 1197.96 277.052 1197.59C276.485 1197.22 275.819 1197.03 275.142 1197.04ZM333.06 1197.04C332.173 1197.04 331.322 1197.39 330.695 1198.02C330.068 1198.64 329.716 1199.49 329.716 1200.38C329.731 1201.26 330.088 1202.1 330.712 1202.73C331.335 1203.35 332.178 1203.71 333.06 1203.72C333.946 1203.72 334.797 1203.37 335.424 1202.74C336.051 1202.12 336.403 1201.27 336.403 1200.38C336.411 1199.94 336.33 1199.5 336.164 1199.09C335.999 1198.68 335.753 1198.31 335.441 1198C335.129 1197.69 334.757 1197.44 334.348 1197.28C333.939 1197.11 333.501 1197.03 333.06 1197.04ZM390.977 1197.04C390.536 1197.03 390.098 1197.11 389.689 1197.28C389.28 1197.44 388.908 1197.69 388.596 1198C388.284 1198.31 388.038 1198.68 387.873 1199.09C387.707 1199.5 387.626 1199.94 387.634 1200.38C387.634 1201.27 387.986 1202.12 388.613 1202.74C389.24 1203.37 390.09 1203.72 390.977 1203.72C391.864 1203.72 392.714 1203.37 393.341 1202.74C393.969 1202.12 394.321 1201.27 394.321 1200.38C394.328 1199.94 394.247 1199.5 394.082 1199.09C393.917 1198.68 393.671 1198.31 393.359 1198C393.047 1197.69 392.675 1197.44 392.266 1197.28C391.857 1197.11 391.418 1197.03 390.977 1197.04ZM448.895 1197.04C448.453 1197.03 448.015 1197.11 447.606 1197.28C447.197 1197.44 446.825 1197.69 446.513 1198C446.201 1198.31 445.955 1198.68 445.79 1199.09C445.625 1199.5 445.543 1199.94 445.551 1200.38C445.551 1201.27 445.903 1202.12 446.53 1202.74C447.157 1203.37 448.008 1203.72 448.895 1203.72C449.781 1203.72 450.632 1203.37 451.259 1202.74C451.886 1202.12 452.238 1201.27 452.238 1200.38C452.246 1199.94 452.165 1199.5 451.999 1199.09C451.834 1198.68 451.588 1198.31 451.276 1198C450.964 1197.69 450.592 1197.44 450.183 1197.28C449.774 1197.11 449.336 1197.03 448.895 1197.04ZM506.812 1197.04C506.371 1197.03 505.933 1197.11 505.524 1197.28C505.115 1197.44 504.743 1197.69 504.431 1198C504.119 1198.31 503.873 1198.68 503.708 1199.09C503.542 1199.5 503.461 1199.94 503.469 1200.38C503.469 1201.27 503.821 1202.12 504.448 1202.74C505.075 1203.37 505.925 1203.72 506.812 1203.72C507.699 1203.72 508.549 1203.37 509.176 1202.74C509.803 1202.12 510.156 1201.27 510.156 1200.38C510.164 1199.94 510.082 1199.5 509.917 1199.09C509.752 1198.68 509.506 1198.31 509.194 1198C508.882 1197.69 508.51 1197.44 508.101 1197.28C507.692 1197.11 507.253 1197.03 506.812 1197.04ZM72.4877 1149.66C71.6009 1149.66 70.7504 1150.01 70.1234 1150.64C69.4963 1151.27 69.1441 1152.12 69.1441 1153C69.1364 1153.44 69.2176 1153.88 69.3829 1154.29C69.5483 1154.7 69.7943 1155.07 70.1063 1155.38C70.4183 1155.7 70.79 1155.94 71.1991 1156.11C71.6082 1156.27 72.0465 1156.35 72.4877 1156.35C73.3744 1156.35 74.2249 1155.99 74.8519 1155.37C75.479 1154.74 75.8312 1153.89 75.8312 1153C75.8166 1152.12 75.4597 1151.28 74.8358 1150.66C74.2119 1150.03 73.3699 1149.67 72.4877 1149.66ZM130.405 1149.66C129.513 1149.66 128.657 1150.01 128.021 1150.64C127.385 1151.26 127.02 1152.11 127.005 1153C126.994 1153.68 127.183 1154.34 127.55 1154.91C127.917 1155.47 128.444 1155.92 129.064 1156.18C129.684 1156.45 130.37 1156.53 131.033 1156.4C131.696 1156.28 132.308 1155.96 132.789 1155.48C133.27 1155.01 133.599 1154.41 133.735 1153.74C133.871 1153.08 133.807 1152.4 133.552 1151.77C133.296 1151.15 132.86 1150.61 132.3 1150.24C131.74 1149.86 131.08 1149.66 130.405 1149.66ZM188.323 1149.66C187.431 1149.66 186.574 1150.01 185.938 1150.64C185.302 1151.26 184.937 1152.11 184.922 1153C184.911 1153.68 185.101 1154.34 185.468 1154.91C185.834 1155.47 186.361 1155.92 186.982 1156.18C187.602 1156.45 188.287 1156.53 188.951 1156.4C189.614 1156.28 190.225 1155.96 190.706 1155.48C191.187 1155.01 191.517 1154.41 191.653 1153.74C191.789 1153.08 191.725 1152.4 191.469 1151.77C191.213 1151.15 190.778 1150.61 190.218 1150.24C189.657 1149.86 188.998 1149.66 188.323 1149.66ZM246.183 1149.66C245.301 1149.67 244.459 1150.03 243.835 1150.66C243.211 1151.28 242.854 1152.12 242.84 1153C242.946 1153.82 243.347 1154.57 243.968 1155.12C244.588 1155.66 245.386 1155.97 246.212 1155.97C247.038 1155.97 247.835 1155.66 248.456 1155.12C249.076 1154.57 249.477 1153.82 249.584 1153C249.569 1152.11 249.204 1151.26 248.568 1150.64C247.932 1150.01 247.076 1149.66 246.183 1149.66ZM304.101 1149.66C303.219 1149.67 302.377 1150.03 301.753 1150.66C301.129 1151.28 300.772 1152.12 300.757 1153C300.757 1153.89 301.11 1154.74 301.737 1155.37C302.364 1155.99 303.214 1156.35 304.101 1156.35C304.542 1156.35 304.98 1156.27 305.39 1156.11C305.799 1155.94 306.17 1155.7 306.482 1155.38C306.794 1155.07 307.04 1154.7 307.206 1154.29C307.371 1153.88 307.452 1153.44 307.445 1153C307.445 1152.56 307.358 1152.13 307.19 1151.72C307.022 1151.32 306.776 1150.95 306.465 1150.64C306.155 1150.33 305.786 1150.08 305.381 1149.91C304.975 1149.75 304.54 1149.66 304.101 1149.66ZM362.018 1149.66C361.132 1149.66 360.281 1150.01 359.654 1150.64C359.027 1151.27 358.675 1152.12 358.675 1153C358.675 1153.89 359.027 1154.74 359.654 1155.37C360.281 1155.99 361.132 1156.35 362.018 1156.35C362.905 1156.35 363.756 1155.99 364.383 1155.37C365.01 1154.74 365.362 1153.89 365.362 1153C365.362 1152.56 365.276 1152.13 365.107 1151.72C364.939 1151.32 364.693 1150.95 364.383 1150.64C364.072 1150.33 363.704 1150.08 363.298 1149.91C362.892 1149.75 362.458 1149.66 362.018 1149.66ZM419.936 1149.66C419.049 1149.66 418.199 1150.01 417.572 1150.64C416.945 1151.27 416.592 1152.12 416.592 1153C416.592 1153.89 416.945 1154.74 417.572 1155.37C418.199 1155.99 419.049 1156.35 419.936 1156.35C420.823 1156.35 421.673 1155.99 422.3 1155.37C422.927 1154.74 423.28 1153.89 423.28 1153C423.28 1152.12 422.927 1151.27 422.3 1150.64C421.673 1150.01 420.823 1149.66 419.936 1149.66ZM477.853 1149.66C476.967 1149.66 476.116 1150.01 475.489 1150.64C474.862 1151.27 474.51 1152.12 474.51 1153C474.51 1153.89 474.862 1154.74 475.489 1155.37C476.116 1155.99 476.967 1156.35 477.853 1156.35C478.74 1156.35 479.591 1155.99 480.218 1155.37C480.845 1154.74 481.197 1153.89 481.197 1153C481.197 1152.56 481.109 1152.12 480.937 1151.71C480.766 1151.3 480.514 1150.93 480.198 1150.62C479.881 1150.31 479.506 1150.06 479.094 1149.9C478.681 1149.73 478.241 1149.65 477.797 1149.66H477.853Z" fill="white"/>
<path d="M264.488 373.271L71.4108 837.971C95.9493 704.681 125.701 567.878 156.417 485.875C181.069 419.514 229.749 378.484 264.658 373.384L264.488 373.271Z" fill="#263238"/>
<path d="M162.254 426.484C75.1512 500.156 -91.2341 679.689 -53.0947 756.308C-21.0758 820.913 47.6659 756.931 223.402 802.041C243.633 807.255 296.28 664.841 275.936 655.604C234.056 636.619 127.175 636.166 127.175 636.166C120.998 633.163 180.729 543.679 237.91 441.785C278.429 369.247 234.679 365.45 162.254 426.484Z" fill="#EB9481"/>
<path d="M248.677 422.064C234.169 460.884 161.461 585.729 161.461 585.729L77.5314 548.27L76.0579 547.646L22.5607 523.788C22.5607 523.788 153.243 418.55 210.764 389.308C268.285 360.066 265.055 378.371 248.677 422.064Z" fill="#006845"/>
<path d="M217.225 410.277C219.071 410.277 220.568 408.78 220.568 406.933C220.568 405.086 219.071 403.589 217.225 403.589C215.378 403.589 213.881 405.086 213.881 406.933C213.881 408.78 215.378 410.277 217.225 410.277Z" fill="white"/>
<path d="M101.446 509.45C103.293 509.45 104.79 507.953 104.79 506.107C104.79 504.26 103.293 502.763 101.446 502.763C99.5998 502.763 98.1028 504.26 98.1028 506.107C98.1028 507.953 99.5998 509.45 101.446 509.45Z" fill="white"/>
<path d="M159.364 509.45C161.211 509.45 162.707 507.953 162.707 506.107C162.707 504.26 161.211 502.763 159.364 502.763C157.517 502.763 156.02 504.26 156.02 506.107C156.02 507.953 157.517 509.45 159.364 509.45Z" fill="white"/>
<path d="M130.405 462.13C132.252 462.13 133.749 460.633 133.749 458.787C133.749 456.94 132.252 455.443 130.405 455.443C128.559 455.443 127.062 456.94 127.062 458.787C127.062 460.633 128.559 462.13 130.405 462.13Z" fill="white"/>
<path d="M188.323 462.13C190.169 462.13 191.666 460.633 191.666 458.787C191.666 456.94 190.169 455.443 188.323 455.443C186.476 455.443 184.979 456.94 184.979 458.787C184.979 460.633 186.476 462.13 188.323 462.13Z" fill="white"/>
<path d="M130.405 561.304C132.252 561.304 133.749 559.807 133.749 557.96C133.749 556.114 132.252 554.617 130.405 554.617C128.559 554.617 127.062 556.114 127.062 557.96C127.062 559.807 128.559 561.304 130.405 561.304Z" fill="white"/>
<path d="M232.526 385.908C231.392 383.301 307.331 476.581 335.44 472.841C357.088 470.121 341.674 389.422 335.44 386.361C292.937 365.733 266.925 362.503 232.526 385.908Z" fill="#EB9481"/>
<path d="M258.424 384.151C260.634 389.818 294.127 423.821 320.762 418.834C329.489 417.134 322.406 369.36 322.406 369.36V365.677L326.372 314.673L263.185 285.771L254.061 282.031C254.061 282.031 254.061 296.085 254.061 313.54V316.033C254.061 317.053 254.061 317.96 254.061 318.923C254.061 321.53 254.061 324.194 254.061 326.857C254.061 329.521 254.061 330.824 254.061 332.978V339.268C254.494 354.311 255.952 369.307 258.424 384.151Z" fill="#EB9481"/>
<path d="M253.891 313.483C260.871 326.664 270.644 338.163 282.526 347.177C294.409 356.192 308.115 362.505 322.689 365.677L326.656 314.673L263.185 285.771L254.061 282.031C254.061 282.031 253.891 296.028 253.891 313.483Z" fill="#263238"/>
<path d="M382.647 225.927C403.445 313.37 353.405 335.698 334.533 340.118C317.532 344.198 258.651 355.816 228.899 271.037C199.147 186.257 233.263 148.911 271.912 137.577C310.561 126.243 361.848 138.427 382.647 225.927Z" fill="#EB9481"/>
<path d="M363.322 216.462C361.264 216.575 359.202 216.575 357.145 216.462C354.943 216.674 352.733 216.157 350.854 214.989C350.336 214.508 349.993 213.868 349.88 213.169C349.767 212.471 349.891 211.755 350.231 211.135C351.074 209.996 352.208 209.105 353.515 208.557C354.821 208.008 356.251 207.822 357.655 208.019C360.546 207.983 363.35 209.012 365.532 210.909C365.924 211.379 366.182 211.946 366.278 212.551C366.375 213.155 366.306 213.775 366.08 214.343C365.853 214.912 365.478 215.409 364.992 215.782C364.507 216.155 363.93 216.39 363.322 216.462Z" fill="#263238"/>
<path d="M302.117 228.477C304.047 227.826 305.938 227.069 307.784 226.21C310.005 225.754 312.004 224.554 313.452 222.81C313.802 222.193 313.931 221.474 313.818 220.773C313.705 220.073 313.355 219.432 312.828 218.956C311.669 218.156 310.316 217.681 308.91 217.581C307.505 217.482 306.098 217.761 304.838 218.39C302.067 219.267 299.723 221.146 298.264 223.66C297.975 224.24 297.858 224.891 297.927 225.536C297.996 226.181 298.248 226.792 298.653 227.299C299.058 227.805 299.599 228.185 300.213 228.394C300.827 228.602 301.488 228.631 302.117 228.477Z" fill="#263238"/>
<path d="M317.815 248.878C317.815 248.878 317.362 249.275 317.418 249.502C318.779 255.509 319.289 262.536 314.188 265.596C320.762 263.726 320.025 254.319 317.815 248.878Z" fill="#263238"/>
<path d="M311.241 243.608C301.437 244.741 304.328 264.236 313.395 263.273C322.462 262.309 319.459 242.701 311.241 243.608Z" fill="#263238"/>
<path d="M307.784 245.251C306.254 246.611 304.838 248.821 302.854 249.275C300.871 249.728 298.377 248.141 296.507 246.385C296.507 246.385 296.167 246.385 296.224 246.385C296.734 250.125 298.717 253.752 302.854 253.695C306.991 253.638 308.521 249.955 309.088 246.045C308.918 245.648 308.181 244.684 307.784 245.251Z" fill="#263238"/>
<path d="M355.275 240.435C355.275 240.435 355.785 240.435 355.841 240.888C356.521 247.008 358.278 253.865 364.058 255.056V255.396C357.201 255.509 354.935 246.102 355.275 240.435Z" fill="#263238"/>
<path d="M359.808 233.407C369.442 231.254 372.956 250.408 364.059 252.675C355.161 254.942 351.704 235.164 359.808 233.407Z" fill="#263238"/>
<path d="M364.115 233.917C365.815 234.711 367.686 236.297 369.782 236.071C371.879 235.844 373.126 233.464 374.089 231.197C374.089 231.197 374.373 231.197 374.429 231.197C375.223 234.937 374.429 239.018 371.256 240.378C368.082 241.738 365.135 238.848 363.605 235.334C363.039 234.767 363.379 233.634 364.115 233.917Z" fill="#263238"/>
<path d="M327.676 294.895C329.319 296.142 330.963 297.955 333.343 297.898C335.605 297.638 337.787 296.905 339.747 295.745C339.001 297.026 337.923 298.082 336.626 298.801C335.329 299.519 333.861 299.873 332.38 299.825C331.054 299.677 329.805 299.132 328.794 298.263C327.783 297.394 327.058 296.24 326.713 294.952C326.705 294.824 326.749 294.698 326.834 294.603C326.919 294.507 327.038 294.449 327.166 294.441C327.294 294.434 327.419 294.478 327.515 294.563C327.61 294.648 327.668 294.767 327.676 294.895Z" fill="#263238"/>
<path d="M349.438 268.77C349.438 268.77 352.101 277.554 352.838 281.804C352.838 282.201 351.874 282.597 350.458 282.881C346.912 284.138 343.087 284.391 339.407 283.611C335.726 282.831 332.333 281.048 329.603 278.46C329.206 278.12 329.603 277.61 330.113 277.78C336.133 280.625 342.914 281.441 349.438 280.104C349.438 278.857 344.337 265.143 344.96 264.973C348.317 264.744 351.689 264.954 354.991 265.596C349.891 247.065 341.9 229.497 337.083 210.966C337.023 210.823 337.022 210.662 337.081 210.518C337.139 210.375 337.252 210.261 337.395 210.2C337.538 210.14 337.699 210.139 337.842 210.198C337.986 210.256 338.1 210.369 338.16 210.512C347.27 229.174 354.521 248.687 359.808 268.77C360.545 271.207 351.251 269.45 349.438 268.77Z" fill="#263238"/>
<path d="M349.551 280.104C347.964 284.099 345.367 287.614 342.014 290.305C340.145 291.708 337.889 292.5 335.553 292.571C330.396 292.571 329.036 288.321 328.866 284.298C328.816 282.167 329.006 280.038 329.433 277.95C335.735 280.804 342.787 281.559 349.551 280.104Z" fill="#263238"/>
<path d="M341.787 290.134C339.919 291.538 337.662 292.33 335.327 292.401C330.169 292.401 328.809 288.151 328.639 284.127C331.187 283.507 333.87 283.762 336.255 284.851C338.64 285.941 340.589 287.802 341.787 290.134Z" fill="#FF9BBC"/>
<path d="M229.636 271.32C239.723 269.053 261.541 236.807 254.231 187.674C254.231 187.674 257.744 232.217 255.478 239.244C253.211 246.271 267.662 221.053 262.335 181.383C276.254 188.236 291.082 193.064 306.368 195.721C325.919 197.875 337.31 195.721 338.387 194.248C339.464 192.774 310.618 188.581 301.778 181.213C301.778 181.213 355.218 196.118 378.396 194.078C381.117 194.078 375.279 138.88 336.063 121.596C296.847 104.311 244.993 138.597 232.299 155.598C232.299 155.598 215.015 161.265 200.11 190.394C185.206 219.523 218.812 273.813 229.636 271.32Z" fill="#263238"/>
<path d="M244.427 274.437C244.427 274.437 220.908 249.558 209.348 258.342C197.787 267.126 218.302 305.152 233.886 308.496C235.878 309.054 237.962 309.201 240.013 308.927C242.063 308.654 244.036 307.966 245.812 306.906C247.588 305.845 249.13 304.435 250.343 302.759C251.557 301.084 252.417 299.18 252.871 297.162L244.427 274.437Z" fill="#EB9481"/>
<path d="M215.468 269.11C215.468 269.11 215.468 269.45 215.468 269.506C226.462 272.17 233.319 280.841 238.646 290.361C237.892 289.411 236.941 288.636 235.858 288.09C234.776 287.543 233.587 287.237 232.375 287.194C231.163 287.151 229.956 287.371 228.837 287.84C227.719 288.308 226.715 289.014 225.895 289.908C225.612 289.908 225.895 290.531 226.235 290.475C227.963 289.597 229.925 289.289 231.839 289.595C233.752 289.9 235.52 290.803 236.889 292.175C239.188 294.445 241.239 296.953 243.01 299.655C243.633 300.505 245.22 299.655 244.71 298.749C242.897 285.318 229.862 268.316 215.468 269.11Z" fill="#263238"/>
</g>
<defs>
<clipPath id="clip0_1_260">
<rect x="0.654785" y="0.0912209" width="581.909" height="581.909" rx="290.954" fill="white"/>
</clipPath>
</defs>
</svg>
