<svg width="593" height="592" viewBox="0 0 593 592" fill="none" xmlns="http://www.w3.org/2000/svg">
<g clip-path="url(#clip0_1_652)">
<rect x="0.288574" width="591.779" height="591.779" rx="295.889" fill="white"/>
<rect x="0.288574" width="591.779" height="591.779" rx="295.889" fill="#006845" fill-opacity="0.6"/>
<path d="M70.3253 637.252C112.848 692.338 188.615 714.565 255.143 720.364C322.947 726.085 399.449 721.175 461.531 690.791C488.591 677.532 513.873 657.894 530.031 632.033C547.427 604.316 549.978 574.821 532.351 548.186C518.125 526.655 486.504 510.883 486.813 491.438C487.122 471.994 503.203 456.957 507.92 438.363C515.96 406.587 499.26 382.31 477.497 361.049C426.006 310.795 441.43 246.239 410.35 184.465C392.684 149.326 342.082 84.2282 248.765 111.713C213.317 122.189 188.576 154.236 173.577 187.326C155.95 226.408 167.006 278.478 145.667 315.975C127.383 347.945 101.444 352.622 83.8165 386.215C76.0851 400.75 72.2194 417.836 87.2956 452.82C92.7075 465.5 98.3127 484.712 92.8621 499.556C85.1308 520.122 60.8157 529.129 52.4272 550.545C41.0234 580.194 51.5381 612.937 70.3253 637.252Z" fill="#263238"/>
<path d="M509.195 639.842C541.126 635.164 555.583 591.134 535.791 568.133C523.266 553.56 504.209 546.563 491.645 532.067C471.002 508.177 490.176 487.302 501.966 464.417C527.519 414.859 494.428 380.493 459.444 348.95C432.848 324.982 427.823 298 426.663 263.402C426.663 262.9 427.552 262.822 427.591 263.402C429.64 288.877 432.732 313.927 449.973 334.144C464.044 350.573 482.909 361.977 496.361 379.025C519.13 407.592 521.449 438.208 504.518 470.1C499.647 479.223 490.524 489.428 488.437 499.595C483.566 523.33 501.077 535.894 517.7 547.877C530.457 557.078 544.759 567.206 549.205 583.248C556.163 607.409 534.284 639.648 509.543 641.813C508.345 641.89 507.881 640.228 509.195 639.842Z" fill="#263238"/>
<path d="M491.452 663.809C511.167 652.212 532.544 641.736 544.373 621.055C561.846 590.477 541.01 566.935 521.527 544.669C513.177 535.159 506.064 525.65 506.876 512.468C507.842 492.637 522.338 476.246 525.083 456.609C531.461 409.795 486.04 380.725 463.232 345.973C440.038 310.486 433.119 269.239 425.155 228.495C425.155 227.645 426.354 227.335 426.508 228.225C437.023 280.295 451.481 329.235 487.238 369.824C512.172 398.082 538.729 428.737 526.359 468.902C523.305 478.798 517.39 487.727 514.568 497.585C508.963 517.184 514.027 530.018 526.707 544.282C539.386 558.547 553.032 572.076 555.081 591.327C558.946 628.67 521.836 652.869 492.766 666.747C492.403 666.808 492.029 666.747 491.705 666.573C491.38 666.4 491.122 666.123 490.972 665.787C490.821 665.45 490.787 665.074 490.874 664.716C490.96 664.358 491.164 664.039 491.452 663.809Z" fill="#263238"/>
<path d="M44.193 538.909C60.1583 516.372 85.4011 505.316 78.9841 472.922C74.5772 450.578 62.7096 432.68 67.3871 409.1C71.2528 389.539 83.7002 374.309 98.3125 361.745C116.984 345.509 137.626 332.443 151.311 311.221C166.232 288.027 173.036 260.967 180.033 234.603C180.033 234.101 181.077 234.294 180.961 234.835C173.577 270.554 164.57 307.2 137.588 333.758C123.555 347.635 106.662 358.111 92.5526 372.105C67.4644 397.348 67.619 425.142 78.2496 456.879C83.1204 471.492 87.4499 486.104 80.801 500.871C74.152 515.638 60.1582 524.799 50.3394 537.169C8.62881 589.627 72.1805 656.696 124.87 666.515C127.228 666.94 126.957 670.612 124.522 670.381C85.0919 664.234 43.3426 627.858 34.8767 588.853C32.8344 580.341 32.6085 571.494 34.2137 562.889C35.8189 554.283 39.2192 546.113 44.193 538.909Z" fill="#263238"/>
<path d="M45.8941 567.09C46.3193 543.471 60.9315 530.482 72.258 512.004C90.0401 482.934 71.6781 454.019 69.4747 423.48C67.9671 402.103 76.5875 383.973 89.7308 368.355C107.397 347.326 130.011 332.366 144.469 308.283C159.717 282.444 167.055 252.702 165.575 222.735C165.575 222.156 166.387 222.272 166.426 222.735C169.441 264.794 156.607 304.301 128.658 334.338C110.953 353.395 87.0635 369.129 77.1674 394.565C66.6527 421.624 80.2986 446.558 83.9323 473.618C85.1898 481.589 84.8317 489.731 82.8793 497.56C80.9269 505.39 77.42 512.747 72.5672 519.194C65.4157 529.284 56.6793 538.522 52.7363 550.699C47.363 567.206 50.8808 585.49 57.6071 601.262C78.791 650.859 130.552 682.016 179.878 690.173C181.618 690.444 181.463 693.304 179.878 693.034C157.452 689.682 135.912 681.925 116.499 670.208C97.0854 658.491 80.1839 643.047 66.7687 624.766C54.8624 608.375 45.5075 587.964 45.8941 567.09Z" fill="#263238"/>
<path d="M269.175 535.855C295.385 615.72 442.435 815.768 525.895 828.023C580.324 835.986 778.44 796.44 824.364 772.048C878.135 743.519 801.17 579.73 765.721 585.104C718.328 592.294 596.907 641.272 556.241 642.78C532.853 643.669 419.009 547.761 310.693 458.696C268.75 424.33 253.52 488.307 269.175 535.855Z" fill="#DD6A57"/>
<path d="M486.929 593.222C486.929 593.222 449.587 629.288 415.685 662.108C389.012 688.124 364.387 712.091 362.068 714.874C328.302 662.644 299.024 607.644 274.549 550.467C242 472.574 269.137 436.507 305.822 448.414C311.399 450.28 316.703 452.88 321.594 456.145C365.392 485.215 486.929 593.222 486.929 593.222Z" fill="#006845"/>
<path d="M263.609 518.421C263.609 519.086 263.412 519.736 263.042 520.289C262.673 520.842 262.147 521.273 261.533 521.528C260.918 521.783 260.242 521.849 259.59 521.719C258.937 521.59 258.338 521.269 257.868 520.799C257.397 520.329 257.077 519.729 256.947 519.077C256.818 518.425 256.884 517.748 257.139 517.134C257.393 516.519 257.824 515.994 258.377 515.624C258.93 515.255 259.581 515.058 260.246 515.058C261.138 515.058 261.993 515.412 262.624 516.043C263.255 516.673 263.609 517.529 263.609 518.421ZM311.93 515.058C311.266 515.065 310.62 515.269 310.072 515.643C309.524 516.017 309.099 516.545 308.85 517.16C308.602 517.776 308.541 518.451 308.675 519.1C308.809 519.75 309.132 520.346 309.604 520.812C310.076 521.279 310.675 521.595 311.327 521.722C311.978 521.849 312.652 521.78 313.264 521.524C313.877 521.268 314.4 520.837 314.768 520.285C315.135 519.733 315.332 519.084 315.332 518.421C315.332 517.976 315.243 517.535 315.072 517.125C314.901 516.714 314.649 516.342 314.333 516.029C314.017 515.716 313.641 515.469 313.229 515.303C312.816 515.136 312.375 515.053 311.93 515.058ZM363.653 515.058C362.987 515.058 362.337 515.255 361.784 515.624C361.231 515.994 360.8 516.519 360.546 517.134C360.291 517.748 360.224 518.425 360.354 519.077C360.484 519.729 360.804 520.329 361.275 520.799C361.745 521.269 362.344 521.59 362.997 521.719C363.649 521.849 364.325 521.783 364.94 521.528C365.554 521.273 366.079 520.842 366.449 520.289C366.819 519.736 367.016 519.086 367.016 518.421C367.016 517.529 366.661 516.673 366.031 516.043C365.4 515.412 364.545 515.058 363.653 515.058ZM286.107 477.445C285.442 477.445 284.792 477.642 284.239 478.011C283.686 478.381 283.255 478.906 283 479.521C282.746 480.135 282.679 480.812 282.809 481.464C282.938 482.116 283.259 482.716 283.729 483.186C284.199 483.656 284.799 483.977 285.451 484.106C286.103 484.236 286.78 484.17 287.394 483.915C288.009 483.66 288.534 483.229 288.904 482.676C289.273 482.123 289.47 481.473 289.47 480.808C289.47 479.916 289.116 479.06 288.485 478.43C287.855 477.799 286.999 477.445 286.107 477.445ZM337.791 477.445C337.126 477.445 336.476 477.642 335.923 478.011C335.37 478.381 334.939 478.906 334.684 479.521C334.43 480.135 334.363 480.812 334.493 481.464C334.623 482.116 334.943 482.716 335.413 483.186C335.883 483.656 336.483 483.977 337.135 484.106C337.788 484.236 338.464 484.17 339.078 483.915C339.693 483.66 340.218 483.229 340.588 482.676C340.957 482.123 341.154 481.473 341.154 480.808C341.154 479.916 340.8 479.06 340.169 478.43C339.539 477.799 338.683 477.445 337.791 477.445ZM311.93 587.81C311.257 587.81 310.599 588.009 310.04 588.383C309.481 588.757 309.045 589.288 308.787 589.91C308.53 590.531 308.462 591.215 308.593 591.875C308.725 592.535 309.049 593.141 309.524 593.617C310 594.093 310.606 594.417 311.266 594.548C311.926 594.679 312.61 594.612 313.232 594.354C313.853 594.097 314.385 593.661 314.758 593.101C315.132 592.542 315.332 591.884 315.332 591.212C315.337 590.763 315.252 590.319 315.083 589.904C314.914 589.489 314.664 589.111 314.347 588.795C314.03 588.478 313.653 588.227 313.238 588.058C312.823 587.889 312.378 587.805 311.93 587.81ZM363.653 587.81C362.978 587.802 362.317 587.995 361.752 588.364C361.188 588.733 360.746 589.262 360.482 589.883C360.219 590.504 360.146 591.189 360.273 591.851C360.4 592.514 360.721 593.123 361.195 593.603C361.669 594.083 362.275 594.41 362.936 594.545C363.597 594.679 364.283 594.614 364.907 594.358C365.531 594.102 366.064 593.666 366.44 593.105C366.815 592.545 367.016 591.886 367.016 591.212C367.021 590.767 366.938 590.325 366.771 589.913C366.604 589.5 366.357 589.125 366.045 588.808C365.732 588.492 365.359 588.241 364.949 588.069C364.538 587.898 364.098 587.81 363.653 587.81ZM415.337 587.81C414.662 587.802 414.001 587.995 413.436 588.364C412.872 588.733 412.43 589.262 412.166 589.883C411.903 590.504 411.83 591.189 411.957 591.851C412.084 592.514 412.405 593.123 412.879 593.603C413.353 594.083 413.959 594.41 414.62 594.545C415.281 594.679 415.967 594.614 416.591 594.358C417.215 594.102 417.748 593.666 418.124 593.105C418.499 592.545 418.7 591.886 418.7 591.212C418.705 590.767 418.622 590.325 418.455 589.913C418.288 589.5 418.041 589.125 417.729 588.808C417.416 588.492 417.043 588.241 416.633 588.069C416.222 587.898 415.782 587.81 415.337 587.81ZM467.021 587.81C466.348 587.81 465.69 588.009 465.131 588.383C464.571 588.757 464.135 589.288 463.878 589.91C463.62 590.531 463.553 591.215 463.684 591.875C463.816 592.535 464.14 593.141 464.615 593.617C465.091 594.093 465.697 594.417 466.357 594.548C467.017 594.679 467.701 594.612 468.323 594.354C468.944 594.097 469.475 593.661 469.849 593.101C470.223 592.542 470.423 591.884 470.423 591.212C470.428 590.763 470.343 590.319 470.174 589.904C470.005 589.489 469.755 589.111 469.438 588.795C469.121 588.478 468.744 588.227 468.329 588.058C467.914 587.889 467.469 587.805 467.021 587.81ZM286.107 550.197C285.442 550.197 284.792 550.394 284.239 550.764C283.686 551.133 283.255 551.658 283 552.273C282.746 552.887 282.679 553.564 282.809 554.216C282.938 554.868 283.259 555.468 283.729 555.938C284.199 556.408 284.799 556.729 285.451 556.858C286.103 556.988 286.78 556.922 287.394 556.667C288.009 556.412 288.534 555.981 288.904 555.428C289.273 554.875 289.47 554.225 289.47 553.56C289.47 552.668 289.116 551.812 288.485 551.182C287.855 550.551 286.999 550.197 286.107 550.197ZM337.791 550.197C337.126 550.197 336.476 550.394 335.923 550.764C335.37 551.133 334.939 551.658 334.684 552.273C334.43 552.887 334.363 553.564 334.493 554.216C334.623 554.868 334.943 555.468 335.413 555.938C335.883 556.408 336.483 556.729 337.135 556.858C337.788 556.988 338.464 556.922 339.078 556.667C339.693 556.412 340.218 555.981 340.588 555.428C340.957 554.875 341.154 554.225 341.154 553.56C341.154 552.668 340.8 551.812 340.169 551.182C339.539 550.551 338.683 550.197 337.791 550.197ZM389.475 550.197C388.812 550.204 388.165 550.408 387.618 550.782C387.07 551.156 386.645 551.684 386.396 552.299C386.147 552.915 386.086 553.59 386.22 554.239C386.354 554.889 386.678 555.485 387.15 555.951C387.621 556.418 388.221 556.734 388.872 556.861C389.523 556.988 390.198 556.919 390.81 556.663C391.422 556.407 391.945 555.976 392.313 555.424C392.681 554.872 392.877 554.223 392.877 553.56C392.877 553.115 392.789 552.674 392.617 552.264C392.446 551.853 392.195 551.481 391.878 551.168C391.562 550.855 391.187 550.608 390.774 550.442C390.362 550.275 389.92 550.192 389.475 550.197ZM438.801 551.163C438.512 551.498 438.291 551.887 438.152 552.307C438.013 552.728 437.958 553.171 437.991 553.613C438.023 554.054 438.142 554.485 438.341 554.88C438.539 555.276 438.814 555.629 439.149 555.918C439.484 556.207 439.873 556.428 440.293 556.567C440.714 556.706 441.157 556.761 441.599 556.729C442.04 556.696 442.471 556.577 442.867 556.379C443.262 556.18 443.615 555.905 443.904 555.57L438.801 551.163ZM363.653 660.6C362.987 660.6 362.337 660.798 361.784 661.167C361.231 661.537 360.8 662.062 360.546 662.677C360.291 663.291 360.224 663.967 360.354 664.62C360.484 665.272 360.804 665.871 361.275 666.342C361.745 666.812 362.344 667.132 362.997 667.262C363.649 667.392 364.325 667.325 364.94 667.071C365.554 666.816 366.079 666.385 366.449 665.832C366.819 665.279 367.016 664.629 367.016 663.964C367.016 663.072 366.661 662.216 366.031 661.585C365.4 660.955 364.545 660.6 363.653 660.6ZM337.791 622.949C337.115 622.941 336.452 623.135 335.887 623.506C335.322 623.877 334.88 624.408 334.617 625.031C334.355 625.654 334.285 626.341 334.415 627.005C334.545 627.668 334.869 628.278 335.347 628.756C335.825 629.234 336.435 629.559 337.099 629.689C337.762 629.819 338.449 629.748 339.072 629.486C339.696 629.223 340.226 628.782 340.597 628.216C340.968 627.651 341.162 626.988 341.154 626.312C341.154 625.42 340.8 624.564 340.169 623.934C339.539 623.303 338.683 622.949 337.791 622.949ZM389.475 622.949C388.801 622.949 388.142 623.149 387.581 623.525C387.021 623.9 386.585 624.434 386.329 625.058C386.073 625.682 386.008 626.368 386.142 627.029C386.276 627.689 386.604 628.295 387.084 628.77C387.564 629.244 388.173 629.565 388.836 629.692C389.498 629.818 390.183 629.746 390.804 629.482C391.425 629.219 391.954 628.777 392.323 628.212C392.692 627.648 392.885 626.986 392.877 626.312C392.877 625.867 392.789 625.426 392.617 625.016C392.446 624.605 392.195 624.233 391.878 623.92C391.562 623.607 391.187 623.36 390.774 623.194C390.362 623.027 389.92 622.944 389.475 622.949ZM441.198 622.949C440.522 622.941 439.859 623.135 439.294 623.506C438.728 623.877 438.286 624.408 438.024 625.031C437.762 625.654 437.691 626.341 437.821 627.005C437.951 627.668 438.276 628.278 438.754 628.756C439.232 629.234 439.842 629.559 440.505 629.689C441.169 629.819 441.856 629.748 442.479 629.486C443.102 629.223 443.633 628.782 444.004 628.216C444.375 627.651 444.569 626.988 444.561 626.312C444.551 625.423 444.194 624.573 443.565 623.945C442.936 623.316 442.087 622.959 441.198 622.949Z" fill="white"/>
<path d="M427.359 650.82L415.762 662.108C389.089 688.124 364.426 712.091 362.145 714.874C328.379 662.643 299.101 607.644 274.626 550.467C272.732 545.906 270.992 541.46 269.485 537.131C268.673 534.811 267.9 532.53 267.204 530.288C247.103 466.389 272.539 437.512 305.861 448.413L306.557 448.684L427.359 650.82Z" fill="#263238"/>
<path d="M386.422 961.466L375.404 776.996C375.404 776.996 425.04 722.103 414.061 672.623C408.533 647.496 322.908 456.647 314.52 448.8C280.773 417.372 223.831 429.897 200.483 447.563C71.0597 545.365 -20.1315 755.232 -63.8909 961.698L386.422 961.466Z" fill="#006845"/>
<path d="M386.422 961.466L375.404 776.996C375.404 776.996 425.04 722.103 414.061 672.623C408.533 647.496 322.908 456.647 314.52 448.8C280.773 417.372 223.831 429.897 200.483 447.563C71.0597 545.365 -20.1315 755.232 -63.8909 961.698L386.422 961.466Z" fill="#006845"/>
<path d="M375.211 776.996L386.421 961.466H-64.123C-20.3635 755.155 70.8277 545.287 200.251 447.331C205.312 443.608 210.818 440.531 216.641 438.169C244.242 426.572 286.919 423.055 314.288 448.568C322.676 456.299 408.301 647.264 413.829 672.391C424.846 722.103 375.211 776.996 375.211 776.996Z" fill="#006845"/>
<path d="M211.925 445.669C211.925 446.334 211.728 446.984 211.358 447.537C210.988 448.09 210.463 448.521 209.849 448.776C209.234 449.03 208.558 449.097 207.905 448.967C207.253 448.838 206.654 448.517 206.184 448.047C205.713 447.577 205.393 446.977 205.263 446.325C205.133 445.672 205.2 444.996 205.454 444.382C205.709 443.767 206.14 443.242 206.693 442.872C207.246 442.503 207.896 442.306 208.562 442.306C209.003 442.306 209.441 442.393 209.849 442.562C210.257 442.731 210.627 442.978 210.94 443.291C211.252 443.603 211.5 443.974 211.669 444.382C211.838 444.79 211.925 445.227 211.925 445.669ZM260.246 442.306C259.581 442.306 258.93 442.503 258.377 442.872C257.824 443.242 257.393 443.767 257.139 444.382C256.884 444.996 256.817 445.672 256.947 446.325C257.077 446.977 257.397 447.577 257.868 448.047C258.338 448.517 258.937 448.838 259.59 448.967C260.242 449.097 260.918 449.03 261.533 448.776C262.147 448.521 262.672 448.09 263.042 447.537C263.412 446.984 263.609 446.334 263.609 445.669C263.609 444.777 263.255 443.921 262.624 443.291C261.993 442.66 261.138 442.306 260.246 442.306ZM308.915 444.277C308.682 444.789 308.581 445.351 308.622 445.911C308.662 446.472 308.843 447.013 309.147 447.486C309.45 447.959 309.868 448.348 310.361 448.618C310.854 448.888 311.406 449.031 311.968 449.032C312.662 449.035 313.338 448.818 313.901 448.413C312.385 446.943 310.785 445.562 309.108 444.277H308.915ZM156.878 515.058C156.212 515.058 155.562 515.255 155.009 515.624C154.456 515.994 154.025 516.519 153.77 517.134C153.516 517.748 153.449 518.425 153.579 519.077C153.709 519.729 154.029 520.329 154.499 520.799C154.97 521.269 155.569 521.59 156.221 521.719C156.874 521.849 157.55 521.782 158.165 521.528C158.779 521.273 159.304 520.842 159.674 520.289C160.043 519.736 160.241 519.086 160.241 518.421C160.231 517.532 159.873 516.682 159.245 516.054C158.616 515.425 157.766 515.068 156.878 515.058ZM208.562 515.058C207.896 515.058 207.246 515.255 206.693 515.624C206.14 515.994 205.709 516.519 205.454 517.134C205.2 517.748 205.133 518.425 205.263 519.077C205.393 519.729 205.713 520.329 206.184 520.799C206.654 521.269 207.253 521.59 207.905 521.719C208.558 521.849 209.234 521.782 209.849 521.528C210.463 521.273 210.988 520.842 211.358 520.289C211.728 519.736 211.925 519.086 211.925 518.421C211.925 517.536 211.576 516.686 210.953 516.056C210.331 515.427 209.486 515.068 208.6 515.058H208.562ZM260.246 515.058C259.581 515.058 258.93 515.255 258.377 515.624C257.824 515.994 257.393 516.519 257.139 517.134C256.884 517.748 256.817 518.425 256.947 519.077C257.077 519.729 257.397 520.329 257.868 520.799C258.338 521.269 258.937 521.59 259.59 521.719C260.242 521.849 260.918 521.782 261.533 521.528C262.147 521.273 262.672 520.842 263.042 520.289C263.412 519.736 263.609 519.086 263.609 518.421C263.609 517.529 263.255 516.673 262.624 516.043C261.993 515.412 261.138 515.058 260.246 515.058ZM311.93 515.058C311.266 515.065 310.62 515.269 310.072 515.643C309.524 516.017 309.099 516.545 308.85 517.16C308.602 517.776 308.541 518.45 308.675 519.1C308.809 519.75 309.132 520.346 309.604 520.812C310.076 521.279 310.675 521.595 311.326 521.722C311.978 521.849 312.652 521.78 313.264 521.524C313.877 521.268 314.4 520.837 314.767 520.285C315.135 519.733 315.332 519.084 315.332 518.421C315.332 517.976 315.243 517.535 315.072 517.125C314.9 516.714 314.649 516.342 314.333 516.029C314.016 515.716 313.641 515.469 313.229 515.302C312.816 515.136 312.375 515.053 311.93 515.058ZM182.7 477.445C182.037 477.452 181.39 477.656 180.842 478.03C180.295 478.404 179.869 478.932 179.621 479.547C179.372 480.162 179.311 480.837 179.445 481.487C179.579 482.137 179.903 482.733 180.374 483.199C180.846 483.666 181.446 483.982 182.097 484.109C182.748 484.235 183.422 484.167 184.035 483.911C184.647 483.655 185.17 483.224 185.538 482.672C185.906 482.12 186.102 481.471 186.102 480.808C186.102 480.363 186.014 479.922 185.842 479.512C185.671 479.101 185.42 478.729 185.103 478.416C184.787 478.103 184.412 477.856 183.999 477.689C183.587 477.523 183.145 477.44 182.7 477.445ZM234.423 477.445C233.758 477.445 233.108 477.642 232.555 478.011C232.001 478.381 231.57 478.906 231.316 479.521C231.061 480.135 230.995 480.812 231.125 481.464C231.254 482.116 231.575 482.716 232.045 483.186C232.515 483.656 233.115 483.977 233.767 484.106C234.419 484.236 235.095 484.169 235.71 483.915C236.325 483.66 236.85 483.229 237.219 482.676C237.589 482.123 237.786 481.473 237.786 480.808C237.786 479.916 237.432 479.06 236.801 478.43C236.17 477.799 235.315 477.445 234.423 477.445ZM286.107 477.445C285.442 477.445 284.792 477.642 284.239 478.011C283.686 478.381 283.255 478.906 283 479.521C282.745 480.135 282.679 480.812 282.809 481.464C282.938 482.116 283.259 482.716 283.729 483.186C284.199 483.656 284.799 483.977 285.451 484.106C286.103 484.236 286.78 484.169 287.394 483.915C288.009 483.66 288.534 483.229 288.903 482.676C289.273 482.123 289.47 481.473 289.47 480.808C289.47 479.916 289.116 479.06 288.485 478.43C287.854 477.799 286.999 477.445 286.107 477.445ZM105.155 587.81C104.482 587.81 103.824 588.009 103.265 588.383C102.705 588.757 102.269 589.288 102.012 589.91C101.755 590.531 101.687 591.215 101.818 591.875C101.95 592.535 102.274 593.141 102.749 593.617C103.225 594.093 103.831 594.417 104.491 594.548C105.151 594.679 105.835 594.612 106.457 594.354C107.078 594.097 107.61 593.661 107.983 593.101C108.357 592.542 108.557 591.884 108.557 591.211C108.562 590.763 108.477 590.319 108.308 589.904C108.139 589.488 107.889 589.111 107.572 588.794C107.255 588.478 106.878 588.227 106.463 588.058C106.048 587.889 105.603 587.804 105.155 587.81ZM156.878 587.81C156.403 587.759 155.923 587.809 155.469 587.955C155.015 588.102 154.597 588.343 154.242 588.662C153.887 588.981 153.603 589.371 153.408 589.807C153.214 590.243 153.114 590.715 153.114 591.192C153.114 591.669 153.214 592.141 153.408 592.577C153.603 593.013 153.887 593.403 154.242 593.722C154.597 594.041 155.015 594.282 155.469 594.429C155.923 594.576 156.403 594.625 156.878 594.575C157.712 594.485 158.485 594.09 159.046 593.466C159.607 592.841 159.917 592.032 159.917 591.192C159.917 590.353 159.607 589.543 159.046 588.918C158.485 588.294 157.712 587.899 156.878 587.81ZM208.562 587.81C207.887 587.802 207.226 587.995 206.661 588.364C206.097 588.733 205.655 589.262 205.391 589.883C205.128 590.504 205.055 591.189 205.182 591.851C205.309 592.514 205.63 593.123 206.104 593.603C206.578 594.082 207.184 594.41 207.845 594.545C208.506 594.679 209.192 594.614 209.816 594.358C210.44 594.102 210.973 593.666 211.349 593.105C211.724 592.545 211.925 591.886 211.925 591.211C211.93 590.77 211.848 590.331 211.684 589.921C211.519 589.511 211.276 589.138 210.967 588.822C210.658 588.506 210.29 588.254 209.884 588.08C209.478 587.907 209.042 587.815 208.6 587.81H208.562ZM260.246 587.81C259.571 587.802 258.91 587.995 258.345 588.364C257.781 588.733 257.339 589.262 257.075 589.883C256.812 590.504 256.739 591.189 256.866 591.851C256.993 592.514 257.314 593.123 257.788 593.603C258.262 594.082 258.868 594.41 259.529 594.545C260.19 594.679 260.876 594.614 261.5 594.358C262.124 594.102 262.657 593.666 263.033 593.105C263.408 592.545 263.609 591.886 263.609 591.211C263.614 590.767 263.531 590.325 263.364 589.913C263.197 589.5 262.95 589.125 262.638 588.808C262.325 588.492 261.952 588.241 261.542 588.069C261.131 587.898 260.691 587.81 260.246 587.81ZM311.93 587.81C311.257 587.81 310.599 588.009 310.04 588.383C309.48 588.757 309.044 589.288 308.787 589.91C308.529 590.531 308.462 591.215 308.593 591.875C308.725 592.535 309.049 593.141 309.524 593.617C310 594.093 310.606 594.417 311.266 594.548C311.926 594.679 312.61 594.612 313.232 594.354C313.853 594.097 314.384 593.661 314.758 593.101C315.132 592.542 315.332 591.884 315.332 591.211C315.337 590.763 315.252 590.319 315.083 589.904C314.914 589.488 314.664 589.111 314.347 588.794C314.03 588.478 313.653 588.227 313.238 588.058C312.823 587.889 312.378 587.804 311.93 587.81ZM363.652 587.81C362.978 587.802 362.317 587.995 361.752 588.364C361.188 588.733 360.746 589.262 360.482 589.883C360.219 590.504 360.146 591.189 360.273 591.851C360.4 592.514 360.721 593.123 361.195 593.603C361.669 594.082 362.275 594.41 362.936 594.545C363.597 594.679 364.283 594.614 364.907 594.358C365.53 594.102 366.064 593.666 366.44 593.105C366.815 592.545 367.016 591.886 367.016 591.211C367.021 590.767 366.938 590.325 366.771 589.913C366.604 589.5 366.357 589.125 366.044 588.808C365.732 588.492 365.359 588.241 364.949 588.069C364.538 587.898 364.097 587.81 363.652 587.81ZM131.016 550.197C130.351 550.197 129.701 550.394 129.148 550.763C128.595 551.133 128.164 551.658 127.909 552.273C127.655 552.887 127.588 553.563 127.718 554.216C127.847 554.868 128.168 555.468 128.638 555.938C129.108 556.408 129.708 556.729 130.36 556.858C131.012 556.988 131.689 556.921 132.303 556.667C132.918 556.412 133.443 555.981 133.813 555.428C134.182 554.875 134.379 554.225 134.379 553.56C134.379 552.668 134.025 551.812 133.394 551.182C132.764 550.551 131.908 550.197 131.016 550.197ZM182.7 550.197C182.037 550.204 181.39 550.408 180.842 550.782C180.295 551.156 179.869 551.684 179.621 552.299C179.372 552.914 179.311 553.589 179.445 554.239C179.579 554.889 179.903 555.485 180.374 555.951C180.846 556.418 181.446 556.734 182.097 556.861C182.748 556.988 183.422 556.919 184.035 556.663C184.647 556.407 185.17 555.976 185.538 555.424C185.906 554.872 186.102 554.223 186.102 553.56C186.102 553.115 186.014 552.674 185.842 552.264C185.671 551.853 185.42 551.481 185.103 551.168C184.787 550.855 184.412 550.608 183.999 550.441C183.587 550.275 183.145 550.192 182.7 550.197ZM234.423 550.197C233.758 550.197 233.108 550.394 232.555 550.763C232.001 551.133 231.57 551.658 231.316 552.273C231.061 552.887 230.995 553.563 231.125 554.216C231.254 554.868 231.575 555.468 232.045 555.938C232.515 556.408 233.115 556.729 233.767 556.858C234.419 556.988 235.095 556.921 235.71 556.667C236.325 556.412 236.85 555.981 237.219 555.428C237.589 554.875 237.786 554.225 237.786 553.56C237.786 552.668 237.432 551.812 236.801 551.182C236.17 550.551 235.315 550.197 234.423 550.197ZM286.107 550.197C285.442 550.197 284.792 550.394 284.239 550.763C283.686 551.133 283.255 551.658 283 552.273C282.745 552.887 282.679 553.563 282.809 554.216C282.938 554.868 283.259 555.468 283.729 555.938C284.199 556.408 284.799 556.729 285.451 556.858C286.103 556.988 286.78 556.921 287.394 556.667C288.009 556.412 288.534 555.981 288.903 555.428C289.273 554.875 289.47 554.225 289.47 553.56C289.47 552.668 289.116 551.812 288.485 551.182C287.854 550.551 286.999 550.197 286.107 550.197ZM337.791 550.197C337.126 550.197 336.476 550.394 335.923 550.763C335.37 551.133 334.939 551.658 334.684 552.273C334.429 552.887 334.363 553.563 334.493 554.216C334.622 554.868 334.943 555.468 335.413 555.938C335.883 556.408 336.483 556.729 337.135 556.858C337.787 556.988 338.464 556.921 339.078 556.667C339.693 556.412 340.218 555.981 340.587 555.428C340.957 554.875 341.154 554.225 341.154 553.56C341.154 552.668 340.8 551.812 340.169 551.182C339.539 550.551 338.683 550.197 337.791 550.197ZM53.4708 660.6C52.8056 660.6 52.1554 660.798 51.6023 661.167C51.0492 661.537 50.6182 662.062 50.3636 662.676C50.1091 663.291 50.0425 663.967 50.1723 664.62C50.302 665.272 50.6223 665.871 51.0927 666.342C51.563 666.812 52.1623 667.132 52.8147 667.262C53.467 667.392 54.1433 667.325 54.7578 667.071C55.3723 666.816 55.8976 666.385 56.2671 665.832C56.6367 665.279 56.8339 664.629 56.8339 663.964C56.8339 663.072 56.4796 662.216 55.8489 661.585C55.2182 660.955 54.3627 660.6 53.4708 660.6ZM105.155 660.6C104.491 660.608 103.845 660.812 103.297 661.186C102.749 661.56 102.324 662.088 102.075 662.703C101.827 663.318 101.766 663.993 101.9 664.643C102.034 665.293 102.357 665.888 102.829 666.355C103.301 666.821 103.9 667.138 104.551 667.265C105.203 667.391 105.877 667.322 106.489 667.067C107.102 666.811 107.625 666.38 107.992 665.828C108.36 665.276 108.557 664.627 108.557 663.964C108.557 663.519 108.468 663.078 108.297 662.667C108.126 662.257 107.874 661.884 107.558 661.572C107.242 661.259 106.866 661.012 106.454 660.845C106.041 660.678 105.6 660.595 105.155 660.6ZM156.878 660.6C156.212 660.6 155.562 660.798 155.009 661.167C154.456 661.537 154.025 662.062 153.77 662.676C153.516 663.291 153.449 663.967 153.579 664.62C153.709 665.272 154.029 665.871 154.499 666.342C154.97 666.812 155.569 667.132 156.221 667.262C156.874 667.392 157.55 667.325 158.165 667.071C158.779 666.816 159.304 666.385 159.674 665.832C160.043 665.279 160.241 664.629 160.241 663.964C160.231 663.075 159.873 662.225 159.245 661.596C158.616 660.968 157.766 660.61 156.878 660.6ZM208.562 660.6C207.896 660.6 207.246 660.798 206.693 661.167C206.14 661.537 205.709 662.062 205.454 662.676C205.2 663.291 205.133 663.967 205.263 664.62C205.393 665.272 205.713 665.871 206.184 666.342C206.654 666.812 207.253 667.132 207.905 667.262C208.558 667.392 209.234 667.325 209.849 667.071C210.463 666.816 210.988 666.385 211.358 665.832C211.728 665.279 211.925 664.629 211.925 663.964C211.925 663.078 211.576 662.229 210.953 661.599C210.331 660.969 209.486 660.61 208.6 660.6H208.562ZM260.246 660.6C259.581 660.6 258.93 660.798 258.377 661.167C257.824 661.537 257.393 662.062 257.139 662.676C256.884 663.291 256.817 663.967 256.947 664.62C257.077 665.272 257.397 665.871 257.868 666.342C258.338 666.812 258.937 667.132 259.59 667.262C260.242 667.392 260.918 667.325 261.533 667.071C262.147 666.816 262.672 666.385 263.042 665.832C263.412 665.279 263.609 664.629 263.609 663.964C263.609 663.072 263.255 662.216 262.624 661.585C261.993 660.955 261.138 660.6 260.246 660.6ZM311.93 660.6C311.266 660.608 310.62 660.812 310.072 661.186C309.524 661.56 309.099 662.088 308.85 662.703C308.602 663.318 308.541 663.993 308.675 664.643C308.809 665.293 309.132 665.888 309.604 666.355C310.076 666.821 310.675 667.138 311.326 667.265C311.978 667.391 312.652 667.322 313.264 667.067C313.877 666.811 314.4 666.38 314.767 665.828C315.135 665.276 315.332 664.627 315.332 663.964C315.332 663.519 315.243 663.078 315.072 662.667C314.9 662.257 314.649 661.884 314.333 661.572C314.016 661.259 313.641 661.012 313.229 660.845C312.816 660.678 312.375 660.595 311.93 660.6ZM363.652 660.6C362.987 660.6 362.337 660.798 361.784 661.167C361.231 661.537 360.8 662.062 360.545 662.676C360.291 663.291 360.224 663.967 360.354 664.62C360.484 665.272 360.804 665.871 361.274 666.342C361.745 666.812 362.344 667.132 362.996 667.262C363.649 667.392 364.325 667.325 364.94 667.071C365.554 666.816 366.079 666.385 366.449 665.832C366.818 665.279 367.016 664.629 367.016 663.964C367.016 663.072 366.661 662.216 366.031 661.585C365.4 660.955 364.544 660.6 363.652 660.6ZM79.3321 622.949C78.6561 622.941 77.9931 623.135 77.4278 623.506C76.8625 623.877 76.4205 624.408 76.1583 625.031C75.896 625.654 75.8254 626.341 75.9554 627.004C76.0854 627.668 76.4102 628.278 76.8883 628.756C77.3663 629.234 77.976 629.559 78.6395 629.689C79.3029 629.819 79.9901 629.748 80.6132 629.486C81.2364 629.223 81.7673 628.781 82.1381 628.216C82.5089 627.651 82.7029 626.988 82.6953 626.312C82.6953 625.42 82.341 624.564 81.7103 623.934C81.0795 623.303 80.2241 622.949 79.3321 622.949ZM131.016 622.949C130.34 622.941 129.677 623.135 129.112 623.506C128.547 623.877 128.105 624.408 127.842 625.031C127.58 625.654 127.509 626.341 127.639 627.004C127.77 627.668 128.094 628.278 128.572 628.756C129.05 629.234 129.66 629.559 130.324 629.689C130.987 629.819 131.674 629.748 132.297 629.486C132.92 629.223 133.451 628.781 133.822 628.216C134.193 627.651 134.387 626.988 134.379 626.312C134.379 625.42 134.025 624.564 133.394 623.934C132.764 623.303 131.908 622.949 131.016 622.949ZM182.7 622.949C181.866 623.038 181.093 623.433 180.532 624.057C179.971 624.682 179.661 625.492 179.661 626.331C179.661 627.171 179.971 627.98 180.532 628.605C181.093 629.229 181.866 629.624 182.7 629.714C183.175 629.764 183.655 629.715 184.109 629.568C184.563 629.421 184.981 629.18 185.336 628.861C185.691 628.542 185.975 628.152 186.169 627.716C186.364 627.28 186.464 626.808 186.464 626.331C186.464 625.854 186.364 625.382 186.169 624.946C185.975 624.51 185.691 624.12 185.336 623.801C184.981 623.482 184.563 623.241 184.109 623.094C183.655 622.948 183.175 622.898 182.7 622.949ZM234.423 622.949C233.747 622.941 233.084 623.135 232.519 623.506C231.953 623.877 231.511 624.408 231.249 625.031C230.987 625.654 230.916 626.341 231.046 627.004C231.176 627.668 231.501 628.278 231.979 628.756C232.457 629.234 233.067 629.559 233.73 629.689C234.394 629.819 235.081 629.748 235.704 629.486C236.327 629.223 236.858 628.781 237.229 628.216C237.6 627.651 237.794 626.988 237.786 626.312C237.786 625.42 237.432 624.564 236.801 623.934C236.17 623.303 235.315 622.949 234.423 622.949ZM286.107 622.949C285.431 622.941 284.768 623.135 284.203 623.506C283.637 623.877 283.195 624.408 282.933 625.031C282.671 625.654 282.6 626.341 282.73 627.004C282.86 627.668 283.185 628.278 283.663 628.756C284.141 629.234 284.751 629.559 285.414 629.689C286.078 629.819 286.765 629.748 287.388 629.486C288.011 629.223 288.542 628.781 288.913 628.216C289.284 627.651 289.478 626.988 289.47 626.312C289.47 625.42 289.116 624.564 288.485 623.934C287.854 623.303 286.999 622.949 286.107 622.949ZM337.791 622.949C337.115 622.941 336.452 623.135 335.887 623.506C335.321 623.877 334.879 624.408 334.617 625.031C334.355 625.654 334.284 626.341 334.414 627.004C334.544 627.668 334.869 628.278 335.347 628.756C335.825 629.234 336.435 629.559 337.098 629.689C337.762 629.819 338.449 629.748 339.072 629.486C339.695 629.223 340.226 628.781 340.597 628.216C340.968 627.651 341.162 626.988 341.154 626.312C341.154 625.42 340.8 624.564 340.169 623.934C339.539 623.303 338.683 622.949 337.791 622.949ZM389.475 622.949C388.801 622.949 388.142 623.149 387.581 623.525C387.021 623.9 386.585 624.434 386.329 625.058C386.073 625.682 386.007 626.368 386.142 627.028C386.276 627.689 386.604 628.295 387.084 628.77C387.563 629.244 388.173 629.565 388.836 629.692C389.498 629.818 390.183 629.746 390.804 629.482C391.425 629.219 391.953 628.777 392.323 628.212C392.692 627.648 392.885 626.986 392.877 626.312C392.877 625.867 392.789 625.426 392.617 625.016C392.446 624.605 392.195 624.233 391.878 623.92C391.562 623.607 391.187 623.36 390.774 623.193C390.362 623.027 389.92 622.944 389.475 622.949ZM4.37671 734.628C3.64223 736.406 2.90776 738.223 2.21194 740.04C3.02169 739.937 3.76628 739.542 4.30684 738.931C4.8474 738.319 5.14703 737.532 5.14986 736.715C5.15298 735.949 4.8783 735.208 4.37671 734.628ZM53.4708 733.352C52.8056 733.352 52.1554 733.55 51.6023 733.919C51.0492 734.289 50.6182 734.814 50.3636 735.428C50.1091 736.043 50.0425 736.719 50.1723 737.372C50.302 738.024 50.6223 738.623 51.0927 739.094C51.563 739.564 52.1623 739.884 52.8147 740.014C53.467 740.144 54.1433 740.077 54.7578 739.823C55.3723 739.568 55.8976 739.137 56.2671 738.584C56.6367 738.031 56.8339 737.381 56.8339 736.715C56.8339 735.823 56.4796 734.968 55.8489 734.337C55.2182 733.707 54.3627 733.352 53.4708 733.352ZM105.155 733.352C104.491 733.36 103.845 733.564 103.297 733.938C102.749 734.312 102.324 734.84 102.075 735.455C101.827 736.07 101.766 736.745 101.9 737.395C102.034 738.045 102.357 738.64 102.829 739.107C103.301 739.573 103.9 739.89 104.551 740.016C105.203 740.143 105.877 740.074 106.489 739.819C107.102 739.563 107.625 739.132 107.992 738.58C108.36 738.028 108.557 737.379 108.557 736.715C108.557 736.271 108.468 735.83 108.297 735.419C108.126 735.009 107.874 734.636 107.558 734.324C107.242 734.011 106.866 733.764 106.454 733.597C106.041 733.43 105.6 733.347 105.155 733.352ZM156.878 733.352C156.212 733.352 155.562 733.55 155.009 733.919C154.456 734.289 154.025 734.814 153.77 735.428C153.516 736.043 153.449 736.719 153.579 737.372C153.709 738.024 154.029 738.623 154.499 739.094C154.97 739.564 155.569 739.884 156.221 740.014C156.874 740.144 157.55 740.077 158.165 739.823C158.779 739.568 159.304 739.137 159.674 738.584C160.043 738.031 160.241 737.381 160.241 736.715C160.231 735.827 159.873 734.977 159.245 734.348C158.616 733.72 157.766 733.362 156.878 733.352ZM208.562 733.352C207.896 733.352 207.246 733.55 206.693 733.919C206.14 734.289 205.709 734.814 205.454 735.428C205.2 736.043 205.133 736.719 205.263 737.372C205.393 738.024 205.713 738.623 206.184 739.094C206.654 739.564 207.253 739.884 207.905 740.014C208.558 740.144 209.234 740.077 209.849 739.823C210.463 739.568 210.988 739.137 211.358 738.584C211.728 738.031 211.925 737.381 211.925 736.715C211.925 735.83 211.576 734.981 210.953 734.351C210.331 733.721 209.486 733.362 208.6 733.352H208.562ZM260.246 733.352C259.581 733.352 258.93 733.55 258.377 733.919C257.824 734.289 257.393 734.814 257.139 735.428C256.884 736.043 256.817 736.719 256.947 737.372C257.077 738.024 257.397 738.623 257.868 739.094C258.338 739.564 258.937 739.884 259.59 740.014C260.242 740.144 260.918 740.077 261.533 739.823C262.147 739.568 262.672 739.137 263.042 738.584C263.412 738.031 263.609 737.381 263.609 736.715C263.609 735.823 263.255 734.968 262.624 734.337C261.993 733.707 261.138 733.352 260.246 733.352ZM311.93 733.352C311.266 733.36 310.62 733.564 310.072 733.938C309.524 734.312 309.099 734.84 308.85 735.455C308.602 736.07 308.541 736.745 308.675 737.395C308.809 738.045 309.132 738.64 309.604 739.107C310.076 739.573 310.675 739.89 311.326 740.016C311.978 740.143 312.652 740.074 313.264 739.819C313.877 739.563 314.4 739.132 314.767 738.58C315.135 738.028 315.332 737.379 315.332 736.715C315.332 736.271 315.243 735.83 315.072 735.419C314.9 735.009 314.649 734.636 314.333 734.324C314.016 734.011 313.641 733.764 313.229 733.597C312.816 733.43 312.375 733.347 311.93 733.352ZM363.652 733.352C362.987 733.352 362.337 733.55 361.784 733.919C361.231 734.289 360.8 734.814 360.545 735.428C360.291 736.043 360.224 736.719 360.354 737.372C360.484 738.024 360.804 738.623 361.274 739.094C361.745 739.564 362.344 739.884 362.996 740.014C363.649 740.144 364.325 740.077 364.94 739.823C365.554 739.568 366.079 739.137 366.449 738.584C366.818 738.031 367.016 737.381 367.016 736.715C367.016 735.823 366.661 734.968 366.031 734.337C365.4 733.707 364.544 733.352 363.652 733.352ZM27.6094 695.739C26.946 695.747 26.2996 695.951 25.7516 696.325C25.2037 696.699 24.7786 697.227 24.53 697.842C24.2814 698.457 24.2202 699.132 24.3543 699.782C24.4884 700.432 24.8117 701.027 25.2836 701.494C25.7554 701.96 26.3548 702.277 27.0061 702.404C27.6574 702.53 28.3316 702.461 28.9438 702.206C29.5561 701.95 30.0791 701.519 30.447 700.967C30.8149 700.415 31.0112 699.766 31.0112 699.102C31.0112 698.658 30.923 698.217 30.7515 697.806C30.5801 697.396 30.3289 697.023 30.0126 696.711C29.6961 696.398 29.3208 696.151 28.9083 695.984C28.4958 695.817 28.0543 695.734 27.6094 695.739ZM79.3321 695.739C78.667 695.739 78.0167 695.937 77.4637 696.306C76.9106 696.676 76.4796 697.201 76.225 697.815C75.9705 698.43 75.9039 699.106 76.0336 699.759C76.1634 700.411 76.4837 701.01 76.954 701.481C77.4244 701.951 78.0237 702.271 78.676 702.401C79.3284 702.531 80.0046 702.464 80.6192 702.21C81.2337 701.955 81.7589 701.524 82.1285 700.971C82.498 700.418 82.6953 699.768 82.6953 699.102C82.6953 698.211 82.341 697.355 81.7103 696.724C81.0795 696.094 80.2241 695.739 79.3321 695.739ZM131.016 695.739C130.351 695.739 129.701 695.937 129.148 696.306C128.595 696.676 128.164 697.201 127.909 697.815C127.655 698.43 127.588 699.106 127.718 699.759C127.847 700.411 128.168 701.01 128.638 701.481C129.108 701.951 129.708 702.271 130.36 702.401C131.012 702.531 131.689 702.464 132.303 702.21C132.918 701.955 133.443 701.524 133.813 700.971C134.182 700.418 134.379 699.768 134.379 699.102C134.379 698.211 134.025 697.355 133.394 696.724C132.764 696.094 131.908 695.739 131.016 695.739ZM182.7 695.739C182.037 695.747 181.39 695.951 180.842 696.325C180.295 696.699 179.869 697.227 179.621 697.842C179.372 698.457 179.311 699.132 179.445 699.782C179.579 700.432 179.903 701.027 180.374 701.494C180.846 701.96 181.446 702.277 182.097 702.404C182.748 702.53 183.422 702.461 184.035 702.206C184.647 701.95 185.17 701.519 185.538 700.967C185.906 700.415 186.102 699.766 186.102 699.102C186.102 698.658 186.014 698.217 185.842 697.806C185.671 697.396 185.42 697.023 185.103 696.711C184.787 696.398 184.412 696.151 183.999 695.984C183.587 695.817 183.145 695.734 182.7 695.739ZM234.423 695.739C233.758 695.739 233.108 695.937 232.555 696.306C232.001 696.676 231.57 697.201 231.316 697.815C231.061 698.43 230.995 699.106 231.125 699.759C231.254 700.411 231.575 701.01 232.045 701.481C232.515 701.951 233.115 702.271 233.767 702.401C234.419 702.531 235.095 702.464 235.71 702.21C236.325 701.955 236.85 701.524 237.219 700.971C237.589 700.418 237.786 699.768 237.786 699.102C237.786 698.211 237.432 697.355 236.801 696.724C236.17 696.094 235.315 695.739 234.423 695.739ZM286.107 695.739C285.442 695.739 284.792 695.937 284.239 696.306C283.686 696.676 283.255 697.201 283 697.815C282.745 698.43 282.679 699.106 282.809 699.759C282.938 700.411 283.259 701.01 283.729 701.481C284.199 701.951 284.799 702.271 285.451 702.401C286.103 702.531 286.78 702.464 287.394 702.21C288.009 701.955 288.534 701.524 288.903 700.971C289.273 700.418 289.47 699.768 289.47 699.102C289.47 698.211 289.116 697.355 288.485 696.724C287.854 696.094 286.999 695.739 286.107 695.739ZM337.791 695.739C337.126 695.739 336.476 695.937 335.923 696.306C335.37 696.676 334.939 697.201 334.684 697.815C334.429 698.43 334.363 699.106 334.493 699.759C334.622 700.411 334.943 701.01 335.413 701.481C335.883 701.951 336.483 702.271 337.135 702.401C337.787 702.531 338.464 702.464 339.078 702.21C339.693 701.955 340.218 701.524 340.587 700.971C340.957 700.418 341.154 699.768 341.154 699.102C341.154 698.211 340.8 697.355 340.169 696.724C339.539 696.094 338.683 695.739 337.791 695.739ZM389.475 695.739C388.812 695.747 388.165 695.951 387.617 696.325C387.069 696.699 386.644 697.227 386.396 697.842C386.147 698.457 386.086 699.132 386.22 699.782C386.354 700.432 386.678 701.027 387.149 701.494C387.621 701.96 388.22 702.277 388.872 702.404C389.523 702.53 390.197 702.461 390.81 702.206C391.422 701.95 391.945 701.519 392.313 700.967C392.681 700.415 392.877 699.766 392.877 699.102C392.877 698.658 392.789 698.217 392.617 697.806C392.446 697.396 392.195 697.023 391.878 696.711C391.562 696.398 391.187 696.151 390.774 695.984C390.362 695.817 389.92 695.734 389.475 695.739ZM1.78671 806.104C1.11231 806.097 0.450832 806.29 -0.113651 806.659C-0.678139 807.028 -1.12014 807.556 -1.38355 808.177C-1.64697 808.798 -1.71987 809.483 -1.59301 810.146C-1.46615 810.808 -1.14527 811.418 -0.671097 811.898C-0.196922 812.377 0.409122 812.705 1.07004 812.839C1.73096 812.974 2.41692 812.909 3.04078 812.652C3.66463 812.396 4.19822 811.96 4.57375 811.4C4.94928 810.84 5.14981 810.181 5.14986 809.506C5.15498 809.061 5.07176 808.62 4.90504 808.207C4.73832 807.795 4.49138 807.419 4.17857 807.103C3.86577 806.787 3.49329 806.535 3.08271 806.364C2.67214 806.193 2.23164 806.104 1.78671 806.104ZM53.4708 806.104C52.7964 806.097 52.1349 806.29 51.5704 806.659C51.0059 807.028 50.5639 807.556 50.3005 808.177C50.0371 808.798 49.9642 809.483 50.091 810.146C50.2179 810.808 50.5388 811.418 51.013 811.898C51.4872 812.377 52.0932 812.705 52.7541 812.839C53.415 812.974 54.101 812.909 54.7249 812.652C55.3487 812.396 55.8823 811.96 56.2578 811.4C56.6334 810.84 56.8339 810.181 56.8339 809.506C56.839 809.061 56.7558 808.62 56.5891 808.207C56.4224 807.795 56.1755 807.419 55.8627 807.103C55.5499 806.787 55.1774 806.535 54.7668 806.364C54.3562 806.193 53.9157 806.104 53.4708 806.104ZM105.155 806.104C104.482 806.104 103.824 806.304 103.265 806.678C102.705 807.051 102.269 807.583 102.012 808.204C101.755 808.826 101.687 809.51 101.818 810.17C101.95 810.83 102.274 811.436 102.749 811.912C103.225 812.387 103.831 812.711 104.491 812.842C105.151 812.974 105.835 812.906 106.457 812.649C107.078 812.392 107.61 811.955 107.983 811.396C108.357 810.837 108.557 810.179 108.557 809.506C108.562 809.058 108.477 808.613 108.308 808.198C108.139 807.783 107.889 807.406 107.572 807.089C107.255 806.772 106.878 806.522 106.463 806.353C106.048 806.184 105.603 806.099 105.155 806.104ZM156.878 806.104C156.403 806.054 155.923 806.103 155.469 806.25C155.015 806.397 154.597 806.638 154.242 806.957C153.887 807.276 153.603 807.666 153.408 808.102C153.214 808.538 153.114 809.01 153.114 809.487C153.114 809.964 153.214 810.436 153.408 810.872C153.603 811.308 153.887 811.698 154.242 812.017C154.597 812.336 155.015 812.577 155.469 812.724C155.923 812.87 156.403 812.92 156.878 812.869C157.712 812.78 158.485 812.385 159.046 811.761C159.607 811.136 159.917 810.326 159.917 809.487C159.917 808.647 159.607 807.837 159.046 807.213C158.485 806.589 157.712 806.194 156.878 806.104ZM208.562 806.104C207.887 806.097 207.226 806.29 206.661 806.659C206.097 807.028 205.655 807.556 205.391 808.177C205.128 808.798 205.055 809.483 205.182 810.146C205.309 810.808 205.63 811.418 206.104 811.898C206.578 812.377 207.184 812.705 207.845 812.839C208.506 812.974 209.192 812.909 209.816 812.652C210.44 812.396 210.973 811.96 211.349 811.4C211.724 810.84 211.925 810.181 211.925 809.506C211.93 809.064 211.848 808.626 211.684 808.216C211.519 807.806 211.276 807.433 210.967 807.117C210.658 806.801 210.29 806.549 209.884 806.375C209.478 806.201 209.042 806.109 208.6 806.104H208.562ZM260.246 806.104C259.571 806.097 258.91 806.29 258.345 806.659C257.781 807.028 257.339 807.556 257.075 808.177C256.812 808.798 256.739 809.483 256.866 810.146C256.993 810.808 257.314 811.418 257.788 811.898C258.262 812.377 258.868 812.705 259.529 812.839C260.19 812.974 260.876 812.909 261.5 812.652C262.124 812.396 262.657 811.96 263.033 811.4C263.408 810.84 263.609 810.181 263.609 809.506C263.614 809.061 263.531 808.62 263.364 808.207C263.197 807.795 262.95 807.419 262.638 807.103C262.325 806.787 261.952 806.535 261.542 806.364C261.131 806.193 260.691 806.104 260.246 806.104ZM311.93 806.104C311.257 806.104 310.599 806.304 310.04 806.678C309.48 807.051 309.044 807.583 308.787 808.204C308.529 808.826 308.462 809.51 308.593 810.17C308.725 810.83 309.049 811.436 309.524 811.912C310 812.387 310.606 812.711 311.266 812.842C311.926 812.974 312.61 812.906 313.232 812.649C313.853 812.392 314.384 811.955 314.758 811.396C315.132 810.837 315.332 810.179 315.332 809.506C315.337 809.058 315.252 808.613 315.083 808.198C314.914 807.783 314.664 807.406 314.347 807.089C314.03 806.772 313.653 806.522 313.238 806.353C312.823 806.184 312.378 806.099 311.93 806.104ZM363.652 806.104C362.978 806.097 362.317 806.29 361.752 806.659C361.188 807.028 360.746 807.556 360.482 808.177C360.219 808.798 360.146 809.483 360.273 810.146C360.4 810.808 360.721 811.418 361.195 811.898C361.669 812.377 362.275 812.705 362.936 812.839C363.597 812.974 364.283 812.909 364.907 812.652C365.53 812.396 366.064 811.96 366.44 811.4C366.815 810.84 367.016 810.181 367.016 809.506C367.021 809.061 366.938 808.62 366.771 808.207C366.604 807.795 366.357 807.419 366.044 807.103C365.732 806.787 365.359 806.535 364.949 806.364C364.538 806.193 364.097 806.104 363.652 806.104ZM27.6094 768.491C26.946 768.499 26.2996 768.703 25.7516 769.077C25.2037 769.451 24.7786 769.979 24.53 770.594C24.2814 771.209 24.2202 771.884 24.3543 772.534C24.4884 773.184 24.8117 773.779 25.2836 774.246C25.7554 774.712 26.3548 775.029 27.0061 775.155C27.6574 775.282 28.3316 775.213 28.9438 774.958C29.5561 774.702 30.0791 774.271 30.447 773.719C30.8149 773.167 31.0112 772.518 31.0112 771.854C31.0112 771.409 30.923 770.969 30.7515 770.558C30.5801 770.148 30.3289 769.775 30.0126 769.463C29.6961 769.15 29.3208 768.903 28.9083 768.736C28.4958 768.569 28.0543 768.486 27.6094 768.491ZM79.3321 768.491C78.667 768.491 78.0167 768.689 77.4637 769.058C76.9106 769.428 76.4796 769.953 76.225 770.567C75.9705 771.182 75.9039 771.858 76.0336 772.511C76.1634 773.163 76.4837 773.762 76.954 774.233C77.4244 774.703 78.0237 775.023 78.676 775.153C79.3284 775.283 80.0046 775.216 80.6192 774.962C81.2337 774.707 81.7589 774.276 82.1285 773.723C82.498 773.17 82.6953 772.52 82.6953 771.854C82.6953 770.962 82.341 770.107 81.7103 769.476C81.0795 768.846 80.2241 768.491 79.3321 768.491ZM131.016 768.491C130.351 768.491 129.701 768.689 129.148 769.058C128.595 769.428 128.164 769.953 127.909 770.567C127.655 771.182 127.588 771.858 127.718 772.511C127.847 773.163 128.168 773.762 128.638 774.233C129.108 774.703 129.708 775.023 130.36 775.153C131.012 775.283 131.689 775.216 132.303 774.962C132.918 774.707 133.443 774.276 133.813 773.723C134.182 773.17 134.379 772.52 134.379 771.854C134.379 770.962 134.025 770.107 133.394 769.476C132.764 768.846 131.908 768.491 131.016 768.491ZM182.7 768.491C182.037 768.499 181.39 768.703 180.842 769.077C180.295 769.451 179.869 769.979 179.621 770.594C179.372 771.209 179.311 771.884 179.445 772.534C179.579 773.184 179.903 773.779 180.374 774.246C180.846 774.712 181.446 775.029 182.097 775.155C182.748 775.282 183.422 775.213 184.035 774.958C184.647 774.702 185.17 774.271 185.538 773.719C185.906 773.167 186.102 772.518 186.102 771.854C186.102 771.409 186.014 770.969 185.842 770.558C185.671 770.148 185.42 769.775 185.103 769.463C184.787 769.15 184.412 768.903 183.999 768.736C183.587 768.569 183.145 768.486 182.7 768.491ZM234.423 768.491C233.758 768.491 233.108 768.689 232.555 769.058C232.001 769.428 231.57 769.953 231.316 770.567C231.061 771.182 230.995 771.858 231.125 772.511C231.254 773.163 231.575 773.762 232.045 774.233C232.515 774.703 233.115 775.023 233.767 775.153C234.419 775.283 235.095 775.216 235.71 774.962C236.325 774.707 236.85 774.276 237.219 773.723C237.589 773.17 237.786 772.52 237.786 771.854C237.786 770.962 237.432 770.107 236.801 769.476C236.17 768.846 235.315 768.491 234.423 768.491ZM286.107 768.491C285.442 768.491 284.792 768.689 284.239 769.058C283.686 769.428 283.255 769.953 283 770.567C282.745 771.182 282.679 771.858 282.809 772.511C282.938 773.163 283.259 773.762 283.729 774.233C284.199 774.703 284.799 775.023 285.451 775.153C286.103 775.283 286.78 775.216 287.394 774.962C288.009 774.707 288.534 774.276 288.903 773.723C289.273 773.17 289.47 772.52 289.47 771.854C289.47 770.962 289.116 770.107 288.485 769.476C287.854 768.846 286.999 768.491 286.107 768.491ZM337.791 768.491C337.126 768.491 336.476 768.689 335.923 769.058C335.37 769.428 334.939 769.953 334.684 770.567C334.429 771.182 334.363 771.858 334.493 772.511C334.622 773.163 334.943 773.762 335.413 774.233C335.883 774.703 336.483 775.023 337.135 775.153C337.787 775.283 338.464 775.216 339.078 774.962C339.693 774.707 340.218 774.276 340.587 773.723C340.957 773.17 341.154 772.52 341.154 771.854C341.154 770.962 340.8 770.107 340.169 769.476C339.539 768.846 338.683 768.491 337.791 768.491ZM-24.0747 841.243C-24.7507 841.236 -25.4137 841.43 -25.979 841.8C-26.5443 842.171 -26.9863 842.702 -27.2485 843.325C-27.5108 843.949 -27.5814 844.636 -27.4514 845.299C-27.3214 845.963 -26.9966 846.572 -26.5185 847.05C-26.0405 847.528 -25.4308 847.853 -24.7673 847.983C-24.1039 848.113 -23.4167 848.043 -22.7936 847.78C-22.1704 847.518 -21.6395 847.076 -21.2687 846.511C-20.8979 845.946 -20.7039 845.282 -20.7115 844.606C-20.7115 844.165 -20.7985 843.728 -20.9675 843.319C-21.1365 842.911 -21.3842 842.541 -21.6965 842.228C-22.0088 841.916 -22.3796 841.668 -22.7876 841.499C-23.1957 841.33 -23.633 841.243 -24.0747 841.243ZM1.78671 878.895C1.12155 878.895 0.471321 879.092 -0.0817413 879.462C-0.634808 879.831 -1.06586 880.357 -1.32041 880.971C-1.57495 881.586 -1.64158 882.262 -1.51182 882.914C-1.38205 883.567 -1.06172 884.166 -0.591377 884.636C-0.121033 885.107 0.478203 885.427 1.13059 885.557C1.78297 885.686 2.45918 885.62 3.07372 885.365C3.68825 885.111 4.21352 884.68 4.58307 884.127C4.95261 883.574 5.14986 882.923 5.14986 882.258C5.14986 881.366 4.79551 880.511 4.1648 879.88C3.53409 879.249 2.67867 878.895 1.78671 878.895ZM53.4708 878.895C52.8056 878.895 52.1554 879.092 51.6023 879.462C51.0492 879.831 50.6182 880.357 50.3636 880.971C50.1091 881.586 50.0425 882.262 50.1723 882.914C50.302 883.567 50.6223 884.166 51.0927 884.636C51.563 885.107 52.1623 885.427 52.8147 885.557C53.467 885.686 54.1433 885.62 54.7578 885.365C55.3723 885.111 55.8976 884.68 56.2671 884.127C56.6367 883.574 56.8339 882.923 56.8339 882.258C56.8339 881.366 56.4796 880.511 55.8489 879.88C55.2182 879.249 54.3627 878.895 53.4708 878.895ZM105.155 878.895C104.491 878.903 103.845 879.106 103.297 879.48C102.749 879.855 102.324 880.383 102.075 880.998C101.827 881.613 101.766 882.288 101.9 882.938C102.034 883.587 102.357 884.183 102.829 884.65C103.301 885.116 103.9 885.432 104.551 885.559C105.203 885.686 105.877 885.617 106.489 885.361C107.102 885.106 107.625 884.675 107.992 884.122C108.36 883.57 108.557 882.922 108.557 882.258C108.557 881.813 108.468 881.373 108.297 880.962C108.126 880.552 107.874 880.179 107.558 879.866C107.242 879.553 106.866 879.307 106.454 879.14C106.041 878.973 105.6 878.89 105.155 878.895ZM156.878 878.895C156.212 878.895 155.562 879.092 155.009 879.462C154.456 879.831 154.025 880.357 153.77 880.971C153.516 881.586 153.449 882.262 153.579 882.914C153.709 883.567 154.029 884.166 154.499 884.636C154.97 885.107 155.569 885.427 156.221 885.557C156.874 885.686 157.55 885.62 158.165 885.365C158.779 885.111 159.304 884.68 159.674 884.127C160.043 883.574 160.241 882.923 160.241 882.258C160.231 881.369 159.873 880.52 159.245 879.891C158.616 879.263 157.766 878.905 156.878 878.895ZM208.562 878.895C207.896 878.895 207.246 879.092 206.693 879.462C206.14 879.831 205.709 880.357 205.454 880.971C205.2 881.586 205.133 882.262 205.263 882.914C205.393 883.567 205.713 884.166 206.184 884.636C206.654 885.107 207.253 885.427 207.905 885.557C208.558 885.686 209.234 885.62 209.849 885.365C210.463 885.111 210.988 884.68 211.358 884.127C211.728 883.574 211.925 882.923 211.925 882.258C211.925 881.373 211.576 880.523 210.953 879.894C210.331 879.264 209.486 878.905 208.6 878.895H208.562ZM260.246 878.895C259.581 878.895 258.93 879.092 258.377 879.462C257.824 879.831 257.393 880.357 257.139 880.971C256.884 881.586 256.817 882.262 256.947 882.914C257.077 883.567 257.397 884.166 257.868 884.636C258.338 885.107 258.937 885.427 259.59 885.557C260.242 885.686 260.918 885.62 261.533 885.365C262.147 885.111 262.672 884.68 263.042 884.127C263.412 883.574 263.609 882.923 263.609 882.258C263.609 881.366 263.255 880.511 262.624 879.88C261.993 879.249 261.138 878.895 260.246 878.895ZM311.93 878.895C311.266 878.903 310.62 879.106 310.072 879.48C309.524 879.855 309.099 880.383 308.85 880.998C308.602 881.613 308.541 882.288 308.675 882.938C308.809 883.587 309.132 884.183 309.604 884.65C310.076 885.116 310.675 885.432 311.326 885.559C311.978 885.686 312.652 885.617 313.264 885.361C313.877 885.106 314.4 884.675 314.767 884.122C315.135 883.57 315.332 882.922 315.332 882.258C315.332 881.813 315.243 881.373 315.072 880.962C314.9 880.552 314.649 880.179 314.333 879.866C314.016 879.553 313.641 879.307 313.229 879.14C312.816 878.973 312.375 878.89 311.93 878.895ZM363.652 878.895C362.987 878.895 362.337 879.092 361.784 879.462C361.231 879.831 360.8 880.357 360.545 880.971C360.291 881.586 360.224 882.262 360.354 882.914C360.484 883.567 360.804 884.166 361.274 884.636C361.745 885.107 362.344 885.427 362.996 885.557C363.649 885.686 364.325 885.62 364.94 885.365C365.554 885.111 366.079 884.68 366.449 884.127C366.818 883.574 367.016 882.923 367.016 882.258C367.016 881.366 366.661 880.511 366.031 879.88C365.4 879.249 364.544 878.895 363.652 878.895ZM27.6094 841.243C26.935 841.243 26.2757 841.444 25.7155 841.819C25.1553 842.195 24.7193 842.729 24.463 843.352C24.2067 843.976 24.1417 844.662 24.2761 845.323C24.4105 845.984 24.7384 846.59 25.218 847.064C25.6976 847.538 26.3074 847.859 26.9698 847.986C27.6322 848.113 28.3174 848.04 28.9382 847.777C29.5591 847.513 30.0877 847.071 30.4568 846.507C30.8259 845.942 31.0189 845.281 31.0112 844.606C31.0112 844.161 30.923 843.721 30.7515 843.31C30.5801 842.9 30.3289 842.527 30.0126 842.215C29.6961 841.902 29.3208 841.655 28.9083 841.488C28.4958 841.321 28.0543 841.238 27.6094 841.243ZM79.3321 841.243C78.6561 841.236 77.9931 841.43 77.4278 841.8C76.8625 842.171 76.4205 842.702 76.1583 843.325C75.896 843.949 75.8254 844.636 75.9554 845.299C76.0854 845.963 76.4102 846.572 76.8883 847.05C77.3663 847.528 77.976 847.853 78.6395 847.983C79.3029 848.113 79.9901 848.043 80.6132 847.78C81.2364 847.518 81.7673 847.076 82.1381 846.511C82.5089 845.946 82.7029 845.282 82.6953 844.606C82.6953 844.165 82.6083 843.728 82.4393 843.319C82.2703 842.911 82.0225 842.541 81.7103 842.228C81.3979 841.916 81.0272 841.668 80.6192 841.499C80.2111 841.33 79.7738 841.243 79.3321 841.243ZM131.016 841.243C130.34 841.236 129.677 841.43 129.112 841.8C128.547 842.171 128.105 842.702 127.842 843.325C127.58 843.949 127.509 844.636 127.639 845.299C127.77 845.963 128.094 846.572 128.572 847.05C129.05 847.528 129.66 847.853 130.324 847.983C130.987 848.113 131.674 848.043 132.297 847.78C132.92 847.518 133.451 847.076 133.822 846.511C134.193 845.946 134.387 845.282 134.379 844.606C134.379 844.165 134.292 843.728 134.123 843.319C133.954 842.911 133.707 842.541 133.394 842.228C133.082 841.916 132.711 841.668 132.303 841.499C131.895 841.33 131.458 841.243 131.016 841.243ZM182.7 841.243C181.866 841.333 181.093 841.728 180.532 842.352C179.971 842.976 179.661 843.786 179.661 844.626C179.661 845.465 179.971 846.275 180.532 846.9C181.093 847.524 181.866 847.919 182.7 848.008C183.175 848.059 183.655 848.009 184.109 847.863C184.563 847.716 184.981 847.475 185.336 847.156C185.691 846.837 185.975 846.447 186.169 846.011C186.364 845.575 186.464 845.103 186.464 844.626C186.464 844.148 186.364 843.677 186.169 843.241C185.975 842.805 185.691 842.415 185.336 842.096C184.981 841.777 184.563 841.536 184.109 841.389C183.655 841.242 183.175 841.193 182.7 841.243ZM234.423 841.243C233.747 841.236 233.084 841.43 232.519 841.8C231.953 842.171 231.511 842.702 231.249 843.325C230.987 843.949 230.916 844.636 231.046 845.299C231.176 845.963 231.501 846.572 231.979 847.05C232.457 847.528 233.067 847.853 233.73 847.983C234.394 848.113 235.081 848.043 235.704 847.78C236.327 847.518 236.858 847.076 237.229 846.511C237.6 845.946 237.794 845.282 237.786 844.606C237.786 844.165 237.699 843.728 237.53 843.319C237.361 842.911 237.113 842.541 236.801 842.228C236.489 841.916 236.118 841.668 235.71 841.499C235.302 841.33 234.865 841.243 234.423 841.243ZM286.107 841.243C285.431 841.236 284.768 841.43 284.203 841.8C283.637 842.171 283.195 842.702 282.933 843.325C282.671 843.949 282.6 844.636 282.73 845.299C282.86 845.963 283.185 846.572 283.663 847.05C284.141 847.528 284.751 847.853 285.414 847.983C286.078 848.113 286.765 848.043 287.388 847.78C288.011 847.518 288.542 847.076 288.913 846.511C289.284 845.946 289.478 845.282 289.47 844.606C289.47 844.165 289.383 843.728 289.214 843.319C289.045 842.911 288.797 842.541 288.485 842.228C288.173 841.916 287.802 841.668 287.394 841.499C286.986 841.33 286.549 841.243 286.107 841.243ZM337.791 841.243C337.115 841.236 336.452 841.43 335.887 841.8C335.321 842.171 334.879 842.702 334.617 843.325C334.355 843.949 334.284 844.636 334.414 845.299C334.544 845.963 334.869 846.572 335.347 847.05C335.825 847.528 336.435 847.853 337.098 847.983C337.762 848.113 338.449 848.043 339.072 847.78C339.695 847.518 340.226 847.076 340.597 846.511C340.968 845.946 341.162 845.282 341.154 844.606C341.154 844.165 341.067 843.728 340.898 843.319C340.729 842.911 340.482 842.541 340.169 842.228C339.857 841.916 339.486 841.668 339.078 841.499C338.67 841.33 338.233 841.243 337.791 841.243ZM-24.0747 914.034C-24.7398 914.034 -25.3901 914.231 -25.9431 914.601C-26.4962 914.97 -26.9272 915.496 -27.1818 916.11C-27.4363 916.725 -27.5029 917.401 -27.3732 918.053C-27.2434 918.706 -26.9231 919.305 -26.4528 919.775C-25.9824 920.246 -25.3831 920.566 -24.7308 920.696C-24.0784 920.825 -23.4022 920.759 -22.7876 920.504C-22.1731 920.25 -21.6479 919.819 -21.2783 919.266C-20.9088 918.713 -20.7115 918.062 -20.7115 917.397C-20.7115 916.956 -20.7985 916.518 -20.9675 916.11C-21.1365 915.702 -21.3842 915.331 -21.6965 915.019C-22.0088 914.707 -22.3796 914.459 -22.7876 914.29C-23.1957 914.121 -23.633 914.034 -24.0747 914.034ZM-49.8974 951.647C-50.5734 951.639 -51.2364 951.833 -51.8017 952.204C-52.367 952.575 -52.809 953.106 -53.0712 953.729C-53.3335 954.352 -53.4041 955.039 -53.2741 955.703C-53.1441 956.366 -52.8193 956.976 -52.3412 957.454C-51.8632 957.932 -51.2535 958.257 -50.59 958.387C-49.9266 958.517 -49.2394 958.446 -48.6163 958.184C-47.9931 957.922 -47.4622 957.48 -47.0914 956.914C-46.7206 956.349 -46.5266 955.686 -46.5342 955.01C-46.5342 954.118 -46.8885 953.263 -47.5192 952.632C-48.15 952.001 -49.0054 951.647 -49.8974 951.647ZM1.78671 951.647C1.11067 951.639 0.447674 951.833 -0.117634 952.204C-0.682941 952.575 -1.12493 953.106 -1.38718 953.729C-1.64943 954.352 -1.72005 955.039 -1.59003 955.703C-1.46001 956.366 -1.13521 956.976 -0.657146 957.454C-0.179081 957.932 0.43058 958.257 1.09405 958.387C1.75751 958.517 2.44467 958.446 3.06782 958.184C3.69097 957.922 4.22185 957.48 4.59268 956.914C4.96352 956.349 5.1575 955.686 5.14986 955.01C5.14986 954.118 4.79551 953.263 4.1648 952.632C3.53409 952.001 2.67867 951.647 1.78671 951.647ZM53.4708 951.647C52.7947 951.639 52.1318 951.833 51.5664 952.204C51.0011 952.575 50.5592 953.106 50.2969 953.729C50.0346 954.352 49.964 955.039 50.094 955.703C50.2241 956.366 50.5488 956.976 51.0269 957.454C51.505 957.932 52.1147 958.257 52.7781 958.387C53.4416 958.517 54.1287 958.446 54.7519 958.184C55.375 957.922 55.9059 957.48 56.2767 956.914C56.6476 956.349 56.8415 955.686 56.8339 955.01C56.8339 954.118 56.4796 953.263 55.8489 952.632C55.2182 952.001 54.3627 951.647 53.4708 951.647ZM105.155 951.647C104.32 951.736 103.548 952.131 102.987 952.756C102.426 953.38 102.115 954.19 102.115 955.029C102.115 955.869 102.426 956.679 102.987 957.303C103.548 957.928 104.32 958.323 105.155 958.412C105.629 958.463 106.109 958.413 106.563 958.266C107.018 958.119 107.436 957.879 107.791 957.56C108.146 957.241 108.43 956.85 108.624 956.415C108.818 955.979 108.919 955.507 108.919 955.029C108.919 954.552 108.818 954.08 108.624 953.644C108.43 953.208 108.146 952.818 107.791 952.499C107.436 952.18 107.018 951.94 106.563 951.793C106.109 951.646 105.629 951.596 105.155 951.647ZM156.878 951.647C156.202 951.639 155.539 951.833 154.973 952.204C154.408 952.575 153.966 953.106 153.704 953.729C153.441 954.352 153.371 955.039 153.501 955.703C153.631 956.366 153.956 956.976 154.434 957.454C154.912 957.932 155.521 958.257 156.185 958.387C156.848 958.517 157.536 958.446 158.159 958.184C158.782 957.922 159.313 957.48 159.684 956.914C160.054 956.349 160.248 955.686 160.241 955.01C160.231 954.121 159.873 953.272 159.245 952.643C158.616 952.015 157.766 951.657 156.878 951.647ZM208.562 951.647C207.886 951.639 207.223 951.833 206.657 952.204C206.092 952.575 205.65 953.106 205.388 953.729C205.126 954.352 205.055 955.039 205.185 955.703C205.315 956.366 205.64 956.976 206.118 957.454C206.596 957.932 207.206 958.257 207.869 958.387C208.532 958.517 209.22 958.446 209.843 958.184C210.466 957.922 210.997 957.48 211.368 956.914C211.738 956.349 211.932 955.686 211.925 955.01C211.925 954.125 211.576 953.275 210.953 952.646C210.331 952.016 209.486 951.657 208.6 951.647H208.562ZM260.246 951.647C259.57 951.639 258.907 951.833 258.341 952.204C257.776 952.575 257.334 953.106 257.072 953.729C256.81 954.352 256.739 955.039 256.869 955.703C256.999 956.366 257.324 956.976 257.802 957.454C258.28 957.932 258.89 958.257 259.553 958.387C260.216 958.517 260.904 958.446 261.527 958.184C262.15 957.922 262.681 957.48 263.052 956.914C263.422 956.349 263.616 955.686 263.609 955.01C263.609 954.118 263.255 953.263 262.624 952.632C261.993 952.001 261.138 951.647 260.246 951.647ZM311.93 951.647C311.095 951.736 310.323 952.131 309.762 952.756C309.201 953.38 308.89 954.19 308.89 955.029C308.89 955.869 309.201 956.679 309.762 957.303C310.323 957.928 311.095 958.323 311.93 958.412C312.404 958.463 312.884 958.413 313.338 958.266C313.793 958.119 314.211 957.879 314.566 957.56C314.921 957.241 315.205 956.85 315.399 956.415C315.593 955.979 315.694 955.507 315.694 955.029C315.694 954.552 315.593 954.08 315.399 953.644C315.205 953.208 314.921 952.818 314.566 952.499C314.211 952.18 313.793 951.94 313.338 951.793C312.884 951.646 312.404 951.596 311.93 951.647ZM363.652 951.647C362.976 951.639 362.313 951.833 361.748 952.204C361.183 952.575 360.741 953.106 360.479 953.729C360.216 954.352 360.146 955.039 360.276 955.703C360.406 956.366 360.731 956.976 361.209 957.454C361.687 957.932 362.296 958.257 362.96 958.387C363.623 958.517 364.31 958.446 364.934 958.184C365.557 957.922 366.088 957.48 366.458 956.914C366.829 956.349 367.023 955.686 367.016 955.01C367.016 954.118 366.661 953.263 366.031 952.632C365.4 952.001 364.544 951.647 363.652 951.647ZM27.6094 914.034C26.946 914.042 26.2996 914.245 25.7516 914.619C25.2037 914.994 24.7786 915.521 24.53 916.137C24.2814 916.752 24.2202 917.427 24.3543 918.077C24.4884 918.726 24.8117 919.322 25.2836 919.789C25.7554 920.255 26.3548 920.572 27.0061 920.698C27.6574 920.825 28.3316 920.756 28.9438 920.5C29.5561 920.245 30.0791 919.814 30.447 919.261C30.8149 918.709 31.0112 918.061 31.0112 917.397C31.0112 916.952 30.923 916.512 30.7515 916.101C30.5801 915.691 30.3289 915.318 30.0126 915.005C29.6961 914.692 29.3208 914.446 28.9083 914.279C28.4958 914.112 28.0543 914.029 27.6094 914.034ZM79.3321 914.034C78.667 914.034 78.0167 914.231 77.4637 914.601C76.9106 914.97 76.4796 915.496 76.225 916.11C75.9705 916.725 75.9039 917.401 76.0336 918.053C76.1634 918.706 76.4837 919.305 76.954 919.775C77.4244 920.246 78.0237 920.566 78.676 920.696C79.3284 920.825 80.0046 920.759 80.6192 920.504C81.2337 920.25 81.7589 919.819 82.1285 919.266C82.498 918.713 82.6953 918.062 82.6953 917.397C82.6953 916.505 82.341 915.65 81.7103 915.019C81.0795 914.388 80.2241 914.034 79.3321 914.034ZM131.016 914.034C130.351 914.034 129.701 914.231 129.148 914.601C128.595 914.97 128.164 915.496 127.909 916.11C127.655 916.725 127.588 917.401 127.718 918.053C127.847 918.706 128.168 919.305 128.638 919.775C129.108 920.246 129.708 920.566 130.36 920.696C131.012 920.825 131.689 920.759 132.303 920.504C132.918 920.25 133.443 919.819 133.813 919.266C134.182 918.713 134.379 918.062 134.379 917.397C134.379 916.505 134.025 915.65 133.394 915.019C132.764 914.388 131.908 914.034 131.016 914.034ZM182.7 914.034C182.037 914.042 181.39 914.245 180.842 914.619C180.295 914.994 179.869 915.521 179.621 916.137C179.372 916.752 179.311 917.427 179.445 918.077C179.579 918.726 179.903 919.322 180.374 919.789C180.846 920.255 181.446 920.572 182.097 920.698C182.748 920.825 183.422 920.756 184.035 920.5C184.647 920.245 185.17 919.814 185.538 919.261C185.906 918.709 186.102 918.061 186.102 917.397C186.102 916.952 186.014 916.512 185.842 916.101C185.671 915.691 185.42 915.318 185.103 915.005C184.787 914.692 184.412 914.446 183.999 914.279C183.587 914.112 183.145 914.029 182.7 914.034ZM234.423 914.034C233.758 914.034 233.108 914.231 232.555 914.601C232.001 914.97 231.57 915.496 231.316 916.11C231.061 916.725 230.995 917.401 231.125 918.053C231.254 918.706 231.575 919.305 232.045 919.775C232.515 920.246 233.115 920.566 233.767 920.696C234.419 920.825 235.095 920.759 235.71 920.504C236.325 920.25 236.85 919.819 237.219 919.266C237.589 918.713 237.786 918.062 237.786 917.397C237.786 916.505 237.432 915.65 236.801 915.019C236.17 914.388 235.315 914.034 234.423 914.034ZM286.107 914.034C285.442 914.034 284.792 914.231 284.239 914.601C283.686 914.97 283.255 915.496 283 916.11C282.745 916.725 282.679 917.401 282.809 918.053C282.938 918.706 283.259 919.305 283.729 919.775C284.199 920.246 284.799 920.566 285.451 920.696C286.103 920.825 286.78 920.759 287.394 920.504C288.009 920.25 288.534 919.819 288.903 919.266C289.273 918.713 289.47 918.062 289.47 917.397C289.47 916.505 289.116 915.65 288.485 915.019C287.854 914.388 286.999 914.034 286.107 914.034ZM337.791 914.034C337.126 914.034 336.476 914.231 335.923 914.601C335.37 914.97 334.939 915.496 334.684 916.11C334.429 916.725 334.363 917.401 334.493 918.053C334.622 918.706 334.943 919.305 335.413 919.775C335.883 920.246 336.483 920.566 337.135 920.696C337.787 920.825 338.464 920.759 339.078 920.504C339.693 920.25 340.218 919.819 340.587 919.266C340.957 918.713 341.154 918.062 341.154 917.397C341.154 916.505 340.8 915.65 340.169 915.019C339.539 914.388 338.683 914.034 337.791 914.034Z" fill="white"/>
<path d="M216.641 438.324L94.331 961.466H-64.1616C-20.4022 755.155 70.7891 545.287 200.212 447.331C205.294 443.659 210.813 440.634 216.641 438.324Z" fill="#263238"/>
<path d="M319.313 447.138C319.313 447.138 324.029 514.478 311.775 515.87C274.085 520.16 231.021 469.056 228.547 460.9C227.929 458.812 229.9 406.394 231.524 365.649C232.568 339.44 233.495 318.063 233.495 318.063L331.104 371.371L320.125 442.074L319.313 447.138Z" fill="#DD6A57"/>
<path d="M331.104 371.371L320.125 442.074C300.827 436.287 282.964 426.501 267.699 413.354C252.434 400.207 240.108 383.992 231.524 365.765C232.567 339.556 233.495 318.179 233.495 318.179L245.788 324.364L331.104 371.371Z" fill="#263238"/>
<path d="M420.826 262.397C435.013 387.181 361.874 409.757 334.969 412.811C310.538 415.555 227.001 421.818 200.019 299.16C173.036 176.502 226.537 130.462 282.087 121.339C337.637 112.216 406.639 137.69 420.826 262.397Z" fill="#DD6A57"/>
<path d="M395.66 245.929C392.684 245.698 390.017 245.002 387.117 244.499C384.026 244.425 381.047 243.323 378.652 241.368C378.019 240.611 377.653 239.667 377.611 238.682C377.569 237.697 377.853 236.725 378.42 235.917C379.787 234.5 381.505 233.471 383.4 232.934C385.294 232.398 387.298 232.373 389.205 232.863C393.238 233.278 396.973 235.18 399.681 238.198C400.262 238.918 400.62 239.791 400.713 240.711C400.805 241.631 400.627 242.559 400.2 243.379C399.774 244.2 399.117 244.878 398.31 245.331C397.504 245.784 396.583 245.992 395.66 245.929Z" fill="#263238"/>
<path d="M309.108 252.462C311.94 251.891 314.741 251.168 317.496 250.298C320.57 249.954 323.441 248.593 325.653 246.432C326.219 245.624 326.503 244.653 326.461 243.667C326.419 242.682 326.054 241.738 325.421 240.981C323.927 239.687 322.119 238.809 320.178 238.436C318.237 238.062 316.232 238.207 314.365 238.855C310.394 239.62 306.851 241.839 304.43 245.079C303.904 245.846 303.615 246.751 303.598 247.681C303.581 248.612 303.837 249.527 304.335 250.313C304.833 251.099 305.551 251.721 306.399 252.103C307.247 252.486 308.189 252.61 309.108 252.462Z" fill="#263238"/>
<path d="M327.045 283.388C327.045 283.079 326.388 283.852 326.426 284.2C327.277 292.704 326.774 302.6 319.275 305.925C319.043 305.925 319.275 306.466 319.275 306.427C328.707 304.456 329.171 291.313 327.045 283.388Z" fill="#263238"/>
<path d="M318.811 274.999C305.01 274.999 305.783 302.446 318.579 302.561C331.374 302.677 330.369 275.115 318.811 274.999Z" fill="#263238"/>
<path d="M313.437 276.584C311.079 278.208 308.799 281.03 305.706 281.416C302.614 281.803 299.714 279.02 297.434 276.314C297.202 276.004 296.97 276.314 296.97 276.623C296.97 281.919 299.25 287.292 304.933 287.911C310.615 288.529 313.708 283.697 314.868 278.362C315.293 277.357 314.404 275.927 313.437 276.584Z" fill="#263238"/>
<path d="M380.468 278.015C380.468 277.705 381.126 278.401 381.126 278.749C381.126 287.331 382.363 297.15 390.171 299.817C390.403 299.817 390.365 300.319 390.171 300.281C380.623 299.16 378.999 286.094 380.468 278.015Z" fill="#263238"/>
<path d="M387.929 269.124C401.652 267.809 403.392 295.371 390.558 296.608C377.724 297.846 376.409 270.051 387.929 269.124Z" fill="#263238"/>
<path d="M393.766 270.399C396.047 271.752 398.366 274.265 400.956 274.265C403.546 274.265 406.059 271.172 407.798 268.196C407.992 267.886 408.224 268.196 408.262 268.466C408.688 273.724 407.296 279.29 402.271 280.605C397.245 281.919 394.075 277.512 392.49 272.332C392.22 271.404 392.877 269.858 393.766 270.399Z" fill="#263238"/>
<path d="M333.036 348.834C335.047 350.883 336.902 353.666 340.149 354.014C343.334 353.985 346.479 353.301 349.388 352.004C349.449 351.986 349.513 351.987 349.573 352.006C349.633 352.026 349.686 352.064 349.724 352.115C349.761 352.165 349.783 352.226 349.785 352.289C349.787 352.352 349.77 352.414 349.736 352.467C348.478 354.12 346.799 355.405 344.874 356.187C342.95 356.969 340.851 357.22 338.796 356.913C337.053 356.429 335.496 355.434 334.324 354.056C333.153 352.677 332.422 350.98 332.225 349.182C332.302 348.718 332.766 348.563 333.036 348.834Z" fill="#263238"/>
<path d="M367.557 316.555C367.557 316.555 369.799 329.235 370.07 335.265C370.07 335.845 368.639 336.154 366.59 336.348C366.554 336.365 366.515 336.374 366.474 336.374C366.434 336.374 366.395 336.365 366.358 336.348C361.228 337.48 355.885 337.185 350.91 335.495C345.935 333.804 341.518 330.784 338.139 326.761C338.04 326.644 337.988 326.495 337.992 326.342C337.997 326.189 338.058 326.043 338.164 325.933C338.269 325.822 338.412 325.755 338.565 325.744C338.717 325.732 338.869 325.778 338.989 325.872C346.872 330.828 356.151 333.093 365.431 332.327C365.779 330.665 360.831 310.718 361.758 310.602C366.453 310.848 371.094 311.719 375.559 313.192C371.693 286.596 363.421 260.89 359.903 234.371C359.866 234.174 359.903 233.971 360.008 233.799C360.112 233.628 360.276 233.502 360.468 233.444C360.659 233.387 360.866 233.402 361.047 233.488C361.228 233.573 361.371 233.723 361.449 233.907C371.925 260.271 377.144 290.733 381.937 318.063C382.556 321.503 369.992 317.483 367.557 316.555Z" fill="#263238"/>
<path d="M314.249 326.799C306.914 326.616 299.778 324.377 293.652 320.339C287.527 316.3 282.658 310.622 279.599 303.953C276.541 297.284 275.416 289.889 276.352 282.612C277.288 275.335 280.248 268.466 284.895 262.788C289.542 257.11 295.69 252.85 302.638 250.493C309.587 248.136 317.057 247.777 324.2 249.456C331.342 251.135 337.87 254.785 343.041 259.991C348.211 265.197 351.817 271.75 353.447 278.904C354.774 284.725 354.753 290.772 353.387 296.584C352.021 302.396 349.345 307.819 345.564 312.439C341.782 317.06 336.996 320.755 331.569 323.244C326.142 325.733 320.218 326.949 314.249 326.799ZM316.066 253.661C313.245 253.579 310.425 253.865 307.678 254.511C299.271 256.442 291.916 261.504 287.111 268.668C282.305 275.831 280.411 284.557 281.814 293.067C283.217 301.578 287.812 309.234 294.662 314.476C301.512 319.719 310.103 322.152 318.685 321.282C327.266 320.412 335.194 316.304 340.852 309.794C346.511 303.283 349.475 294.861 349.142 286.242C348.808 277.622 345.201 269.454 339.056 263.401C332.911 257.348 324.69 253.865 316.066 253.661Z" fill="#006845"/>
<path d="M403.778 318.063C388.78 317.676 375.559 301.982 373.703 281.648C372.626 271.925 374.627 262.109 379.425 253.583C381.255 249.771 384.043 246.499 387.517 244.088C390.991 241.676 395.032 240.208 399.243 239.826C403.455 239.444 407.693 240.162 411.544 241.91C415.395 243.657 418.727 246.374 421.213 249.795C427.484 257.306 431.243 266.594 431.959 276.352C433.931 297.845 422.527 316.555 406.523 318.063C405.609 318.128 404.692 318.128 403.778 318.063ZM401.614 245.079C400.957 245.04 400.299 245.04 399.642 245.079C396.32 245.54 393.157 246.792 390.419 248.729C387.682 250.666 385.449 253.233 383.909 256.212C379.706 263.793 377.951 272.489 378.883 281.107C380.623 299.74 392.684 313.965 405.943 312.728C419.202 311.491 428.403 295.333 426.663 276.7C426.033 268.059 422.722 259.829 417.192 253.158C415.312 250.79 412.952 248.845 410.267 247.453C407.582 246.061 404.633 245.252 401.614 245.079Z" fill="#006845"/>
<path d="M352.558 283.542L348.693 279.677C354.182 274.187 367.248 266.224 377.724 275.54L374.245 279.406C364.967 271.25 353.061 283.04 352.558 283.542Z" fill="#006845"/>
<path d="M179.53 309.636L174.698 307.664C175.626 305.422 183.976 285.475 195.457 282.499C206.204 279.754 276.636 279.831 279.767 279.831V285.089C259.55 285.089 205.121 285.437 196.81 287.563C189.272 289.534 181.772 304.185 179.53 309.636Z" fill="#006845"/>
<path d="M207.054 291.661C236.124 291.429 235.157 245.659 235.157 245.659C235.157 245.659 268.054 242.103 269.601 188.911C269.601 188.911 285.952 220.725 330.756 226.563C340.227 227.8 308.103 203.794 308.103 203.794C308.103 203.794 346.76 237.541 416.922 223.354C421.87 222.349 410.041 148.167 354.336 123.736C298.632 99.3045 249.035 114.497 215.404 149.906C215.404 149.906 175.201 169.235 171.297 207.891C167.392 246.548 195.766 291.738 207.054 291.661Z" fill="#263238"/>
<path d="M220.932 306.505C220.932 306.505 192.48 268.041 174.969 278.285C157.457 288.529 179.569 344.775 200.637 352.004C203.277 353.117 206.116 353.683 208.981 353.67C211.846 353.656 214.679 353.063 217.309 351.925C219.938 350.787 222.31 349.129 224.282 347.049C226.253 344.97 227.783 342.513 228.779 339.827L220.932 306.505Z" fill="#DD6A57"/>
<path d="M181.541 294.25C181.231 294.25 181.154 294.714 181.541 294.83C196.346 300.358 204.387 313.733 210.185 327.65C205.662 322.354 199.671 319.532 192.558 324.905C192.171 325.176 192.558 325.794 192.983 325.678C195.529 324.799 198.285 324.728 200.873 325.475C203.461 326.223 205.755 327.752 207.441 329.853C210.265 333.444 212.689 337.333 214.67 341.45C215.365 342.726 217.723 341.991 217.182 340.484V340.136C216.989 321.31 201.797 295.603 181.541 294.25Z" fill="#263238"/>
<path d="M212.466 346.128C212.474 347.003 212.221 347.86 211.739 348.59C211.258 349.321 210.57 349.892 209.764 350.23C208.957 350.569 208.067 350.659 207.209 350.49C206.351 350.321 205.562 349.901 204.943 349.282C204.325 348.664 203.904 347.875 203.735 347.016C203.566 346.158 203.657 345.269 203.995 344.462C204.334 343.655 204.904 342.967 205.635 342.486C206.366 342.005 207.223 341.752 208.098 341.759C209.253 341.77 210.358 342.233 211.175 343.05C211.992 343.867 212.456 344.972 212.466 346.128Z" fill="white"/>
<path d="M199.98 338.706C199.98 339.256 199.817 339.794 199.511 340.252C199.205 340.71 198.77 341.066 198.262 341.277C197.753 341.488 197.194 341.543 196.654 341.435C196.114 341.328 195.618 341.063 195.229 340.674C194.839 340.284 194.574 339.788 194.467 339.249C194.359 338.709 194.415 338.149 194.625 337.64C194.836 337.132 195.193 336.697 195.65 336.391C196.108 336.085 196.646 335.922 197.197 335.922C197.935 335.922 198.643 336.216 199.165 336.737C199.687 337.259 199.98 337.967 199.98 338.706Z" fill="white"/>
<path d="M177.095 303.141L168.552 305.229C168.328 305.287 168.096 305.299 167.867 305.266C167.639 305.233 167.42 305.155 167.222 305.036C167.024 304.918 166.852 304.761 166.715 304.575C166.578 304.389 166.48 304.177 166.426 303.953C166.32 303.502 166.394 303.028 166.632 302.631C166.87 302.234 167.254 301.946 167.701 301.827L176.245 299.701C176.701 299.596 177.18 299.676 177.578 299.922C177.976 300.168 178.26 300.561 178.371 301.015C178.477 301.466 178.403 301.94 178.165 302.337C177.926 302.734 177.543 303.023 177.095 303.141Z" fill="#006845"/>
<path d="M175.936 297.614L167.16 298.464C166.932 298.485 166.701 298.461 166.482 298.393C166.263 298.324 166.059 298.213 165.883 298.066C165.707 297.919 165.562 297.738 165.456 297.534C165.35 297.331 165.286 297.108 165.266 296.879C165.24 296.653 165.259 296.423 165.323 296.204C165.386 295.985 165.494 295.781 165.638 295.604C165.782 295.427 165.96 295.282 166.162 295.175C166.364 295.069 166.585 295.004 166.813 294.985L175.588 294.096C175.816 294.075 176.047 294.099 176.266 294.167C176.485 294.235 176.689 294.346 176.865 294.494C177.041 294.641 177.186 294.822 177.292 295.026C177.398 295.229 177.462 295.452 177.482 295.681C177.526 296.141 177.389 296.6 177.1 296.96C176.812 297.321 176.394 297.555 175.936 297.614Z" fill="#006845"/>
<path d="M325.112 467.858C325.653 475.241 326.001 482.586 325.808 489.969C325.801 497.283 325.129 504.581 323.798 511.772C322.29 518.769 320.203 526.075 315.216 530.714C310.229 535.352 302.614 534.579 295.887 532.337C282.203 527.93 269.91 519.349 258.236 510.574C252.411 506.141 246.793 501.399 241.381 496.348C235.859 491.423 230.692 486.114 225.919 480.46C234.526 492.591 244.763 503.478 256.342 512.816C262.044 517.625 268.076 522.03 274.394 525.998C280.723 530.111 287.524 533.447 294.65 535.932C298.395 537.145 302.311 537.746 306.247 537.71C308.294 537.65 310.318 537.259 312.239 536.551C314.151 535.762 315.906 534.636 317.419 533.226C320.234 530.426 322.387 527.031 323.72 523.292C325.062 519.736 325.995 516.04 326.504 512.274C328.384 497.488 327.914 482.497 325.112 467.858Z" fill="#263238"/>
<path d="M108.943 504.543C-48.3124 622.949 -246.737 933.053 -216.624 1009.98C-189.139 1080.22 52.3498 1150.81 194.529 1170.21C221.589 1174.08 240.57 943.065 211.77 938.001C160.318 928.994 43.652 878.895 40.2116 878.045C32.8281 876.228 155.254 612.202 195.766 529.554C252.205 414.396 177.675 452.704 108.943 504.543Z" fill="#DD6A57"/>
<path d="M124.213 708.96C124.213 708.96 -32.3084 623.413 -35.5942 621.982C-35.5942 621.982 32.403 549.346 109.987 492.482C166.117 451.313 206.938 432.062 221.203 438.981C232.8 444.548 223.29 470.95 218.922 487.65C197.699 568.752 124.213 708.96 124.213 708.96Z" fill="#006845"/>
<path d="M108.557 518.421C108.564 519.095 108.371 519.757 108.002 520.321C107.633 520.886 107.105 521.328 106.484 521.591C105.863 521.854 105.178 521.927 104.515 521.8C103.853 521.674 103.243 521.353 102.763 520.879C102.284 520.404 101.956 519.798 101.822 519.137C101.687 518.477 101.752 517.791 102.008 517.167C102.265 516.543 102.701 516.009 103.261 515.634C103.821 515.258 104.48 515.058 105.155 515.058C105.6 515.053 106.041 515.136 106.454 515.302C106.866 515.469 107.242 515.716 107.558 516.029C107.874 516.342 108.126 516.714 108.297 517.125C108.468 517.535 108.557 517.976 108.557 518.421ZM156.878 515.058C156.212 515.058 155.562 515.255 155.009 515.624C154.456 515.994 154.025 516.519 153.77 517.134C153.516 517.748 153.449 518.425 153.579 519.077C153.709 519.729 154.029 520.329 154.499 520.799C154.97 521.269 155.569 521.59 156.221 521.719C156.874 521.849 157.55 521.782 158.165 521.528C158.779 521.273 159.304 520.842 159.674 520.289C160.043 519.736 160.241 519.086 160.241 518.421C160.231 517.532 159.873 516.682 159.245 516.054C158.616 515.425 157.766 515.068 156.878 515.058ZM208.562 515.058C207.67 515.058 206.814 515.412 206.184 516.043C205.553 516.673 205.198 517.529 205.198 518.421C205.196 519.264 205.515 520.076 206.089 520.693C206.663 521.31 207.45 521.686 208.291 521.745C209.026 519.696 209.721 517.648 210.417 515.638C209.887 515.26 209.251 515.057 208.6 515.058H208.562ZM131.248 477.483L127.614 479.919C127.574 480.214 127.574 480.513 127.614 480.808C127.606 481.463 127.786 482.106 128.134 482.661C128.482 483.216 128.983 483.658 129.576 483.935C130.17 484.213 130.831 484.313 131.479 484.223C132.128 484.134 132.737 483.859 133.234 483.432C133.731 483.005 134.093 482.444 134.279 481.816C134.464 481.188 134.464 480.519 134.279 479.891C134.094 479.263 133.731 478.702 133.235 478.275C132.738 477.847 132.129 477.573 131.48 477.483H131.248ZM182.507 477.483C181.844 477.491 181.197 477.695 180.649 478.069C180.101 478.443 179.676 478.971 179.428 479.586C179.179 480.201 179.118 480.876 179.252 481.526C179.386 482.176 179.709 482.771 180.181 483.238C180.653 483.704 181.252 484.021 181.904 484.148C182.555 484.274 183.229 484.205 183.841 483.95C184.454 483.694 184.977 483.263 185.345 482.711C185.712 482.159 185.909 481.51 185.909 480.846C185.92 479.974 185.591 479.131 184.993 478.497C184.394 477.862 183.572 477.485 182.7 477.445L182.507 477.483ZM1.5934 587.848C0.918999 587.841 0.257551 588.034 -0.306932 588.403C-0.871418 588.772 -1.31345 589.3 -1.57686 589.921C-1.84027 590.542 -1.91318 591.227 -1.78632 591.89C-1.65946 592.552 -1.33855 593.162 -0.864376 593.642C-0.390202 594.121 0.215841 594.449 0.876759 594.583C1.53768 594.718 2.22364 594.653 2.84749 594.396C3.47135 594.14 4.00491 593.704 4.38044 593.144C4.75597 592.584 4.95651 591.924 4.95655 591.25C4.97805 590.377 4.65935 589.531 4.06782 588.888C3.47628 588.246 2.65827 587.86 1.7867 587.81L1.5934 587.848ZM53.2775 587.848C52.6031 587.841 51.9416 588.034 51.3772 588.403C50.8127 588.772 50.3706 589.3 50.1072 589.921C49.8438 590.542 49.7709 591.227 49.8978 591.89C50.0246 592.552 50.3455 593.162 50.8197 593.642C51.2939 594.121 51.8999 594.449 52.5608 594.583C53.2218 594.718 53.9077 594.653 54.5315 594.396C55.1554 594.14 55.689 593.704 56.0645 593.144C56.4401 592.584 56.6406 591.924 56.6406 591.25C56.6621 590.377 56.3434 589.531 55.7519 588.888C55.1603 588.246 54.3423 587.86 53.4708 587.81L53.2775 587.848ZM104.962 587.848C104.289 587.848 103.631 588.048 103.072 588.422C102.512 588.795 102.076 589.327 101.819 589.948C101.561 590.57 101.494 591.254 101.625 591.914C101.756 592.574 102.08 593.18 102.556 593.655C103.032 594.131 103.638 594.455 104.298 594.586C104.958 594.718 105.642 594.65 106.263 594.393C106.885 594.135 107.416 593.699 107.79 593.14C108.164 592.581 108.363 591.923 108.363 591.25C108.385 590.371 108.06 589.519 107.461 588.876C106.861 588.232 106.033 587.85 105.155 587.81L104.962 587.848ZM156.684 587.848C156.21 587.798 155.73 587.847 155.276 587.994C154.821 588.141 154.403 588.382 154.048 588.701C153.693 589.02 153.409 589.41 153.215 589.846C153.021 590.282 152.92 590.754 152.92 591.231C152.92 591.708 153.021 592.18 153.215 592.616C153.409 593.052 153.693 593.442 154.048 593.761C154.403 594.08 154.821 594.321 155.276 594.468C155.73 594.614 156.21 594.664 156.684 594.613C157.519 594.524 158.291 594.129 158.852 593.505C159.414 592.88 159.724 592.07 159.724 591.231C159.724 590.391 159.414 589.581 158.852 588.957C158.291 588.332 157.519 587.938 156.684 587.848ZM79.1389 550.235C78.4737 550.235 77.8235 550.433 77.2704 550.802C76.7173 551.172 76.2863 551.697 76.0317 552.311C75.7772 552.926 75.7106 553.602 75.8403 554.255C75.9701 554.907 76.2904 555.506 76.7607 555.977C77.2311 556.447 77.8304 556.767 78.4827 556.897C79.1351 557.027 79.8113 556.96 80.4259 556.706C81.0404 556.451 81.5656 556.02 81.9352 555.467C82.3047 554.914 82.502 554.264 82.502 553.598C82.5134 552.732 82.1901 551.895 81.5996 551.261C81.0091 550.628 80.1969 550.246 79.3321 550.197L79.1389 550.235ZM130.823 550.235C130.158 550.235 129.508 550.433 128.954 550.802C128.401 551.172 127.97 551.697 127.716 552.311C127.461 552.926 127.395 553.602 127.524 554.255C127.654 554.907 127.974 555.506 128.445 555.977C128.915 556.447 129.514 556.767 130.167 556.897C130.819 557.027 131.495 556.96 132.11 556.706C132.724 556.451 133.25 556.02 133.619 555.467C133.989 554.914 134.186 554.264 134.186 553.598C134.197 552.732 133.874 551.895 133.284 551.261C132.693 550.628 131.881 550.246 131.016 550.197L130.823 550.235ZM182.507 550.235C181.844 550.243 181.197 550.447 180.649 550.821C180.101 551.195 179.676 551.723 179.428 552.338C179.179 552.953 179.118 553.628 179.252 554.278C179.386 554.928 179.709 555.523 180.181 555.99C180.653 556.456 181.252 556.773 181.904 556.899C182.555 557.026 183.229 556.957 183.841 556.702C184.454 556.446 184.977 556.015 185.345 555.463C185.712 554.911 185.909 554.262 185.909 553.598C185.92 552.726 185.591 551.883 184.993 551.249C184.394 550.614 183.572 550.237 182.7 550.197L182.507 550.235ZM-24.0747 622.949C-24.7507 622.941 -25.4137 623.135 -25.979 623.506C-26.5443 623.877 -26.9863 624.408 -27.2485 625.031C-27.5108 625.654 -27.5814 626.341 -27.4514 627.004C-27.3214 627.668 -26.9966 628.278 -26.5185 628.756C-26.0405 629.234 -25.4308 629.559 -24.7673 629.689C-24.1039 629.819 -23.4167 629.748 -22.7936 629.486C-22.1704 629.223 -21.6395 628.781 -21.2687 628.216C-20.8979 627.651 -20.7039 626.988 -20.7115 626.312C-20.7115 625.87 -20.7985 625.433 -20.9675 625.025C-21.1365 624.617 -21.3843 624.246 -21.6966 623.934C-22.0089 623.621 -22.3796 623.374 -22.7876 623.205C-23.1957 623.036 -23.633 622.949 -24.0747 622.949ZM53.4708 660.6C52.8056 660.6 52.1554 660.798 51.6023 661.167C51.0492 661.537 50.6182 662.062 50.3636 662.676C50.1091 663.291 50.0425 663.967 50.1723 664.62C50.302 665.272 50.6223 665.871 51.0927 666.342C51.563 666.812 52.1623 667.132 52.8147 667.262C53.467 667.392 54.1433 667.325 54.7578 667.071C55.3723 666.816 55.8976 666.385 56.2671 665.832C56.6367 665.279 56.8339 664.629 56.8339 663.963C56.8339 663.072 56.4796 662.216 55.8489 661.585C55.2182 660.955 54.3627 660.6 53.4708 660.6ZM105.155 660.6C104.491 660.608 103.845 660.812 103.297 661.186C102.749 661.56 102.324 662.088 102.075 662.703C101.827 663.318 101.766 663.993 101.9 664.643C102.034 665.293 102.357 665.888 102.829 666.355C103.301 666.821 103.9 667.138 104.551 667.265C105.203 667.391 105.877 667.322 106.489 667.067C107.102 666.811 107.625 666.38 107.992 665.828C108.36 665.276 108.557 664.627 108.557 663.963C108.557 663.519 108.468 663.078 108.297 662.667C108.126 662.257 107.874 661.884 107.558 661.571C107.242 661.259 106.866 661.012 106.454 660.845C106.041 660.678 105.6 660.595 105.155 660.6ZM27.6094 622.949C26.935 622.949 26.2757 623.149 25.7155 623.525C25.1553 623.9 24.7193 624.434 24.463 625.058C24.2067 625.682 24.1417 626.367 24.2761 627.028C24.4105 627.689 24.7384 628.295 25.218 628.77C25.6976 629.244 26.3074 629.565 26.9698 629.691C27.6322 629.818 28.3174 629.745 28.9382 629.482C29.5591 629.219 30.0877 628.777 30.4568 628.212C30.8259 627.648 31.0189 626.986 31.0112 626.312C31.0112 625.867 30.923 625.426 30.7515 625.016C30.5801 624.605 30.3289 624.233 30.0125 623.92C29.6961 623.607 29.3208 623.36 28.9083 623.193C28.4958 623.027 28.0543 622.943 27.6094 622.949ZM79.3321 622.949C78.6561 622.941 77.9931 623.135 77.4278 623.506C76.8625 623.877 76.4205 624.408 76.1583 625.031C75.896 625.654 75.8254 626.341 75.9554 627.004C76.0854 627.668 76.4102 628.278 76.8883 628.756C77.3663 629.234 77.976 629.559 78.6395 629.689C79.3029 629.819 79.9901 629.748 80.6132 629.486C81.2364 629.223 81.7673 628.781 82.1381 628.216C82.5089 627.651 82.7029 626.988 82.6953 626.312C82.6953 625.42 82.341 624.564 81.7102 623.934C81.0795 623.303 80.2241 622.949 79.3321 622.949ZM131.016 622.949C130.34 622.941 129.677 623.135 129.112 623.506C128.547 623.877 128.105 624.408 127.842 625.031C127.58 625.654 127.509 626.341 127.639 627.004C127.77 627.668 128.094 628.278 128.572 628.756C129.05 629.234 129.66 629.559 130.324 629.689C130.987 629.819 131.674 629.748 132.297 629.486C132.92 629.223 133.451 628.781 133.822 628.216C134.193 627.651 134.387 626.988 134.379 626.312C134.379 625.42 134.025 624.564 133.394 623.934C132.764 623.303 131.908 622.949 131.016 622.949ZM127.653 699.102C127.645 699.827 127.876 700.533 128.31 701.113L131.016 695.739C130.575 695.739 130.137 695.826 129.729 695.995C129.321 696.164 128.95 696.412 128.638 696.724C128.326 697.037 128.078 697.407 127.909 697.815C127.74 698.223 127.653 698.661 127.653 699.102ZM208.6 442.306C207.935 442.306 207.285 442.503 206.732 442.872C206.179 443.242 205.748 443.767 205.493 444.382C205.239 444.996 205.172 445.672 205.302 446.325C205.432 446.977 205.752 447.577 206.222 448.047C206.693 448.517 207.292 448.838 207.944 448.967C208.597 449.097 209.273 449.03 209.887 448.776C210.502 448.521 211.027 448.09 211.397 447.537C211.766 446.984 211.963 446.334 211.963 445.669C211.963 444.777 211.609 443.921 210.978 443.291C210.348 442.66 209.492 442.306 208.6 442.306Z" fill="white"/>
</g>
<defs>
<clipPath id="clip0_1_652">
<rect x="0.288574" width="591.779" height="591.779" rx="295.889" fill="white"/>
</clipPath>
</defs>
</svg>
