<svg width="582" height="582" viewBox="0 0 582 582" fill="none" xmlns="http://www.w3.org/2000/svg">
<g clip-path="url(#clip0_1_419)">
<rect x="0.0913086" y="0.0912209" width="581.909" height="581.909" rx="290.954" fill="#006845" fill-opacity="0.6"/>
<path d="M223.974 457.604C150.64 574.618 65.5282 849.959 56.0582 888.846C49.6067 915.302 188.402 952.413 190.118 933.828C192.249 910.153 244.098 610.959 251.437 500.692C255.521 439.847 239.067 433.337 223.974 457.604Z" fill="#EB9481"/>
<path d="M255.935 528.037C253.627 628.242 201.897 911.692 201.897 911.692L96.8976 885.59L43.9246 872.391C43.9246 872.391 154.428 582.371 203.732 484.534C207.579 477.017 211.13 470.507 214.504 465.002C246.998 411.851 257.711 450.679 255.935 528.037Z" fill="#EBEBEB"/>
<path d="M255.935 528.037C253.627 628.242 201.897 911.692 201.897 911.692L96.8977 885.59L214.741 465.002C246.998 411.851 257.711 450.679 255.935 528.037Z" fill="#263238"/>
<path d="M152.712 693.763L124.538 887.188C124.538 887.188 439.832 891.864 518.078 886.36C518.078 886.36 454.214 524.723 370.108 433.337C328.026 387.644 278.604 391.077 247.116 423.038C239.126 431.087 144.07 556.802 134.008 604.804C125.308 646.945 152.712 693.763 152.712 693.763Z" fill="#006845"/>
<path d="M357.797 417.178C359.04 414.456 303.167 509.57 273.81 505.96C251.2 503.119 243.683 426.234 248.892 421.203C282.629 389.005 319.384 392.319 357.797 417.178Z" fill="#EB9481"/>
<path d="M332.761 177.823C319.503 167.051 315.3 125.797 332.761 105.732C356.791 78.0916 413.966 103.542 405.384 143.849C396.802 184.156 343 186.109 332.761 177.823Z" fill="#263238"/>
<path d="M385.734 101.885C375.251 96.0181 363.476 92.8454 351.464 92.6518C345.838 92.6498 340.338 94.3184 335.661 97.446C331.13 100.724 327.621 105.218 325.54 110.408C323.303 115.787 321.791 121.44 321.042 127.217C320.126 133.089 319.868 139.045 320.272 144.974C321.047 156.982 325.397 168.484 332.761 178.001C323.342 169.575 317.27 158.041 315.656 145.506C314.827 139.22 314.827 132.853 315.656 126.566C316.338 120.228 317.891 114.014 320.272 108.1C322.844 101.924 327.19 96.6511 332.761 92.9477C338.424 89.4289 345.048 87.773 351.701 88.2127C364.185 89.146 376.074 93.9221 385.734 101.885Z" fill="#263238"/>
<path d="M328.026 417.178C325.717 423.097 290.678 458.61 262.919 453.342C253.864 451.626 261.203 401.671 261.203 401.671L260.907 397.883L256.764 344.614L323.054 314.429L332.583 310.522C332.583 310.522 332.583 325.201 332.583 343.431V346.035C332.583 347.041 332.583 348.047 332.583 348.994C332.583 351.717 332.583 354.499 332.583 357.28C332.583 360.062 332.583 361.483 332.583 363.673V370.302C332.146 386.014 330.623 401.677 328.026 417.178Z" fill="#EB9481"/>
<path d="M332.702 343.371C325.395 357.119 315.183 369.111 302.774 378.515C290.366 387.918 276.059 394.507 260.848 397.824L256.705 344.555L322.995 314.369L332.524 310.463C332.524 310.463 332.702 325.141 332.702 343.371Z" fill="#263238"/>
<path d="M190.059 265.184C181.359 358.642 236.344 374.445 256.468 376.28C274.816 377.996 337.318 381.37 355.607 289.333C373.896 197.296 333.234 163.677 291.625 157.64C250.016 151.603 198.76 171.727 190.059 265.184Z" fill="#EB9481"/>
<path d="M216.93 246.658C219.081 246.378 221.215 245.983 223.323 245.474C225.624 245.377 227.829 244.524 229.597 243.048C230.043 242.461 230.285 241.743 230.285 241.006C230.285 240.268 230.043 239.551 229.597 238.964C228.557 237.92 227.257 237.172 225.832 236.797C224.406 236.423 222.907 236.435 221.488 236.833C218.476 237.196 215.71 238.674 213.734 240.976C213.315 241.528 213.066 242.19 213.018 242.881C212.97 243.573 213.126 244.263 213.466 244.867C213.805 245.471 214.314 245.963 214.93 246.281C215.546 246.599 216.241 246.73 216.93 246.658Z" fill="#263238"/>
<path d="M279.433 248.257C277.315 247.882 275.22 247.388 273.159 246.777C270.947 246.521 268.873 245.568 267.24 244.054C266.794 243.467 266.552 242.75 266.552 242.012C266.552 241.275 266.794 240.557 267.24 239.97C268.34 238.987 269.679 238.311 271.124 238.01C272.568 237.709 274.066 237.793 275.467 238.254C278.447 238.722 281.135 240.31 282.984 242.693C283.4 243.27 283.633 243.958 283.653 244.669C283.673 245.38 283.479 246.08 283.096 246.68C282.714 247.279 282.16 247.75 281.507 248.031C280.854 248.312 280.131 248.391 279.433 248.257Z" fill="#263238"/>
<path d="M266.411 271.695C266.411 271.695 266.885 271.695 266.885 272.227C266.352 278.62 266.885 286.018 272.804 288.386C272.804 288.386 272.804 288.8 272.804 288.741C265.76 287.439 264.932 277.614 266.411 271.695Z" fill="#263238"/>
<path d="M272.389 265.243C282.688 265.243 282.57 285.604 273.04 285.9C263.511 286.196 263.748 265.539 272.389 265.243Z" fill="#263238"/>
<path d="M276.473 266.368C278.249 267.552 280.025 269.623 282.392 269.86C284.76 270.097 286.831 267.966 288.311 265.954H288.666C288.666 269.86 287.127 273.944 282.747 274.477C278.367 275.009 276.118 271.458 275.171 267.493C275.112 267.019 275.704 265.894 276.473 266.368Z" fill="#263238"/>
<path d="M228.768 270.333C228.768 270.333 228.294 270.629 228.294 270.925C228.294 277.317 227.643 284.657 221.843 286.788V287.143C228.946 286.136 230.248 276.37 228.768 270.333Z" fill="#263238"/>
<path d="M223.086 263.645C212.787 262.876 211.959 283.532 221.488 284.243C231.017 284.953 231.668 264.296 223.086 263.645Z" fill="#263238"/>
<path d="M218.706 264.829C217.049 265.894 215.332 267.788 213.379 267.848C211.426 267.907 209.532 265.658 208.171 263.408H207.875C207.875 267.374 208.763 271.517 212.491 272.405C216.22 273.293 218.41 269.919 219.712 266.072C219.89 265.598 219.357 264.415 218.706 264.829Z" fill="#263238"/>
<path d="M262.919 322.537C261.44 324.135 259.96 326.207 257.652 326.503C255.272 326.55 252.911 326.085 250.727 325.141C250.727 325.141 250.312 325.141 250.727 325.497C251.683 326.719 252.954 327.657 254.404 328.21C255.853 328.763 257.427 328.909 258.954 328.634C260.256 328.245 261.41 327.471 262.266 326.415C263.121 325.359 263.638 324.069 263.748 322.715C263.771 322.605 263.75 322.49 263.689 322.396C263.628 322.301 263.532 322.235 263.422 322.212C263.312 322.188 263.198 322.209 263.103 322.27C263.009 322.331 262.943 322.427 262.919 322.537Z" fill="#263238"/>
<path d="M236.64 298.921C235.87 303.567 235.337 308.249 235.042 312.949C235.042 313.363 236.107 313.6 237.646 313.718C241.497 314.505 245.491 314.214 249.188 312.877C252.885 311.54 256.141 309.21 258.598 306.142C258.894 305.728 258.598 305.254 257.888 305.491C252.089 309.34 245.182 311.17 238.238 310.699C238.238 309.457 241.375 294.541 240.665 294.423C237.175 294.694 233.734 295.41 230.425 296.554C232.97 276.667 238.652 257.312 240.901 237.366C240.911 237.228 240.872 237.092 240.792 236.98C240.712 236.868 240.595 236.788 240.462 236.753C240.328 236.717 240.187 236.73 240.062 236.788C239.937 236.846 239.836 236.946 239.777 237.07C232.988 257.619 228.269 278.795 225.69 300.282C225.453 303.123 234.805 299.691 236.64 298.921Z" fill="#263238"/>
<path d="M354.897 289.806C344.184 288.918 316.899 258.733 317.195 206.943C317.195 206.943 320.154 253.583 323.468 260.212C326.783 266.841 308.257 243.225 307.902 201.38C294.54 210.531 279.928 217.707 264.517 222.687C244.63 227.777 232.556 227.304 231.195 225.824C229.833 224.345 259.072 215.881 267.122 207.003C267.122 207.003 213.853 230.263 189.763 231.506C186.982 231.506 184.91 173.976 222.908 150.419C260.907 126.862 319.621 154.562 335.365 170.306C335.365 170.306 354.009 173.443 373.719 201.557C393.428 229.671 366.38 290.753 354.897 289.806Z" fill="#263238"/>
<path d="M327.967 169.359C320.94 164.836 313.669 160.707 306.185 156.989C298.875 153.19 291.299 149.927 283.517 147.223C275.865 144.389 267.926 142.404 259.841 141.304C257.888 140.954 255.907 140.776 253.923 140.771C251.91 140.771 249.898 140.771 248.004 140.771C244.003 140.955 240.035 141.57 236.166 142.606C232.356 143.581 228.665 144.97 225.157 146.749C221.69 148.765 218.368 151.019 215.214 153.497C212.056 155.974 209.124 158.727 206.454 161.724C203.869 164.815 201.496 168.078 199.352 171.49C195.092 178.473 191.9 186.054 189.881 193.981C187.682 202.008 186.508 210.281 186.389 218.603C184.296 201.617 187.435 184.396 195.386 169.241C199.317 161.551 204.775 154.744 211.426 149.235C214.76 146.426 218.347 143.929 222.139 141.778C226.044 139.694 230.174 138.066 234.45 136.924C242.948 134.801 251.79 134.438 260.433 135.859C268.905 137.125 277.18 139.473 285.055 142.843C300.662 149.375 315.143 158.323 327.967 169.359Z" fill="#263238"/>
<path d="M340.1 295.133C340.1 295.133 360.757 265.954 374.015 273.352C387.273 280.751 371.588 323.129 355.962 328.811C354.006 329.689 351.893 330.161 349.749 330.2C347.606 330.238 345.476 329.841 343.49 329.034C341.504 328.226 339.703 327.024 338.194 325.501C336.686 323.977 335.502 322.164 334.714 320.17L340.1 295.133Z" fill="#EB9481"/>
<path d="M369.221 285.367C369.221 285.367 369.221 285.722 369.221 285.781C358.212 290.161 352.411 300.282 348.268 310.759C348.911 309.665 349.784 308.724 350.826 308C351.868 307.277 353.055 306.789 354.305 306.569C355.554 306.35 356.836 306.404 358.063 306.729C359.289 307.054 360.431 307.641 361.408 308.45C361.704 308.45 361.408 309.101 361.112 309.042C359.194 308.414 357.128 308.395 355.199 308.989C353.27 309.582 351.573 310.759 350.34 312.357C348.32 315.078 346.576 317.992 345.131 321.057C344.658 322.004 342.882 321.472 343.237 320.347C343.296 306.142 354.542 286.669 369.221 285.367Z" fill="#263238"/>
<path d="M338.028 406.229C338.028 406.229 301.273 1414.55 320.805 1462.43C340.337 1510.32 611.831 1547.01 611.831 1547.01C611.831 1547.01 547.317 836.109 469.307 616.819C396.98 413.982 338.028 406.229 338.028 406.229Z" fill="#EBEBEB"/>
<path d="M138.566 1471.79C122.289 1510.2 25.3397 1536.24 25.3397 1536.24L147.385 694.769C131.883 669.477 125.824 639.518 130.28 610.19C138.507 562.839 239.185 424.103 251.555 418.481C236.258 489.453 225.386 561.307 219.002 633.628C191.776 929.33 156.263 1430 138.566 1471.79Z" fill="#EBEBEB"/>
<path d="M253.035 417.237C246.11 429.667 239.067 442.037 231.846 454.23C224.625 466.422 217.463 478.734 210.065 490.808L209.65 487.553C216.575 493.945 223.382 500.396 230.188 506.907L232.319 508.919L230.307 511.05L206.632 535.85L207.401 533.541C209.65 551.89 211.623 570.238 213.32 588.586C215.155 606.993 216.812 625.401 218.055 643.867C214.74 625.638 212.136 607.408 209.236 589.119C206.336 570.83 203.909 552.541 201.542 534.252V532.89L202.429 531.884L226.104 507.025V511.109C219.357 504.599 212.61 497.97 205.981 491.341L204.442 489.802L205.566 488.085C213.202 476.248 221.133 464.41 228.945 452.573C236.758 440.735 244.867 428.897 253.035 417.237Z" fill="#A6A6A6"/>
<path d="M136.18 580.8L126.315 891.26L364.84 898.839L374.705 588.379L136.18 580.8Z" fill="#263238"/>
<path d="M313.519 570.308L200.472 566.597L199.348 600.848L312.395 604.559L313.519 570.308Z" fill="#C7C7C7"/>
<path d="M287.778 569.587L273.869 569.113L274.342 553.31L240.546 552.245L240.014 567.989L226.104 567.574L227.052 538.75L288.903 540.822L287.778 569.587Z" fill="#C7C7C7"/>
<path d="M416.748 466.422C536.367 592.492 634.677 854.635 577.147 879.257C524.529 901.748 357.797 880.973 289.258 864.638C269.134 859.843 309.678 703.824 331.222 708.915C357.265 715.129 423.792 724.718 426.455 724.481C432.374 724.126 368.214 540.999 348.682 473.821C321.456 380.541 371.766 419.072 416.748 466.422Z" fill="#EB9481"/>
<path d="M420.299 719.45C428.526 712.466 361.112 539.934 343.355 464.943C325.599 389.952 346.551 392.852 408.462 454.23C470.372 515.608 573.004 669.969 595.199 816.992C602.183 862.921 611.535 895.711 505.293 893.936C443.538 893.234 381.924 887.853 320.982 877.837L344.184 709.862C344.184 709.862 417.932 721.522 420.299 719.45Z" fill="#EBEBEB"/>
<path d="M501.091 732.59C494.517 730.705 487.809 729.32 481.026 728.447L462.323 725.014L454.214 723.652H454.984L465.874 722.114C469.485 721.581 473.036 720.752 476.706 720.456C477.297 720.456 477.238 719.509 476.706 719.569C473.154 720.042 469.485 719.983 465.874 720.22L454.569 721.048C451.255 721.048 447.999 721.699 444.685 722.054C438.766 721.048 432.847 720.101 426.573 719.273C423.969 707.435 419.767 695.597 416.097 683.76C412.428 671.922 408.344 659.434 404.26 647.359C400.176 635.285 395.855 623.684 391.297 611.847C389.048 605.928 386.681 600.009 384.373 594.09C381.63 588.168 379.316 582.056 377.448 575.801C377.448 575.21 376.323 575.801 376.619 576.216C379.291 582.366 381.468 588.719 383.13 595.215C384.964 601.134 386.74 607.053 388.575 612.971C392.245 624.809 395.954 636.745 399.702 648.78C403.49 660.617 407.278 672.455 411.007 684.589C414.44 695.538 417.34 706.784 421.246 717.556C408.876 715.899 396.447 714.478 384.077 712.94L365.077 710.69C358.271 709.921 351.168 709.921 344.48 708.737C343.888 708.737 343.71 709.566 344.48 709.625C351.109 710.394 357.856 712.466 364.545 713.65L383.248 716.905C396.506 719.154 409.705 721.522 422.963 723.593C436.221 725.665 449.183 727.085 462.323 728.565C468.893 729.335 475.463 729.986 482.032 730.814C488.397 731.816 494.826 732.351 501.268 732.412C501.228 732.427 501.191 732.451 501.16 732.481C501.129 732.512 501.106 732.549 501.091 732.59Z" fill="#263238"/>
<path d="M385.142 524.723L387.095 526.143L386.089 528.215C377.921 545.379 369.99 562.544 361.467 579.53L357.383 587.698H353.417L357.679 577.873C364.841 561.123 372.535 544.728 379.933 528.155C371.055 522.237 362.177 515.785 353.358 509.511L350.399 507.381L353.121 505.013L381.709 480.154C374.429 468.849 367.504 457.012 360.461 445.174C353.417 433.337 345.782 420.67 338.68 408.241C347.084 420.079 355.252 431.561 363.302 443.399C371.351 455.236 379.46 467.074 386.977 478.911L388.16 480.746L386.503 482.226L359.395 506.493C368.214 512.648 376.678 518.745 385.142 524.723Z" fill="#A6A6A6"/>
</g>
<defs>
<clipPath id="clip0_1_419">
<rect x="0.0913086" y="0.0912209" width="581.909" height="581.909" rx="290.954" fill="white"/>
</clipPath>
</defs>
</svg>
