<svg width="582" height="582" viewBox="0 0 582 582" fill="none" xmlns="http://www.w3.org/2000/svg">
<g clip-path="url(#clip0_1_97)">
<rect y="0.0911865" width="581.909" height="581.909" rx="290.954" fill="#006845" fill-opacity="0.6"/>
<path d="M209.459 138.267C133.104 219.663 126.034 419.957 230.914 549.736C319.688 659.596 514.633 672.199 594.8 600.516C679.884 524.469 665.929 402.313 594.246 354.606C525.023 308.56 445.594 318.519 402.806 268.231C382.272 244.131 372.62 191.568 343.91 154.682C311.88 113.615 248.559 96.5239 209.459 138.267Z" fill="#263238"/>
<path d="M301.184 446.085C281.326 577.708 263.867 679.699 230.177 708.286C203.004 731.156 163.228 749.661 121.792 764.231C77.4258 779.22 32.1215 791.275 -13.8272 800.318C-27.967 803.208 -39.7706 805.359 -48.1315 806.958C-68.8494 810.769 -119.384 676.994 -106.597 658.428C-103.646 654.186 -90.2436 649.575 -71.2471 644.842C-7.24905 628.98 120.44 611.89 127.202 603.713C133.965 595.537 168.945 535.719 216.345 457.335C249.051 403.174 278.929 384.853 293.499 397.087C301.675 404.034 304.995 420.695 301.184 446.085Z" fill="#EB9481"/>
<path d="M301.184 446.085C281.326 577.708 263.867 679.699 230.177 708.286C203.004 731.156 163.228 749.661 121.792 764.231L293.499 397.087C301.675 404.034 304.995 420.695 301.184 446.085Z" fill="#263238"/>
<path d="M309.544 423.338C309.544 425.367 309.544 427.519 309.544 429.486C309.544 431.453 309.544 432.929 309.175 434.773C306.38 467.631 300.973 500.215 293.007 532.215H287.597H282.31L239.276 533.629H233.128L190.462 535.043H184.991L169.314 535.535L157.019 535.965C157.019 535.965 200.053 453.462 249.235 403.665C253.828 398.895 259.038 394.759 264.727 391.37C286.982 379.505 309.114 386.513 309.544 423.338Z" fill="#006845"/>
<path d="M285.076 394.259C286.842 394.259 288.273 392.828 288.273 391.063C288.273 389.297 286.842 387.866 285.076 387.866C283.311 387.866 281.879 389.297 281.879 391.063C281.879 392.828 283.311 394.259 285.076 394.259Z" fill="white"/>
<path d="M239.583 462.868C239.583 463.503 239.394 464.124 239.04 464.651C238.686 465.177 238.183 465.587 237.595 465.827C237.007 466.067 236.361 466.127 235.739 465.998C235.118 465.87 234.548 465.559 234.104 465.106C233.659 464.653 233.36 464.078 233.243 463.453C233.127 462.829 233.199 462.185 233.451 461.602C233.702 461.019 234.121 460.524 234.655 460.18C235.189 459.836 235.813 459.659 236.448 459.671C236.865 459.671 237.277 459.754 237.662 459.916C238.046 460.077 238.395 460.314 238.687 460.611C238.979 460.909 239.208 461.262 239.362 461.65C239.516 462.037 239.591 462.451 239.583 462.868Z" fill="white"/>
<path d="M285.076 465.942C286.842 465.942 288.273 464.511 288.273 462.745C288.273 460.98 286.842 459.548 285.076 459.548C283.311 459.548 281.879 460.98 281.879 462.745C281.879 464.511 283.311 465.942 285.076 465.942Z" fill="white"/>
<path d="M260.731 429.67C262.497 429.67 263.928 428.239 263.928 426.474C263.928 424.708 262.497 423.277 260.731 423.277C258.966 423.277 257.535 424.708 257.535 426.474C257.535 428.239 258.966 429.67 260.731 429.67Z" fill="white"/>
<path d="M309.544 423.338C309.544 425.367 309.544 427.519 309.544 429.486C309.068 429.622 308.568 429.645 308.081 429.555C307.595 429.464 307.136 429.262 306.741 428.964C306.346 428.666 306.026 428.281 305.805 427.838C305.584 427.395 305.469 426.907 305.469 426.412C305.469 425.917 305.584 425.429 305.805 424.986C306.026 424.543 306.346 424.158 306.741 423.86C307.136 423.562 307.595 423.36 308.081 423.269C308.568 423.179 309.068 423.202 309.544 423.338Z" fill="white"/>
<path d="M190.954 534.367C190.962 534.882 190.835 535.391 190.585 535.842H185.114C184.794 535.347 184.624 534.771 184.622 534.182C184.813 533.514 185.216 532.926 185.771 532.508C186.325 532.09 187.001 531.863 187.696 531.863C188.391 531.863 189.067 532.09 189.621 532.508C190.176 532.926 190.579 533.514 190.77 534.182L190.954 534.367Z" fill="white"/>
<path d="M239.583 534.182H233.435C233.626 533.514 234.029 532.926 234.584 532.508C235.138 532.09 235.814 531.863 236.509 531.863C237.204 531.863 237.88 532.09 238.434 532.508C238.989 532.926 239.392 533.514 239.583 534.182Z" fill="white"/>
<path d="M287.658 532.584H282.371C282.65 532.114 283.046 531.726 283.52 531.456C283.994 531.187 284.531 531.045 285.076 531.047C285.6 531.072 286.109 531.225 286.559 531.493C287.01 531.761 287.387 532.136 287.658 532.584Z" fill="white"/>
<path d="M212.103 501.353C213.868 501.353 215.299 499.922 215.299 498.156C215.299 496.391 213.868 494.96 212.103 494.96C210.337 494.96 208.906 496.391 208.906 498.156C208.906 499.922 210.337 501.353 212.103 501.353Z" fill="white"/>
<path d="M260.731 501.353C262.497 501.353 263.928 499.922 263.928 498.156C263.928 496.391 262.497 494.96 260.731 494.96C258.966 494.96 257.535 496.391 257.535 498.156C257.535 499.922 258.966 501.353 260.731 501.353Z" fill="white"/>
<path d="M309.544 423.338C309.544 425.367 309.544 427.519 309.544 429.486C309.544 431.453 309.544 432.929 309.176 434.773C306.38 467.631 300.973 500.215 293.007 532.215H287.597H282.31L239.276 533.629H233.128L190.463 535.043H184.991L169.314 535.535L264.42 391.493C286.982 379.505 309.114 386.513 309.544 423.338Z" fill="#263238"/>
<path d="M566.705 730.726C555.318 737.424 543.51 743.379 531.355 748.554L525.576 750.89C491.742 764.158 456.317 772.941 420.204 777.018C312.188 790.174 210.258 767.674 201.651 753.657L213.148 644.534L213.763 638.387L215.299 623.57C215.299 623.57 188.618 589.389 187.204 549.797C187.14 545.523 187.552 541.255 188.434 537.072C188.741 535.227 189.171 533.322 189.663 531.293C197.532 499.325 222.984 451.987 244.686 419.158C251.684 408.114 259.558 397.649 268.231 387.866C292.822 361.984 320.303 356.082 347.292 363.275C359.646 366.861 371.321 372.47 381.842 379.874C407.578 398.551 429.474 422.012 446.332 448.974C465.759 478.668 486.415 522.194 504.981 566.151C505.658 567.687 506.272 569.224 506.887 570.761C540.269 651.051 566.705 730.726 566.705 730.726Z" fill="#006845"/>
<path d="M288.273 391.063C288.273 391.91 287.936 392.724 287.337 393.323C286.737 393.923 285.924 394.259 285.076 394.259C284.444 394.259 283.826 394.072 283.3 393.721C282.775 393.369 282.365 392.87 282.123 392.286C281.881 391.702 281.818 391.059 281.941 390.439C282.064 389.819 282.369 389.249 282.816 388.802C283.263 388.355 283.833 388.05 284.453 387.927C285.073 387.804 285.716 387.867 286.3 388.109C286.884 388.351 287.383 388.761 287.734 389.287C288.086 389.812 288.273 390.43 288.273 391.063ZM333.705 387.927C333.07 387.927 332.45 388.116 331.923 388.471C331.396 388.825 330.986 389.328 330.746 389.915C330.506 390.503 330.446 391.149 330.575 391.771C330.703 392.392 331.014 392.962 331.467 393.406C331.92 393.851 332.496 394.15 333.12 394.267C333.744 394.383 334.389 394.311 334.972 394.06C335.555 393.808 336.05 393.389 336.393 392.855C336.737 392.321 336.914 391.697 336.902 391.063C336.902 390.646 336.819 390.233 336.657 389.848C336.496 389.464 336.26 389.115 335.962 388.824C335.664 388.532 335.311 388.302 334.924 388.148C334.536 387.994 334.122 387.919 333.705 387.927ZM382.395 387.927C381.758 387.915 381.131 388.094 380.596 388.44C380.061 388.787 379.642 389.285 379.393 389.872C379.143 390.459 379.075 391.106 379.196 391.732C379.317 392.358 379.623 392.933 380.074 393.384C380.525 393.835 381.1 394.14 381.726 394.262C382.351 394.383 382.999 394.315 383.586 394.065C384.172 393.816 384.671 393.396 385.018 392.861C385.364 392.326 385.543 391.7 385.53 391.063C385.53 390.231 385.2 389.434 384.612 388.846C384.024 388.258 383.227 387.927 382.395 387.927ZM236.448 459.549C236.028 459.549 235.612 459.631 235.224 459.792C234.836 459.952 234.484 460.188 234.187 460.485C233.89 460.782 233.655 461.134 233.494 461.522C233.334 461.91 233.251 462.325 233.251 462.745C233.115 463.221 233.091 463.722 233.182 464.208C233.272 464.695 233.475 465.153 233.773 465.549C234.071 465.944 234.456 466.264 234.899 466.485C235.342 466.705 235.83 466.82 236.325 466.82C236.819 466.82 237.308 466.705 237.75 466.485C238.193 466.264 238.579 465.944 238.877 465.549C239.175 465.153 239.377 464.695 239.468 464.208C239.558 463.722 239.534 463.221 239.399 462.745C239.416 461.934 239.118 461.148 238.568 460.552C238.018 459.956 237.257 459.596 236.448 459.549ZM285.076 459.549C284.656 459.549 284.241 459.631 283.853 459.792C283.465 459.952 283.113 460.188 282.816 460.485C282.519 460.782 282.284 461.134 282.123 461.522C281.962 461.91 281.88 462.325 281.88 462.745C281.88 463.593 282.216 464.406 282.816 465.006C283.415 465.605 284.228 465.942 285.076 465.942C285.919 465.926 286.723 465.585 287.319 464.988C287.916 464.392 288.257 463.588 288.273 462.745C288.274 462.315 288.187 461.889 288.019 461.493C287.85 461.097 287.604 460.739 287.294 460.44C286.984 460.142 286.617 459.909 286.215 459.756C285.812 459.602 285.383 459.532 284.953 459.549H285.076ZM333.705 459.549C333.288 459.548 332.875 459.631 332.491 459.793C332.106 459.954 331.758 460.191 331.466 460.488C331.174 460.786 330.944 461.139 330.79 461.527C330.637 461.914 330.562 462.328 330.57 462.745C330.57 463.38 330.759 464.001 331.113 464.528C331.467 465.055 331.97 465.464 332.558 465.704C333.145 465.944 333.792 466.004 334.413 465.875C335.035 465.747 335.604 465.436 336.049 464.983C336.493 464.53 336.793 463.955 336.909 463.33C337.026 462.706 336.953 462.062 336.702 461.479C336.451 460.896 336.031 460.401 335.497 460.057C334.964 459.713 334.34 459.536 333.705 459.549ZM382.395 459.549C381.975 459.549 381.56 459.631 381.172 459.792C380.784 459.952 380.432 460.188 380.135 460.485C379.838 460.782 379.602 461.134 379.442 461.522C379.281 461.91 379.198 462.325 379.198 462.745C379.062 463.221 379.039 463.722 379.129 464.208C379.22 464.695 379.422 465.153 379.72 465.549C380.018 465.944 380.404 466.264 380.846 466.485C381.289 466.705 381.777 466.82 382.272 466.82C382.767 466.82 383.255 466.705 383.698 466.485C384.141 466.264 384.526 465.944 384.824 465.549C385.122 465.153 385.325 464.695 385.415 464.208C385.506 463.722 385.482 463.221 385.346 462.745C385.363 461.934 385.066 461.148 384.515 460.552C383.965 459.956 383.205 459.596 382.395 459.549ZM431.024 459.549C430.604 459.549 430.188 459.631 429.801 459.792C429.413 459.952 429.06 460.188 428.763 460.485C428.467 460.782 428.231 461.134 428.07 461.522C427.91 461.91 427.827 462.325 427.827 462.745C427.827 463.593 428.164 464.406 428.763 465.006C429.363 465.605 430.176 465.942 431.024 465.942C431.867 465.926 432.671 465.585 433.267 464.988C433.863 464.392 434.205 463.588 434.221 462.745C434.221 462.325 434.138 461.91 433.977 461.522C433.817 461.134 433.581 460.782 433.284 460.485C432.987 460.188 432.635 459.952 432.247 459.792C431.859 459.631 431.444 459.549 431.024 459.549ZM260.731 423.338C260.096 423.338 259.476 423.527 258.949 423.882C258.422 424.236 258.012 424.739 257.772 425.326C257.532 425.914 257.473 426.56 257.601 427.182C257.73 427.803 258.04 428.373 258.493 428.817C258.947 429.262 259.522 429.561 260.146 429.678C260.77 429.794 261.415 429.722 261.998 429.471C262.581 429.219 263.076 428.8 263.419 428.266C263.763 427.732 263.94 427.108 263.928 426.474C263.928 426.057 263.845 425.644 263.684 425.259C263.522 424.875 263.286 424.526 262.988 424.235C262.69 423.943 262.338 423.713 261.95 423.559C261.562 423.405 261.148 423.33 260.731 423.338ZM309.422 423.338C308.784 423.326 308.158 423.505 307.623 423.851C307.088 424.198 306.668 424.696 306.419 425.283C306.169 425.87 306.101 426.517 306.222 427.143C306.343 427.769 306.649 428.344 307.1 428.795C307.551 429.246 308.126 429.551 308.752 429.673C309.378 429.794 310.025 429.726 310.612 429.476C311.199 429.227 311.697 428.807 312.044 428.272C312.39 427.737 312.569 427.111 312.557 426.474C312.557 425.663 312.244 424.883 311.682 424.299C311.121 423.714 310.354 423.37 309.544 423.338H309.422ZM358.05 423.338C357.574 423.202 357.073 423.179 356.587 423.269C356.101 423.36 355.642 423.562 355.247 423.86C354.852 424.158 354.531 424.544 354.311 424.986C354.09 425.429 353.975 425.917 353.975 426.412C353.975 426.907 354.09 427.395 354.311 427.838C354.531 428.281 354.852 428.666 355.247 428.964C355.642 429.262 356.101 429.464 356.587 429.555C357.073 429.646 357.574 429.622 358.05 429.486C358.526 429.622 359.027 429.646 359.513 429.555C360 429.464 360.458 429.262 360.853 428.964C361.248 428.666 361.569 428.281 361.79 427.838C362.01 427.395 362.125 426.907 362.125 426.412C362.125 425.917 362.01 425.429 361.79 424.986C361.569 424.544 361.248 424.158 360.853 423.86C360.458 423.562 360 423.36 359.513 423.269C359.027 423.179 358.526 423.202 358.05 423.338ZM406.679 423.338C406.044 423.338 405.424 423.527 404.897 423.882C404.37 424.236 403.96 424.739 403.72 425.326C403.48 425.914 403.42 426.56 403.549 427.182C403.677 427.803 403.988 428.373 404.441 428.817C404.894 429.262 405.47 429.561 406.094 429.678C406.718 429.794 407.362 429.722 407.945 429.471C408.528 429.219 409.023 428.8 409.367 428.266C409.711 427.732 409.888 427.108 409.876 426.474C409.876 426.057 409.793 425.644 409.631 425.259C409.47 424.875 409.233 424.526 408.936 424.235C408.638 423.943 408.285 423.713 407.897 423.559C407.51 423.405 407.096 423.33 406.679 423.338ZM189.479 531.723C188.987 533.752 188.557 535.658 188.249 537.502C189.004 537.397 189.695 537.021 190.193 536.444C190.691 535.867 190.961 535.129 190.954 534.367C190.957 533.836 190.823 533.314 190.565 532.851C190.306 532.387 189.932 531.999 189.479 531.723ZM236.448 531.231C235.81 531.219 235.184 531.398 234.649 531.744C234.114 532.091 233.695 532.589 233.445 533.176C233.195 533.763 233.127 534.41 233.248 535.036C233.37 535.662 233.675 536.237 234.126 536.688C234.577 537.139 235.152 537.444 235.778 537.566C236.404 537.687 237.052 537.619 237.638 537.369C238.225 537.12 238.723 536.7 239.07 536.165C239.416 535.63 239.595 535.004 239.583 534.367C239.583 533.535 239.253 532.738 238.665 532.15C238.077 531.562 237.279 531.231 236.448 531.231ZM285.076 531.231C284.601 531.095 284.1 531.072 283.613 531.162C283.127 531.253 282.668 531.455 282.273 531.753C281.878 532.051 281.558 532.436 281.337 532.879C281.116 533.322 281.001 533.81 281.001 534.305C281.001 534.8 281.116 535.288 281.337 535.731C281.558 536.174 281.878 536.559 282.273 536.857C282.668 537.155 283.127 537.357 283.613 537.448C284.1 537.538 284.601 537.515 285.076 537.379C285.552 537.515 286.053 537.538 286.539 537.448C287.026 537.357 287.485 537.155 287.88 536.857C288.275 536.559 288.595 536.174 288.816 535.731C289.036 535.288 289.151 534.8 289.151 534.305C289.151 533.81 289.036 533.322 288.816 532.879C288.595 532.436 288.275 532.051 287.88 531.753C287.485 531.455 287.026 531.253 286.539 531.162C286.053 531.072 285.552 531.095 285.076 531.231ZM333.705 531.231C333.07 531.231 332.45 531.42 331.923 531.775C331.396 532.129 330.986 532.632 330.746 533.219C330.506 533.807 330.446 534.453 330.575 535.075C330.703 535.696 331.014 536.266 331.467 536.71C331.92 537.155 332.496 537.454 333.12 537.571C333.744 537.687 334.389 537.615 334.972 537.364C335.555 537.112 336.05 536.693 336.393 536.159C336.737 535.625 336.914 535.001 336.902 534.367C336.902 533.95 336.819 533.537 336.657 533.152C336.496 532.768 336.26 532.419 335.962 532.128C335.664 531.836 335.311 531.606 334.924 531.452C334.536 531.298 334.122 531.223 333.705 531.231ZM382.395 531.231C381.758 531.219 381.131 531.398 380.596 531.744C380.061 532.091 379.642 532.589 379.393 533.176C379.143 533.763 379.075 534.41 379.196 535.036C379.317 535.662 379.623 536.237 380.074 536.688C380.525 537.139 381.1 537.444 381.726 537.566C382.351 537.687 382.999 537.619 383.586 537.369C384.172 537.12 384.671 536.7 385.018 536.165C385.364 535.63 385.543 535.004 385.53 534.367C385.53 533.535 385.2 532.738 384.612 532.15C384.024 531.562 383.227 531.231 382.395 531.231ZM431.024 531.231C430.548 531.095 430.047 531.072 429.561 531.162C429.074 531.253 428.616 531.455 428.221 531.753C427.826 532.051 427.505 532.436 427.284 532.879C427.064 533.322 426.949 533.81 426.949 534.305C426.949 534.8 427.064 535.288 427.284 535.731C427.505 536.174 427.826 536.559 428.221 536.857C428.616 537.155 429.074 537.357 429.561 537.448C430.047 537.538 430.548 537.515 431.024 537.379C431.5 537.515 432.001 537.538 432.487 537.448C432.973 537.357 433.432 537.155 433.827 536.857C434.222 536.559 434.543 536.174 434.763 535.731C434.984 535.288 435.099 534.8 435.099 534.305C435.099 533.81 434.984 533.322 434.763 532.879C434.543 532.436 434.222 532.051 433.827 531.753C433.432 531.455 432.973 531.253 432.487 531.162C432.001 531.072 431.5 531.095 431.024 531.231ZM479.653 531.231C479.018 531.231 478.397 531.42 477.87 531.775C477.343 532.129 476.934 532.632 476.694 533.219C476.454 533.807 476.394 534.453 476.522 535.075C476.651 535.696 476.962 536.266 477.415 536.71C477.868 537.155 478.443 537.454 479.067 537.571C479.692 537.687 480.336 537.615 480.919 537.364C481.502 537.112 481.997 536.693 482.341 536.159C482.685 535.625 482.862 535.001 482.849 534.367C482.849 533.95 482.766 533.537 482.605 533.152C482.444 532.768 482.207 532.419 481.909 532.128C481.612 531.836 481.259 531.606 480.871 531.452C480.484 531.298 480.07 531.223 479.653 531.231ZM212.103 494.959C211.255 494.959 210.442 495.296 209.842 495.896C209.243 496.495 208.906 497.309 208.906 498.156C208.906 499.004 209.243 499.817 209.842 500.417C210.442 501.016 211.255 501.353 212.103 501.353C212.945 501.337 213.75 500.996 214.346 500.399C214.942 499.803 215.284 498.999 215.3 498.156C215.3 497.737 215.217 497.321 215.056 496.933C214.896 496.545 214.66 496.193 214.363 495.896C214.066 495.599 213.714 495.363 213.326 495.203C212.938 495.042 212.522 494.959 212.103 494.959ZM260.731 494.959C260.314 494.959 259.901 495.042 259.517 495.204C259.133 495.365 258.784 495.602 258.492 495.899C258.2 496.197 257.971 496.55 257.817 496.938C257.663 497.325 257.588 497.739 257.596 498.156C257.596 498.791 257.785 499.412 258.139 499.939C258.493 500.466 258.996 500.875 259.584 501.115C260.172 501.355 260.818 501.415 261.439 501.287C262.061 501.158 262.631 500.847 263.075 500.394C263.52 499.941 263.819 499.366 263.936 498.741C264.052 498.117 263.98 497.473 263.728 496.89C263.477 496.307 263.057 495.812 262.524 495.468C261.99 495.124 261.366 494.947 260.731 494.959ZM309.422 494.959C308.574 494.959 307.76 495.296 307.161 495.896C306.561 496.495 306.225 497.309 306.225 498.156C306.089 498.632 306.065 499.133 306.156 499.619C306.246 500.106 306.448 500.565 306.746 500.96C307.044 501.355 307.43 501.675 307.873 501.896C308.316 502.116 308.804 502.231 309.298 502.231C309.793 502.231 310.281 502.116 310.724 501.896C311.167 501.675 311.553 501.355 311.851 500.96C312.149 500.565 312.351 500.106 312.441 499.619C312.532 499.133 312.508 498.632 312.372 498.156C312.392 497.365 312.111 496.595 311.586 496.002C311.062 495.409 310.332 495.037 309.544 494.959H309.422ZM358.05 494.959C357.202 494.959 356.389 495.296 355.79 495.896C355.19 496.495 354.853 497.309 354.853 498.156C354.853 499.004 355.19 499.817 355.79 500.417C356.389 501.016 357.202 501.353 358.05 501.353C358.893 501.337 359.697 500.996 360.293 500.399C360.889 499.803 361.231 498.999 361.247 498.156C361.247 497.737 361.164 497.321 361.004 496.933C360.843 496.545 360.607 496.193 360.311 495.896C360.014 495.599 359.661 495.363 359.273 495.203C358.886 495.042 358.47 494.959 358.05 494.959ZM406.679 494.959C406.262 494.959 405.849 495.042 405.465 495.204C405.08 495.365 404.732 495.602 404.44 495.899C404.148 496.197 403.918 496.55 403.764 496.938C403.61 497.325 403.535 497.739 403.544 498.156C403.544 498.791 403.733 499.412 404.087 499.939C404.441 500.466 404.944 500.875 405.531 501.115C406.119 501.355 406.765 501.415 407.387 501.287C408.009 501.158 408.578 500.847 409.023 500.394C409.467 499.941 409.767 499.366 409.883 498.741C409.999 498.117 409.927 497.473 409.676 496.89C409.424 496.307 409.005 495.812 408.471 495.468C407.938 495.124 407.313 494.947 406.679 494.959ZM455.369 494.959C454.521 494.959 453.708 495.296 453.108 495.896C452.509 496.495 452.172 497.309 452.172 498.156C452.036 498.632 452.013 499.133 452.103 499.619C452.194 500.106 452.396 500.565 452.694 500.96C452.992 501.355 453.378 501.675 453.82 501.896C454.263 502.116 454.751 502.231 455.246 502.231C455.741 502.231 456.229 502.116 456.672 501.896C457.115 501.675 457.5 501.355 457.798 500.96C458.096 500.565 458.298 500.106 458.389 499.619C458.479 499.133 458.456 498.632 458.32 498.156C458.337 497.345 458.039 496.559 457.489 495.963C456.939 495.367 456.179 495.007 455.369 494.959ZM236.448 602.852C235.6 602.852 234.787 603.189 234.187 603.789C233.588 604.388 233.251 605.201 233.251 606.049C233.115 606.525 233.091 607.026 233.182 607.512C233.272 607.999 233.475 608.458 233.773 608.853C234.071 609.248 234.456 609.568 234.899 609.789C235.342 610.009 235.83 610.124 236.325 610.124C236.819 610.124 237.308 610.009 237.75 609.789C238.193 609.568 238.579 609.248 238.877 608.853C239.175 608.458 239.377 607.999 239.468 607.512C239.558 607.026 239.534 606.525 239.399 606.049C239.416 605.238 239.118 604.452 238.568 603.856C238.018 603.26 237.257 602.9 236.448 602.852ZM285.076 602.852C284.228 602.852 283.415 603.189 282.816 603.789C282.216 604.388 281.88 605.201 281.88 606.049C281.88 606.897 282.216 607.71 282.816 608.31C283.415 608.909 284.228 609.246 285.076 609.246C285.919 609.23 286.723 608.889 287.319 608.292C287.916 607.696 288.257 606.892 288.273 606.049C288.274 605.619 288.187 605.193 288.019 604.797C287.85 604.401 287.604 604.043 287.294 603.744C286.984 603.446 286.617 603.213 286.215 603.06C285.812 602.906 285.383 602.836 284.953 602.852H285.076ZM333.705 602.852C333.288 602.852 332.875 602.935 332.491 603.097C332.106 603.258 331.758 603.495 331.466 603.792C331.174 604.09 330.944 604.443 330.79 604.831C330.637 605.218 330.562 605.632 330.57 606.049C330.57 606.684 330.759 607.305 331.113 607.832C331.467 608.359 331.97 608.768 332.558 609.008C333.145 609.248 333.792 609.308 334.413 609.179C335.035 609.051 335.604 608.74 336.049 608.287C336.493 607.834 336.793 607.259 336.909 606.634C337.026 606.01 336.953 605.366 336.702 604.783C336.451 604.2 336.031 603.705 335.497 603.361C334.964 603.017 334.34 602.84 333.705 602.852ZM382.395 602.852C381.547 602.852 380.734 603.189 380.135 603.789C379.535 604.388 379.198 605.201 379.198 606.049C379.062 606.525 379.039 607.026 379.129 607.512C379.22 607.999 379.422 608.458 379.72 608.853C380.018 609.248 380.404 609.568 380.846 609.789C381.289 610.009 381.777 610.124 382.272 610.124C382.767 610.124 383.255 610.009 383.698 609.789C384.141 609.568 384.526 609.248 384.824 608.853C385.122 608.458 385.325 607.999 385.415 607.512C385.506 607.026 385.482 606.525 385.346 606.049C385.363 605.238 385.066 604.452 384.515 603.856C383.965 603.26 383.205 602.9 382.395 602.852ZM431.024 602.852C430.176 602.852 429.363 603.189 428.763 603.789C428.164 604.388 427.827 605.201 427.827 606.049C427.827 606.897 428.164 607.71 428.763 608.31C429.363 608.909 430.176 609.246 431.024 609.246C431.867 609.23 432.671 608.889 433.267 608.292C433.863 607.696 434.205 606.892 434.221 606.049C434.221 605.629 434.138 605.214 433.977 604.826C433.817 604.438 433.581 604.086 433.284 603.789C432.987 603.492 432.635 603.256 432.247 603.096C431.859 602.935 431.444 602.852 431.024 602.852ZM479.653 602.852C479.236 602.852 478.823 602.935 478.438 603.097C478.054 603.258 477.705 603.495 477.413 603.792C477.122 604.09 476.892 604.443 476.738 604.831C476.584 605.218 476.509 605.632 476.517 606.049C476.517 606.684 476.707 607.305 477.061 607.832C477.415 608.359 477.918 608.768 478.505 609.008C479.093 609.248 479.739 609.308 480.361 609.179C480.982 609.051 481.552 608.74 481.996 608.287C482.441 607.834 482.74 607.259 482.857 606.634C482.973 606.01 482.901 605.366 482.65 604.783C482.398 604.2 481.979 603.705 481.445 603.361C480.911 603.017 480.287 602.84 479.653 602.852ZM212.103 566.642C211.627 566.506 211.126 566.483 210.64 566.573C210.153 566.664 209.694 566.866 209.299 567.164C208.904 567.462 208.584 567.847 208.363 568.29C208.143 568.733 208.028 569.221 208.028 569.716C208.028 570.211 208.143 570.699 208.363 571.142C208.584 571.585 208.904 571.97 209.299 572.268C209.694 572.566 210.153 572.768 210.64 572.859C211.126 572.949 211.627 572.926 212.103 572.79C212.578 572.926 213.079 572.949 213.566 572.859C214.052 572.768 214.511 572.566 214.906 572.268C215.301 571.97 215.621 571.585 215.842 571.142C216.063 570.699 216.178 570.211 216.178 569.716C216.178 569.221 216.063 568.733 215.842 568.29C215.621 567.847 215.301 567.462 214.906 567.164C214.511 566.866 214.052 566.664 213.566 566.573C213.079 566.483 212.578 566.506 212.103 566.642ZM260.731 566.642C260.096 566.642 259.476 566.832 258.949 567.186C258.422 567.54 258.012 568.043 257.772 568.63C257.532 569.218 257.473 569.864 257.601 570.486C257.73 571.107 258.04 571.677 258.493 572.121C258.947 572.566 259.522 572.865 260.146 572.982C260.77 573.098 261.415 573.026 261.998 572.775C262.581 572.523 263.076 572.104 263.419 571.57C263.763 571.036 263.94 570.412 263.928 569.778C263.928 569.361 263.845 568.948 263.684 568.563C263.522 568.179 263.286 567.83 262.988 567.538C262.69 567.247 262.338 567.017 261.95 566.863C261.562 566.709 261.148 566.634 260.731 566.642ZM309.422 566.642C308.784 566.63 308.158 566.809 307.623 567.155C307.088 567.502 306.668 568 306.419 568.587C306.169 569.174 306.101 569.821 306.222 570.447C306.343 571.073 306.649 571.648 307.1 572.099C307.551 572.55 308.126 572.855 308.752 572.977C309.378 573.098 310.025 573.03 310.612 572.78C311.199 572.531 311.697 572.111 312.044 571.576C312.39 571.041 312.569 570.415 312.557 569.778C312.557 568.967 312.244 568.188 311.682 567.603C311.121 567.018 310.354 566.674 309.544 566.642H309.422ZM358.05 566.642C357.574 566.506 357.073 566.483 356.587 566.573C356.101 566.664 355.642 566.866 355.247 567.164C354.852 567.462 354.531 567.847 354.311 568.29C354.09 568.733 353.975 569.221 353.975 569.716C353.975 570.211 354.09 570.699 354.311 571.142C354.531 571.585 354.852 571.97 355.247 572.268C355.642 572.566 356.101 572.768 356.587 572.859C357.073 572.949 357.574 572.926 358.05 572.79C358.526 572.926 359.027 572.949 359.513 572.859C360 572.768 360.458 572.566 360.853 572.268C361.248 571.97 361.569 571.585 361.79 571.142C362.01 570.699 362.125 570.211 362.125 569.716C362.125 569.221 362.01 568.733 361.79 568.29C361.569 567.847 361.248 567.462 360.853 567.164C360.458 566.866 360 566.664 359.513 566.573C359.027 566.483 358.526 566.506 358.05 566.642ZM406.679 566.642C406.044 566.642 405.424 566.832 404.897 567.186C404.37 567.54 403.96 568.043 403.72 568.63C403.48 569.218 403.42 569.864 403.549 570.486C403.677 571.107 403.988 571.677 404.441 572.121C404.894 572.566 405.47 572.865 406.094 572.982C406.718 573.098 407.362 573.026 407.945 572.775C408.528 572.523 409.023 572.104 409.367 571.57C409.711 571.036 409.888 570.412 409.876 569.778C409.876 569.361 409.793 568.948 409.631 568.563C409.47 568.179 409.233 567.83 408.936 567.538C408.638 567.247 408.285 567.017 407.897 566.863C407.51 566.709 407.096 566.634 406.679 566.642ZM455.369 566.642C454.732 566.63 454.105 566.809 453.57 567.155C453.035 567.502 452.616 568 452.366 568.587C452.117 569.174 452.048 569.821 452.17 570.447C452.291 571.073 452.597 571.648 453.048 572.099C453.498 572.55 454.074 572.855 454.699 572.977C455.325 573.098 455.973 573.03 456.56 572.78C457.146 572.531 457.645 572.111 457.991 571.576C458.338 571.041 458.517 570.415 458.504 569.778C458.504 569.366 458.423 568.958 458.266 568.578C458.108 568.197 457.877 567.852 457.586 567.561C457.295 567.269 456.949 567.038 456.569 566.881C456.188 566.723 455.781 566.642 455.369 566.642ZM504.551 566.642H503.69C503.125 566.636 502.567 566.779 502.075 567.059C501.583 567.338 501.174 567.743 500.89 568.232C500.606 568.721 500.456 569.277 500.457 569.842C500.457 570.408 500.608 570.963 500.894 571.452C501.179 571.94 501.589 572.344 502.082 572.622C502.574 572.901 503.132 573.043 503.697 573.035C504.263 573.028 504.816 572.87 505.301 572.578C505.786 572.287 506.185 571.872 506.457 571.376C506.272 569.839 505.535 568.302 504.858 566.765L504.551 566.642ZM236.14 674.412C235.503 674.4 234.876 674.579 234.341 674.925C233.806 675.272 233.387 675.77 233.138 676.357C232.888 676.944 232.82 677.591 232.941 678.217C233.062 678.843 233.368 679.418 233.819 679.869C234.27 680.32 234.845 680.625 235.471 680.747C236.096 680.868 236.744 680.8 237.331 680.55C237.917 680.301 238.416 679.881 238.763 679.346C239.109 678.811 239.288 678.185 239.276 677.548C239.249 676.788 238.948 676.064 238.428 675.51C237.908 674.956 237.204 674.609 236.448 674.535L236.14 674.412ZM284.769 674.412C284.293 674.276 283.792 674.253 283.306 674.343C282.82 674.434 282.361 674.636 281.966 674.934C281.571 675.232 281.25 675.618 281.03 676.06C280.809 676.503 280.694 676.991 280.694 677.486C280.694 677.981 280.809 678.469 281.03 678.912C281.25 679.355 281.571 679.74 281.966 680.038C282.361 680.336 282.82 680.538 283.306 680.629C283.792 680.719 284.293 680.696 284.769 680.56C285.245 680.696 285.746 680.719 286.232 680.629C286.718 680.538 287.177 680.336 287.572 680.038C287.967 679.74 288.288 679.355 288.508 678.912C288.729 678.469 288.844 677.981 288.844 677.486C288.844 676.991 288.729 676.503 288.508 676.06C288.288 675.618 287.967 675.232 287.572 674.934C287.177 674.636 286.718 674.434 286.232 674.343C285.746 674.253 285.245 674.276 284.769 674.412ZM333.398 674.412C332.763 674.412 332.142 674.602 331.615 674.956C331.088 675.31 330.679 675.813 330.439 676.4C330.199 676.988 330.139 677.634 330.268 678.256C330.396 678.877 330.707 679.447 331.16 679.891C331.613 680.336 332.188 680.635 332.813 680.752C333.437 680.868 334.081 680.796 334.664 680.545C335.247 680.293 335.742 679.874 336.086 679.34C336.43 678.806 336.607 678.182 336.594 677.548C336.567 676.778 336.257 676.046 335.724 675.491C335.191 674.935 334.472 674.595 333.705 674.535L333.398 674.412ZM382.088 674.412C381.45 674.4 380.824 674.579 380.289 674.925C379.754 675.272 379.335 675.77 379.085 676.357C378.836 676.944 378.767 677.591 378.889 678.217C379.01 678.843 379.316 679.418 379.766 679.869C380.217 680.32 380.792 680.625 381.418 680.747C382.044 680.868 382.692 680.8 383.278 680.55C383.865 680.301 384.363 679.881 384.71 679.346C385.057 678.811 385.235 678.185 385.223 677.548C385.197 676.788 384.896 676.064 384.376 675.51C383.855 674.956 383.152 674.609 382.395 674.535L382.088 674.412ZM430.716 674.412C430.241 674.276 429.74 674.253 429.253 674.343C428.767 674.434 428.308 674.636 427.913 674.934C427.518 675.232 427.198 675.618 426.977 676.06C426.756 676.503 426.642 676.991 426.642 677.486C426.642 677.981 426.756 678.469 426.977 678.912C427.198 679.355 427.518 679.74 427.913 680.038C428.308 680.336 428.767 680.538 429.253 680.629C429.74 680.719 430.241 680.696 430.716 680.56C431.192 680.696 431.693 680.719 432.179 680.629C432.666 680.538 433.125 680.336 433.52 680.038C433.915 679.74 434.235 679.355 434.456 678.912C434.677 678.469 434.791 677.981 434.791 677.486C434.791 676.991 434.677 676.503 434.456 676.06C434.235 675.618 433.915 675.232 433.52 674.934C433.125 674.636 432.666 674.434 432.179 674.343C431.693 674.253 431.192 674.276 430.716 674.412ZM479.345 674.412C478.71 674.412 478.09 674.602 477.563 674.956C477.036 675.31 476.626 675.813 476.386 676.4C476.146 676.988 476.087 677.634 476.215 678.256C476.343 678.877 476.654 679.447 477.107 679.891C477.561 680.336 478.136 680.635 478.76 680.752C479.384 680.868 480.029 680.796 480.612 680.545C481.195 680.293 481.69 679.874 482.033 679.34C482.377 678.806 482.554 678.182 482.542 677.548C482.514 676.778 482.204 676.046 481.671 675.491C481.139 674.935 480.42 674.595 479.653 674.535L479.345 674.412ZM528.035 674.412C527.398 674.4 526.772 674.579 526.237 674.925C525.702 675.272 525.282 675.77 525.033 676.357C524.783 676.944 524.715 677.591 524.836 678.217C524.958 678.843 525.263 679.418 525.714 679.869C526.165 680.32 526.74 680.625 527.366 680.747C527.992 680.868 528.639 680.8 529.226 680.55C529.812 680.301 530.311 679.881 530.658 679.346C531.004 678.811 531.183 678.185 531.171 677.548C531.144 676.788 530.843 676.064 530.323 675.51C529.803 674.956 529.099 674.609 528.343 674.535L528.035 674.412ZM211.795 638.14C210.947 638.14 210.134 638.477 209.535 639.077C208.935 639.676 208.598 640.49 208.598 641.337C208.598 642.185 208.935 642.998 209.535 643.598C210.134 644.197 210.947 644.534 211.795 644.534C212.638 644.518 213.442 644.177 214.038 643.58C214.635 642.984 214.976 642.18 214.992 641.337C214.966 640.562 214.658 639.822 214.126 639.256C213.595 638.691 212.875 638.338 212.103 638.263L211.795 638.14ZM260.424 638.14C260.007 638.14 259.594 638.224 259.21 638.385C258.825 638.546 258.477 638.783 258.185 639.08C257.893 639.378 257.663 639.731 257.509 640.119C257.355 640.506 257.28 640.92 257.289 641.337C257.289 641.972 257.478 642.593 257.832 643.12C258.186 643.647 258.689 644.056 259.277 644.296C259.864 644.536 260.51 644.596 261.132 644.467C261.754 644.339 262.323 644.028 262.768 643.575C263.212 643.122 263.512 642.547 263.628 641.923C263.744 641.298 263.672 640.654 263.421 640.071C263.169 639.488 262.75 638.993 262.216 638.649C261.683 638.305 261.059 638.128 260.424 638.14ZM309.114 638.14C308.266 638.14 307.453 638.477 306.854 639.077C306.254 639.676 305.917 640.49 305.917 641.337C305.781 641.813 305.758 642.314 305.848 642.8C305.939 643.287 306.141 643.746 306.439 644.141C306.737 644.536 307.123 644.856 307.565 645.077C308.008 645.297 308.496 645.412 308.991 645.412C309.486 645.412 309.974 645.297 310.417 645.077C310.86 644.856 311.245 644.536 311.543 644.141C311.841 643.746 312.043 643.287 312.134 642.8C312.225 642.314 312.201 641.813 312.065 641.337C312.065 640.613 311.814 639.91 311.354 639.35C310.895 638.79 310.255 638.406 309.544 638.263L309.114 638.14ZM357.743 638.14C356.895 638.14 356.082 638.477 355.482 639.077C354.883 639.676 354.546 640.49 354.546 641.337C354.546 642.185 354.883 642.998 355.482 643.598C356.082 644.197 356.895 644.534 357.743 644.534C358.586 644.518 359.39 644.177 359.986 643.58C360.582 642.984 360.924 642.18 360.939 641.337C360.913 640.562 360.605 639.822 360.074 639.256C359.542 638.691 358.823 638.338 358.05 638.263L357.743 638.14ZM406.371 638.14C405.954 638.14 405.542 638.224 405.157 638.385C404.773 638.546 404.424 638.783 404.132 639.08C403.84 639.378 403.611 639.731 403.457 640.119C403.303 640.506 403.228 640.92 403.236 641.337C403.236 641.972 403.425 642.593 403.779 643.12C404.133 643.647 404.636 644.056 405.224 644.296C405.812 644.536 406.458 644.596 407.079 644.467C407.701 644.339 408.271 644.028 408.715 643.575C409.16 643.122 409.459 642.547 409.576 641.923C409.692 641.298 409.62 640.654 409.368 640.071C409.117 639.488 408.698 638.993 408.164 638.649C407.63 638.305 407.006 638.128 406.371 638.14ZM455.062 638.14C454.214 638.14 453.401 638.477 452.801 639.077C452.202 639.676 451.865 640.49 451.865 641.337C451.729 641.813 451.705 642.314 451.796 642.8C451.886 643.287 452.089 643.746 452.386 644.141C452.684 644.536 453.07 644.856 453.513 645.077C453.956 645.297 454.444 645.412 454.939 645.412C455.433 645.412 455.921 645.297 456.364 645.077C456.807 644.856 457.193 644.536 457.491 644.141C457.789 643.746 457.991 643.287 458.082 642.8C458.172 642.314 458.148 641.813 458.012 641.337C458.007 640.595 457.739 639.879 457.254 639.316C456.77 638.753 456.102 638.38 455.369 638.263L455.062 638.14ZM503.69 638.14C502.842 638.14 502.029 638.477 501.43 639.077C500.83 639.676 500.493 640.49 500.493 641.337C500.493 642.185 500.83 642.998 501.43 643.598C502.029 644.197 502.842 644.534 503.69 644.534C504.533 644.518 505.337 644.177 505.933 643.58C506.529 642.984 506.871 642.18 506.887 641.337C506.861 640.562 506.553 639.822 506.021 639.256C505.49 638.691 504.77 638.338 503.998 638.263L503.69 638.14ZM236.14 746.033C235.72 746.033 235.305 746.116 234.917 746.277C234.529 746.437 234.177 746.673 233.88 746.97C233.583 747.267 233.348 747.619 233.187 748.007C233.026 748.395 232.944 748.811 232.944 749.23C232.808 749.706 232.784 750.207 232.874 750.693C232.965 751.18 233.167 751.639 233.465 752.034C233.763 752.429 234.149 752.749 234.592 752.97C235.035 753.19 235.523 753.305 236.017 753.305C236.512 753.305 237 753.19 237.443 752.97C237.886 752.749 238.272 752.429 238.57 752.034C238.867 751.639 239.07 751.18 239.16 750.693C239.251 750.207 239.227 749.706 239.091 749.23C239.086 748.488 238.817 747.771 238.333 747.209C237.849 746.646 237.181 746.273 236.448 746.156L236.14 746.033ZM284.769 746.033C283.921 746.033 283.108 746.37 282.508 746.97C281.909 747.569 281.572 748.382 281.572 749.23C281.572 750.078 281.909 750.891 282.508 751.491C283.108 752.09 283.921 752.427 284.769 752.427C285.612 752.411 286.416 752.069 287.012 751.473C287.608 750.877 287.95 750.073 287.966 749.23C287.936 748.435 287.611 747.679 287.054 747.11C286.497 746.542 285.748 746.202 284.953 746.156L284.769 746.033ZM333.398 746.033C332.981 746.033 332.568 746.117 332.183 746.278C331.799 746.439 331.451 746.676 331.159 746.973C330.867 747.271 330.637 747.624 330.483 748.012C330.329 748.399 330.254 748.813 330.262 749.23C330.262 749.865 330.452 750.486 330.806 751.013C331.16 751.54 331.663 751.949 332.25 752.189C332.838 752.429 333.484 752.489 334.106 752.361C334.727 752.232 335.297 751.921 335.742 751.468C336.186 751.015 336.485 750.44 336.602 749.815C336.718 749.191 336.646 748.547 336.395 747.964C336.143 747.381 335.724 746.886 335.19 746.542C334.656 746.198 334.032 746.021 333.398 746.033ZM382.088 746.033C381.668 746.033 381.252 746.116 380.864 746.277C380.477 746.437 380.124 746.673 379.827 746.97C379.531 747.267 379.295 747.619 379.134 748.007C378.974 748.395 378.891 748.811 378.891 749.23C378.755 749.706 378.731 750.207 378.822 750.693C378.912 751.18 379.115 751.639 379.413 752.034C379.711 752.429 380.096 752.749 380.539 752.97C380.982 753.19 381.47 753.305 381.965 753.305C382.46 753.305 382.948 753.19 383.391 752.97C383.833 752.749 384.219 752.429 384.517 752.034C384.815 751.639 385.017 751.18 385.108 750.693C385.198 750.207 385.175 749.706 385.039 749.23C385.033 748.488 384.765 747.771 384.281 747.209C383.796 746.646 383.128 746.273 382.395 746.156L382.088 746.033ZM430.716 746.033C430.297 746.033 429.881 746.116 429.493 746.277C429.105 746.437 428.753 746.673 428.456 746.97C428.159 747.267 427.924 747.619 427.763 748.007C427.602 748.395 427.52 748.811 427.52 749.23C427.52 750.078 427.857 750.891 428.456 751.491C429.056 752.09 429.869 752.427 430.716 752.427C431.559 752.411 432.363 752.069 432.96 751.473C433.556 750.877 433.898 750.073 433.913 749.23C433.887 748.454 433.579 747.715 433.048 747.149C432.516 746.583 431.797 746.231 431.024 746.156L430.716 746.033ZM479.345 746.033C478.928 746.033 478.515 746.117 478.131 746.278C477.746 746.439 477.398 746.676 477.106 746.973C476.814 747.271 476.584 747.624 476.431 748.012C476.277 748.399 476.202 748.813 476.21 749.23C476.21 749.865 476.399 750.486 476.753 751.013C477.107 751.54 477.61 751.949 478.198 752.189C478.786 752.429 479.431 752.489 480.053 752.361C480.675 752.232 481.244 751.921 481.689 751.468C482.134 751.015 482.433 750.44 482.549 749.815C482.666 749.191 482.594 748.547 482.342 747.964C482.091 747.381 481.671 746.886 481.138 746.542C480.604 746.198 479.98 746.021 479.345 746.033ZM528.035 746.033C527.188 746.033 526.374 746.37 525.775 746.97C525.175 747.569 524.838 748.382 524.838 749.23C524.828 749.774 524.978 750.308 525.269 750.767L531.048 748.431C530.886 747.82 530.539 747.273 530.055 746.866C529.571 746.459 528.973 746.211 528.343 746.156L528.035 746.033ZM211.795 709.823C211.319 709.687 210.819 709.664 210.332 709.754C209.846 709.845 209.387 710.047 208.992 710.345C208.597 710.643 208.277 711.029 208.056 711.471C207.835 711.914 207.72 712.402 207.72 712.897C207.72 713.392 207.835 713.88 208.056 714.323C208.277 714.766 208.597 715.151 208.992 715.449C209.387 715.747 209.846 715.949 210.332 716.04C210.819 716.13 211.319 716.107 211.795 715.971C212.271 716.107 212.772 716.13 213.258 716.04C213.745 715.949 214.203 715.747 214.598 715.449C214.993 715.151 215.314 714.766 215.535 714.323C215.755 713.88 215.87 713.392 215.87 712.897C215.87 712.402 215.755 711.914 215.535 711.471C215.314 711.029 214.993 710.643 214.598 710.345C214.203 710.047 213.745 709.845 213.258 709.754C212.772 709.664 212.271 709.687 211.795 709.823ZM260.424 709.823C259.789 709.823 259.169 710.013 258.642 710.367C258.115 710.721 257.705 711.224 257.465 711.811C257.225 712.399 257.165 713.045 257.294 713.667C257.422 714.288 257.733 714.858 258.186 715.302C258.639 715.747 259.215 716.047 259.839 716.163C260.463 716.279 261.108 716.207 261.691 715.956C262.273 715.704 262.768 715.285 263.112 714.751C263.456 714.217 263.633 713.593 263.621 712.959C263.593 712.189 263.283 711.457 262.75 710.902C262.217 710.346 261.499 710.006 260.731 709.946L260.424 709.823ZM309.114 709.823C308.477 709.811 307.85 709.99 307.315 710.336C306.78 710.683 306.361 711.181 306.111 711.768C305.862 712.355 305.793 713.002 305.915 713.628C306.036 714.254 306.342 714.829 306.793 715.28C307.243 715.731 307.819 716.036 308.444 716.158C309.07 716.279 309.718 716.211 310.305 715.961C310.891 715.712 311.39 715.292 311.736 714.757C312.083 714.222 312.262 713.596 312.249 712.959C312.227 712.218 311.943 711.509 311.448 710.957C310.953 710.406 310.279 710.048 309.544 709.946L309.114 709.823ZM357.743 709.823C357.267 709.687 356.766 709.664 356.28 709.754C355.793 709.845 355.335 710.047 354.94 710.345C354.545 710.643 354.224 711.029 354.003 711.471C353.783 711.914 353.668 712.402 353.668 712.897C353.668 713.392 353.783 713.88 354.003 714.323C354.224 714.766 354.545 715.151 354.94 715.449C355.335 715.747 355.793 715.949 356.28 716.04C356.766 716.13 357.267 716.107 357.743 715.971C358.218 716.107 358.719 716.13 359.206 716.04C359.692 715.949 360.151 715.747 360.546 715.449C360.941 715.151 361.261 714.766 361.482 714.323C361.703 713.88 361.818 713.392 361.818 712.897C361.818 712.402 361.703 711.914 361.482 711.471C361.261 711.029 360.941 710.643 360.546 710.345C360.151 710.047 359.692 709.845 359.206 709.754C358.719 709.664 358.218 709.687 357.743 709.823ZM406.371 709.823C405.737 709.823 405.116 710.013 404.589 710.367C404.062 710.721 403.653 711.224 403.413 711.811C403.173 712.399 403.113 713.045 403.241 713.667C403.37 714.288 403.68 714.858 404.134 715.302C404.587 715.747 405.162 716.047 405.786 716.163C406.41 716.279 407.055 716.207 407.638 715.956C408.221 715.704 408.716 715.285 409.06 714.751C409.403 714.217 409.58 713.593 409.568 712.959C409.54 712.189 409.23 711.457 408.698 710.902C408.165 710.346 407.446 710.006 406.679 709.946L406.371 709.823ZM455.062 709.823C454.424 709.811 453.798 709.99 453.263 710.336C452.728 710.683 452.308 711.181 452.059 711.768C451.809 712.355 451.741 713.002 451.862 713.628C451.984 714.254 452.289 714.829 452.74 715.28C453.191 715.731 453.766 716.036 454.392 716.158C455.018 716.279 455.665 716.211 456.252 715.961C456.839 715.712 457.337 715.292 457.684 714.757C458.03 714.222 458.209 713.596 458.197 712.959C458.171 712.199 457.87 711.475 457.349 710.921C456.829 710.367 456.125 710.02 455.369 709.946L455.062 709.823ZM503.69 709.823C503.214 709.687 502.714 709.664 502.227 709.754C501.741 709.845 501.282 710.047 500.887 710.345C500.492 710.643 500.172 711.029 499.951 711.471C499.73 711.914 499.615 712.402 499.615 712.897C499.615 713.392 499.73 713.88 499.951 714.323C500.172 714.766 500.492 715.151 500.887 715.449C501.282 715.747 501.741 715.949 502.227 716.04C502.714 716.13 503.214 716.107 503.69 715.971C504.166 716.107 504.667 716.13 505.153 716.04C505.64 715.949 506.099 715.747 506.493 715.449C506.889 715.151 507.209 714.766 507.43 714.323C507.65 713.88 507.765 713.392 507.765 712.897C507.765 712.402 507.65 711.914 507.43 711.471C507.209 711.029 506.889 710.643 506.493 710.345C506.099 710.047 505.64 709.845 505.153 709.754C504.667 709.664 504.166 709.687 503.69 709.823ZM552.319 709.823C551.684 709.823 551.064 710.013 550.537 710.367C550.01 710.721 549.6 711.224 549.36 711.811C549.12 712.399 549.06 713.045 549.189 713.667C549.317 714.288 549.628 714.858 550.081 715.302C550.534 715.747 551.11 716.047 551.734 716.163C552.358 716.279 553.003 716.207 553.585 715.956C554.168 715.704 554.663 715.285 555.007 714.751C555.351 714.217 555.528 713.593 555.516 712.959C555.488 712.189 555.178 711.457 554.645 710.902C554.112 710.346 553.394 710.006 552.626 709.946L552.319 709.823Z" fill="white"/>
<path d="M566.704 730.726C522.441 756.977 470.554 770.932 420.019 777.018C396.535 657.014 356.575 419.896 347.168 363.89C359.523 367.476 371.198 373.085 381.719 380.488C407.455 399.165 429.351 422.627 446.209 449.589C501.538 534.244 566.704 730.726 566.704 730.726Z" fill="#263238"/>
<path d="M424.323 411.473C505.043 503.689 616.624 662.117 574.205 701.77C504.428 766.874 291.409 815.503 242.534 824.725C221.386 828.659 169.806 692.118 182.901 673.244C195.995 654.371 422.663 627.013 423.278 612.935C423.708 605.004 392.109 538.301 364.505 455.245C332.598 359.34 401.207 384.976 424.323 411.473Z" fill="#EB9481"/>
<path d="M520.412 522.87L381.78 531.047C370.671 499.295 362.099 466.713 356.144 433.605C355.775 431.638 355.468 429.67 355.161 427.826C355.161 427.211 355.161 426.658 355.161 426.105C347.353 375.078 363.275 360.939 412.642 400.53C436.027 419.54 457.54 440.744 476.886 463.852L478.669 465.942C488.013 477.008 495.882 487.275 502.215 495.943C503.506 497.726 504.797 499.447 505.903 501.107C515.248 514.263 520.412 522.87 520.412 522.87Z" fill="#006845"/>
<path d="M385.53 391.063C385.542 391.7 385.364 392.326 385.017 392.861C384.671 393.396 384.172 393.816 383.586 394.065C382.999 394.315 382.351 394.383 381.725 394.262C381.1 394.14 380.524 393.835 380.074 393.384C379.623 392.933 379.317 392.358 379.196 391.732C379.074 391.106 379.143 390.459 379.392 389.872C379.642 389.285 380.061 388.787 380.596 388.44C381.131 388.094 381.758 387.915 382.395 387.927C383.227 387.927 384.024 388.257 384.612 388.845C385.2 389.433 385.53 390.231 385.53 391.063Z" fill="white"/>
<path d="M385.531 462.868C385.53 463.503 385.341 464.124 384.987 464.651C384.633 465.177 384.13 465.587 383.543 465.827C382.955 466.067 382.309 466.127 381.687 465.998C381.066 465.87 380.496 465.559 380.051 465.106C379.607 464.653 379.307 464.078 379.191 463.453C379.075 462.829 379.147 462.185 379.398 461.602C379.65 461.019 380.069 460.524 380.603 460.18C381.137 459.836 381.761 459.659 382.395 459.671C382.812 459.671 383.225 459.754 383.61 459.916C383.994 460.077 384.342 460.314 384.634 460.611C384.926 460.909 385.156 461.262 385.31 461.65C385.464 462.037 385.539 462.451 385.531 462.868Z" fill="white"/>
<path d="M431.024 465.942C432.79 465.942 434.221 464.511 434.221 462.745C434.221 460.98 432.79 459.548 431.024 459.548C429.258 459.548 427.827 460.98 427.827 462.745C427.827 464.511 429.258 465.942 431.024 465.942Z" fill="white"/>
<path d="M358.05 429.67C359.816 429.67 361.247 428.239 361.247 426.474C361.247 424.708 359.816 423.277 358.05 423.277C356.285 423.277 354.853 424.708 354.853 426.474C354.853 428.239 356.285 429.67 358.05 429.67Z" fill="white"/>
<path d="M406.679 429.67C408.444 429.67 409.876 428.239 409.876 426.474C409.876 424.708 408.444 423.277 406.679 423.277C404.913 423.277 403.482 424.708 403.482 426.474C403.482 428.239 404.913 429.67 406.679 429.67Z" fill="white"/>
<path d="M406.679 501.353C408.444 501.353 409.876 499.922 409.876 498.156C409.876 496.391 408.444 494.96 406.679 494.96C404.913 494.96 403.482 496.391 403.482 498.156C403.482 499.922 404.913 501.353 406.679 501.353Z" fill="white"/>
<path d="M455.369 501.353C457.135 501.353 458.566 499.922 458.566 498.156C458.566 496.391 457.135 494.96 455.369 494.96C453.603 494.96 452.172 496.391 452.172 498.156C452.172 499.922 453.603 501.353 455.369 501.353Z" fill="white"/>
<path d="M505.658 500.861C505.163 501.181 504.587 501.352 503.998 501.353C503.15 501.353 502.337 501.016 501.737 500.417C501.138 499.817 500.801 499.004 500.801 498.156C500.794 497.684 500.895 497.217 501.098 496.79C501.3 496.364 501.599 495.99 501.969 495.697C503.26 497.48 504.551 499.201 505.658 500.861Z" fill="white"/>
<path d="M300.692 143.185C293.007 140.296 285.63 97.2002 314.032 76.6667C342.435 56.1332 378.645 79.5562 363.214 114.906C353.808 137.038 317.045 149.333 300.692 143.185Z" fill="#263238"/>
<path d="M381.719 380.488L381.289 380.98C358.665 405.202 313.11 449.159 282.617 445.347C273.59 443.873 264.975 440.511 257.337 435.478C249.699 430.446 243.209 423.858 238.292 416.145C247.306 404.758 257.126 394.033 267.678 384.054C303.397 346.983 344.402 355.098 381.719 380.488Z" fill="#EB9481"/>
<path d="M337.947 373.787C337.455 380.365 313.356 426.412 284.277 429.609C274.748 430.593 266.818 378.829 266.818 378.829L265.342 375.14L244.993 323.437L301.614 273.21L309.852 266.448C309.852 266.448 314.524 280.956 320.119 299.092C320.119 299.953 320.61 300.752 320.918 301.674C321.225 302.596 321.594 303.642 321.84 304.625C322.701 307.269 323.561 310.035 324.422 312.802C325.283 315.568 325.652 316.982 326.266 318.949C326.881 320.917 327.434 323.314 328.111 325.589C332.465 341.417 335.751 357.519 337.947 373.787Z" fill="#EB9481"/>
<path d="M320.119 299.092C317.057 314.985 310.571 330.02 301.112 343.153C291.653 356.286 279.446 367.201 265.342 375.14L244.993 323.437L301.614 273.21L309.852 266.448C309.852 266.448 314.524 280.956 320.119 299.092Z" fill="#263238"/>
<path d="M158.679 249.234C164.826 346.553 223.968 353.746 244.747 352.393C263.805 351.164 328.479 344.463 332.291 247.082C336.103 149.702 288.888 121.791 245.177 122.345C201.467 122.898 152.408 151.977 158.679 249.234Z" fill="#EB9481"/>
<path d="M175.708 233.311C177.921 232.697 179.889 231.836 181.856 231.037C184.242 230.556 186.402 229.303 188.004 227.471C188.388 226.811 188.542 226.043 188.442 225.286C188.342 224.529 187.993 223.827 187.45 223.29C186.195 222.401 184.73 221.854 183.199 221.703C181.669 221.552 180.125 221.802 178.721 222.43C175.707 223.325 173.126 225.293 171.466 227.963C171.138 228.603 171.002 229.325 171.072 230.041C171.143 230.757 171.419 231.438 171.866 232.002C172.313 232.566 172.913 232.989 173.595 233.221C174.276 233.454 175.01 233.485 175.708 233.311Z" fill="#263238"/>
<path d="M242.841 226.303C240.58 226.262 238.322 226.097 236.078 225.811C233.709 225.977 231.351 225.35 229.377 224.028C228.82 223.489 228.457 222.78 228.346 222.012C228.235 221.245 228.381 220.462 228.763 219.786C229.731 218.596 230.999 217.684 232.436 217.144C233.872 216.604 235.426 216.455 236.939 216.713C240.067 216.708 243.079 217.895 245.362 220.032C245.864 220.544 246.206 221.191 246.346 221.894C246.487 222.598 246.419 223.326 246.152 223.992C245.884 224.657 245.429 225.23 244.841 225.641C244.253 226.051 243.558 226.281 242.841 226.303Z" fill="#263238"/>
<path d="M233.251 252.431C233.251 252.431 233.804 252.431 233.804 252.923C234.357 259.562 236.079 267.062 242.288 268.599V268.968C234.849 268.722 232.697 258.763 233.251 252.431Z" fill="#263238"/>
<path d="M238.354 244.869C248.866 242.902 252.124 264.05 242.35 265.895C232.575 267.739 229.624 246.529 238.354 244.869Z" fill="#263238"/>
<path d="M242.718 245.361C244.747 246.283 246.837 248.127 248.866 248.004C250.895 247.881 253.108 245.361 254.46 242.963C254.46 242.963 254.829 242.963 254.891 242.963C255.567 247.021 254.891 251.447 250.341 252.677C245.792 253.906 243.087 250.709 241.427 246.529C241.366 246.221 241.919 244.992 242.718 245.361Z" fill="#263238"/>
<path d="M191.692 255.628C191.692 255.628 191.2 256.058 191.262 256.304C192.491 262.821 192.86 270.505 187.266 273.641C187.266 273.641 187.266 274.071 187.266 274.009C194.459 271.796 193.905 261.652 191.692 255.628Z" fill="#263238"/>
<path d="M184.745 249.726C174.048 250.586 176.63 271.919 186.466 271.058C196.303 270.198 193.659 248.988 184.745 249.726Z" fill="#263238"/>
<path d="M180.442 251.693C178.905 252.984 177.491 255.259 175.523 255.628C173.556 255.996 171.22 253.968 169.376 251.939C169.745 255.996 171.589 260.115 175.523 260.423C179.458 260.73 181.364 256.919 181.671 252.738C181.794 252.185 181.056 251.14 180.442 251.693Z" fill="#263238"/>
<path d="M210.443 278.005C206.89 278.858 203.461 280.16 200.237 281.878C199.623 261.038 202.328 240.258 201.406 219.479C201.406 219.316 201.341 219.159 201.225 219.044C201.11 218.929 200.954 218.864 200.791 218.864C200.628 218.864 200.471 218.929 200.356 219.044C200.241 219.159 200.176 219.316 200.176 219.479C196.542 241.66 195.162 264.153 196.057 286.612C196.057 288.887 210.627 279.112 210.627 279.112C210.627 279.112 210.566 278.005 210.443 278.005Z" fill="#263238"/>
<path d="M326.266 255.382C302.105 257.902 284.769 184.99 282.74 176.014C283.724 181.732 288.888 212.04 286.675 213.577C284.09 213.884 281.472 213.76 278.928 213.208C278.404 209.566 277.602 205.97 276.531 202.45C276.101 200.79 276.531 206.2 276.531 212.901L271.92 212.286C271.095 204.472 269.235 196.802 266.387 189.478C265.281 186.712 266.387 199.745 265.158 211.425C243.81 208.296 222.183 207.533 200.668 209.151C194.52 209.766 189.479 210.565 184.929 211.425C183.638 202.45 183.331 192.982 182.962 194.888C181.925 200.565 181.451 206.331 181.548 212.102L174.786 213.577C172.388 201.282 175.585 179.887 173.987 183.269C169.305 193.657 166.635 204.838 166.117 216.221C157.695 219.11 155.543 221.139 154.99 218.926C154.103 193.577 162.252 168.738 177.983 148.841C204.049 116.32 263.006 100.827 302.905 139.681C302.905 139.681 333.275 153.944 341.758 182.715C350.242 211.487 340.283 253.845 326.266 255.382Z" fill="#263238"/>
<path d="M317.475 255.505C317.475 255.505 333.951 222.245 348.706 227.655C363.46 233.065 354.362 279.112 339.238 287.534C337.369 288.738 335.276 289.552 333.086 289.928C330.895 290.304 328.651 290.235 326.487 289.724C324.323 289.214 322.285 288.272 320.494 286.955C318.703 285.639 317.195 283.975 316.061 282.063L317.475 255.505Z" fill="#EB9481"/>
<path d="M345.755 240.812V241.181C335.181 247.328 330.877 258.763 328.356 270.198C328.84 268.974 329.583 267.87 330.535 266.961C331.487 266.052 332.624 265.361 333.869 264.934C335.114 264.507 336.436 264.356 337.745 264.49C339.054 264.624 340.319 265.04 341.451 265.71C341.517 265.739 341.573 265.786 341.612 265.846C341.652 265.906 341.673 265.976 341.673 266.048C341.673 266.12 341.652 266.19 341.612 266.25C341.573 266.31 341.517 266.358 341.451 266.386C339.379 266.036 337.248 266.346 335.362 267.273C333.475 268.199 331.928 269.696 330.939 271.55C329.261 274.628 327.941 277.887 327.004 281.264C326.635 282.37 324.729 282.063 324.914 280.895V280.588C322.516 266.14 330.631 244.562 345.755 240.812Z" fill="#263238"/>
<path d="M210.135 294.727C213.092 298.352 216.921 301.165 221.263 302.904C223.683 303.672 226.282 303.672 228.702 302.904C234.05 301.367 234.05 296.756 232.944 292.268C232.34 290.13 231.494 288.067 230.423 286.12C224.744 291.067 217.639 294.081 210.135 294.727Z" fill="#263238"/>
<path d="M221.263 303.027C223.683 303.795 226.282 303.795 228.702 303.027C234.05 301.49 234.05 296.879 232.944 292.391C230.08 292.578 227.364 293.732 225.242 295.665C223.119 297.597 221.717 300.193 221.263 303.027Z" fill="#FF9CBD"/>
</g>
<defs>
<clipPath id="clip0_1_97">
<rect y="0.0911865" width="581.909" height="581.909" rx="290.954" fill="white"/>
</clipPath>
</defs>
</svg>
