<svg width="835" height="213" viewBox="0 0 835 213" fill="none" xmlns="http://www.w3.org/2000/svg">
<rect x="503" width="332" height="213" rx="30" fill="#01C601"/>
<rect x="266" width="332" height="213" rx="30" fill="#2E7F60"/>
<rect width="332" height="213" rx="30" fill="#00572E"/>
<path d="M67.7659 182L69.4859 168H70.5659L68.8459 182H67.7659ZM60.1859 178.2V177.1H72.2859V178.2H60.1859ZM62.5659 182L64.2859 168H65.3859L63.6459 182H62.5659ZM60.8259 172.9V171.8H72.9259V172.9H60.8259ZM79.9516 182.12C78.8716 182.12 77.9116 181.84 77.0716 181.28C76.2316 180.707 75.5716 179.893 75.0916 178.84C74.6116 177.773 74.3716 176.493 74.3716 175C74.3716 173.507 74.6116 172.233 75.0916 171.18C75.5716 170.113 76.2316 169.3 77.0716 168.74C77.9116 168.167 78.8716 167.88 79.9516 167.88C81.0316 167.88 81.9916 168.167 82.8316 168.74C83.6716 169.3 84.3316 170.113 84.8116 171.18C85.305 172.233 85.5516 173.507 85.5516 175C85.5516 176.493 85.305 177.773 84.8116 178.84C84.3316 179.893 83.6716 180.707 82.8316 181.28C81.9916 181.84 81.0316 182.12 79.9516 182.12ZM79.9516 180.8C80.7783 180.8 81.4983 180.58 82.1116 180.14C82.725 179.687 83.205 179.033 83.5516 178.18C83.8983 177.313 84.0716 176.253 84.0716 175C84.0716 173.747 83.8983 172.693 83.5516 171.84C83.205 170.973 82.725 170.32 82.1116 169.88C81.4983 169.427 80.7783 169.2 79.9516 169.2C79.1516 169.2 78.4383 169.427 77.8116 169.88C77.185 170.32 76.6983 170.973 76.3516 171.84C76.005 172.693 75.8316 173.747 75.8316 175C75.8316 176.253 76.005 177.313 76.3516 178.18C76.6983 179.033 77.185 179.687 77.8116 180.14C78.4383 180.58 79.1516 180.8 79.9516 180.8ZM92.9938 182.12C91.9138 182.12 90.9538 181.84 90.1138 181.28C89.2738 180.707 88.6138 179.893 88.1338 178.84C87.6538 177.773 87.4138 176.493 87.4138 175C87.4138 173.507 87.6538 172.233 88.1338 171.18C88.6138 170.113 89.2738 169.3 90.1138 168.74C90.9538 168.167 91.9138 167.88 92.9938 167.88C94.0738 167.88 95.0338 168.167 95.8738 168.74C96.7138 169.3 97.3738 170.113 97.8538 171.18C98.3472 172.233 98.5938 173.507 98.5938 175C98.5938 176.493 98.3472 177.773 97.8538 178.84C97.3738 179.893 96.7138 180.707 95.8738 181.28C95.0338 181.84 94.0738 182.12 92.9938 182.12ZM92.9938 180.8C93.8205 180.8 94.5405 180.58 95.1538 180.14C95.7672 179.687 96.2472 179.033 96.5938 178.18C96.9405 177.313 97.1138 176.253 97.1138 175C97.1138 173.747 96.9405 172.693 96.5938 171.84C96.2472 170.973 95.7672 170.32 95.1538 169.88C94.5405 169.427 93.8205 169.2 92.9938 169.2C92.1938 169.2 91.4805 169.427 90.8538 169.88C90.2272 170.32 89.7405 170.973 89.3938 171.84C89.0472 172.693 88.8738 173.747 88.8738 175C88.8738 176.253 89.0472 177.313 89.3938 178.18C89.7405 179.033 90.2272 179.687 90.8538 180.14C91.4805 180.58 92.1938 180.8 92.9938 180.8ZM104.876 182.12C103.876 182.12 102.923 181.96 102.016 181.64C101.109 181.307 100.389 180.867 99.856 180.32L100.556 179.18C100.996 179.647 101.596 180.033 102.356 180.34C103.129 180.647 103.963 180.8 104.856 180.8C106.043 180.8 106.943 180.54 107.556 180.02C108.183 179.487 108.496 178.793 108.496 177.94C108.496 177.34 108.349 176.827 108.056 176.4C107.776 175.96 107.296 175.62 106.616 175.38C105.936 175.14 105.003 175.02 103.816 175.02H100.836L101.556 168H109.216V169.28H102.136L102.876 168.58L102.256 174.46L101.516 173.74H104.136C105.549 173.74 106.683 173.913 107.536 174.26C108.389 174.607 109.003 175.093 109.376 175.72C109.763 176.333 109.956 177.053 109.956 177.88C109.956 178.667 109.769 179.387 109.396 180.04C109.023 180.68 108.463 181.187 107.716 181.56C106.969 181.933 106.023 182.12 104.876 182.12ZM113.771 182L119.811 168.64L120.251 169.28H111.591L112.331 168.58V171.9H110.911V168H121.191V169.02L115.331 182H113.771ZM122.628 182V180.98L128.448 175.28C128.981 174.76 129.381 174.307 129.648 173.92C129.915 173.52 130.095 173.147 130.188 172.8C130.281 172.453 130.328 172.127 130.328 171.82C130.328 171.007 130.048 170.367 129.488 169.9C128.941 169.433 128.128 169.2 127.048 169.2C126.221 169.2 125.488 169.327 124.848 169.58C124.221 169.833 123.681 170.227 123.228 170.76L122.208 169.88C122.755 169.24 123.455 168.747 124.308 168.4C125.161 168.053 126.115 167.88 127.168 167.88C128.115 167.88 128.935 168.033 129.628 168.34C130.321 168.633 130.855 169.067 131.228 169.64C131.615 170.213 131.808 170.887 131.808 171.66C131.808 172.113 131.741 172.56 131.608 173C131.488 173.44 131.261 173.907 130.928 174.4C130.608 174.88 130.135 175.427 129.508 176.04L124.168 181.28L123.768 180.72H132.448V182H122.628ZM136.615 174.26H144.015V175.52H136.615V174.26ZM136.775 180.72H145.195V182H135.295V168H144.895V169.28H136.775V180.72Z" fill="white"/>
<path d="M387.207 182L388.927 168H390.007L388.287 182H387.207ZM379.627 178.2V177.1H391.727V178.2H379.627ZM382.007 182L383.727 168H384.827L383.087 182H382.007ZM380.267 172.9V171.8H392.367V172.9H380.267ZM393.553 182V180.98L399.373 175.28C399.906 174.76 400.306 174.307 400.573 173.92C400.84 173.52 401.02 173.147 401.113 172.8C401.206 172.453 401.253 172.127 401.253 171.82C401.253 171.007 400.973 170.367 400.413 169.9C399.866 169.433 399.053 169.2 397.973 169.2C397.146 169.2 396.413 169.327 395.773 169.58C395.146 169.833 394.606 170.227 394.153 170.76L393.133 169.88C393.68 169.24 394.38 168.747 395.233 168.4C396.086 168.053 397.04 167.88 398.093 167.88C399.04 167.88 399.86 168.033 400.553 168.34C401.246 168.633 401.78 169.067 402.153 169.64C402.54 170.213 402.733 170.887 402.733 171.66C402.733 172.113 402.666 172.56 402.533 173C402.413 173.44 402.186 173.907 401.853 174.4C401.533 174.88 401.06 175.427 400.433 176.04L395.093 181.28L394.693 180.72H403.373V182H393.553ZM407.54 174.26H414.94V175.52H407.54V174.26ZM407.7 180.72H416.12V182H406.22V168H415.82V169.28H407.7V180.72ZM420.463 182L426.503 168.64L426.943 169.28H418.283L419.023 168.58V171.9H417.603V168H427.883V169.02L422.023 182H420.463ZM432.14 174.78H439.54V176.06H432.14V174.78ZM432.3 182H430.82V168H440.42V169.28H432.3V182ZM447.503 182.12C446.263 182.12 445.216 181.847 444.363 181.3C443.51 180.74 442.863 179.94 442.423 178.9C441.983 177.847 441.763 176.587 441.763 175.12C441.763 173.533 442.03 172.207 442.563 171.14C443.11 170.06 443.863 169.247 444.823 168.7C445.783 168.153 446.896 167.88 448.163 167.88C448.79 167.88 449.39 167.94 449.963 168.06C450.536 168.18 451.043 168.373 451.483 168.64L450.903 169.8C450.543 169.56 450.13 169.393 449.663 169.3C449.196 169.193 448.703 169.14 448.183 169.14C446.676 169.14 445.47 169.62 444.563 170.58C443.67 171.54 443.223 172.973 443.223 174.88C443.223 175.173 443.236 175.54 443.263 175.98C443.303 176.407 443.383 176.833 443.503 177.26L443.003 176.88C443.15 176.187 443.436 175.6 443.863 175.12C444.29 174.627 444.823 174.253 445.463 174C446.103 173.747 446.803 173.62 447.563 173.62C448.496 173.62 449.316 173.793 450.023 174.14C450.73 174.487 451.283 174.973 451.683 175.6C452.083 176.227 452.283 176.967 452.283 177.82C452.283 178.687 452.076 179.447 451.663 180.1C451.25 180.74 450.676 181.24 449.943 181.6C449.223 181.947 448.41 182.12 447.503 182.12ZM447.443 180.9C448.11 180.9 448.696 180.78 449.203 180.54C449.723 180.287 450.13 179.933 450.423 179.48C450.716 179.013 450.863 178.473 450.863 177.86C450.863 176.94 450.543 176.207 449.903 175.66C449.276 175.113 448.423 174.84 447.343 174.84C446.623 174.84 445.996 174.973 445.463 175.24C444.93 175.507 444.51 175.873 444.203 176.34C443.896 176.793 443.743 177.313 443.743 177.9C443.743 178.407 443.883 178.893 444.163 179.36C444.443 179.813 444.856 180.187 445.403 180.48C445.963 180.76 446.643 180.9 447.443 180.9ZM459.331 182.12C458.251 182.12 457.291 181.84 456.451 181.28C455.611 180.707 454.951 179.893 454.471 178.84C453.991 177.773 453.751 176.493 453.751 175C453.751 173.507 453.991 172.233 454.471 171.18C454.951 170.113 455.611 169.3 456.451 168.74C457.291 168.167 458.251 167.88 459.331 167.88C460.411 167.88 461.371 168.167 462.211 168.74C463.051 169.3 463.711 170.113 464.191 171.18C464.684 172.233 464.931 173.507 464.931 175C464.931 176.493 464.684 177.773 464.191 178.84C463.711 179.893 463.051 180.707 462.211 181.28C461.371 181.84 460.411 182.12 459.331 182.12ZM459.331 180.8C460.157 180.8 460.877 180.58 461.491 180.14C462.104 179.687 462.584 179.033 462.931 178.18C463.277 177.313 463.451 176.253 463.451 175C463.451 173.747 463.277 172.693 462.931 171.84C462.584 170.973 462.104 170.32 461.491 169.88C460.877 169.427 460.157 169.2 459.331 169.2C458.531 169.2 457.817 169.427 457.191 169.88C456.564 170.32 456.077 170.973 455.731 171.84C455.384 172.693 455.211 173.747 455.211 175C455.211 176.253 455.384 177.313 455.731 178.18C456.077 179.033 456.564 179.687 457.191 180.14C457.817 180.58 458.531 180.8 459.331 180.8Z" fill="white"/>
<path d="M649.24 182L650.96 168H652.04L650.32 182H649.24ZM641.66 178.2V177.1H653.76V178.2H641.66ZM644.04 182L645.76 168H646.86L645.12 182H644.04ZM642.3 172.9V171.8H654.4V172.9H642.3ZM661.426 182.12C660.346 182.12 659.386 181.84 658.546 181.28C657.706 180.707 657.046 179.893 656.566 178.84C656.086 177.773 655.846 176.493 655.846 175C655.846 173.507 656.086 172.233 656.566 171.18C657.046 170.113 657.706 169.3 658.546 168.74C659.386 168.167 660.346 167.88 661.426 167.88C662.506 167.88 663.466 168.167 664.306 168.74C665.146 169.3 665.806 170.113 666.286 171.18C666.78 172.233 667.026 173.507 667.026 175C667.026 176.493 666.78 177.773 666.286 178.84C665.806 179.893 665.146 180.707 664.306 181.28C663.466 181.84 662.506 182.12 661.426 182.12ZM661.426 180.8C662.253 180.8 662.973 180.58 663.586 180.14C664.2 179.687 664.68 179.033 665.026 178.18C665.373 177.313 665.546 176.253 665.546 175C665.546 173.747 665.373 172.693 665.026 171.84C664.68 170.973 664.2 170.32 663.586 169.88C662.973 169.427 662.253 169.2 661.426 169.2C660.626 169.2 659.913 169.427 659.286 169.88C658.66 170.32 658.173 170.973 657.826 171.84C657.48 172.693 657.306 173.747 657.306 175C657.306 176.253 657.48 177.313 657.826 178.18C658.173 179.033 658.66 179.687 659.286 180.14C659.913 180.58 660.626 180.8 661.426 180.8ZM668.648 178.32V177.28L676.068 168H677.668L670.308 177.28L669.528 177.04H680.788V178.32H668.648ZM676.548 182V178.32L676.588 177.04V173.8H677.988V182H676.548ZM689.426 182.12C688.373 182.12 687.4 181.947 686.506 181.6C685.613 181.24 684.84 180.74 684.186 180.1C683.533 179.46 683.02 178.707 682.646 177.84C682.286 176.973 682.106 176.027 682.106 175C682.106 173.973 682.286 173.027 682.646 172.16C683.02 171.293 683.533 170.54 684.186 169.9C684.853 169.26 685.633 168.767 686.526 168.42C687.42 168.06 688.393 167.88 689.446 167.88C690.46 167.88 691.413 168.053 692.306 168.4C693.2 168.733 693.953 169.24 694.566 169.92L693.626 170.86C693.053 170.273 692.42 169.853 691.726 169.6C691.033 169.333 690.286 169.2 689.486 169.2C688.646 169.2 687.866 169.347 687.146 169.64C686.426 169.92 685.8 170.327 685.266 170.86C684.733 171.38 684.313 171.993 684.006 172.7C683.713 173.393 683.566 174.16 683.566 175C683.566 175.84 683.713 176.613 684.006 177.32C684.313 178.013 684.733 178.627 685.266 179.16C685.8 179.68 686.426 180.087 687.146 180.38C687.866 180.66 688.646 180.8 689.486 180.8C690.286 180.8 691.033 180.667 691.726 180.4C692.42 180.133 693.053 179.707 693.626 179.12L694.566 180.06C693.953 180.74 693.2 181.253 692.306 181.6C691.413 181.947 690.453 182.12 689.426 182.12ZM703.308 182.12C702.255 182.12 701.282 181.947 700.388 181.6C699.495 181.24 698.722 180.74 698.068 180.1C697.415 179.46 696.902 178.707 696.528 177.84C696.168 176.973 695.988 176.027 695.988 175C695.988 173.973 696.168 173.027 696.528 172.16C696.902 171.293 697.415 170.54 698.068 169.9C698.735 169.26 699.515 168.767 700.408 168.42C701.302 168.06 702.275 167.88 703.328 167.88C704.342 167.88 705.295 168.053 706.188 168.4C707.082 168.733 707.835 169.24 708.448 169.92L707.508 170.86C706.935 170.273 706.302 169.853 705.608 169.6C704.915 169.333 704.168 169.2 703.368 169.2C702.528 169.2 701.748 169.347 701.028 169.64C700.308 169.92 699.682 170.327 699.148 170.86C698.615 171.38 698.195 171.993 697.888 172.7C697.595 173.393 697.448 174.16 697.448 175C697.448 175.84 697.595 176.613 697.888 177.32C698.195 178.013 698.615 178.627 699.148 179.16C699.682 179.68 700.308 180.087 701.028 180.38C701.748 180.66 702.528 180.8 703.368 180.8C704.168 180.8 704.915 180.667 705.608 180.4C706.302 180.133 706.935 179.707 707.508 179.12L708.448 180.06C707.835 180.74 707.082 181.253 706.188 181.6C705.295 181.947 704.335 182.12 703.308 182.12ZM715.275 182.12C714.195 182.12 713.235 181.84 712.395 181.28C711.555 180.707 710.895 179.893 710.415 178.84C709.935 177.773 709.695 176.493 709.695 175C709.695 173.507 709.935 172.233 710.415 171.18C710.895 170.113 711.555 169.3 712.395 168.74C713.235 168.167 714.195 167.88 715.275 167.88C716.355 167.88 717.315 168.167 718.155 168.74C718.995 169.3 719.655 170.113 720.135 171.18C720.628 172.233 720.875 173.507 720.875 175C720.875 176.493 720.628 177.773 720.135 178.84C719.655 179.893 718.995 180.707 718.155 181.28C717.315 181.84 716.355 182.12 715.275 182.12ZM715.275 180.8C716.101 180.8 716.821 180.58 717.435 180.14C718.048 179.687 718.528 179.033 718.875 178.18C719.221 177.313 719.395 176.253 719.395 175C719.395 173.747 719.221 172.693 718.875 171.84C718.528 170.973 718.048 170.32 717.435 169.88C716.821 169.427 716.101 169.2 715.275 169.2C714.475 169.2 713.761 169.427 713.135 169.88C712.508 170.32 712.021 170.973 711.675 171.84C711.328 172.693 711.155 173.747 711.155 175C711.155 176.253 711.328 177.313 711.675 178.18C712.021 179.033 712.508 179.687 713.135 180.14C713.761 180.58 714.475 180.8 715.275 180.8ZM722.497 178.32V177.28L729.917 168H731.517L724.157 177.28L723.377 177.04H734.637V178.32H722.497ZM730.397 182V178.32L730.437 177.04V173.8H731.837V182H730.397Z" fill="white"/>
</svg>
